<svg xmlns="http://www.w3.org/2000/svg" xmlns:xlink="http://www.w3.org/1999/xlink" width="100" zoomAndPan="magnify" viewBox="0 0 75 74.999997" height="100" preserveAspectRatio="xMidYMid meet" version="1.0"><defs><clipPath id="4b8bc37782"><path d="M 19 2.09375 L 56 2.09375 L 56 57 L 19 57 Z M 19 2.09375 " clip-rule="nonzero"/></clipPath><clipPath id="142f3e4665"><path d="M 2.09375 46 L 72.59375 46 L 72.59375 72.59375 L 2.09375 72.59375 Z M 2.09375 46 " clip-rule="nonzero"/></clipPath></defs><g clip-path="url(#4b8bc37782)"><path fill="#ffffff" d="M 40.617188 46.027344 L 40.617188 5.214844 C 40.617188 4.386719 40.296875 3.59375 39.707031 3.003906 C 39.117188 2.433594 38.324219 2.09375 37.496094 2.09375 C 36.671875 2.09375 35.878906 2.433594 35.289062 3.003906 C 34.699219 3.59375 34.378906 4.386719 34.378906 5.214844 L 34.378906 46.027344 C 34.378906 46.027344 28.425781 40.078125 25.105469 36.753906 C 24.515625 36.164062 23.722656 35.84375 22.898438 35.84375 C 22.070312 35.84375 21.28125 36.164062 20.691406 36.753906 C 19.476562 37.96875 19.476562 39.941406 20.691406 41.15625 L 35.40625 55.871094 C 35.964844 56.429688 36.703125 56.734375 37.496094 56.734375 C 38.289062 56.734375 39.03125 56.429688 39.585938 55.871094 L 54.304688 41.15625 C 55.519531 39.941406 55.519531 37.96875 54.304688 36.753906 C 53.714844 36.164062 52.921875 35.84375 52.097656 35.84375 C 51.269531 35.84375 50.476562 36.164062 49.886719 36.753906 C 46.550781 40.078125 40.617188 46.027344 40.617188 46.027344 Z M 40.617188 46.027344 " fill-opacity="1" fill-rule="evenodd"/></g><g clip-path="url(#142f3e4665)"><path fill="#ffffff" d="M 2.09375 67 C 2.09375 68.566406 2.71875 70.066406 3.832031 71.164062 C 4.945312 72.277344 6.445312 72.898438 7.996094 72.898438 L 67 72.898438 C 68.566406 72.898438 70.066406 72.277344 71.164062 71.164062 C 72.277344 70.050781 72.898438 68.550781 72.898438 67 L 72.898438 49.144531 C 72.898438 47.425781 71.5 46.027344 69.78125 46.027344 C 68.953125 46.027344 68.164062 46.363281 67.574219 46.9375 C 66.980469 47.527344 66.660156 48.320312 66.660156 49.144531 L 66.660156 63.730469 C 66.660156 65.363281 65.347656 66.679688 63.710938 66.679688 L 11.28125 66.679688 C 9.648438 66.679688 8.332031 65.363281 8.332031 63.730469 L 8.332031 49.144531 C 8.332031 48.320312 7.996094 47.527344 7.421875 46.9375 C 6.832031 46.347656 6.039062 46.027344 5.214844 46.027344 C 3.496094 46.027344 2.09375 47.425781 2.09375 49.144531 Z M 2.09375 67 " fill-opacity="1" fill-rule="evenodd"/></g></svg>