<svg xmlns="http://www.w3.org/2000/svg" xmlns:xlink="http://www.w3.org/1999/xlink" width="100" zoomAndPan="magnify" viewBox="0 0 75 74.999997" height="100" preserveAspectRatio="xMidYMid meet" version="1.0"><path fill="#ffffff" d="M 37.5 0 C 16.816406 0 0 16.816406 0 37.5 C 0 58.183594 16.816406 75 37.5 75 C 58.183594 75 75 58.183594 75 37.5 C 75 16.816406 58.183594 0 37.5 0 Z M 67.089844 30.117188 C 67.265625 30.878906 67.441406 31.699219 67.558594 32.519531 C 67.675781 33.164062 67.207031 33.75 66.621094 33.867188 C 66.5625 33.867188 66.503906 33.867188 66.445312 33.867188 C 65.859375 33.867188 65.390625 33.457031 65.273438 32.871094 C 65.15625 32.109375 64.980469 31.40625 64.804688 30.644531 C 64.628906 30 65.039062 29.355469 65.683594 29.238281 C 66.269531 29.0625 66.914062 29.472656 67.089844 30.117188 Z M 62.871094 22.734375 C 63.457031 22.441406 64.160156 22.675781 64.453125 23.203125 C 64.804688 23.90625 65.214844 24.667969 65.507812 25.429688 C 65.742188 26.015625 65.507812 26.71875 64.921875 26.953125 C 64.746094 27.011719 64.628906 27.070312 64.453125 27.070312 C 63.984375 27.070312 63.574219 26.777344 63.398438 26.367188 C 63.105469 25.664062 62.753906 24.960938 62.402344 24.316406 C 62.050781 23.789062 62.285156 23.027344 62.871094 22.734375 Z M 53.085938 12.65625 C 53.4375 12.128906 54.199219 12.011719 54.726562 12.363281 C 55.429688 12.832031 56.074219 13.300781 56.71875 13.828125 C 57.246094 14.238281 57.304688 15 56.894531 15.46875 C 56.660156 15.761719 56.308594 15.878906 55.957031 15.878906 C 55.722656 15.878906 55.429688 15.820312 55.195312 15.644531 C 54.609375 15.175781 54.023438 14.707031 53.378906 14.296875 C 52.851562 13.945312 52.734375 13.183594 53.085938 12.65625 Z M 46.699219 9.667969 C 46.933594 9.082031 47.578125 8.730469 48.222656 8.964844 C 48.984375 9.257812 49.746094 9.550781 50.507812 9.902344 C 51.09375 10.195312 51.328125 10.898438 51.09375 11.484375 C 50.917969 11.894531 50.449219 12.128906 50.039062 12.128906 C 49.863281 12.128906 49.6875 12.070312 49.511719 12.011719 C 48.808594 11.71875 48.105469 11.367188 47.402344 11.132812 C 46.757812 10.957031 46.464844 10.253906 46.699219 9.667969 Z M 39.785156 8.261719 C 39.84375 7.617188 40.429688 7.148438 41.074219 7.207031 C 41.894531 7.324219 42.714844 7.441406 43.476562 7.617188 C 44.121094 7.734375 44.53125 8.378906 44.414062 9.023438 C 44.296875 9.609375 43.828125 9.960938 43.242188 9.960938 C 43.183594 9.960938 43.066406 9.960938 43.007812 9.960938 C 42.246094 9.785156 41.542969 9.667969 40.78125 9.609375 C 40.136719 9.492188 39.726562 8.90625 39.785156 8.261719 Z M 33.75 7.265625 C 34.570312 7.148438 35.390625 7.089844 36.210938 7.089844 C 36.855469 7.089844 37.382812 7.558594 37.441406 8.203125 C 37.441406 8.847656 36.972656 9.375 36.328125 9.433594 C 35.566406 9.492188 34.804688 9.550781 34.101562 9.609375 C 34.042969 9.609375 33.984375 9.609375 33.984375 9.609375 C 33.398438 9.609375 32.871094 9.199219 32.8125 8.554688 C 32.636719 7.910156 33.105469 7.324219 33.75 7.265625 Z M 26.601562 9.023438 C 27.363281 8.730469 28.125 8.496094 28.945312 8.261719 C 29.589844 8.085938 30.234375 8.4375 30.410156 9.082031 C 30.585938 9.726562 30.234375 10.371094 29.589844 10.546875 C 28.886719 10.78125 28.125 11.015625 27.421875 11.25 C 27.304688 11.308594 27.128906 11.308594 27.011719 11.308594 C 26.542969 11.308594 26.074219 11.015625 25.898438 10.546875 C 25.722656 9.960938 26.015625 9.257812 26.601562 9.023438 Z M 20.097656 12.480469 C 20.742188 12.011719 21.445312 11.542969 22.148438 11.132812 C 22.734375 10.78125 23.4375 11.015625 23.730469 11.542969 C 24.082031 12.128906 23.847656 12.832031 23.320312 13.125 C 22.675781 13.476562 22.03125 13.886719 21.386719 14.355469 C 21.210938 14.472656 20.976562 14.589844 20.742188 14.589844 C 20.390625 14.589844 19.980469 14.414062 19.804688 14.0625 C 19.453125 13.59375 19.570312 12.832031 20.097656 12.480469 Z M 14.648438 17.34375 C 15.175781 16.757812 15.761719 16.113281 16.347656 15.585938 C 16.816406 15.117188 17.578125 15.175781 17.988281 15.644531 C 18.457031 16.113281 18.398438 16.875 17.929688 17.285156 C 17.402344 17.8125 16.875 18.339844 16.347656 18.925781 C 16.113281 19.160156 15.820312 19.335938 15.46875 19.335938 C 15.175781 19.335938 14.941406 19.21875 14.707031 19.042969 C 14.238281 18.574219 14.238281 17.8125 14.648438 17.34375 Z M 10.488281 23.378906 C 10.839844 22.675781 11.25 21.914062 11.71875 21.269531 C 12.070312 20.742188 12.773438 20.566406 13.359375 20.917969 C 13.886719 21.269531 14.0625 21.972656 13.710938 22.558594 C 13.300781 23.203125 12.949219 23.847656 12.597656 24.492188 C 12.363281 24.902344 11.953125 25.136719 11.542969 25.136719 C 11.367188 25.136719 11.191406 25.078125 11.015625 25.019531 C 10.429688 24.667969 10.195312 23.964844 10.488281 23.378906 Z M 7.910156 30.292969 C 8.085938 29.472656 8.320312 28.710938 8.613281 27.949219 C 8.789062 27.363281 9.492188 27.011719 10.078125 27.1875 C 10.664062 27.363281 11.015625 28.066406 10.839844 28.652344 C 10.605469 29.355469 10.371094 30.117188 10.195312 30.820312 C 10.078125 31.347656 9.609375 31.699219 9.082031 31.699219 C 8.964844 31.699219 8.90625 31.699219 8.789062 31.640625 C 8.144531 31.523438 7.734375 30.878906 7.910156 30.292969 Z M 7.03125 37.558594 L 7.03125 37.441406 C 7.03125 36.679688 7.089844 35.859375 7.148438 35.097656 C 7.207031 34.453125 7.734375 33.984375 8.378906 34.042969 C 9.023438 34.101562 9.492188 34.628906 9.433594 35.273438 C 9.375 36.035156 9.375 36.738281 9.375 37.5 C 9.375 38.144531 8.847656 38.730469 8.203125 38.730469 C 7.558594 38.730469 7.03125 38.203125 7.03125 37.558594 Z M 9.082031 45.761719 C 8.554688 45.761719 8.085938 45.410156 7.96875 44.882812 C 7.792969 44.0625 7.617188 43.300781 7.5 42.480469 C 7.382812 41.835938 7.851562 41.25 8.496094 41.132812 C 9.140625 41.015625 9.726562 41.484375 9.84375 42.128906 C 9.960938 42.890625 10.136719 43.59375 10.3125 44.355469 C 10.488281 45 10.078125 45.644531 9.433594 45.761719 C 9.257812 45.703125 9.140625 45.761719 9.082031 45.761719 Z M 12.128906 52.207031 C 11.953125 52.324219 11.777344 52.324219 11.601562 52.324219 C 11.191406 52.324219 10.78125 52.089844 10.546875 51.679688 C 10.195312 50.976562 9.785156 50.214844 9.492188 49.453125 C 9.257812 48.867188 9.492188 48.164062 10.078125 47.929688 C 10.664062 47.695312 11.367188 47.929688 11.601562 48.515625 C 11.894531 49.21875 12.246094 49.921875 12.597656 50.566406 C 12.890625 51.210938 12.714844 51.914062 12.128906 52.207031 Z M 16.40625 57.832031 C 16.171875 58.007812 15.878906 58.125 15.644531 58.125 C 15.292969 58.125 15 58.007812 14.765625 57.714844 C 14.238281 57.128906 13.710938 56.484375 13.183594 55.839844 C 12.773438 55.3125 12.890625 54.609375 13.417969 54.199219 C 13.945312 53.789062 14.648438 53.90625 15.058594 54.433594 C 15.527344 55.019531 15.996094 55.605469 16.464844 56.191406 C 16.875 56.660156 16.875 57.421875 16.40625 57.832031 Z M 21.855469 62.285156 C 21.621094 62.636719 21.269531 62.8125 20.917969 62.8125 C 20.683594 62.8125 20.449219 62.753906 20.273438 62.578125 C 19.628906 62.109375 18.925781 61.640625 18.339844 61.113281 C 17.8125 60.703125 17.753906 59.941406 18.164062 59.472656 C 18.574219 58.945312 19.335938 58.886719 19.804688 59.296875 C 20.390625 59.765625 20.976562 60.234375 21.621094 60.644531 C 22.089844 61.054688 22.207031 61.757812 21.855469 62.285156 Z M 28.242188 65.332031 C 28.066406 65.800781 27.597656 66.09375 27.128906 66.09375 C 27.011719 66.09375 26.835938 66.09375 26.71875 66.035156 C 25.957031 65.742188 25.195312 65.449219 24.433594 65.097656 C 23.847656 64.804688 23.613281 64.101562 23.847656 63.515625 C 24.140625 62.929688 24.84375 62.695312 25.429688 62.929688 C 26.132812 63.28125 26.835938 63.574219 27.539062 63.808594 C 28.183594 64.042969 28.476562 64.746094 28.242188 65.332031 Z M 35.15625 66.738281 C 35.097656 67.324219 34.570312 67.792969 33.984375 67.792969 C 33.925781 67.792969 33.867188 67.792969 33.867188 67.792969 C 33.046875 67.675781 32.226562 67.558594 31.464844 67.382812 C 30.820312 67.265625 30.410156 66.621094 30.527344 65.976562 C 30.644531 65.332031 31.289062 64.921875 31.933594 65.039062 C 32.695312 65.214844 33.398438 65.332031 34.160156 65.390625 C 34.804688 65.507812 35.214844 66.09375 35.15625 66.738281 Z M 41.191406 67.734375 C 40.371094 67.851562 39.550781 67.910156 38.730469 67.910156 C 38.730469 67.910156 38.671875 67.910156 38.671875 67.910156 C 38.027344 67.910156 37.5 67.441406 37.5 66.796875 C 37.5 66.152344 37.96875 65.625 38.613281 65.566406 C 39.375 65.507812 40.136719 65.449219 40.898438 65.390625 C 41.542969 65.332031 42.128906 65.742188 42.1875 66.386719 C 42.304688 67.089844 41.835938 67.675781 41.191406 67.734375 Z M 48.339844 65.976562 C 47.578125 66.269531 46.816406 66.503906 45.996094 66.738281 C 45.878906 66.796875 45.761719 66.796875 45.644531 66.796875 C 45.117188 66.796875 44.648438 66.445312 44.53125 65.976562 C 44.355469 65.332031 44.707031 64.6875 45.351562 64.511719 C 46.054688 64.277344 46.816406 64.042969 47.519531 63.808594 C 48.105469 63.574219 48.808594 63.867188 49.042969 64.511719 C 49.21875 65.097656 48.925781 65.742188 48.339844 65.976562 Z M 48.574219 54.199219 C 47.753906 54.199219 47.050781 53.90625 46.464844 53.320312 C 46.347656 53.203125 46.230469 53.144531 46.054688 53.144531 C 45.9375 53.144531 45.878906 53.144531 45.761719 53.203125 C 44.824219 53.730469 43.769531 54.140625 42.773438 54.433594 C 42.539062 54.492188 42.363281 54.726562 42.363281 55.019531 C 42.363281 56.660156 41.015625 58.007812 39.375 58.007812 L 35.683594 58.007812 C 34.042969 58.007812 32.695312 56.660156 32.695312 55.019531 C 32.695312 54.785156 32.519531 54.550781 32.285156 54.433594 C 31.230469 54.140625 30.234375 53.671875 29.296875 53.203125 C 29.238281 53.144531 29.121094 53.144531 29.003906 53.144531 C 28.828125 53.144531 28.710938 53.203125 28.59375 53.320312 C 28.007812 53.847656 27.304688 54.199219 26.484375 54.199219 C 25.664062 54.199219 24.902344 53.90625 24.375 53.320312 L 21.679688 50.683594 C 20.507812 49.511719 20.507812 47.578125 21.679688 46.40625 C 21.855469 46.230469 21.914062 45.9375 21.796875 45.703125 C 21.269531 44.765625 20.859375 43.710938 20.566406 42.714844 C 20.507812 42.480469 20.273438 42.304688 19.980469 42.304688 C 18.339844 42.304688 16.992188 40.957031 16.992188 39.316406 L 16.992188 35.625 C 16.992188 33.984375 18.339844 32.636719 19.980469 32.636719 C 20.214844 32.636719 20.449219 32.460938 20.566406 32.226562 C 20.859375 31.171875 21.328125 30.175781 21.796875 29.238281 C 21.914062 29.003906 21.855469 28.710938 21.679688 28.535156 C 21.152344 27.949219 20.800781 27.246094 20.800781 26.425781 C 20.800781 25.605469 21.09375 24.84375 21.679688 24.316406 L 24.257812 21.738281 C 24.84375 21.152344 25.605469 20.859375 26.367188 20.859375 C 27.1875 20.859375 27.890625 21.152344 28.476562 21.738281 C 28.59375 21.855469 28.710938 21.914062 28.886719 21.914062 C 29.003906 21.914062 29.0625 21.914062 29.179688 21.855469 C 30.117188 21.328125 31.171875 20.917969 32.167969 20.625 C 32.402344 20.566406 32.578125 20.332031 32.578125 20.039062 C 32.578125 18.398438 33.925781 17.050781 35.566406 17.050781 L 39.257812 17.050781 C 40.898438 17.050781 42.246094 18.398438 42.246094 20.039062 C 42.246094 20.273438 42.421875 20.507812 42.65625 20.625 C 43.710938 20.917969 44.707031 21.386719 45.644531 21.855469 C 45.703125 21.914062 45.820312 21.914062 45.9375 21.914062 C 46.113281 21.914062 46.230469 21.855469 46.347656 21.738281 C 46.933594 21.210938 47.636719 20.859375 48.457031 20.859375 C 49.277344 20.859375 50.039062 21.152344 50.566406 21.738281 L 53.144531 24.316406 C 53.730469 24.902344 54.023438 25.664062 54.023438 26.425781 C 54.023438 27.246094 53.730469 27.949219 53.144531 28.535156 C 52.96875 28.710938 52.910156 29.003906 53.027344 29.238281 C 53.554688 30.175781 53.964844 31.230469 54.257812 32.226562 C 54.316406 32.460938 54.550781 32.636719 54.84375 32.636719 C 56.484375 32.636719 57.832031 33.984375 57.832031 35.625 L 57.832031 39.316406 C 57.832031 40.957031 56.484375 42.304688 54.84375 42.304688 C 54.609375 42.304688 54.375 42.480469 54.257812 42.714844 C 53.964844 43.769531 53.496094 44.765625 53.027344 45.703125 C 52.910156 45.9375 52.96875 46.230469 53.144531 46.40625 C 54.316406 47.578125 54.316406 49.511719 53.144531 50.683594 L 50.683594 53.320312 C 50.15625 53.847656 49.394531 54.199219 48.574219 54.199219 Z M 54.84375 62.578125 C 54.199219 63.046875 53.496094 63.457031 52.792969 63.867188 C 52.617188 63.984375 52.382812 64.042969 52.207031 64.042969 C 51.796875 64.042969 51.386719 63.808594 51.210938 63.457031 C 50.859375 62.871094 51.09375 62.167969 51.621094 61.875 C 52.265625 61.523438 52.910156 61.113281 53.554688 60.644531 C 54.082031 60.292969 54.84375 60.410156 55.195312 60.9375 C 55.488281 61.464844 55.371094 62.226562 54.84375 62.578125 Z M 60.292969 57.714844 C 59.765625 58.300781 59.179688 58.945312 58.59375 59.472656 C 58.359375 59.707031 58.066406 59.824219 57.773438 59.824219 C 57.480469 59.824219 57.1875 59.707031 56.953125 59.472656 C 56.484375 59.003906 56.542969 58.242188 57.011719 57.832031 C 57.539062 57.304688 58.066406 56.777344 58.59375 56.191406 C 59.003906 55.722656 59.765625 55.664062 60.234375 56.074219 C 60.703125 56.484375 60.761719 57.1875 60.292969 57.714844 Z M 59.941406 20.507812 C 59.472656 19.921875 59.003906 19.335938 58.476562 18.75 C 58.066406 18.28125 58.066406 17.519531 58.59375 17.109375 C 59.0625 16.699219 59.824219 16.699219 60.234375 17.226562 C 60.761719 17.8125 61.289062 18.457031 61.816406 19.101562 C 62.226562 19.628906 62.109375 20.332031 61.582031 20.742188 C 61.347656 20.917969 61.113281 20.976562 60.878906 20.976562 C 60.527344 20.976562 60.175781 20.800781 59.941406 20.507812 Z M 64.511719 51.679688 C 64.160156 52.382812 63.691406 53.085938 63.28125 53.789062 C 63.046875 54.140625 62.695312 54.316406 62.285156 54.316406 C 62.050781 54.316406 61.875 54.257812 61.640625 54.140625 C 61.113281 53.789062 60.9375 53.085938 61.289062 52.5 C 61.699219 51.855469 62.050781 51.210938 62.402344 50.566406 C 62.695312 49.980469 63.398438 49.746094 63.984375 50.097656 C 64.570312 50.390625 64.804688 51.09375 64.511719 51.679688 Z M 67.089844 44.765625 C 66.914062 45.585938 66.679688 46.347656 66.386719 47.109375 C 66.210938 47.578125 65.742188 47.929688 65.273438 47.929688 C 65.15625 47.929688 65.039062 47.929688 64.921875 47.871094 C 64.335938 47.695312 63.984375 46.992188 64.160156 46.40625 C 64.394531 45.703125 64.628906 44.941406 64.804688 44.238281 C 64.980469 43.59375 65.566406 43.242188 66.210938 43.359375 C 66.855469 43.535156 67.265625 44.179688 67.089844 44.765625 Z M 66.679688 41.015625 C 66.621094 41.015625 66.621094 41.015625 66.5625 41.015625 C 65.917969 40.957031 65.449219 40.371094 65.507812 39.726562 C 65.566406 38.964844 65.625 38.203125 65.625 37.441406 L 65.625 37.324219 C 65.625 36.679688 66.152344 36.152344 66.796875 36.152344 C 67.441406 36.152344 67.96875 36.679688 67.96875 37.324219 L 67.96875 37.441406 C 67.96875 38.261719 67.910156 39.082031 67.851562 39.902344 C 67.851562 40.546875 67.324219 41.015625 66.679688 41.015625 Z M 66.679688 41.015625 " fill-opacity="1" fill-rule="nonzero"/><path fill="#ffffff" d="M 40.957031 42.480469 C 40.078125 43.417969 38.964844 43.886719 37.734375 43.945312 C 37.734375 43.945312 37.675781 43.945312 37.675781 43.945312 C 36.445312 43.945312 35.332031 43.476562 34.453125 42.597656 L 31.464844 39.550781 C 30.820312 38.90625 30.46875 37.96875 30.46875 37.03125 C 30.46875 36.09375 30.878906 35.214844 31.523438 34.570312 C 32.929688 33.222656 35.15625 33.222656 36.503906 34.628906 L 37.617188 35.800781 L 44.0625 28.945312 C 42.246094 27.539062 39.960938 26.71875 37.5 26.71875 C 31.523438 26.71875 26.660156 31.582031 26.660156 37.558594 C 26.660156 43.535156 31.523438 48.339844 37.5 48.339844 C 43.476562 48.339844 48.339844 43.476562 48.339844 37.5 C 48.339844 36.621094 48.222656 35.800781 48.046875 34.980469 Z M 40.957031 42.480469 " fill-opacity="1" fill-rule="nonzero"/><path fill="#ffffff" d="M 34.804688 36.269531 C 34.335938 35.800781 33.632812 35.800781 33.164062 36.269531 C 32.695312 36.738281 32.695312 37.441406 33.164062 37.910156 L 36.152344 40.957031 C 36.5625 41.367188 37.148438 41.601562 37.734375 41.601562 C 38.320312 41.601562 38.90625 41.367188 39.316406 40.898438 L 47.753906 31.875 C 48.222656 31.40625 48.164062 30.644531 47.695312 30.234375 C 47.226562 29.824219 46.464844 29.824219 46.054688 30.292969 L 37.675781 39.199219 Z M 34.804688 36.269531 " fill-opacity="1" fill-rule="nonzero"/></svg>