<svg xmlns="http://www.w3.org/2000/svg" xmlns:xlink="http://www.w3.org/1999/xlink" width="100" zoomAndPan="magnify" viewBox="0 0 75 74.999997" height="100" preserveAspectRatio="xMidYMid meet" version="1.0"><defs><clipPath id="f42aa77567"><path d="M 0 3.890625 L 75 3.890625 L 75 71 L 0 71 Z M 0 3.890625 " clip-rule="nonzero"/></clipPath></defs><g clip-path="url(#f42aa77567)"><path fill="#ffffff" d="M 7.757812 34.605469 L 1.203125 34.605469 C 0.539062 34.605469 0 34.066406 0 33.402344 C 0 32.734375 0.539062 32.195312 1.203125 32.195312 L 7.355469 32.195312 C 7.25 31.28125 7.195312 30.347656 7.195312 29.402344 C 7.195312 16.125 17.957031 5.363281 31.234375 5.363281 C 36.035156 5.363281 40.503906 6.769531 44.257812 9.195312 L 49.179688 4.273438 C 49.40625 4.046875 49.710938 3.917969 50.03125 3.917969 L 66.980469 3.917969 C 67.644531 3.917969 68.183594 4.457031 68.183594 5.125 C 68.183594 5.789062 67.644531 6.328125 66.980469 6.328125 L 50.53125 6.328125 L 46.238281 10.621094 C 51.304688 14.671875 54.695312 20.730469 55.207031 27.59375 L 64.476562 27.507812 C 64.113281 26.96875 64.242188 26.234375 64.769531 25.855469 C 65.308594 25.464844 66.0625 25.585938 66.449219 26.125 L 67.792969 27.984375 C 68.097656 28.40625 68.097656 28.972656 67.792969 29.394531 L 66.449219 31.253906 C 66.0625 31.792969 65.308594 31.914062 64.769531 31.523438 C 64.253906 31.152344 64.121094 30.449219 64.449219 29.914062 L 55.265625 30.003906 C 55.15625 34.535156 53.789062 38.757812 51.503906 42.332031 L 57.15625 47.820312 C 58.398438 47.070312 60.046875 47.21875 61.136719 48.269531 L 73.675781 60.441406 C 74.96875 61.691406 75.003906 63.773438 73.742188 65.078125 L 69.214844 69.742188 C 67.964844 71.035156 65.882812 71.066406 64.582031 69.816406 C 64.578125 69.816406 64.578125 69.816406 64.574219 69.8125 C 64.574219 69.8125 52.042969 57.644531 52.042969 57.644531 C 50.949219 56.589844 50.753906 54.945312 51.464844 53.679688 L 46 48.375 C 41.925781 51.550781 36.800781 53.441406 31.234375 53.441406 C 19.742188 53.441406 10.136719 45.382812 7.757812 34.605469 Z M 42.511719 10.941406 C 39.226562 8.929688 35.367188 7.773438 31.234375 7.773438 C 19.285156 7.773438 9.601562 17.457031 9.601562 29.402344 C 9.601562 41.351562 19.285156 51.035156 31.234375 51.035156 C 43.179688 51.035156 52.863281 41.351562 52.863281 29.402344 C 52.863281 22.464844 49.601562 16.292969 44.523438 12.335938 L 42.441406 14.414062 C 47 17.828125 49.949219 23.273438 49.949219 29.402344 C 49.949219 39.738281 41.570312 48.117188 31.234375 48.117188 C 20.898438 48.117188 12.519531 39.738281 12.519531 29.402344 C 12.519531 19.066406 20.898438 10.691406 31.234375 10.691406 C 34.554688 10.691406 37.675781 11.554688 40.378906 13.070312 Z M 50.089844 44.316406 C 49.394531 45.195312 48.640625 46.023438 47.832031 46.796875 L 53.066406 51.875 L 55.398438 49.472656 Z M 38.597656 14.851562 C 36.386719 13.730469 33.882812 13.097656 31.234375 13.097656 C 22.230469 13.097656 14.929688 20.398438 14.929688 29.402344 C 14.929688 30.355469 15.011719 31.289062 15.167969 32.195312 L 19.902344 32.195312 L 24.503906 22.363281 C 23.675781 21.613281 23.15625 20.53125 23.15625 19.328125 C 23.15625 17.066406 24.992188 15.234375 27.253906 15.234375 C 29.511719 15.234375 31.347656 17.066406 31.347656 19.328125 C 31.347656 20.863281 30.496094 22.207031 29.242188 22.90625 L 31.597656 33.972656 C 31.601562 33.972656 31.605469 33.972656 31.609375 33.972656 L 36.21875 22.761719 C 36.390625 22.34375 36.777344 22.058594 37.226562 22.019531 C 37.671875 21.980469 38.105469 22.1875 38.347656 22.566406 L 41.589844 27.605469 L 47.441406 27.605469 C 46.921875 22.882812 44.390625 18.769531 40.71875 16.140625 L 37.699219 19.15625 C 37.230469 19.625 36.46875 19.625 35.996094 19.15625 C 35.527344 18.6875 35.527344 17.921875 35.996094 17.453125 Z M 15.777344 34.605469 C 17.945312 41.058594 24.046875 45.707031 31.234375 45.707031 C 40.035156 45.707031 47.207031 38.734375 47.527344 30.011719 L 40.933594 30.011719 C 40.523438 30.011719 40.140625 29.804688 39.917969 29.460938 L 37.570312 25.8125 L 33.835938 34.890625 C 34.746094 35.640625 35.328125 36.777344 35.328125 38.050781 C 35.328125 40.308594 33.492188 42.144531 31.234375 42.144531 C 28.972656 42.144531 27.140625 40.308594 27.140625 38.050781 C 27.140625 36.511719 27.988281 35.171875 29.242188 34.472656 L 26.886719 23.40625 C 26.820312 23.402344 26.75 23.394531 26.683594 23.382812 L 21.757812 33.910156 C 21.558594 34.335938 21.132812 34.605469 20.667969 34.605469 Z M 67.488281 68.066406 L 72.011719 63.402344 C 72.347656 63.054688 72.34375 62.503906 72 62.171875 L 72 62.167969 L 59.460938 50 C 59.117188 49.667969 58.558594 49.671875 58.226562 50.015625 L 58.226562 50.019531 L 53.699219 54.679688 C 53.699219 54.683594 53.699219 54.683594 53.695312 54.683594 C 53.363281 55.027344 53.371094 55.578125 53.714844 55.910156 C 53.714844 55.910156 53.71875 55.914062 53.71875 55.914062 C 53.71875 55.914062 66.25 68.082031 66.253906 68.085938 C 66.601562 68.414062 67.152344 68.410156 67.484375 68.066406 Z M 31.234375 36.363281 C 30.304688 36.363281 29.546875 37.117188 29.546875 38.050781 C 29.546875 38.980469 30.304688 39.734375 31.234375 39.734375 C 32.164062 39.734375 32.917969 38.980469 32.917969 38.050781 C 32.917969 37.117188 32.164062 36.363281 31.234375 36.363281 Z M 27.253906 17.640625 C 26.320312 17.640625 25.566406 18.398438 25.566406 19.328125 C 25.566406 20.257812 26.320312 21.015625 27.253906 21.015625 C 28.183594 21.015625 28.9375 20.257812 28.9375 19.328125 C 28.9375 18.398438 28.183594 17.640625 27.253906 17.640625 Z M 66.980469 7.96875 C 67.644531 7.96875 68.183594 8.507812 68.183594 9.171875 C 68.183594 9.835938 67.644531 10.375 66.980469 10.375 L 58.9375 10.375 C 58.273438 10.375 57.734375 9.835938 57.734375 9.171875 C 57.734375 8.507812 58.273438 7.96875 58.9375 7.96875 Z M 66.980469 12.03125 C 67.644531 12.03125 68.183594 12.570312 68.183594 13.234375 C 68.183594 13.902344 67.644531 14.441406 66.980469 14.441406 L 53.601562 14.441406 C 52.9375 14.441406 52.394531 13.902344 52.394531 13.234375 C 52.394531 12.570312 52.9375 12.03125 53.601562 12.03125 Z M 66.980469 12.03125 " fill-opacity="1" fill-rule="evenodd"/></g></svg>