<svg xmlns="http://www.w3.org/2000/svg" xmlns:xlink="http://www.w3.org/1999/xlink" width="100" zoomAndPan="magnify" viewBox="0 0 75 74.999997" height="100" preserveAspectRatio="xMidYMid meet" version="1.0"><defs><clipPath id="7945fd8f78"><path d="M 12.824219 26.679688 L 62.324219 26.679688 L 62.324219 62.679688 L 12.824219 62.679688 Z M 12.824219 26.679688 " clip-rule="nonzero"/></clipPath><clipPath id="030b1b4503"><path d="M 0 12.5625 L 18.75 12.5625 L 18.75 31.3125 L 0 31.3125 Z M 0 12.5625 " clip-rule="nonzero"/></clipPath><clipPath id="32d0e922e9"><path d="M 56.433594 12.5625 L 74.996094 12.5625 L 74.996094 31.128906 L 56.433594 31.128906 Z M 56.433594 12.5625 " clip-rule="nonzero"/></clipPath></defs><g clip-path="url(#7945fd8f78)"><path fill="#ffffff" d="M 62.1875 27.449219 C 62.078125 27.28125 61.914062 27.171875 61.75 27.171875 L 52.316406 26.679688 C 52.042969 26.679688 51.769531 26.898438 51.769531 27.171875 C 51.769531 27.28125 51.769531 27.339844 51.824219 27.449219 L 53.25 30.191406 C 51.441406 30.847656 49.6875 31.617188 47.984375 32.546875 C 42.503906 35.5625 38.9375 39.675781 37.566406 44.667969 C 36.195312 39.675781 32.632812 35.5625 27.148438 32.546875 C 25.449219 31.617188 23.691406 30.847656 21.882812 30.246094 L 23.308594 27.503906 C 23.417969 27.226562 23.363281 26.898438 23.089844 26.789062 C 22.980469 26.679688 22.925781 26.679688 22.816406 26.679688 L 13.382812 27.171875 C 13.109375 27.171875 12.835938 27.449219 12.890625 27.722656 C 12.890625 27.832031 12.945312 27.886719 13 27.996094 L 18.101562 35.835938 C 18.210938 36.003906 18.375 36.058594 18.539062 36.058594 C 18.703125 36.058594 18.921875 35.949219 18.976562 35.78125 L 20.894531 32.109375 C 22.707031 32.710938 24.460938 33.480469 26.160156 34.410156 C 32.796875 38.03125 36.140625 43.1875 36.140625 49.710938 L 36.140625 62.433594 L 38.9375 62.433594 L 38.9375 49.710938 C 38.9375 43.1875 42.28125 38.03125 48.917969 34.410156 C 50.617188 33.480469 52.371094 32.710938 54.183594 32.109375 L 56.101562 35.78125 C 56.210938 35.949219 56.375 36.058594 56.539062 36.058594 C 56.707031 36.058594 56.871094 35.949219 56.980469 35.835938 L 62.078125 27.996094 C 62.242188 27.832031 62.296875 27.613281 62.1875 27.449219 Z M 62.1875 27.449219 " fill-opacity="1" fill-rule="nonzero"/></g><g clip-path="url(#030b1b4503)"><path fill="#ffffff" d="M 9.414062 12.5625 C 4.214844 12.5625 0 16.804688 0 21.976562 C 0 27.179688 4.242188 31.394531 9.414062 31.394531 C 14.617188 31.394531 18.832031 27.152344 18.832031 21.976562 C 18.832031 16.777344 14.617188 12.5625 9.414062 12.5625 Z M 9.414062 30.546875 C 4.695312 30.546875 0.847656 26.699219 0.847656 21.976562 C 0.847656 17.257812 4.695312 13.410156 9.414062 13.410156 C 14.136719 13.410156 17.984375 17.257812 17.984375 21.976562 C 17.984375 26.699219 14.136719 30.546875 9.414062 30.546875 Z M 9.414062 30.546875 " fill-opacity="1" fill-rule="nonzero"/></g><path fill="#ffffff" d="M 8.257812 17.398438 L 6.984375 17.398438 C 6.671875 17.398438 6.417969 17.652344 6.417969 17.964844 L 6.417969 25.964844 C 6.417969 26.277344 6.671875 26.53125 6.984375 26.53125 L 8.257812 26.53125 C 8.566406 26.53125 8.820312 26.277344 8.820312 25.964844 L 8.820312 17.964844 C 8.820312 17.652344 8.566406 17.398438 8.257812 17.398438 Z M 8.257812 17.398438 " fill-opacity="1" fill-rule="nonzero"/><path fill="#ffffff" d="M 11.847656 17.398438 L 10.574219 17.398438 C 10.265625 17.398438 10.011719 17.652344 10.011719 17.964844 L 10.011719 25.964844 C 10.011719 26.277344 10.265625 26.53125 10.574219 26.53125 L 11.847656 26.53125 C 12.160156 26.53125 12.414062 26.277344 12.414062 25.964844 L 12.414062 17.964844 C 12.414062 17.652344 12.160156 17.398438 11.847656 17.398438 Z M 11.847656 17.398438 " fill-opacity="1" fill-rule="nonzero"/><g clip-path="url(#32d0e922e9)"><path fill="#ffffff" d="M 65.714844 13.097656 C 60.894531 13.097656 56.96875 17.023438 56.96875 21.84375 C 56.96875 26.667969 60.894531 30.589844 65.714844 30.589844 C 70.539062 30.589844 74.460938 26.667969 74.460938 21.84375 C 74.460938 17.023438 70.539062 13.097656 65.714844 13.097656 Z M 65.714844 31.128906 C 60.597656 31.128906 56.433594 26.964844 56.433594 21.84375 C 56.433594 16.726562 60.597656 12.5625 65.714844 12.5625 C 70.832031 12.5625 74.996094 16.726562 74.996094 21.84375 C 74.996094 26.964844 70.832031 31.128906 65.714844 31.128906 " fill-opacity="1" fill-rule="nonzero"/></g><path fill="#ffffff" d="M 70.285156 21.84375 L 63.175781 17.738281 L 63.175781 25.949219 L 70.285156 21.84375 L 63.175781 17.738281 L 63.175781 25.949219 L 70.285156 21.84375 " fill-opacity="1" fill-rule="nonzero"/></svg>