<svg xmlns="http://www.w3.org/2000/svg" xmlns:xlink="http://www.w3.org/1999/xlink" width="100" zoomAndPan="magnify" viewBox="0 0 75 74.999997" height="100" preserveAspectRatio="xMidYMid meet" version="1.0"><defs><clipPath id="ca27992c55"><path d="M 52 59 L 67.78125 59 L 67.78125 75 L 52 75 Z M 52 59 " clip-rule="nonzero"/></clipPath><clipPath id="cdcb3957d9"><path d="M 7.03125 0 L 67.78125 0 L 67.78125 75 L 7.03125 75 Z M 7.03125 0 " clip-rule="nonzero"/></clipPath></defs><g clip-path="url(#ca27992c55)"><path fill="#ffffff" d="M 53.707031 75 C 53.601562 75 53.496094 74.980469 53.398438 74.9375 C 53.09375 74.8125 52.898438 74.519531 52.898438 74.191406 L 52.898438 63.980469 C 52.898438 61.785156 54.6875 59.996094 56.882812 59.996094 L 67.09375 59.996094 C 67.421875 59.996094 67.714844 60.195312 67.839844 60.496094 C 67.964844 60.796875 67.894531 61.144531 67.664062 61.375 L 54.277344 74.761719 C 54.125 74.917969 53.917969 75 53.707031 75 Z M 56.882812 61.613281 C 55.578125 61.613281 54.515625 62.675781 54.515625 63.980469 L 54.515625 72.242188 L 65.144531 61.613281 Z M 56.882812 61.613281 " fill-opacity="1" fill-rule="nonzero"/></g><g clip-path="url(#cdcb3957d9)"><path fill="#ffffff" d="M 53.707031 75 L 11.011719 75 C 8.816406 75 7.027344 73.214844 7.027344 71.015625 L 7.027344 3.984375 C 7.027344 1.785156 8.816406 0 11.011719 0 L 63.917969 0 C 66.113281 0 67.902344 1.785156 67.902344 3.984375 L 67.902344 60.804688 C 67.902344 61.25 67.539062 61.613281 67.09375 61.613281 L 56.882812 61.613281 C 55.578125 61.613281 54.515625 62.675781 54.515625 63.980469 L 54.515625 74.191406 C 54.515625 74.636719 54.152344 75 53.707031 75 Z M 11.011719 1.617188 C 9.707031 1.617188 8.644531 2.675781 8.644531 3.984375 L 8.644531 71.015625 C 8.644531 72.324219 9.707031 73.382812 11.011719 73.382812 L 52.898438 73.382812 L 52.898438 63.980469 C 52.898438 61.785156 54.6875 59.996094 56.882812 59.996094 L 66.285156 59.996094 L 66.285156 3.984375 C 66.285156 2.675781 65.222656 1.617188 63.917969 1.617188 Z M 11.011719 1.617188 " fill-opacity="1" fill-rule="nonzero"/></g><path fill="#ffffff" d="M 45.113281 15.964844 C 45.019531 15.964844 44.921875 15.949219 44.828125 15.910156 C 44.410156 15.753906 44.199219 15.289062 44.359375 14.871094 L 46.34375 9.625 C 46.5 9.207031 46.96875 9 47.386719 9.15625 C 47.800781 9.3125 48.011719 9.78125 47.855469 10.199219 L 45.871094 15.441406 C 45.746094 15.765625 45.441406 15.964844 45.113281 15.964844 Z M 45.113281 15.964844 " fill-opacity="1" fill-rule="nonzero"/><path fill="#ffffff" d="M 49.082031 15.964844 C 48.757812 15.964844 48.449219 15.765625 48.328125 15.441406 L 46.34375 10.199219 C 46.1875 9.78125 46.394531 9.3125 46.8125 9.15625 C 47.230469 9 47.695312 9.207031 47.855469 9.625 L 49.839844 14.871094 C 49.996094 15.289062 49.785156 15.753906 49.371094 15.910156 C 49.277344 15.949219 49.179688 15.964844 49.082031 15.964844 Z M 49.082031 15.964844 " fill-opacity="1" fill-rule="nonzero"/><path fill="#ffffff" d="M 48.324219 13.953125 L 45.875 13.953125 C 45.429688 13.953125 45.066406 13.589844 45.066406 13.144531 C 45.066406 12.699219 45.429688 12.335938 45.875 12.335938 L 48.324219 12.335938 C 48.769531 12.335938 49.128906 12.699219 49.128906 13.144531 C 49.128906 13.589844 48.769531 13.953125 48.324219 13.953125 Z M 48.324219 13.953125 " fill-opacity="1" fill-rule="nonzero"/><path fill="#ffffff" d="M 22.78125 15.964844 C 21.28125 15.964844 20.0625 14.746094 20.0625 13.246094 L 20.0625 9.910156 C 20.0625 9.464844 20.425781 9.105469 20.871094 9.105469 C 21.316406 9.105469 21.679688 9.464844 21.679688 9.910156 L 21.679688 13.246094 C 21.679688 13.855469 22.171875 14.347656 22.78125 14.347656 C 23.390625 14.347656 23.886719 13.855469 23.886719 13.246094 L 23.886719 9.910156 C 23.886719 9.464844 24.246094 9.105469 24.691406 9.105469 C 25.140625 9.105469 25.5 9.464844 25.5 9.910156 L 25.5 13.246094 C 25.5 14.746094 24.28125 15.964844 22.78125 15.964844 Z M 22.78125 15.964844 " fill-opacity="1" fill-rule="nonzero"/><path fill="#ffffff" d="M 59.261719 15.964844 C 58.816406 15.964844 58.457031 15.601562 58.457031 15.15625 L 58.457031 12.691406 C 58.457031 12.246094 58.816406 11.882812 59.261719 11.882812 C 59.710938 11.882812 60.070312 12.246094 60.070312 12.691406 L 60.070312 15.15625 C 60.070312 15.601562 59.710938 15.964844 59.261719 15.964844 Z M 59.261719 15.964844 " fill-opacity="1" fill-rule="nonzero"/><path fill="#ffffff" d="M 59.265625 13.5 C 59.003906 13.5 58.746094 13.371094 58.589844 13.140625 L 56.734375 10.359375 C 56.488281 9.988281 56.585938 9.488281 56.957031 9.238281 C 57.328125 8.992188 57.832031 9.089844 58.078125 9.460938 L 59.933594 12.242188 C 60.183594 12.613281 60.082031 13.113281 59.710938 13.363281 C 59.574219 13.453125 59.417969 13.5 59.265625 13.5 Z M 59.265625 13.5 " fill-opacity="1" fill-rule="nonzero"/><path fill="#ffffff" d="M 59.261719 13.5 C 59.109375 13.5 58.953125 13.453125 58.8125 13.363281 C 58.441406 13.113281 58.34375 12.613281 58.589844 12.242188 L 60.449219 9.460938 C 60.695312 9.089844 61.195312 8.992188 61.566406 9.238281 C 61.9375 9.488281 62.039062 9.988281 61.789062 10.359375 L 59.933594 13.140625 C 59.777344 13.371094 59.523438 13.5 59.261719 13.5 Z M 59.261719 13.5 " fill-opacity="1" fill-rule="nonzero"/><path fill="#ffffff" d="M 52.042969 15.964844 C 51.59375 15.964844 51.234375 15.601562 51.234375 15.15625 L 51.234375 9.910156 C 51.234375 9.464844 51.59375 9.105469 52.042969 9.105469 L 53.613281 9.105469 C 54.824219 9.105469 55.808594 10.089844 55.808594 11.300781 C 55.808594 12.507812 54.824219 13.496094 53.613281 13.496094 L 52.847656 13.496094 L 52.847656 15.15625 C 52.847656 15.601562 52.488281 15.964844 52.042969 15.964844 Z M 52.847656 11.878906 L 53.613281 11.878906 C 53.933594 11.878906 54.191406 11.617188 54.191406 11.300781 C 54.191406 10.980469 53.933594 10.71875 53.613281 10.71875 L 52.847656 10.71875 Z M 52.847656 11.878906 " fill-opacity="1" fill-rule="nonzero"/><path fill="#ffffff" d="M 55.144531 15.964844 C 54.941406 15.964844 54.734375 15.886719 54.578125 15.730469 L 52.082031 13.261719 C 51.765625 12.945312 51.761719 12.433594 52.078125 12.117188 C 52.390625 11.800781 52.902344 11.800781 53.21875 12.113281 L 55.714844 14.582031 C 56.03125 14.894531 56.035156 15.40625 55.71875 15.726562 C 55.5625 15.882812 55.355469 15.964844 55.144531 15.964844 Z M 55.144531 15.964844 " fill-opacity="1" fill-rule="nonzero"/><path fill="#ffffff" d="M 27.652344 15.964844 C 27.59375 15.964844 27.539062 15.957031 27.480469 15.945312 C 27.046875 15.851562 26.765625 15.425781 26.859375 14.988281 L 27.980469 9.742188 C 28.074219 9.308594 28.503906 9.027344 28.9375 9.121094 C 29.375 9.214844 29.652344 9.644531 29.558594 10.078125 L 28.441406 15.324219 C 28.359375 15.703125 28.023438 15.964844 27.652344 15.964844 Z M 27.652344 15.964844 " fill-opacity="1" fill-rule="nonzero"/><path fill="#ffffff" d="M 30.539062 15.964844 C 30.199219 15.964844 29.886719 15.75 29.773438 15.414062 L 28.003906 10.167969 C 27.863281 9.746094 28.089844 9.289062 28.511719 9.144531 C 28.933594 9.003906 29.394531 9.230469 29.535156 9.652344 L 31.304688 14.898438 C 31.445312 15.320312 31.21875 15.78125 30.796875 15.921875 C 30.710938 15.949219 30.625 15.964844 30.539062 15.964844 Z M 30.539062 15.964844 " fill-opacity="1" fill-rule="nonzero"/><path fill="#ffffff" d="M 33.425781 15.964844 C 33.050781 15.964844 32.714844 15.703125 32.632812 15.324219 L 31.515625 10.078125 C 31.421875 9.644531 31.699219 9.214844 32.136719 9.121094 C 32.574219 9.027344 33.003906 9.308594 33.09375 9.742188 L 34.214844 14.988281 C 34.308594 15.425781 34.03125 15.851562 33.59375 15.945312 C 33.535156 15.957031 33.480469 15.964844 33.425781 15.964844 Z M 33.425781 15.964844 " fill-opacity="1" fill-rule="nonzero"/><path fill="#ffffff" d="M 30.539062 15.964844 C 30.453125 15.964844 30.363281 15.949219 30.28125 15.921875 C 29.855469 15.78125 29.628906 15.320312 29.773438 14.898438 L 31.539062 9.652344 C 31.683594 9.230469 32.140625 9.003906 32.5625 9.144531 C 32.988281 9.289062 33.214844 9.746094 33.070312 10.167969 L 31.304688 15.414062 C 31.1875 15.75 30.875 15.964844 30.539062 15.964844 Z M 30.539062 15.964844 " fill-opacity="1" fill-rule="nonzero"/><path fill="#ffffff" d="M 36.382812 15.964844 C 36.328125 15.964844 36.269531 15.957031 36.214844 15.945312 C 35.777344 15.851562 35.5 15.425781 35.59375 14.988281 L 36.710938 9.742188 C 36.804688 9.308594 37.234375 9.027344 37.671875 9.121094 C 38.105469 9.214844 38.386719 9.644531 38.292969 10.078125 L 37.171875 15.324219 C 37.089844 15.703125 36.757812 15.964844 36.382812 15.964844 Z M 36.382812 15.964844 " fill-opacity="1" fill-rule="nonzero"/><path fill="#ffffff" d="M 39.269531 15.964844 C 38.933594 15.964844 38.617188 15.75 38.503906 15.414062 L 36.734375 10.167969 C 36.59375 9.746094 36.820312 9.289062 37.242188 9.144531 C 37.667969 9.003906 38.125 9.230469 38.265625 9.652344 L 40.035156 14.898438 C 40.175781 15.320312 39.949219 15.78125 39.527344 15.921875 C 39.441406 15.949219 39.355469 15.964844 39.269531 15.964844 Z M 39.269531 15.964844 " fill-opacity="1" fill-rule="nonzero"/><path fill="#ffffff" d="M 42.15625 15.964844 C 41.78125 15.964844 41.449219 15.703125 41.367188 15.324219 L 40.246094 10.078125 C 40.15625 9.644531 40.433594 9.214844 40.867188 9.121094 C 41.304688 9.027344 41.734375 9.308594 41.828125 9.742188 L 42.945312 14.988281 C 43.039062 15.425781 42.761719 15.851562 42.324219 15.945312 C 42.269531 15.957031 42.210938 15.964844 42.15625 15.964844 Z M 42.15625 15.964844 " fill-opacity="1" fill-rule="nonzero"/><path fill="#ffffff" d="M 39.269531 15.964844 C 39.183594 15.964844 39.097656 15.949219 39.011719 15.921875 C 38.589844 15.78125 38.363281 15.320312 38.503906 14.898438 L 40.273438 9.652344 C 40.414062 9.230469 40.871094 9.003906 41.296875 9.144531 C 41.71875 9.289062 41.945312 9.746094 41.804688 10.167969 L 40.035156 15.414062 C 39.921875 15.75 39.605469 15.964844 39.269531 15.964844 Z M 39.269531 15.964844 " fill-opacity="1" fill-rule="nonzero"/><path fill="#ffffff" d="M 15.777344 16.15625 C 14.632812 16.15625 13.617188 15.683594 13.128906 14.921875 C 12.890625 14.546875 13 14.046875 13.375 13.804688 C 13.75 13.566406 14.25 13.675781 14.492188 14.050781 C 14.644531 14.292969 15.136719 14.539062 15.777344 14.539062 C 16.996094 14.539062 17.09375 14.222656 17.105469 13.984375 C 16.996094 13.847656 16.5625 13.601562 16.015625 13.464844 C 14.136719 12.992188 13.183594 12.207031 13.183594 11.132812 C 13.183594 9.886719 14.472656 8.910156 16.125 8.910156 C 16.851562 8.910156 17.546875 9.105469 18.082031 9.460938 C 18.453125 9.707031 18.554688 10.207031 18.308594 10.578125 C 18.0625 10.949219 17.5625 11.054688 17.1875 10.808594 C 16.921875 10.628906 16.53125 10.527344 16.125 10.527344 C 15.300781 10.527344 14.796875 10.917969 14.796875 11.132812 C 14.796875 11.191406 15.078125 11.5625 16.410156 11.898438 C 16.953125 12.03125 18.722656 12.582031 18.722656 13.9375 C 18.722656 13.941406 18.722656 13.945312 18.722656 13.945312 C 18.707031 14.980469 18.144531 15.507812 17.671875 15.769531 C 17.203125 16.03125 16.582031 16.15625 15.777344 16.15625 Z M 15.777344 16.15625 " fill-opacity="1" fill-rule="nonzero"/><path fill="#ffffff" d="M 35.75 54.292969 L 27.652344 54.292969 C 27.203125 54.292969 26.84375 53.929688 26.84375 53.484375 L 26.84375 45.382812 C 26.84375 44.9375 27.203125 44.574219 27.652344 44.574219 C 32.5625 44.574219 36.558594 48.570312 36.558594 53.484375 C 36.558594 53.929688 36.195312 54.292969 35.75 54.292969 Z M 28.457031 52.675781 L 34.898438 52.675781 C 34.523438 49.296875 31.835938 46.609375 28.457031 46.234375 Z M 28.457031 52.675781 " fill-opacity="1" fill-rule="nonzero"/><path fill="#ffffff" d="M 24.691406 68.308594 C 18.148438 68.308594 12.828125 62.984375 12.828125 56.441406 C 12.828125 49.898438 18.148438 44.574219 24.691406 44.574219 C 25.140625 44.574219 25.5 44.9375 25.5 45.382812 L 25.5 55.632812 L 35.75 55.632812 C 36.195312 55.632812 36.558594 55.996094 36.558594 56.441406 C 36.558594 62.984375 31.234375 68.308594 24.691406 68.308594 Z M 23.886719 46.222656 C 18.609375 46.636719 14.441406 51.0625 14.441406 56.441406 C 14.441406 62.09375 19.039062 66.691406 24.691406 66.691406 C 30.074219 66.691406 34.496094 62.523438 34.910156 57.25 L 24.691406 57.25 C 24.246094 57.25 23.886719 56.886719 23.886719 56.441406 Z M 23.886719 46.222656 " fill-opacity="1" fill-rule="nonzero"/><path fill="#ffffff" d="M 60.191406 28.394531 L 13.636719 28.394531 C 13.1875 28.394531 12.828125 28.035156 12.828125 27.589844 L 12.828125 21.449219 C 12.828125 21.003906 13.1875 20.640625 13.636719 20.640625 L 60.191406 20.640625 C 60.636719 20.640625 61 21.003906 61 21.449219 L 61 27.589844 C 61 28.035156 60.636719 28.394531 60.191406 28.394531 Z M 14.441406 26.78125 L 59.382812 26.78125 L 59.382812 22.257812 L 14.441406 22.257812 Z M 14.441406 26.78125 " fill-opacity="1" fill-rule="nonzero"/><path fill="#ffffff" d="M 60.191406 32.976562 L 13.808594 32.976562 C 13.363281 32.976562 13.003906 32.613281 13.003906 32.167969 C 13.003906 31.722656 13.363281 31.359375 13.808594 31.359375 L 60.191406 31.359375 C 60.636719 31.359375 61 31.722656 61 32.167969 C 61 32.613281 60.636719 32.976562 60.191406 32.976562 Z M 60.191406 32.976562 " fill-opacity="1" fill-rule="nonzero"/><path fill="#ffffff" d="M 60.191406 38.308594 L 13.808594 38.308594 C 13.363281 38.308594 13.003906 37.945312 13.003906 37.5 C 13.003906 37.054688 13.363281 36.691406 13.808594 36.691406 L 60.191406 36.691406 C 60.636719 36.691406 61 37.054688 61 37.5 C 61 37.945312 60.636719 38.308594 60.191406 38.308594 Z M 60.191406 38.308594 " fill-opacity="1" fill-rule="nonzero"/><path fill="#ffffff" d="M 60.191406 43.640625 L 43.730469 43.640625 C 43.28125 43.640625 42.921875 43.277344 42.921875 42.832031 C 42.921875 42.386719 43.28125 42.023438 43.730469 42.023438 L 60.191406 42.023438 C 60.636719 42.023438 61 42.386719 61 42.832031 C 61 43.277344 60.636719 43.640625 60.191406 43.640625 Z M 60.191406 43.640625 " fill-opacity="1" fill-rule="nonzero"/><path fill="#ffffff" d="M 60.191406 48.96875 L 43.730469 48.96875 C 43.28125 48.96875 42.921875 48.609375 42.921875 48.160156 C 42.921875 47.714844 43.28125 47.355469 43.730469 47.355469 L 60.191406 47.355469 C 60.636719 47.355469 61 47.714844 61 48.160156 C 61 48.609375 60.636719 48.96875 60.191406 48.96875 Z M 60.191406 48.96875 " fill-opacity="1" fill-rule="nonzero"/><path fill="#ffffff" d="M 60.191406 54.300781 L 43.730469 54.300781 C 43.28125 54.300781 42.921875 53.9375 42.921875 53.492188 C 42.921875 53.046875 43.28125 52.683594 43.730469 52.683594 L 60.191406 52.683594 C 60.636719 52.683594 61 53.046875 61 53.492188 C 61 53.9375 60.636719 54.300781 60.191406 54.300781 Z M 60.191406 54.300781 " fill-opacity="1" fill-rule="nonzero"/></svg>