<svg xmlns="http://www.w3.org/2000/svg" xmlns:xlink="http://www.w3.org/1999/xlink" width="100" zoomAndPan="magnify" viewBox="0 0 75 74.999997" height="100" preserveAspectRatio="xMidYMid meet" version="1.0"><defs><clipPath id="ef3415e076"><path d="M 29 7.5 L 62 7.5 L 62 61 L 29 61 Z M 29 7.5 " clip-rule="nonzero"/></clipPath><clipPath id="f8fb6f09a4"><path d="M 23 64 L 30 64 L 30 67.5 L 23 67.5 Z M 23 64 " clip-rule="nonzero"/></clipPath><clipPath id="28fdeb07c3"><path d="M 14 64 L 20 64 L 20 67.5 L 14 67.5 Z M 14 64 " clip-rule="nonzero"/></clipPath></defs><path fill="#0c0c0c" d="M 29.988281 16.085938 C 29.777344 17.441406 29.863281 18.828125 30.191406 20.15625 C 30.515625 21.496094 31.078125 22.777344 31.789062 23.957031 C 32.523438 25.164062 33.421875 26.261719 34.425781 27.253906 C 35.449219 28.269531 36.574219 29.179688 37.738281 30.023438 C 38.914062 30.871094 40.136719 31.652344 41.367188 32.417969 C 41.523438 32.515625 41.675781 32.609375 41.828125 32.707031 C 41.957031 32.785156 42.074219 32.585938 41.945312 32.503906 C 40.730469 31.75 39.515625 30.988281 38.339844 30.164062 C 37.175781 29.351562 36.050781 28.476562 35.015625 27.5 C 33.996094 26.542969 33.066406 25.492188 32.296875 24.320312 C 31.546875 23.183594 30.945312 21.945312 30.558594 20.636719 C 30.179688 19.34375 30.015625 17.988281 30.148438 16.644531 C 30.167969 16.476562 30.1875 16.3125 30.210938 16.148438 C 30.234375 16 30.011719 15.9375 29.988281 16.085938 Z M 29.988281 16.085938 " fill-opacity="1" fill-rule="nonzero"/><g clip-path="url(#ef3415e076)"><path fill="#0c0c0c" d="M 36.757812 56.589844 C 40.859375 56.371094 45.035156 55.703125 45.535156 53.75 C 45.726562 53.003906 45.253906 52.558594 44.976562 51.324219 C 44.265625 48.164062 46.257812 46.140625 46.769531 43.820312 C 47.851562 38.933594 42.226562 33.628906 39.917969 31.417969 C 37.226562 28.84375 34.21875 27.117188 31.5625 22.78125 C 31.0625 21.96875 30.75 21.347656 30.5 20.601562 C 30.355469 20.171875 28.660156 14.855469 32.085938 10.859375 C 34.921875 7.550781 39.234375 7.515625 40.121094 7.511719 C 40.28125 7.511719 40.40625 7.511719 40.488281 7.515625 C 46.425781 7.644531 50.367188 12.414062 52.746094 15.292969 C 54.515625 17.4375 58.695312 22.5 58.78125 29.210938 C 58.824219 32.75 57.703125 35.019531 58.949219 39.101562 C 59.882812 42.167969 60.855469 42.011719 61.296875 44.300781 C 62.25 49.265625 58.554688 54.625 54.605469 57.363281 C 52.339844 58.933594 50.1875 59.578125 49.054688 59.8125 C 45.949219 60.460938 44.023438 60.332031 38.285156 60.464844 C 36.226562 60.511719 34.550781 60.570312 33.503906 60.613281 C 34.589844 59.273438 35.671875 57.929688 36.757812 56.589844 Z M 36.757812 56.589844 " fill-opacity="1" fill-rule="nonzero"/></g><path fill="#ededf2" d="M 39.867188 17.578125 C 40.195312 15.773438 40.523438 13.964844 40.851562 12.160156 C 41.957031 12.660156 42.652344 13.742188 42.605469 14.867188 C 42.546875 16.242188 41.390625 17.449219 39.867188 17.578125 Z M 39.867188 17.578125 " fill-opacity="1" fill-rule="nonzero"/><path fill="#ededf2" d="M 39 18.46875 C 37.265625 19.070312 35.53125 19.675781 33.796875 20.28125 C 34.496094 21.253906 35.6875 21.726562 36.796875 21.46875 C 38.101562 21.164062 39.050781 19.910156 39 18.46875 Z M 39 18.46875 " fill-opacity="1" fill-rule="nonzero"/><path fill="#ededf2" d="M 37.691406 23.582031 C 37.949219 23.609375 41.253906 23.859375 43.378906 21.214844 C 45.238281 18.90625 44.726562 16.207031 44.652344 15.835938 C 45.042969 16.394531 45.703125 17.496094 45.882812 19.023438 C 45.964844 19.753906 46.089844 20.832031 45.53125 21.945312 C 44.695312 23.609375 42.9375 24.132812 42.476562 24.273438 C 40.109375 24.976562 38.085938 23.820312 37.691406 23.582031 Z M 37.691406 23.582031 " fill-opacity="1" fill-rule="nonzero"/><path fill="#0c0c0c" d="M 57.289062 22.925781 C 58.019531 24.769531 58.566406 26.6875 58.855469 28.648438 C 59.078125 30.171875 59.121094 31.703125 59.019531 33.238281 C 58.964844 34.101562 58.886719 34.96875 58.949219 35.835938 C 59.019531 36.824219 59.226562 37.816406 59.550781 38.753906 C 59.800781 39.46875 60.136719 40.144531 60.445312 40.835938 C 60.765625 41.554688 61.007812 42.296875 61.140625 43.074219 C 61.421875 44.6875 61.257812 46.347656 60.820312 47.914062 C 60.742188 48.183594 60.660156 48.453125 60.566406 48.71875 C 60.519531 48.863281 60.742188 48.921875 60.792969 48.78125 C 61.363281 47.105469 61.65625 45.3125 61.445312 43.542969 C 61.355469 42.796875 61.183594 42.0625 60.914062 41.363281 C 60.652344 40.671875 60.304688 40.019531 60.019531 39.335938 C 59.65625 38.453125 59.402344 37.53125 59.261719 36.585938 C 59.128906 35.679688 59.148438 34.777344 59.210938 33.867188 C 59.265625 33.039062 59.320312 32.207031 59.308594 31.375 C 59.296875 30.652344 59.246094 29.929688 59.164062 29.210938 C 58.9375 27.316406 58.46875 25.457031 57.816406 23.667969 C 57.71875 23.398438 57.617188 23.128906 57.511719 22.863281 C 57.457031 22.722656 57.234375 22.785156 57.289062 22.925781 Z M 57.289062 22.925781 " fill-opacity="1" fill-rule="nonzero"/><path fill="#ff9395" d="M 16.496094 54.660156 C 14.785156 54.210938 13.488281 52.824219 13.179688 51.121094 C 12.75 48.710938 14.554688 47.058594 14.652344 46.972656 C 13.621094 45.394531 13.601562 43.375 14.601562 41.855469 C 15.941406 39.808594 18.382812 39.792969 18.550781 39.796875 C 18.539062 39.628906 18.429688 36.742188 20.859375 35.042969 C 23.285156 33.347656 25.953125 34.441406 26.105469 34.507812 C 27.410156 31.773438 30.089844 30.289062 32.484375 30.757812 C 34.445312 31.144531 35.5625 32.71875 35.859375 33.171875 C 36.914062 31.894531 38.578125 31.359375 40.058594 31.800781 C 41.753906 32.308594 42.429688 33.871094 42.523438 34.09375 C 44.25 32.953125 46.675781 32.992188 48.367188 34.183594 C 50.058594 35.378906 50.910156 37.648438 50.417969 39.65625 C 51.925781 39.273438 53.640625 39.988281 54.425781 41.332031 C 55.210938 42.671875 54.992188 44.523438 53.917969 45.644531 C 56.238281 46.15625 57.878906 48.109375 57.921875 50.257812 C 57.953125 51.9375 57.007812 53.53125 55.492188 54.445312 C 55.992188 55.90625 55.632812 57.527344 54.570312 58.621094 C 53.441406 59.777344 51.714844 60.15625 50.183594 59.578125 C 50.09375 61.21875 49 62.605469 47.515625 63.015625 C 45.789062 63.496094 43.859375 62.558594 43.105469 60.765625 C 43.03125 60.949219 41.695312 64.121094 38.609375 64.578125 C 36.789062 64.84375 35.382812 64.011719 35.191406 63.894531 C 33.398438 62.792969 32.945312 60.960938 32.863281 60.605469 C 32.679688 61.050781 32.015625 62.5 30.417969 63.292969 C 28.003906 64.488281 25.628906 63.125 25.3125 62.933594 C 22.824219 61.449219 22.542969 58.636719 22.519531 58.34375 C 21.339844 59.363281 19.671875 59.5625 18.339844 58.859375 C 16.867188 58.082031 16.089844 56.34375 16.496094 54.65625 Z M 16.496094 54.660156 " fill-opacity="1" fill-rule="nonzero"/><path fill="#ff9395" d="M 55.492188 54.445312 C 55.992188 55.910156 55.632812 57.527344 54.570312 58.621094 C 53.441406 59.777344 51.714844 60.15625 50.183594 59.582031 C 50.09375 61.21875 49 62.605469 47.515625 63.019531 C 45.789062 63.496094 43.859375 62.558594 43.105469 60.769531 C 43.03125 60.949219 41.695312 64.125 38.609375 64.578125 C 36.789062 64.84375 35.382812 64.011719 35.191406 63.894531 C 33.398438 62.796875 32.945312 60.960938 32.867188 60.605469 C 32.679688 61.054688 32.015625 62.5 30.417969 63.292969 C 28.003906 64.488281 25.628906 63.125 25.316406 62.9375 C 23.097656 61.613281 22.632812 59.246094 22.539062 58.53125 C 22.527344 58.441406 22.523438 58.378906 22.519531 58.347656 C 22.472656 58.386719 22.425781 58.425781 22.375 58.464844 C 21.207031 59.378906 19.621094 59.535156 18.339844 58.859375 C 16.867188 58.082031 16.089844 56.34375 16.496094 54.65625 C 14.785156 54.207031 13.488281 52.820312 13.183594 51.121094 C 12.75 48.710938 14.554688 47.058594 14.65625 46.96875 C 13.625 45.390625 13.605469 43.375 14.601562 41.851562 C 15.945312 39.808594 18.382812 39.792969 18.550781 39.796875 C 18.542969 39.625 18.429688 36.742188 20.859375 35.042969 C 23.285156 33.347656 25.953125 34.441406 26.109375 34.507812 C 27.410156 31.773438 30.09375 30.289062 32.484375 30.757812 C 34.132812 31.082031 35.183594 32.246094 35.652344 32.875 C 35.742188 32.996094 35.808594 33.097656 35.859375 33.167969 C 35.914062 33.101562 35.972656 33.039062 36.03125 32.976562 C 37.089844 31.84375 38.65625 31.382812 40.058594 31.800781 C 41.753906 32.308594 42.433594 33.871094 42.523438 34.089844 C 44.253906 32.953125 46.675781 32.992188 48.367188 34.183594 C 50.058594 35.378906 50.910156 37.648438 50.417969 39.65625 C 51.925781 39.269531 53.644531 39.988281 54.429688 41.332031 C 55.210938 42.671875 54.992188 44.523438 53.917969 45.644531 C 56.242188 46.15625 57.878906 48.109375 57.921875 50.257812 C 57.953125 51.9375 57.007812 53.53125 55.492188 54.445312 Z M 55.492188 54.445312 " fill-opacity="1" fill-rule="nonzero"/><path fill="#ff3e75" d="M 35.882812 33.261719 C 35.617188 33.242188 35.230469 33.234375 34.773438 33.289062 C 34.28125 33.34375 32.53125 33.570312 31.125 34.996094 C 30.566406 35.5625 30.128906 36.242188 29.847656 36.984375 C 29.742188 37.257812 29.65625 37.539062 29.589844 37.824219 C 29.5625 37.9375 29.542969 38.050781 29.519531 38.167969 C 29.511719 38.210938 29.503906 38.257812 29.5 38.304688 C 29.496094 38.324219 29.492188 38.34375 29.488281 38.363281 C 29.488281 38.371094 29.488281 38.375 29.488281 38.378906 C 29.488281 38.378906 29.488281 38.382812 29.488281 38.382812 L 29.488281 38.386719 C 29.472656 38.484375 29.410156 38.574219 29.300781 38.574219 C 28.867188 38.558594 28.441406 38.617188 28.023438 38.730469 C 26.628906 39.105469 25.527344 40.171875 25.160156 41.574219 C 25.023438 42.101562 24.984375 42.648438 25.023438 43.191406 C 25.042969 43.449219 25.066406 43.664062 25.136719 43.925781 C 25.160156 44.003906 25.125 44.097656 25.054688 44.136719 C 24.746094 44.292969 24.453125 44.492188 24.191406 44.703125 C 23.117188 45.578125 22.410156 46.851562 22.34375 48.25 C 22.289062 49.359375 22.628906 50.5 23.28125 51.402344 C 23.324219 51.464844 23.308594 51.578125 23.25 51.628906 C 22.921875 51.914062 22.625 52.242188 22.378906 52.605469 C 21.667969 53.664062 21.417969 54.96875 21.710938 56.214844 C 21.820312 56.691406 22 57.152344 22.238281 57.582031 C 22.320312 57.726562 22.40625 57.867188 22.5 58.007812 C 22.535156 58.058594 22.570312 58.109375 22.609375 58.160156 C 22.621094 58.175781 22.632812 58.191406 22.644531 58.207031 C 22.644531 58.207031 22.644531 58.207031 22.648438 58.210938 C 22.648438 58.210938 22.648438 58.214844 22.652344 58.214844 C 22.652344 58.21875 22.652344 58.21875 22.652344 58.21875 C 22.652344 58.21875 22.65625 58.222656 22.65625 58.222656 C 22.609375 58.265625 22.5625 58.304688 22.519531 58.347656 C 22.472656 58.386719 22.425781 58.425781 22.375 58.464844 C 22.167969 58.199219 21.988281 57.910156 21.832031 57.609375 C 21.261719 56.496094 21.054688 55.214844 21.355469 53.992188 C 21.59375 53.027344 22.140625 52.140625 22.871094 51.46875 C 22.621094 51.089844 22.425781 50.675781 22.273438 50.25 C 21.730469 48.71875 21.921875 46.984375 22.835938 45.632812 C 23.320312 44.921875 23.984375 44.292969 24.746094 43.878906 C 24.679688 43.589844 24.652344 43.285156 24.644531 42.988281 C 24.589844 41.585938 25.09375 40.183594 26.1875 39.269531 C 27.003906 38.582031 28.078125 38.203125 29.144531 38.199219 C 29.230469 37.652344 29.382812 37.117188 29.601562 36.605469 C 30.261719 35.074219 31.535156 33.882812 33.09375 33.300781 C 33.902344 33.003906 34.789062 32.847656 35.652344 32.878906 C 35.742188 32.996094 35.808594 33.097656 35.859375 33.171875 C 35.867188 33.203125 35.875 33.230469 35.882812 33.261719 Z M 35.882812 33.261719 " fill-opacity="1" fill-rule="nonzero"/><path fill="#ff3e75" d="M 15.105469 47.257812 C 15.570312 47.417969 16.085938 47.488281 16.578125 47.5 C 17.496094 47.519531 18.417969 47.265625 19.105469 46.636719 C 19.53125 46.25 19.832031 45.742188 20.011719 45.199219 C 20.085938 44.972656 19.730469 44.875 19.652344 45.101562 C 19.367188 45.96875 18.714844 46.671875 17.835938 46.957031 C 17.453125 47.082031 17.066406 47.128906 16.664062 47.128906 C 16.488281 47.128906 16.3125 47.117188 16.136719 47.097656 C 16.117188 47.09375 16.097656 47.09375 16.078125 47.089844 C 16.066406 47.089844 16.019531 47.082031 16.027344 47.085938 C 16.039062 47.085938 16 47.078125 15.988281 47.078125 C 15.96875 47.074219 15.949219 47.074219 15.929688 47.070312 C 15.855469 47.058594 15.789062 47.046875 15.71875 47.03125 C 15.542969 46.996094 15.371094 46.957031 15.203125 46.898438 C 15.109375 46.867188 15 46.9375 14.976562 47.027344 C 14.945312 47.128906 15.007812 47.222656 15.105469 47.257812 Z M 15.105469 47.257812 " fill-opacity="1" fill-rule="nonzero"/><path fill="#ff3e75" d="M 21.8125 46.328125 C 21.714844 46.289062 21.640625 46.257812 21.535156 46.207031 C 21.417969 46.152344 21.304688 46.09375 21.195312 46.03125 C 20.9375 45.882812 20.691406 45.714844 20.46875 45.523438 C 19.988281 45.109375 19.597656 44.601562 19.328125 44.023438 C 18.914062 43.136719 18.804688 42.136719 18.890625 41.171875 C 18.894531 41.125 18.902344 41.074219 18.90625 41.03125 C 18.910156 41.007812 18.910156 40.984375 18.914062 40.960938 C 18.917969 40.945312 18.925781 40.882812 18.917969 40.929688 C 18.929688 40.851562 18.941406 40.773438 18.957031 40.695312 C 18.972656 40.601562 18.992188 40.507812 19.011719 40.414062 C 19.066406 40.179688 18.710938 40.082031 18.652344 40.316406 C 18.496094 40.980469 18.457031 41.6875 18.519531 42.367188 C 18.636719 43.613281 19.140625 44.800781 20.066406 45.660156 C 20.546875 46.109375 21.105469 46.445312 21.714844 46.6875 C 21.804688 46.722656 21.917969 46.644531 21.941406 46.554688 C 21.972656 46.449219 21.90625 46.363281 21.8125 46.328125 Z M 21.8125 46.328125 " fill-opacity="1" fill-rule="nonzero"/><path fill="#ff3e75" d="M 16.957031 54.566406 C 17.261719 53.972656 17.675781 53.445312 18.183594 53.011719 C 18.871094 52.417969 19.71875 52.03125 20.609375 51.871094 C 20.902344 51.820312 21.207031 51.796875 21.511719 51.796875 C 21.75 51.796875 21.753906 51.425781 21.511719 51.425781 C 19.832031 51.421875 18.210938 52.199219 17.179688 53.527344 C 16.972656 53.792969 16.792969 54.078125 16.636719 54.375 C 16.527344 54.589844 16.847656 54.777344 16.957031 54.566406 Z M 16.957031 54.566406 " fill-opacity="1" fill-rule="nonzero"/><path fill="#ff3e75" d="M 26.417969 35.101562 C 27.140625 35.691406 27.640625 36.515625 27.824219 37.429688 C 27.847656 37.527344 27.960938 37.585938 28.054688 37.558594 C 28.15625 37.53125 28.203125 37.429688 28.183594 37.328125 C 27.988281 36.359375 27.445312 35.464844 26.679688 34.839844 C 26.601562 34.773438 26.492188 34.761719 26.417969 34.839844 C 26.351562 34.902344 26.335938 35.039062 26.417969 35.101562 Z M 26.417969 35.101562 " fill-opacity="1" fill-rule="nonzero"/><path fill="#ff3e75" d="M 42.453125 34.800781 C 42.886719 35.929688 43.003906 37.167969 42.773438 38.351562 C 42.753906 38.453125 42.804688 38.554688 42.90625 38.582031 C 42.996094 38.605469 43.113281 38.550781 43.132812 38.453125 C 43.375 37.199219 43.269531 35.890625 42.8125 34.703125 C 42.777344 34.609375 42.6875 34.542969 42.585938 34.570312 C 42.496094 34.597656 42.417969 34.707031 42.453125 34.800781 Z M 42.453125 34.800781 " fill-opacity="1" fill-rule="nonzero"/><path fill="#ff3e75" d="M 41.730469 39.160156 C 42.644531 38.742188 43.761719 38.78125 44.664062 39.226562 C 44.921875 39.355469 45.167969 39.511719 45.382812 39.707031 C 45.460938 39.769531 45.574219 39.78125 45.648438 39.707031 C 45.714844 39.636719 45.722656 39.507812 45.648438 39.441406 C 44.78125 38.679688 43.59375 38.367188 42.460938 38.554688 C 42.140625 38.609375 41.835938 38.707031 41.542969 38.839844 C 41.449219 38.882812 41.425781 39.015625 41.476562 39.09375 C 41.53125 39.1875 41.636719 39.203125 41.730469 39.160156 Z M 41.730469 39.160156 " fill-opacity="1" fill-rule="nonzero"/><path fill="#ff3e75" d="M 48.726562 40.785156 C 48.148438 41.109375 47.601562 41.519531 47.097656 41.945312 C 46.59375 42.375 46.160156 42.832031 45.820312 43.375 C 45.167969 44.414062 44.921875 45.769531 45.550781 46.878906 C 45.859375 47.417969 46.351562 47.855469 46.953125 48.035156 C 47.183594 48.105469 47.28125 47.746094 47.050781 47.679688 C 46.058594 47.375 45.515625 46.316406 45.554688 45.324219 C 45.605469 44.121094 46.355469 43.09375 47.226562 42.324219 C 47.742188 41.871094 48.3125 41.441406 48.914062 41.105469 C 49.121094 40.988281 48.933594 40.667969 48.726562 40.785156 Z M 48.726562 40.785156 " fill-opacity="1" fill-rule="nonzero"/><path fill="#ff3e75" d="M 53.363281 46.304688 C 52.605469 46.929688 51.769531 47.460938 50.878906 47.882812 C 50.789062 47.925781 50.765625 48.054688 50.8125 48.136719 C 50.867188 48.230469 50.976562 48.246094 51.070312 48.203125 C 51.984375 47.765625 52.84375 47.214844 53.625 46.566406 C 53.703125 46.503906 53.691406 46.371094 53.625 46.304688 C 53.546875 46.226562 53.4375 46.238281 53.363281 46.304688 Z M 53.363281 46.304688 " fill-opacity="1" fill-rule="nonzero"/><path fill="#ff3e75" d="M 52.304688 47.339844 C 53.089844 48.035156 53.566406 49.203125 53.082031 50.203125 C 52.886719 50.605469 52.566406 50.921875 52.207031 51.152344 C 52.050781 51.25 51.890625 51.335938 51.722656 51.410156 C 51.707031 51.417969 51.6875 51.425781 51.671875 51.433594 C 51.632812 51.449219 51.683594 51.429688 51.65625 51.441406 C 51.621094 51.453125 51.589844 51.46875 51.554688 51.480469 C 51.507812 51.5 51.457031 51.515625 51.410156 51.535156 C 51.085938 51.648438 50.753906 51.71875 50.410156 51.730469 C 50.265625 51.738281 50.117188 51.734375 49.96875 51.722656 C 49.84375 51.710938 49.785156 51.703125 49.667969 51.683594 C 49.570312 51.667969 49.46875 51.710938 49.4375 51.8125 C 49.414062 51.902344 49.46875 52.023438 49.566406 52.042969 C 50.507812 52.207031 51.472656 52.019531 52.289062 51.535156 C 52.714844 51.285156 53.09375 50.945312 53.339844 50.511719 C 53.628906 50 53.703125 49.402344 53.597656 48.828125 C 53.46875 48.148438 53.082031 47.53125 52.570312 47.078125 C 52.390625 46.917969 52.125 47.179688 52.304688 47.339844 Z M 52.304688 47.339844 " fill-opacity="1" fill-rule="nonzero"/><path fill="#ff3e75" d="M 29.953125 39.414062 C 31.128906 40.597656 32.859375 41.191406 34.507812 40.824219 C 35.289062 40.652344 36.015625 40.253906 36.578125 39.6875 C 37.042969 39.21875 37.386719 38.648438 37.632812 38.039062 C 37.777344 37.679688 37.890625 37.296875 37.941406 36.914062 C 37.953125 36.8125 37.917969 36.714844 37.8125 36.683594 C 37.722656 36.660156 37.597656 36.714844 37.582031 36.8125 C 37.542969 37.117188 37.460938 37.417969 37.359375 37.707031 C 37.269531 37.96875 37.179688 38.171875 37.042969 38.425781 C 36.898438 38.699219 36.722656 38.960938 36.523438 39.191406 C 36.050781 39.746094 35.433594 40.160156 34.738281 40.378906 C 34.019531 40.601562 33.246094 40.617188 32.511719 40.445312 C 31.640625 40.242188 30.847656 39.785156 30.214844 39.152344 C 30.046875 38.980469 29.78125 39.246094 29.953125 39.414062 Z M 29.953125 39.414062 " fill-opacity="1" fill-rule="nonzero"/><path fill="#ff3e75" d="M 35.890625 40.0625 C 36.113281 40.5625 36.476562 41 36.933594 41.296875 C 37.566406 41.699219 38.355469 41.792969 39.074219 41.613281 C 39.5 41.511719 39.898438 41.3125 40.246094 41.050781 C 40.328125 40.992188 40.371094 40.890625 40.316406 40.796875 C 40.269531 40.71875 40.140625 40.671875 40.058594 40.730469 C 39.507812 41.148438 38.832031 41.382812 38.132812 41.320312 C 37.507812 41.265625 36.933594 40.9375 36.550781 40.445312 C 36.417969 40.277344 36.304688 40.078125 36.214844 39.875 C 36.171875 39.785156 36.039062 39.761719 35.960938 39.808594 C 35.863281 39.863281 35.851562 39.972656 35.890625 40.0625 Z M 35.890625 40.0625 " fill-opacity="1" fill-rule="nonzero"/><path fill="#ff3e75" d="M 32.128906 53.058594 C 31.757812 54.070312 30.9375 54.898438 29.949219 55.316406 C 29.671875 55.433594 29.378906 55.515625 29.085938 55.566406 C 28.984375 55.582031 28.929688 55.703125 28.957031 55.792969 C 28.984375 55.898438 29.085938 55.941406 29.183594 55.921875 C 30.34375 55.726562 31.386719 55.019531 32.039062 54.046875 C 32.226562 53.769531 32.375 53.46875 32.488281 53.15625 C 32.523438 53.0625 32.449219 52.953125 32.359375 52.929688 C 32.253906 52.898438 32.164062 52.964844 32.128906 53.058594 Z M 32.128906 53.058594 " fill-opacity="1" fill-rule="nonzero"/><path fill="#ff3e75" d="M 31.101562 54.777344 C 31.945312 55.949219 32.496094 57.3125 32.71875 58.738281 C 32.78125 59.132812 32.8125 59.535156 32.820312 59.933594 C 32.824219 60.175781 33.195312 60.175781 33.191406 59.933594 C 33.164062 58.445312 32.777344 56.96875 32.082031 55.652344 C 31.886719 55.285156 31.667969 54.929688 31.421875 54.589844 C 31.367188 54.507812 31.261719 54.46875 31.167969 54.523438 C 31.089844 54.570312 31.042969 54.695312 31.101562 54.777344 Z M 31.101562 54.777344 " fill-opacity="1" fill-rule="nonzero"/><path fill="#ff3e75" d="M 50.066406 58.28125 C 49.84375 57.378906 49.269531 56.582031 48.5 56.0625 C 47.695312 55.511719 46.695312 55.328125 45.742188 55.5 C 45.203125 55.59375 44.683594 55.8125 44.238281 56.128906 C 44.15625 56.1875 44.117188 56.292969 44.171875 56.382812 C 44.21875 56.464844 44.34375 56.511719 44.425781 56.449219 C 45.15625 55.929688 46.089844 55.703125 46.976562 55.847656 C 47.816406 55.984375 48.578125 56.449219 49.097656 57.125 C 49.386719 57.496094 49.59375 57.925781 49.710938 58.378906 C 49.765625 58.613281 50.125 58.511719 50.066406 58.28125 Z M 50.066406 58.28125 " fill-opacity="1" fill-rule="nonzero"/><path fill="#ff3e75" d="M 24.039062 51.371094 C 24.28125 51.128906 24.589844 50.976562 24.910156 50.871094 C 25.28125 50.75 25.667969 50.675781 26.046875 50.609375 C 26.816406 50.484375 27.625 50.472656 28.359375 50.761719 C 28.71875 50.90625 29.046875 51.125 29.304688 51.417969 C 29.464844 51.597656 29.726562 51.332031 29.566406 51.152344 C 29.042969 50.5625 28.273438 50.261719 27.503906 50.179688 C 27.042969 50.128906 26.582031 50.160156 26.125 50.226562 C 25.714844 50.285156 25.296875 50.363281 24.898438 50.484375 C 24.484375 50.609375 24.082031 50.796875 23.773438 51.109375 C 23.605469 51.277344 23.867188 51.542969 24.035156 51.371094 Z M 24.039062 51.371094 " fill-opacity="1" fill-rule="nonzero"/><path fill="#ff3e75" d="M 26.246094 44.1875 C 27.117188 44.5625 28.070312 44.796875 29.019531 44.671875 C 29.8125 44.566406 30.574219 44.195312 31.09375 43.578125 C 31.375 43.238281 31.582031 42.839844 31.660156 42.40625 C 31.679688 42.304688 31.636719 42.203125 31.53125 42.175781 C 31.441406 42.152344 31.320312 42.207031 31.304688 42.304688 C 31.179688 42.992188 30.71875 43.554688 30.132812 43.90625 C 29.449219 44.316406 28.632812 44.40625 27.855469 44.285156 C 27.367188 44.207031 26.886719 44.0625 26.433594 43.863281 C 26.34375 43.824219 26.234375 43.835938 26.179688 43.929688 C 26.132812 44.007812 26.15625 44.144531 26.246094 44.183594 Z M 26.246094 44.1875 " fill-opacity="1" fill-rule="nonzero"/><path fill="#ff3e75" d="M 46.886719 53.9375 C 46.484375 53.015625 45.53125 52.460938 44.585938 52.25 C 43.625 52.035156 42.601562 52.128906 41.679688 52.46875 C 40.753906 52.808594 39.910156 53.386719 39.296875 54.164062 C 38.644531 54.984375 38.273438 55.984375 38.191406 57.023438 C 38.109375 58.066406 38.324219 59.125 38.820312 60.035156 C 38.882812 60.148438 38.945312 60.253906 39.015625 60.359375 C 39.144531 60.558594 39.464844 60.375 39.335938 60.171875 C 38.808594 59.359375 38.542969 58.398438 38.546875 57.429688 C 38.550781 56.460938 38.828125 55.496094 39.371094 54.6875 C 39.882812 53.925781 40.621094 53.335938 41.453125 52.957031 C 42.285156 52.582031 43.226562 52.425781 44.128906 52.542969 C 44.996094 52.65625 45.929688 53.058594 46.40625 53.824219 C 46.46875 53.921875 46.519531 54.019531 46.5625 54.125 C 46.605469 54.214844 46.738281 54.238281 46.820312 54.191406 C 46.914062 54.132812 46.925781 54.027344 46.886719 53.9375 Z M 46.886719 53.9375 " fill-opacity="1" fill-rule="nonzero"/><path fill="#ff3e75" d="M 54.621094 53.949219 C 53.324219 53.371094 51.777344 53.488281 50.5625 54.210938 C 50.21875 54.414062 49.90625 54.664062 49.636719 54.957031 C 49.472656 55.132812 49.734375 55.394531 49.898438 55.21875 C 50.78125 54.269531 52.136719 53.8125 53.417969 53.984375 C 53.765625 54.03125 54.113281 54.128906 54.433594 54.269531 C 54.527344 54.308594 54.632812 54.296875 54.691406 54.203125 C 54.734375 54.125 54.714844 53.988281 54.621094 53.949219 Z M 54.621094 53.949219 " fill-opacity="1" fill-rule="nonzero"/><path fill="#ededf2" d="M 37.125 45.949219 C 37.125 47.664062 35.734375 49.054688 34.019531 49.054688 C 33.777344 49.054688 33.542969 49.027344 33.320312 48.976562 C 32.210938 48.71875 31.328125 47.871094 31.027344 46.785156 C 31.011719 46.730469 30.996094 46.675781 30.984375 46.621094 C 30.9375 46.40625 30.910156 46.179688 30.910156 45.949219 C 30.910156 45.347656 31.082031 44.789062 31.375 44.3125 C 31.921875 43.429688 32.902344 42.839844 34.019531 42.839844 C 35.734375 42.839844 37.125 44.230469 37.125 45.949219 Z M 37.125 45.949219 " fill-opacity="1" fill-rule="nonzero"/><path fill="#0c0c0c" d="M 34.675781 45.761719 C 34.675781 46.847656 33.796875 47.730469 32.707031 47.730469 C 31.996094 47.730469 31.371094 47.351562 31.027344 46.785156 C 31.011719 46.730469 30.996094 46.675781 30.984375 46.621094 C 30.9375 46.40625 30.910156 46.179688 30.910156 45.949219 C 30.910156 45.347656 31.082031 44.789062 31.375 44.3125 C 31.726562 43.988281 32.195312 43.792969 32.707031 43.792969 C 33.796875 43.792969 34.675781 44.675781 34.675781 45.761719 Z M 34.675781 45.761719 " fill-opacity="1" fill-rule="nonzero"/><path fill="#b52d2d" d="M 37.089844 45.507812 C 35.171875 45.128906 33.253906 44.75 31.335938 44.375 C 31.875 43.457031 32.875 42.84375 34.015625 42.84375 C 35.582031 42.84375 36.875 44 37.089844 45.507812 Z M 37.089844 45.507812 " fill-opacity="1" fill-rule="nonzero"/><path fill="#0c0c0c" d="M 32.421875 41.21875 C 32.402344 41.109375 32.324219 40.648438 32.585938 40.285156 C 32.585938 40.285156 32.761719 40.042969 33.058594 39.933594 C 33.785156 39.65625 34.589844 40.710938 36.296875 41.742188 C 37.699219 42.582031 38.667969 42.78125 38.640625 43.261719 C 38.617188 43.617188 38.058594 43.835938 37.988281 43.867188 C 37.398438 44.101562 36.835938 43.890625 35.496094 43.265625 C 32.894531 42.054688 32.503906 41.679688 32.421875 41.21875 Z M 32.421875 41.21875 " fill-opacity="1" fill-rule="nonzero"/><path fill="#ededf2" d="M 29.160156 45.949219 C 29.160156 47.503906 28.015625 48.792969 26.519531 49.019531 C 26.367188 49.042969 26.210938 49.054688 26.050781 49.054688 C 25.097656 49.054688 24.246094 48.625 23.675781 47.949219 C 23.21875 47.410156 22.945312 46.710938 22.945312 45.949219 C 22.945312 44.230469 24.335938 42.839844 26.050781 42.839844 C 27.769531 42.839844 29.160156 44.230469 29.160156 45.949219 Z M 29.160156 45.949219 " fill-opacity="1" fill-rule="nonzero"/><path fill="#0c0c0c" d="M 26.710938 45.761719 C 26.710938 46.847656 25.828125 47.730469 24.742188 47.730469 C 24.03125 47.730469 23.40625 47.351562 23.058594 46.785156 C 23.042969 46.730469 23.03125 46.675781 23.019531 46.621094 C 22.96875 46.40625 22.945312 46.179688 22.945312 45.949219 C 22.945312 45.347656 23.113281 44.789062 23.410156 44.3125 C 23.761719 43.988281 24.226562 43.792969 24.742188 43.792969 C 25.828125 43.792969 26.710938 44.675781 26.710938 45.761719 Z M 26.710938 45.761719 " fill-opacity="1" fill-rule="nonzero"/><path fill="#b52d2d" d="M 22.980469 45.507812 C 24.898438 45.128906 26.816406 44.75 28.734375 44.375 C 28.195312 43.457031 27.199219 42.84375 26.058594 42.84375 C 24.492188 42.84375 23.195312 44 22.980469 45.507812 Z M 22.980469 45.507812 " fill-opacity="1" fill-rule="nonzero"/><path fill="#0c0c0c" d="M 27.753906 41.25 C 27.773438 41.136719 27.859375 40.679688 27.597656 40.3125 C 27.597656 40.3125 27.425781 40.070312 27.128906 39.953125 C 26.402344 39.671875 25.589844 40.722656 23.875 41.730469 C 22.464844 42.5625 21.492188 42.75 21.515625 43.230469 C 21.535156 43.585938 22.09375 43.8125 22.160156 43.839844 C 22.75 44.082031 23.3125 43.875 24.660156 43.265625 C 27.273438 42.078125 27.664062 41.707031 27.75 41.25 Z M 27.753906 41.25 " fill-opacity="1" fill-rule="nonzero"/><path fill="#0c0c0c" d="M 27.578125 52.871094 C 29.320312 52.152344 31.183594 51.730469 33.070312 51.644531 C 33.605469 51.617188 34.144531 51.621094 34.683594 51.648438 C 34.933594 51.660156 34.929688 51.273438 34.683594 51.257812 C 32.765625 51.160156 30.832031 51.398438 28.996094 51.953125 C 28.480469 52.109375 27.972656 52.292969 27.476562 52.496094 C 27.378906 52.539062 27.308594 52.625 27.339844 52.738281 C 27.367188 52.828125 27.480469 52.914062 27.578125 52.871094 Z M 27.578125 52.871094 " fill-opacity="1" fill-rule="nonzero"/><path fill="#0c0c0c" d="M 40.300781 62.355469 C 39.78125 61.710938 39.234375 61.089844 38.652344 60.5 C 38.242188 60.082031 37.816406 59.679688 37.359375 59.316406 C 36.890625 58.941406 36.363281 58.550781 35.765625 58.414062 C 35.226562 58.289062 34.699219 58.402344 34.230469 58.691406 C 33.9375 58.871094 33.683594 59.105469 33.4375 59.34375 C 32.773438 59.980469 32.167969 60.671875 31.570312 61.367188 C 30.683594 62.402344 29.824219 63.464844 28.984375 64.539062 C 28.867188 64.6875 28.75 64.839844 28.632812 64.988281 C 28.570312 65.074219 28.550781 65.183594 28.632812 65.265625 C 28.699219 65.332031 28.84375 65.347656 28.90625 65.265625 C 29.757812 64.171875 30.621094 63.089844 31.515625 62.03125 C 32.144531 61.285156 32.785156 60.546875 33.46875 59.855469 C 33.683594 59.640625 33.898438 59.429688 34.128906 59.238281 C 34.152344 59.222656 34.175781 59.203125 34.195312 59.1875 C 34.21875 59.171875 34.222656 59.167969 34.195312 59.1875 C 34.234375 59.160156 34.273438 59.128906 34.3125 59.101562 C 34.441406 59.011719 34.578125 58.933594 34.71875 58.875 C 34.8125 58.832031 34.914062 58.804688 35.015625 58.78125 C 35.054688 58.773438 35.09375 58.765625 35.132812 58.757812 C 35.140625 58.757812 35.097656 58.761719 35.140625 58.757812 C 35.160156 58.757812 35.183594 58.753906 35.207031 58.753906 C 35.828125 58.710938 36.371094 59.0625 36.851562 59.414062 C 37.304688 59.746094 37.722656 60.128906 38.125 60.523438 C 38.769531 61.152344 39.371094 61.828125 39.941406 62.527344 C 39.96875 62.5625 39.996094 62.597656 40.027344 62.632812 C 40.09375 62.714844 40.230469 62.699219 40.300781 62.632812 C 40.382812 62.550781 40.367188 62.441406 40.300781 62.359375 Z M 40.300781 62.355469 " fill-opacity="1" fill-rule="nonzero"/><path fill="#0c0c0c" d="M 29.890625 62.011719 C 29.484375 61.222656 28.988281 60.46875 28.382812 59.8125 C 27.984375 59.382812 27.523438 58.984375 27.003906 58.703125 C 26.617188 58.492188 26.175781 58.332031 25.730469 58.363281 C 24.957031 58.421875 24.363281 58.953125 23.839844 59.472656 C 23.191406 60.117188 22.585938 60.804688 21.996094 61.5 C 21.140625 62.5 20.316406 63.519531 19.507812 64.554688 C 19.394531 64.699219 19.28125 64.84375 19.167969 64.992188 C 19.105469 65.074219 19.089844 65.1875 19.167969 65.265625 C 19.234375 65.332031 19.378906 65.347656 19.445312 65.265625 C 20.257812 64.214844 21.089844 63.175781 21.945312 62.160156 C 22.5625 61.425781 23.1875 60.699219 23.855469 60.011719 C 24.074219 59.785156 24.296875 59.5625 24.53125 59.355469 C 24.578125 59.316406 24.621094 59.277344 24.664062 59.242188 C 24.6875 59.222656 24.707031 59.207031 24.726562 59.191406 C 24.734375 59.183594 24.765625 59.160156 24.742188 59.179688 C 24.703125 59.207031 24.765625 59.160156 24.773438 59.15625 C 24.796875 59.140625 24.816406 59.125 24.835938 59.109375 C 25.046875 58.964844 25.273438 58.847656 25.523438 58.789062 C 25.566406 58.777344 25.605469 58.769531 25.644531 58.761719 C 25.65625 58.761719 25.664062 58.761719 25.675781 58.757812 C 25.675781 58.757812 25.632812 58.761719 25.65625 58.761719 C 25.671875 58.757812 25.6875 58.757812 25.703125 58.757812 C 25.761719 58.75 25.824219 58.75 25.882812 58.75 C 25.921875 58.75 25.960938 58.753906 25.996094 58.757812 C 26.007812 58.757812 26.050781 58.765625 26.019531 58.761719 C 26.046875 58.765625 26.078125 58.769531 26.105469 58.777344 C 26.214844 58.796875 26.320312 58.828125 26.425781 58.863281 C 26.957031 59.054688 27.433594 59.421875 27.835938 59.8125 C 28.5 60.453125 29.03125 61.226562 29.464844 62.039062 C 29.496094 62.097656 29.527344 62.152344 29.554688 62.210938 C 29.667969 62.433594 30.003906 62.234375 29.890625 62.015625 Z M 29.890625 62.011719 " fill-opacity="1" fill-rule="nonzero"/><g clip-path="url(#f8fb6f09a4)"><path fill="#0c0c0c" d="M 27.859375 64.691406 C 27.976562 64.6875 28.085938 64.683594 28.191406 64.683594 C 28.730469 64.683594 29.167969 65.109375 29.179688 65.640625 C 29.183594 65.925781 29.191406 66.210938 29.195312 66.492188 C 29.203125 66.835938 28.941406 67.121094 28.601562 67.148438 C 27.421875 67.246094 26.285156 67.328125 25.144531 67.40625 C 24.613281 67.445312 23.808594 67.492188 23.527344 67.050781 C 23.355469 66.78125 23.445312 66.441406 23.46875 66.355469 C 23.910156 64.867188 27.585938 64.699219 27.859375 64.691406 Z M 27.859375 64.691406 " fill-opacity="1" fill-rule="nonzero"/></g><g clip-path="url(#28fdeb07c3)"><path fill="#0c0c0c" d="M 18.46875 64.652344 C 18.585938 64.648438 18.699219 64.648438 18.804688 64.648438 C 19.339844 64.644531 19.777344 65.070312 19.789062 65.605469 C 19.796875 65.886719 19.800781 66.171875 19.808594 66.457031 C 19.8125 66.796875 19.550781 67.085938 19.210938 67.113281 C 18.035156 67.207031 16.898438 67.292969 15.757812 67.371094 C 15.222656 67.40625 14.421875 67.453125 14.136719 67.011719 C 13.96875 66.746094 14.054688 66.40625 14.082031 66.316406 C 14.519531 64.832031 18.199219 64.664062 18.46875 64.652344 Z M 18.46875 64.652344 " fill-opacity="1" fill-rule="nonzero"/></g><path fill="#0c0c0c" d="M 44.65625 52.894531 C 45.316406 53.875 45.773438 54.980469 45.941406 56.15625 C 45.945312 56.195312 45.941406 56.167969 45.941406 56.15625 C 45.941406 56.167969 45.941406 56.183594 45.945312 56.195312 C 45.945312 56.214844 45.949219 56.234375 45.953125 56.253906 C 45.960938 56.3125 45.964844 56.371094 45.972656 56.429688 C 45.988281 56.558594 46 56.691406 46.011719 56.824219 C 46.035156 57.101562 46.050781 57.382812 46.035156 57.664062 C 46.011719 58.179688 45.890625 58.722656 45.503906 59.089844 C 45.117188 59.457031 44.539062 59.550781 44.019531 59.542969 C 43.414062 59.535156 42.851562 59.425781 42.253906 59.332031 C 40.78125 59.105469 39.316406 58.839844 37.855469 58.550781 C 36.679688 58.316406 35.511719 58.066406 34.34375 57.804688 C 34.234375 57.777344 34.125 57.753906 34.019531 57.730469 C 33.773438 57.675781 33.671875 58.050781 33.914062 58.105469 C 35.0625 58.367188 36.21875 58.617188 37.371094 58.847656 C 38.859375 59.148438 40.351562 59.425781 41.851562 59.660156 C 42.5 59.761719 43.152344 59.886719 43.808594 59.921875 C 44.378906 59.957031 44.992188 59.898438 45.484375 59.589844 C 46.550781 58.921875 46.480469 57.519531 46.359375 56.429688 C 46.304688 55.953125 46.226562 55.488281 46.09375 55.03125 C 45.90625 54.390625 45.640625 53.777344 45.304688 53.203125 C 45.207031 53.03125 45.097656 52.863281 44.988281 52.695312 C 44.847656 52.492188 44.511719 52.683594 44.652344 52.894531 Z M 44.65625 52.894531 " fill-opacity="1" fill-rule="nonzero"/><path fill="#0c0c0c" d="M 33.6875 57.691406 C 33.375 57.671875 32.816406 57.632812 32.183594 57.875 C 31.882812 57.992188 30.957031 58.347656 30.839844 59.058594 C 30.828125 59.132812 30.792969 59.40625 30.9375 59.660156 C 31.175781 60.066406 31.703125 60.132812 31.804688 60.144531 C 32.691406 60.25 33.449219 59.46875 33.808594 59.097656 C 34.054688 58.835938 34.375 58.441406 34.640625 57.875 C 34.417969 57.804688 34.089844 57.71875 33.6875 57.691406 Z M 33.6875 57.691406 " fill-opacity="1" fill-rule="nonzero"/><path fill="#0c0c0c" d="M 16.128906 54.617188 C 15.851562 55.3125 15.652344 56.042969 15.554688 56.789062 C 15.429688 57.773438 15.519531 58.960938 16.425781 59.5625 C 16.957031 59.914062 17.628906 59.953125 18.242188 59.910156 C 18.75 59.875 19.253906 59.796875 19.757812 59.730469 C 20.871094 59.574219 21.980469 59.390625 23.082031 59.1875 C 24.542969 58.914062 26 58.597656 27.441406 58.25 C 27.640625 58.203125 27.839844 58.15625 28.039062 58.105469 C 28.28125 58.046875 28.179688 57.671875 27.933594 57.730469 C 26.484375 58.089844 25.027344 58.417969 23.5625 58.703125 C 22.425781 58.921875 21.285156 59.117188 20.144531 59.285156 C 19.910156 59.320312 19.675781 59.351562 19.445312 59.386719 C 19.402344 59.390625 19.371094 59.394531 19.3125 59.402344 C 19.257812 59.410156 19.203125 59.417969 19.148438 59.421875 C 19.042969 59.4375 18.9375 59.453125 18.828125 59.464844 C 18.261719 59.535156 17.664062 59.601562 17.105469 59.445312 C 16.832031 59.371094 16.585938 59.238281 16.390625 59.03125 C 16.308594 58.945312 16.265625 58.890625 16.203125 58.789062 C 16.148438 58.699219 16.097656 58.59375 16.066406 58.515625 C 15.894531 58.066406 15.875 57.605469 15.910156 57.121094 C 15.96875 56.355469 16.183594 55.566406 16.464844 54.832031 C 16.476562 54.796875 16.492188 54.757812 16.503906 54.722656 C 16.542969 54.625 16.460938 54.507812 16.371094 54.484375 C 16.257812 54.453125 16.171875 54.523438 16.128906 54.621094 Z M 16.128906 54.617188 " fill-opacity="1" fill-rule="nonzero"/><path fill="#0c0c0c" d="M 28.269531 57.691406 C 28.578125 57.671875 29.140625 57.632812 29.769531 57.875 C 30.074219 57.992188 30.996094 58.347656 31.117188 59.058594 C 31.128906 59.132812 31.164062 59.40625 31.015625 59.660156 C 30.78125 60.066406 30.253906 60.132812 30.152344 60.144531 C 29.261719 60.25 28.507812 59.46875 28.148438 59.097656 C 27.898438 58.835938 27.578125 58.441406 27.316406 57.875 C 27.539062 57.804688 27.867188 57.71875 28.269531 57.691406 Z M 28.269531 57.691406 " fill-opacity="1" fill-rule="nonzero"/><path fill="#0c0c0c" d="M 19.441406 31.277344 C 19.5 32.988281 19.558594 34.699219 19.617188 36.414062 C 19.632812 36.902344 19.652344 37.390625 19.667969 37.882812 C 19.675781 38.128906 20.0625 38.132812 20.054688 37.882812 C 19.996094 36.167969 19.9375 34.457031 19.878906 32.746094 C 19.859375 32.253906 19.84375 31.765625 19.828125 31.277344 C 19.820312 31.027344 19.429688 31.027344 19.441406 31.277344 Z M 19.441406 31.277344 " fill-opacity="1" fill-rule="nonzero"/><path fill="#0c0c0c" d="M 21.195312 30.464844 C 21.261719 32.335938 21.332031 34.203125 21.398438 36.070312 C 21.417969 36.601562 21.4375 37.128906 21.457031 37.65625 C 21.464844 37.90625 21.855469 37.90625 21.84375 37.65625 C 21.777344 35.789062 21.707031 33.917969 21.640625 32.050781 C 21.621094 31.523438 21.601562 30.996094 21.582031 30.464844 C 21.574219 30.214844 21.1875 30.214844 21.195312 30.464844 Z M 21.195312 30.464844 " fill-opacity="1" fill-rule="nonzero"/><path fill="#0c0c0c" d="M 23.09375 30.054688 C 23.132812 31.683594 23.171875 33.308594 23.207031 34.9375 C 23.210938 35.1875 23.601562 35.1875 23.59375 34.9375 C 23.558594 33.308594 23.519531 31.683594 23.484375 30.054688 C 23.476562 29.808594 23.089844 29.804688 23.09375 30.054688 Z M 23.09375 30.054688 " fill-opacity="1" fill-rule="nonzero"/></svg>