<svg xmlns="http://www.w3.org/2000/svg" xmlns:xlink="http://www.w3.org/1999/xlink" width="400" zoomAndPan="magnify" viewBox="0 0 300 165.000002" height="220" preserveAspectRatio="xMidYMid meet" version="1.0"><defs><clipPath id="5821beccd7"><path d="M 67.113281 16.402344 L 232.613281 16.402344 L 232.613281 152.824219 L 67.113281 152.824219 Z M 67.113281 16.402344 " clip-rule="nonzero"/></clipPath></defs><g clip-path="url(#5821beccd7)"><path fill="#99aab5" d="M 150.824219 16.519531 C 118.527344 16.519531 88.234375 35.691406 71.730469 66.546875 C 71.167969 67.605469 70.863281 68.773438 70.863281 69.96875 L 70.863281 70.761719 C 70.863281 71.960938 71.164062 73.136719 71.730469 74.199219 C 75.367188 80.964844 79.707031 87.128906 84.550781 92.6875 L 69.871094 107.371094 C 69.519531 107.707031 69.207031 108.070312 68.933594 108.46875 C 68.65625 108.867188 68.421875 109.285156 68.230469 109.730469 C 68.039062 110.175781 67.894531 110.632812 67.792969 111.105469 C 67.691406 111.578125 67.640625 112.058594 67.632812 112.542969 C 67.628906 113.023438 67.671875 113.503906 67.761719 113.980469 C 67.855469 114.453125 67.992188 114.914062 68.171875 115.363281 C 68.355469 115.8125 68.582031 116.238281 68.847656 116.640625 C 69.117188 117.042969 69.421875 117.414062 69.761719 117.757812 C 70.105469 118.097656 70.476562 118.402344 70.878906 118.671875 C 71.285156 118.9375 71.707031 119.164062 72.15625 119.347656 C 72.605469 119.53125 73.066406 119.667969 73.539062 119.757812 C 74.015625 119.847656 74.496094 119.890625 74.980469 119.886719 C 75.460938 119.882812 75.941406 119.828125 76.414062 119.726562 C 76.886719 119.628906 77.347656 119.480469 77.789062 119.289062 C 78.234375 119.097656 78.65625 118.863281 79.050781 118.589844 C 79.449219 118.3125 79.816406 118 80.148438 117.652344 L 94.875 102.925781 C 99.988281 107.261719 105.488281 111.003906 111.289062 114.074219 L 101.292969 133.695312 C 101.0625 134.125 100.871094 134.570312 100.730469 135.035156 C 100.585938 135.496094 100.492188 135.972656 100.441406 136.457031 C 100.394531 136.9375 100.394531 137.421875 100.441406 137.90625 C 100.492188 138.390625 100.585938 138.863281 100.730469 139.328125 C 100.875 139.792969 101.0625 140.238281 101.296875 140.664062 C 101.527344 141.089844 101.800781 141.488281 102.113281 141.863281 C 102.425781 142.234375 102.773438 142.570312 103.152344 142.871094 C 103.535156 143.175781 103.941406 143.4375 104.375 143.65625 C 104.808594 143.878906 105.257812 144.054688 105.726562 144.183594 C 106.195312 144.3125 106.671875 144.398438 107.15625 144.433594 C 107.640625 144.464844 108.121094 144.453125 108.605469 144.390625 C 109.085938 144.328125 109.558594 144.21875 110.019531 144.0625 C 110.476562 143.90625 110.917969 143.707031 111.339844 143.460938 C 111.757812 143.21875 112.148438 142.933594 112.511719 142.609375 C 112.875 142.285156 113.203125 141.929688 113.492188 141.542969 C 113.785156 141.152344 114.035156 140.738281 114.246094 140.300781 L 124.710938 119.765625 C 130.78125 121.773438 137.054688 123.097656 143.453125 123.671875 L 143.453125 145.851562 C 143.445312 146.335938 143.488281 146.8125 143.574219 147.285156 C 143.664062 147.757812 143.796875 148.21875 143.976562 148.667969 C 144.15625 149.113281 144.378906 149.539062 144.644531 149.941406 C 144.90625 150.34375 145.207031 150.71875 145.546875 151.058594 C 145.882812 151.402344 146.253906 151.710938 146.652344 151.980469 C 147.050781 152.25 147.472656 152.476562 147.917969 152.664062 C 148.363281 152.847656 148.820312 152.988281 149.292969 153.082031 C 149.765625 153.179688 150.242188 153.226562 150.722656 153.226562 C 151.207031 153.226562 151.683594 153.179688 152.15625 153.082031 C 152.628906 152.988281 153.085938 152.847656 153.53125 152.664062 C 153.972656 152.476562 154.394531 152.25 154.796875 151.980469 C 155.195312 151.710938 155.5625 151.402344 155.902344 151.058594 C 156.238281 150.71875 156.539062 150.34375 156.804688 149.941406 C 157.070312 149.539062 157.289062 149.113281 157.46875 148.667969 C 157.648438 148.21875 157.785156 147.757812 157.871094 147.285156 C 157.960938 146.8125 158 146.335938 157.996094 145.851562 L 157.996094 123.671875 C 164.011719 123.132812 169.925781 121.945312 175.660156 120.136719 L 185.941406 140.300781 C 186.15625 140.726562 186.414062 141.125 186.707031 141.5 C 187.003906 141.875 187.332031 142.21875 187.695312 142.53125 C 188.058594 142.839844 188.449219 143.113281 188.867188 143.34375 C 189.285156 143.578125 189.71875 143.769531 190.171875 143.917969 C 190.628906 144.066406 191.089844 144.167969 191.566406 144.222656 C 192.039062 144.277344 192.515625 144.289062 192.992188 144.25 C 193.46875 144.214844 193.9375 144.128906 194.394531 144 C 194.855469 143.871094 195.296875 143.699219 195.722656 143.480469 C 196.148438 143.265625 196.550781 143.007812 196.925781 142.710938 C 197.300781 142.417969 197.644531 142.085938 197.953125 141.722656 C 198.261719 141.359375 198.535156 140.972656 198.769531 140.554688 C 199.003906 140.136719 199.191406 139.703125 199.339844 139.246094 C 199.488281 138.792969 199.589844 138.328125 199.644531 137.855469 C 199.703125 137.378906 199.710938 136.90625 199.675781 136.429688 C 199.636719 135.953125 199.554688 135.484375 199.425781 135.023438 C 199.292969 134.566406 199.121094 134.121094 198.90625 133.695312 L 189.164062 114.570312 C 195.070312 111.539062 200.707031 107.871094 205.917969 103.535156 L 220.035156 117.652344 C 220.367188 118 220.734375 118.3125 221.132812 118.589844 C 221.53125 118.863281 221.949219 119.097656 222.394531 119.289062 C 222.839844 119.480469 223.296875 119.628906 223.769531 119.726562 C 224.242188 119.828125 224.722656 119.882812 225.203125 119.886719 C 225.6875 119.890625 226.167969 119.847656 226.644531 119.757812 C 227.117188 119.667969 227.578125 119.53125 228.027344 119.347656 C 228.476562 119.164062 228.902344 118.9375 229.304688 118.671875 C 229.707031 118.402344 230.078125 118.097656 230.421875 117.757812 C 230.761719 117.414062 231.066406 117.042969 231.335938 116.640625 C 231.601562 116.238281 231.828125 115.8125 232.011719 115.363281 C 232.195312 114.914062 232.332031 114.453125 232.421875 113.980469 C 232.511719 113.503906 232.554688 113.023438 232.550781 112.542969 C 232.542969 112.058594 232.492188 111.578125 232.390625 111.105469 C 232.292969 110.632812 232.144531 110.175781 231.953125 109.730469 C 231.761719 109.285156 231.527344 108.867188 231.25 108.46875 C 230.976562 108.070312 230.664062 107.707031 230.316406 107.371094 L 216.328125 93.382812 C 221.464844 87.597656 226.039062 81.136719 229.847656 74.015625 C 230.40625 72.953125 230.699219 71.769531 230.699219 70.578125 L 230.699219 69.796875 C 230.699219 68.597656 230.398438 67.40625 229.832031 66.347656 C 213.3125 35.609375 183.039062 16.519531 150.824219 16.519531 Z M 150.824219 16.519531 " fill-opacity="1" fill-rule="nonzero"/></g></svg>