<svg xmlns="http://www.w3.org/2000/svg" xmlns:xlink="http://www.w3.org/1999/xlink" width="100" zoomAndPan="magnify" viewBox="0 0 75 74.999997" height="100" preserveAspectRatio="xMidYMid meet" version="1.0"><defs><clipPath id="91592d39c5"><path d="M 42 64 L 49 64 L 49 67.5 L 42 67.5 Z M 42 64 " clip-rule="nonzero"/></clipPath><clipPath id="70a2245199"><path d="M 27 64 L 34 64 L 34 67.5 L 27 67.5 Z M 27 64 " clip-rule="nonzero"/></clipPath><clipPath id="7ffd99906d"><path d="M 14.398438 16 L 60.898438 16 L 60.898438 52 L 14.398438 52 Z M 14.398438 16 " clip-rule="nonzero"/></clipPath><clipPath id="61590f4fb8"><path d="M 19 7.5 L 31 7.5 L 31 19 L 19 19 Z M 19 7.5 " clip-rule="nonzero"/></clipPath></defs><path fill="#0c0c0c" d="M 42.316406 49.347656 C 42.816406 51.398438 43.148438 53.492188 43.300781 55.597656 C 43.472656 57.980469 43.417969 60.382812 43.136719 62.753906 C 43.007812 63.832031 42.832031 64.902344 42.609375 65.960938 C 42.589844 66.066406 42.640625 66.179688 42.753906 66.210938 C 42.851562 66.238281 42.976562 66.175781 43 66.070312 C 43.429688 64.007812 43.6875 61.910156 43.773438 59.808594 C 43.871094 57.375 43.726562 54.9375 43.359375 52.53125 C 43.191406 51.425781 42.972656 50.328125 42.707031 49.238281 C 42.644531 48.988281 42.253906 49.09375 42.316406 49.347656 Z M 42.316406 49.347656 " fill-opacity="1" fill-rule="nonzero"/><g clip-path="url(#91592d39c5)"><path fill="#0c0c0c" d="M 43.902344 64.601562 C 43.78125 64.597656 43.664062 64.597656 43.554688 64.597656 C 42.996094 64.59375 42.539062 65.035156 42.527344 65.585938 C 42.523438 65.878906 42.515625 66.171875 42.511719 66.464844 C 42.503906 66.816406 42.773438 67.117188 43.128906 67.144531 C 44.351562 67.242188 45.535156 67.328125 46.722656 67.410156 C 47.277344 67.449219 48.113281 67.496094 48.40625 67.042969 C 48.582031 66.765625 48.492188 66.414062 48.464844 66.324219 C 48.011719 64.789062 44.183594 64.613281 43.898438 64.601562 Z M 43.902344 64.601562 " fill-opacity="1" fill-rule="nonzero"/></g><path fill="#0c0c0c" d="M 33.34375 49.238281 C 32.890625 51.375 32.59375 53.542969 32.460938 55.722656 C 32.316406 58.070312 32.363281 60.425781 32.59375 62.761719 C 32.707031 63.871094 32.855469 64.972656 33.050781 66.070312 C 33.066406 66.175781 33.199219 66.234375 33.296875 66.210938 C 33.410156 66.179688 33.457031 66.070312 33.4375 65.960938 C 33.082031 63.9375 32.871094 61.886719 32.804688 59.832031 C 32.730469 57.457031 32.847656 55.070312 33.15625 52.710938 C 33.304688 51.582031 33.5 50.460938 33.734375 49.347656 C 33.757812 49.242188 33.703125 49.128906 33.59375 49.101562 C 33.492188 49.074219 33.367188 49.132812 33.34375 49.238281 Z M 33.34375 49.238281 " fill-opacity="1" fill-rule="nonzero"/><g clip-path="url(#70a2245199)"><path fill="#0c0c0c" d="M 32.148438 64.601562 C 32.269531 64.597656 32.386719 64.597656 32.496094 64.597656 C 33.054688 64.59375 33.507812 65.035156 33.519531 65.585938 C 33.527344 65.878906 33.53125 66.171875 33.539062 66.464844 C 33.546875 66.816406 33.273438 67.117188 32.917969 67.144531 C 31.695312 67.242188 30.511719 67.328125 29.328125 67.410156 C 28.769531 67.449219 27.9375 67.496094 27.644531 67.042969 C 27.464844 66.765625 27.558594 66.414062 27.582031 66.324219 C 28.039062 64.789062 31.867188 64.613281 32.148438 64.601562 Z M 32.148438 64.601562 " fill-opacity="1" fill-rule="nonzero"/></g><path fill="#0c0c0c" d="M 45.269531 54.289062 C 45.121094 54.539062 44.972656 54.789062 44.824219 55.039062 C 44.78125 55.109375 44.785156 55.226562 44.855469 55.28125 C 45.117188 55.492188 45.382812 55.703125 45.644531 55.917969 L 45.613281 55.671875 C 45.460938 55.9375 45.308594 56.199219 45.15625 56.464844 C 45.113281 56.535156 45.117188 56.648438 45.1875 56.707031 C 45.429688 56.90625 45.671875 57.105469 45.914062 57.300781 L 45.882812 57.058594 C 45.714844 57.40625 45.546875 57.753906 45.382812 58.101562 C 45.335938 58.199219 45.355469 58.316406 45.453125 58.375 C 45.542969 58.425781 45.683594 58.402344 45.730469 58.304688 C 45.898438 57.957031 46.0625 57.609375 46.230469 57.261719 C 46.265625 57.1875 46.269531 57.078125 46.199219 57.019531 C 45.957031 56.820312 45.714844 56.621094 45.472656 56.421875 L 45.503906 56.664062 C 45.65625 56.402344 45.808594 56.140625 45.960938 55.875 C 46.003906 55.804688 46 55.6875 45.929688 55.632812 C 45.667969 55.421875 45.402344 55.210938 45.140625 54.996094 C 45.148438 55.078125 45.160156 55.160156 45.171875 55.242188 C 45.320312 54.992188 45.46875 54.742188 45.617188 54.492188 C 45.75 54.269531 45.402344 54.066406 45.269531 54.289062 Z M 45.269531 54.289062 " fill-opacity="1" fill-rule="nonzero"/><path fill="#0c0c0c" d="M 30.808594 58.101562 C 30.660156 58.351562 30.511719 58.597656 30.363281 58.847656 C 30.320312 58.917969 30.328125 59.039062 30.394531 59.09375 C 30.65625 59.304688 30.921875 59.515625 31.183594 59.726562 L 31.152344 59.484375 C 31 59.746094 30.847656 60.007812 30.695312 60.273438 C 30.65625 60.34375 30.660156 60.460938 30.726562 60.515625 C 30.96875 60.714844 31.210938 60.914062 31.453125 61.113281 L 31.421875 60.871094 C 31.253906 61.21875 31.089844 61.5625 30.921875 61.910156 C 30.875 62.007812 30.894531 62.128906 30.996094 62.1875 C 31.082031 62.238281 31.222656 62.210938 31.269531 62.113281 C 31.4375 61.765625 31.605469 61.417969 31.769531 61.070312 C 31.804688 60.996094 31.8125 60.886719 31.738281 60.828125 C 31.496094 60.628906 31.257812 60.429688 31.015625 60.234375 L 31.046875 60.476562 C 31.199219 60.210938 31.351562 59.949219 31.503906 59.6875 C 31.542969 59.613281 31.539062 59.496094 31.472656 59.441406 C 31.207031 59.230469 30.945312 59.019531 30.679688 58.808594 L 30.710938 59.050781 C 30.859375 58.800781 31.007812 58.550781 31.160156 58.300781 C 31.289062 58.082031 30.941406 57.878906 30.808594 58.101562 Z M 30.808594 58.101562 " fill-opacity="1" fill-rule="nonzero"/><g clip-path="url(#7ffd99906d)"><path fill="#ff9395" d="M 58.347656 41.117188 C 58.863281 42.617188 58.496094 44.28125 57.394531 45.402344 C 56.230469 46.59375 54.445312 46.980469 52.863281 46.386719 C 52.769531 48.070312 51.640625 49.496094 50.105469 49.917969 C 48.320312 50.40625 46.324219 49.445312 45.546875 47.609375 C 45.46875 47.792969 44.089844 51.054688 40.902344 51.519531 C 39.019531 51.792969 37.566406 50.9375 37.367188 50.816406 C 35.878906 49.910156 35.285156 48.515625 35.066406 47.816406 C 35.011719 47.644531 34.980469 47.511719 34.964844 47.441406 C 34.921875 47.546875 34.851562 47.707031 34.746094 47.902344 C 34.40625 48.550781 33.707031 49.574219 32.433594 50.199219 C 29.941406 51.425781 27.488281 50.027344 27.160156 49.835938 C 24.589844 48.308594 24.296875 45.421875 24.273438 45.121094 C 23.054688 46.167969 21.328125 46.375 19.953125 45.648438 C 18.429688 44.851562 17.628906 43.066406 18.046875 41.335938 C 16.234375 40.996094 14.847656 39.519531 14.621094 37.703125 C 14.40625 35.941406 15.445312 34.097656 17.070312 33.359375 C 16.425781 32.019531 16.128906 30.421875 16.703125 29.046875 C 17.261719 27.710938 18.828125 26.75 20.207031 27.175781 C 20.246094 27.1875 20.28125 27.199219 20.320312 27.210938 C 20.285156 27.058594 20.253906 26.90625 20.230469 26.75 C 19.90625 24.578125 20.804688 22.414062 22.554688 21.199219 C 24.726562 19.691406 27.167969 20.367188 27.820312 20.589844 C 27.902344 20.617188 27.957031 20.640625 27.980469 20.648438 C 28.003906 20.59375 28.03125 20.542969 28.058594 20.492188 C 29.429688 17.785156 32.144531 16.324219 34.566406 16.796875 C 36.203125 17.117188 37.265625 18.230469 37.78125 18.890625 C 37.875 19.011719 37.953125 19.117188 38.007812 19.203125 C 38.027344 19.226562 38.042969 19.25 38.054688 19.273438 C 39.148438 17.964844 40.867188 17.414062 42.398438 17.867188 C 44.089844 18.371094 44.800781 19.882812 44.933594 20.191406 C 44.9375 20.203125 44.941406 20.214844 44.945312 20.21875 C 45.019531 20.171875 45.097656 20.125 45.171875 20.082031 C 46.941406 19.058594 49.308594 19.144531 50.984375 20.316406 C 52.734375 21.539062 53.613281 23.871094 53.105469 25.933594 C 54.660156 25.539062 56.4375 26.277344 57.246094 27.652344 C 58.058594 29.03125 57.832031 30.929688 56.722656 32.082031 C 56.882812 32.117188 57.042969 32.160156 57.199219 32.207031 C 59.34375 32.878906 60.820312 34.761719 60.859375 36.816406 C 60.890625 38.539062 59.914062 40.179688 58.347656 41.117188 Z M 58.347656 41.117188 " fill-opacity="1" fill-rule="nonzero"/></g><path fill="#ff3e75" d="M 35.660156 43.855469 C 35.425781 44.480469 35.269531 45.027344 35.167969 45.449219 C 34.933594 46.402344 34.917969 46.921875 34.914062 47.148438 C 34.914062 47.3125 34.917969 47.449219 34.921875 47.539062 C 34.855469 47.679688 34.785156 47.824219 34.714844 47.964844 C 34.703125 47.933594 34.6875 47.886719 34.671875 47.828125 C 34.484375 47.15625 34.5625 46.554688 34.796875 45.570312 C 34.921875 45.03125 35.09375 44.386719 35.328125 43.664062 C 35.4375 43.730469 35.550781 43.792969 35.660156 43.855469 Z M 35.660156 43.855469 " fill-opacity="1" fill-rule="nonzero"/><path fill="#ff3e75" d="M 36.886719 41.769531 C 36.792969 42.292969 36.523438 42.769531 36.128906 43.125 C 35.707031 43.503906 35.148438 43.707031 34.582031 43.710938 C 34.253906 43.714844 33.921875 43.652344 33.621094 43.519531 C 33.523438 43.476562 33.414062 43.492188 33.355469 43.585938 C 33.308594 43.667969 33.332031 43.808594 33.425781 43.847656 C 34.054688 44.125 34.769531 44.171875 35.421875 43.957031 C 36.027344 43.761719 36.542969 43.351562 36.882812 42.820312 C 37.066406 42.53125 37.195312 42.207031 37.257812 41.871094 C 37.277344 41.769531 37.230469 41.664062 37.125 41.636719 C 37.03125 41.609375 36.90625 41.667969 36.886719 41.769531 Z M 36.886719 41.769531 " fill-opacity="1" fill-rule="nonzero"/><path fill="#ff3e75" d="M 24.796875 44.121094 C 24.539062 43.039062 24.738281 41.855469 25.363281 40.910156 C 25.496094 40.707031 25.632812 40.535156 25.800781 40.359375 C 25.96875 40.179688 25.695312 39.90625 25.527344 40.085938 C 24.675781 40.992188 24.222656 42.230469 24.308594 43.46875 C 24.328125 43.722656 24.367188 43.972656 24.425781 44.222656 C 24.484375 44.46875 24.851562 44.359375 24.792969 44.121094 Z M 24.796875 44.121094 " fill-opacity="1" fill-rule="nonzero"/><path fill="#ff3e75" d="M 24.902344 38.515625 C 24.992188 39.621094 25.582031 40.636719 26.476562 41.296875 C 26.726562 41.484375 27 41.628906 27.292969 41.746094 C 27.386719 41.785156 27.503906 41.703125 27.527344 41.613281 C 27.558594 41.503906 27.488281 41.417969 27.394531 41.378906 C 26.496094 41.015625 25.777344 40.230469 25.460938 39.324219 C 25.367188 39.0625 25.308594 38.792969 25.285156 38.515625 C 25.277344 38.414062 25.203125 38.324219 25.09375 38.324219 C 24.996094 38.324219 24.890625 38.414062 24.902344 38.515625 Z M 24.902344 38.515625 " fill-opacity="1" fill-rule="nonzero"/><path fill="#ff3e75" d="M 40.007812 45.605469 C 40.652344 44.585938 41.292969 43.515625 41.574219 42.332031 C 41.714844 41.757812 41.753906 41.164062 41.65625 40.578125 C 41.5625 40.027344 41.335938 39.507812 41.019531 39.050781 C 40.367188 38.125 39.371094 37.433594 38.285156 37.101562 C 37.164062 36.761719 35.976562 36.882812 34.894531 37.296875 C 33.789062 37.714844 32.796875 38.375 31.84375 39.058594 C 31.726562 39.144531 31.613281 39.226562 31.5 39.308594 C 31.414062 39.371094 31.375 39.476562 31.429688 39.570312 C 31.480469 39.652344 31.609375 39.703125 31.695312 39.640625 C 32.597656 38.976562 33.523438 38.324219 34.546875 37.851562 C 35.527344 37.402344 36.625 37.148438 37.699219 37.351562 C 38.773438 37.554688 39.753906 38.132812 40.457031 38.949219 C 40.785156 39.332031 41.046875 39.777344 41.1875 40.257812 C 41.34375 40.78125 41.363281 41.339844 41.277344 41.875 C 41.089844 43.019531 40.511719 44.058594 39.910156 45.035156 C 39.832031 45.160156 39.753906 45.289062 39.675781 45.410156 C 39.542969 45.621094 39.875 45.8125 40.007812 45.605469 Z M 40.007812 45.605469 " fill-opacity="1" fill-rule="nonzero"/><path fill="#ff3e75" d="M 38.054688 19.265625 C 37.714844 19.433594 37.40625 19.675781 37.183594 19.984375 C 37.019531 20.210938 36.898438 20.460938 36.824219 20.730469 C 36.769531 20.914062 36.75 21.054688 36.738281 21.234375 C 36.726562 21.476562 36.34375 21.480469 36.355469 21.234375 C 36.402344 20.277344 36.96875 19.390625 37.828125 18.953125 C 37.921875 19.078125 38 19.183594 38.054688 19.265625 Z M 38.054688 19.265625 " fill-opacity="1" fill-rule="nonzero"/><path fill="#ff3e75" d="M 43.808594 23.855469 C 44.4375 23.769531 45.117188 23.855469 45.675781 24.167969 C 46.238281 24.476562 46.589844 24.960938 46.703125 25.558594 C 46.761719 25.863281 46.738281 26.195312 46.605469 26.480469 C 46.5625 26.574219 46.578125 26.6875 46.675781 26.742188 C 46.757812 26.792969 46.894531 26.769531 46.9375 26.675781 C 47.230469 26.03125 47.140625 25.285156 46.773438 24.691406 C 46.386719 24.0625 45.71875 23.664062 45 23.519531 C 44.570312 23.433594 44.136719 23.429688 43.703125 23.488281 C 43.601562 23.503906 43.546875 23.632812 43.570312 23.722656 C 43.601562 23.835938 43.703125 23.871094 43.808594 23.855469 Z M 43.808594 23.855469 " fill-opacity="1" fill-rule="nonzero"/><path fill="#ff9395" d="M 45.171875 20.078125 C 45.097656 20.125 45.019531 20.167969 44.945312 20.21875 C 44.941406 20.210938 44.9375 20.199219 44.933594 20.191406 C 44.941406 20.167969 44.957031 20.144531 44.976562 20.125 C 45.023438 20.078125 45.105469 20.058594 45.171875 20.078125 Z M 45.171875 20.078125 " fill-opacity="1" fill-rule="nonzero"/><path fill="#ff3e75" d="M 45.90625 23.859375 C 45.882812 23.925781 45.859375 23.988281 45.832031 24.054688 C 45.800781 24.125 45.710938 24.15625 45.636719 24.144531 C 45.609375 24.140625 45.585938 24.132812 45.566406 24.121094 C 45.550781 24.113281 45.535156 24.101562 45.527344 24.089844 C 45.46875 24.03125 45.464844 23.941406 45.5 23.863281 C 45.5 23.863281 45.5 23.863281 45.5 23.859375 L 45.503906 23.855469 L 45.503906 23.847656 C 45.507812 23.84375 45.507812 23.839844 45.511719 23.835938 C 45.519531 23.8125 45.527344 23.789062 45.535156 23.765625 C 45.546875 23.742188 45.554688 23.714844 45.566406 23.691406 C 45.574219 23.667969 45.578125 23.648438 45.585938 23.625 C 45.628906 23.503906 45.660156 23.378906 45.691406 23.257812 C 45.820312 22.660156 45.777344 22.035156 45.582031 21.457031 C 45.5 21.222656 45.390625 20.996094 45.257812 20.78125 C 45.207031 20.699219 45.152344 20.621094 45.09375 20.542969 C 45.089844 20.535156 45.070312 20.507812 45.0625 20.496094 C 45.0625 20.496094 45.058594 20.496094 45.058594 20.492188 C 45.050781 20.484375 45.039062 20.46875 45.035156 20.464844 C 45.015625 20.441406 44.996094 20.417969 44.976562 20.394531 C 44.925781 20.335938 44.90625 20.257812 44.933594 20.1875 C 44.941406 20.199219 44.945312 20.210938 44.945312 20.21875 C 45.019531 20.167969 45.097656 20.121094 45.175781 20.078125 C 45.203125 20.085938 45.230469 20.101562 45.246094 20.125 C 45.390625 20.292969 45.523438 20.476562 45.636719 20.667969 C 46.203125 21.636719 46.292969 22.8125 45.910156 23.859375 Z M 45.90625 23.859375 " fill-opacity="1" fill-rule="nonzero"/><path fill="#ff3e75" d="M 51.808594 26.308594 C 50.90625 26.589844 50.109375 27.148438 49.558594 27.917969 C 49.394531 28.144531 49.257812 28.390625 49.144531 28.644531 C 49.101562 28.742188 49.117188 28.851562 49.214844 28.90625 C 49.292969 28.953125 49.433594 28.933594 49.476562 28.839844 C 49.738281 28.246094 50.140625 27.71875 50.65625 27.324219 C 51.039062 27.03125 51.464844 26.816406 51.910156 26.675781 C 52.144531 26.601562 52.042969 26.234375 51.808594 26.308594 Z M 51.808594 26.308594 " fill-opacity="1" fill-rule="nonzero"/><path fill="#ff3e75" d="M 48.09375 27.527344 C 48.851562 28.054688 49.324219 28.949219 49.242188 29.871094 C 49.167969 30.691406 48.621094 31.40625 47.90625 31.789062 C 47.472656 32.023438 46.984375 32.128906 46.496094 32.121094 C 46.246094 32.113281 46.246094 32.496094 46.496094 32.5 C 47.472656 32.519531 48.441406 32.097656 49.042969 31.328125 C 49.660156 30.542969 49.800781 29.492188 49.414062 28.570312 C 49.179688 28.011719 48.785156 27.546875 48.289062 27.199219 C 48.203125 27.140625 48.074219 27.183594 48.023438 27.265625 C 47.96875 27.363281 48.007812 27.46875 48.09375 27.527344 Z M 48.09375 27.527344 " fill-opacity="1" fill-rule="nonzero"/><path fill="#ff3e75" d="M 57.199219 32.207031 C 57.023438 32.34375 56.84375 32.46875 56.652344 32.578125 C 55.453125 33.257812 53.972656 33.363281 52.695312 32.84375 C 52.597656 32.804688 52.53125 32.71875 52.558594 32.609375 C 52.585938 32.519531 52.699219 32.4375 52.796875 32.476562 C 53.050781 32.578125 53.316406 32.660156 53.585938 32.714844 C 54.304688 32.859375 55.058594 32.804688 55.75 32.566406 C 56.023438 32.472656 56.285156 32.347656 56.535156 32.199219 C 56.597656 32.164062 56.660156 32.125 56.722656 32.082031 C 56.882812 32.117188 57.042969 32.15625 57.199219 32.207031 Z M 57.199219 32.207031 " fill-opacity="1" fill-rule="nonzero"/><path fill="#ff3e75" d="M 53.714844 38.222656 C 53.464844 37.273438 52.78125 36.449219 51.902344 36.003906 C 50.980469 35.535156 49.902344 35.527344 48.957031 35.929688 C 48.433594 36.148438 47.960938 36.496094 47.609375 36.941406 C 47.542969 37.019531 47.53125 37.132812 47.609375 37.210938 C 47.675781 37.277344 47.816406 37.292969 47.882812 37.210938 C 48.457031 36.488281 49.347656 36.042969 50.273438 36.019531 C 51.179688 35.992188 52.039062 36.382812 52.644531 37.046875 C 52.976562 37.410156 53.21875 37.851562 53.34375 38.328125 C 53.410156 38.5625 53.78125 38.460938 53.714844 38.222656 Z M 53.714844 38.222656 " fill-opacity="1" fill-rule="nonzero"/><path fill="#ff3e75" d="M 21.390625 35.582031 C 20.429688 36.253906 19.6875 37.1875 19.253906 38.269531 C 19.15625 38.511719 19.078125 38.761719 19.011719 39.015625 C 18.953125 39.253906 19.324219 39.355469 19.382812 39.117188 C 19.648438 38.058594 20.21875 37.097656 21.023438 36.359375 C 21.207031 36.195312 21.386719 36.050781 21.582031 35.914062 C 21.667969 35.851562 21.707031 35.746094 21.652344 35.652344 C 21.601562 35.566406 21.476562 35.523438 21.390625 35.582031 Z M 21.390625 35.582031 " fill-opacity="1" fill-rule="nonzero"/><path fill="#ff3e75" d="M 23.222656 34.527344 C 23.199219 34.5625 23.179688 34.589844 23.15625 34.621094 C 23.144531 34.636719 23.136719 34.648438 23.125 34.664062 C 23.152344 34.628906 23.132812 34.65625 23.117188 34.671875 C 23.089844 34.707031 23.0625 34.742188 23.03125 34.773438 C 22.878906 34.945312 22.710938 35.09375 22.53125 35.210938 C 21.988281 35.570312 21.328125 35.652344 20.710938 35.433594 C 20.574219 35.382812 20.441406 35.316406 20.320312 35.242188 C 20.265625 35.210938 20.214844 35.179688 20.167969 35.144531 C 20.148438 35.132812 20.132812 35.117188 20.113281 35.105469 C 20.089844 35.089844 20.144531 35.128906 20.125 35.113281 C 20.113281 35.105469 20.105469 35.097656 20.097656 35.09375 C 20.015625 35.027344 19.90625 35.011719 19.824219 35.09375 C 19.757812 35.160156 19.742188 35.296875 19.824219 35.363281 C 20.320312 35.761719 20.957031 35.988281 21.601562 35.933594 C 22.234375 35.878906 22.808594 35.566406 23.242188 35.109375 C 23.355469 34.992188 23.460938 34.859375 23.550781 34.722656 C 23.683594 34.511719 23.351562 34.320312 23.21875 34.527344 Z M 23.222656 34.527344 " fill-opacity="1" fill-rule="nonzero"/><path fill="#ff3e75" d="M 24.246094 28.824219 C 23.808594 28.902344 23.367188 28.910156 22.929688 28.847656 C 22.386719 28.773438 21.878906 28.574219 21.421875 28.289062 C 21.230469 28.171875 21.050781 28.039062 20.882812 27.890625 C 20.632812 27.679688 20.40625 27.4375 20.207031 27.175781 C 20.246094 27.1875 20.28125 27.199219 20.320312 27.214844 C 20.285156 27.058594 20.257812 26.90625 20.234375 26.753906 C 20.308594 26.738281 20.390625 26.777344 20.4375 26.84375 C 20.457031 26.871094 20.476562 26.898438 20.496094 26.925781 C 20.507812 26.941406 20.519531 26.957031 20.53125 26.972656 C 20.535156 26.980469 20.539062 26.984375 20.539062 26.984375 L 20.542969 26.988281 C 20.542969 26.988281 20.546875 26.992188 20.546875 26.996094 C 20.617188 27.078125 20.683594 27.160156 20.753906 27.238281 C 20.878906 27.375 21.007812 27.5 21.144531 27.617188 C 21.15625 27.628906 21.167969 27.640625 21.183594 27.648438 C 21.449219 27.871094 21.746094 28.058594 22.070312 28.207031 C 22.714844 28.5 23.449219 28.578125 24.144531 28.457031 C 24.246094 28.4375 24.351562 28.480469 24.378906 28.589844 C 24.40625 28.683594 24.347656 28.804688 24.246094 28.824219 Z M 24.246094 28.824219 " fill-opacity="1" fill-rule="nonzero"/><path fill="#ff3e75" d="M 20.871094 27.875 C 20.902344 27.941406 20.921875 27.984375 20.953125 28.070312 C 20.984375 28.15625 21.015625 28.242188 21.039062 28.328125 C 21.101562 28.554688 21.144531 28.78125 21.160156 29.015625 C 21.191406 29.480469 21.125 29.9375 20.972656 30.375 C 20.9375 30.472656 21.011719 30.582031 21.105469 30.609375 C 21.214844 30.636719 21.308594 30.574219 21.34375 30.476562 C 21.664062 29.5625 21.605469 28.558594 21.203125 27.679688 C 21.160156 27.585938 21.023438 27.5625 20.941406 27.613281 C 20.84375 27.667969 20.828125 27.777344 20.871094 27.875 Z M 20.871094 27.875 " fill-opacity="1" fill-rule="nonzero"/><path fill="#ff3e75" d="M 56.808594 40.03125 C 56.335938 39.164062 55.476562 38.46875 54.503906 38.246094 C 53.996094 38.128906 53.464844 38.117188 52.957031 38.230469 C 52.179688 38.398438 51.496094 38.886719 51.074219 39.554688 C 50.800781 39.988281 50.636719 40.492188 50.59375 41 C 50.582031 41.101562 50.6875 41.191406 50.785156 41.191406 C 50.894531 41.191406 50.96875 41.105469 50.976562 41 C 50.976562 40.980469 50.980469 40.960938 50.980469 40.941406 C 50.984375 40.929688 50.984375 40.917969 50.984375 40.90625 C 50.992188 40.859375 50.980469 40.949219 50.988281 40.886719 C 51.003906 40.800781 51.019531 40.71875 51.039062 40.632812 C 51.097656 40.386719 51.179688 40.160156 51.292969 39.945312 C 51.625 39.320312 52.1875 38.84375 52.867188 38.644531 C 53.152344 38.5625 53.445312 38.527344 53.742188 38.53125 C 53.851562 38.535156 53.964844 38.542969 54.074219 38.554688 C 54.085938 38.554688 54.09375 38.558594 54.105469 38.558594 C 54.152344 38.5625 54.074219 38.554688 54.105469 38.558594 C 54.125 38.5625 54.140625 38.5625 54.160156 38.566406 C 54.191406 38.574219 54.222656 38.578125 54.25 38.582031 C 54.835938 38.691406 55.367188 38.960938 55.792969 39.359375 C 55.894531 39.449219 55.988281 39.550781 56.078125 39.652344 C 56.113281 39.695312 56.152344 39.742188 56.1875 39.789062 C 56.207031 39.8125 56.160156 39.753906 56.195312 39.792969 C 56.203125 39.808594 56.210938 39.820312 56.222656 39.832031 C 56.238281 39.851562 56.25 39.871094 56.265625 39.894531 C 56.34375 40 56.414062 40.109375 56.476562 40.226562 C 56.59375 40.441406 56.925781 40.25 56.808594 40.03125 Z M 56.808594 40.03125 " fill-opacity="1" fill-rule="nonzero"/><path fill="#ff3e75" d="M 52.667969 44.914062 C 52.648438 44.296875 52.523438 43.679688 52.300781 43.105469 C 52.019531 42.382812 51.585938 41.738281 51.042969 41.191406 C 50.523438 40.667969 49.902344 40.253906 49.203125 40.019531 C 48.320312 39.71875 47.347656 39.722656 46.464844 40.011719 C 45.871094 40.199219 45.3125 40.503906 44.832031 40.898438 C 44.753906 40.964844 44.761719 41.101562 44.832031 41.171875 C 44.910156 41.25 45.023438 41.238281 45.105469 41.171875 C 45.125 41.152344 45.144531 41.136719 45.164062 41.121094 C 45.175781 41.109375 45.191406 41.101562 45.203125 41.09375 C 45.234375 41.066406 45.164062 41.121094 45.199219 41.097656 C 45.210938 41.089844 45.21875 41.078125 45.230469 41.070312 C 45.320312 41.003906 45.410156 40.941406 45.503906 40.882812 C 45.753906 40.722656 46.03125 40.578125 46.304688 40.472656 C 47.09375 40.164062 47.964844 40.085938 48.789062 40.296875 C 50.140625 40.636719 51.253906 41.714844 51.824219 42.960938 C 52 43.34375 52.125 43.75 52.199219 44.160156 C 52.234375 44.332031 52.246094 44.429688 52.261719 44.59375 C 52.273438 44.699219 52.277344 44.808594 52.28125 44.914062 C 52.289062 45.160156 52.675781 45.160156 52.667969 44.914062 Z M 52.667969 44.914062 " fill-opacity="1" fill-rule="nonzero"/><path fill="#ff9395" d="M 28.058594 20.492188 C 28.03125 20.542969 28.007812 20.59375 27.980469 20.648438 C 27.957031 20.636719 27.90625 20.617188 27.824219 20.589844 C 27.863281 20.507812 27.957031 20.453125 28.058594 20.492188 Z M 28.058594 20.492188 " fill-opacity="1" fill-rule="nonzero"/><path fill="#ff3e75" d="M 30.695312 25.683594 C 30.65625 25.78125 30.570312 25.847656 30.460938 25.820312 C 30.367188 25.792969 30.289062 25.679688 30.324219 25.585938 C 30.488281 25.175781 30.554688 24.746094 30.527344 24.308594 C 30.484375 23.558594 30.171875 22.835938 29.695312 22.253906 C 29.203125 21.644531 28.574219 21.210938 27.894531 20.832031 C 27.789062 20.777344 27.78125 20.671875 27.824219 20.589844 C 27.90625 20.617188 27.960938 20.636719 27.980469 20.648438 C 28.007812 20.59375 28.03125 20.542969 28.058594 20.492188 C 28.066406 20.492188 28.078125 20.5 28.085938 20.503906 C 28.511719 20.738281 28.917969 20.988281 29.289062 21.296875 C 29.902344 21.808594 30.402344 22.460938 30.683594 23.210938 C 30.683594 23.210938 30.683594 23.214844 30.6875 23.214844 C 30.730469 23.332031 30.765625 23.453125 30.796875 23.574219 C 30.980469 24.269531 30.960938 25.019531 30.695312 25.6875 Z M 30.695312 25.683594 " fill-opacity="1" fill-rule="nonzero"/><path fill="#ff3e75" d="M 30.734375 23.59375 C 31.710938 23.304688 32.769531 23.257812 33.742188 23.574219 C 34.597656 23.855469 35.339844 24.4375 35.78125 25.21875 C 36.019531 25.644531 36.160156 26.117188 36.167969 26.605469 C 36.171875 26.851562 36.558594 26.851562 36.554688 26.605469 C 36.535156 25.640625 36.066406 24.726562 35.355469 24.078125 C 34.570312 23.363281 33.53125 23.007812 32.476562 22.976562 C 31.851562 22.957031 31.226562 23.046875 30.632812 23.222656 C 30.394531 23.292969 30.496094 23.664062 30.734375 23.59375 Z M 30.734375 23.59375 " fill-opacity="1" fill-rule="nonzero"/><path fill="#ff3e75" d="M 29.925781 37.980469 C 30.097656 36.644531 29.613281 35.265625 28.632812 34.339844 C 27.695312 33.453125 26.402344 33.074219 25.125 33.222656 C 24.804688 33.261719 24.472656 33.320312 24.167969 33.433594 C 24.070312 33.46875 24.007812 33.5625 24.035156 33.667969 C 24.0625 33.761719 24.175781 33.835938 24.273438 33.800781 C 24.496094 33.71875 24.738281 33.667969 24.972656 33.628906 C 25.085938 33.609375 25.144531 33.601562 25.273438 33.59375 C 25.398438 33.582031 25.511719 33.574219 25.632812 33.574219 C 25.898438 33.570312 26.167969 33.589844 26.429688 33.636719 C 27.691406 33.867188 28.761719 34.730469 29.265625 35.90625 C 29.546875 36.558594 29.632812 37.277344 29.542969 37.980469 C 29.53125 38.082031 29.640625 38.167969 29.734375 38.167969 C 29.851562 38.167969 29.914062 38.082031 29.929688 37.980469 Z M 29.925781 37.980469 " fill-opacity="1" fill-rule="nonzero"/><path fill="#ededf2" d="M 45.984375 32.046875 C 45.984375 32.472656 45.902344 32.878906 45.738281 33.273438 C 45.574219 33.667969 45.339844 34.015625 45.039062 34.316406 C 44.734375 34.617188 44.386719 34.847656 43.988281 35.011719 C 43.59375 35.175781 43.179688 35.253906 42.753906 35.253906 C 42.324219 35.253906 41.910156 35.175781 41.515625 35.011719 C 41.121094 34.847656 40.769531 34.617188 40.46875 34.316406 C 40.164062 34.015625 39.929688 33.667969 39.765625 33.273438 C 39.601562 32.878906 39.519531 32.472656 39.519531 32.046875 C 39.519531 31.621094 39.601562 31.210938 39.765625 30.816406 C 39.929688 30.421875 40.164062 30.078125 40.46875 29.777344 C 40.769531 29.472656 41.121094 29.242188 41.515625 29.078125 C 41.910156 28.917969 42.324219 28.835938 42.753906 28.835938 C 43.179688 28.835938 43.59375 28.917969 43.988281 29.078125 C 44.386719 29.242188 44.734375 29.472656 45.039062 29.777344 C 45.339844 30.078125 45.574219 30.421875 45.738281 30.816406 C 45.902344 31.210938 45.984375 31.621094 45.984375 32.046875 Z M 45.984375 32.046875 " fill-opacity="1" fill-rule="nonzero"/><path fill="#0c0c0c" d="M 44.675781 32.046875 C 44.675781 32.296875 44.625 32.542969 44.527344 32.777344 C 44.429688 33.011719 44.292969 33.214844 44.113281 33.394531 C 43.929688 33.574219 43.722656 33.710938 43.488281 33.808594 C 43.253906 33.90625 43.007812 33.953125 42.753906 33.953125 C 42.5 33.953125 42.253906 33.90625 42.015625 33.808594 C 41.78125 33.710938 41.574219 33.574219 41.394531 33.394531 C 41.214844 33.214844 41.074219 33.011719 40.976562 32.777344 C 40.878906 32.542969 40.832031 32.296875 40.832031 32.046875 C 40.832031 31.792969 40.878906 31.546875 40.976562 31.316406 C 41.074219 31.082031 41.214844 30.875 41.394531 30.695312 C 41.574219 30.515625 41.78125 30.378906 42.015625 30.28125 C 42.253906 30.183594 42.5 30.136719 42.753906 30.136719 C 43.007812 30.136719 43.253906 30.183594 43.488281 30.28125 C 43.722656 30.378906 43.929688 30.515625 44.113281 30.695312 C 44.292969 30.875 44.429688 31.082031 44.527344 31.316406 C 44.625 31.546875 44.675781 31.792969 44.675781 32.046875 Z M 44.675781 32.046875 " fill-opacity="1" fill-rule="nonzero"/><path fill="#b52d2d" d="M 45.949219 31.589844 C 43.953125 31.199219 41.957031 30.808594 39.964844 30.417969 C 40.523438 29.46875 41.5625 28.835938 42.75 28.835938 C 44.378906 28.835938 45.726562 30.03125 45.949219 31.589844 Z M 45.949219 31.589844 " fill-opacity="1" fill-rule="nonzero"/><path fill="#ededf2" d="M 37.378906 32.046875 C 37.378906 32.472656 37.296875 32.878906 37.132812 33.273438 C 36.96875 33.667969 36.734375 34.015625 36.433594 34.316406 C 36.128906 34.617188 35.78125 34.847656 35.382812 35.011719 C 34.988281 35.175781 34.574219 35.253906 34.148438 35.253906 C 33.71875 35.253906 33.304688 35.175781 32.910156 35.011719 C 32.515625 34.847656 32.164062 34.617188 31.859375 34.316406 C 31.558594 34.015625 31.324219 33.667969 31.160156 33.273438 C 30.996094 32.878906 30.914062 32.472656 30.914062 32.046875 C 30.914062 31.621094 30.996094 31.210938 31.160156 30.816406 C 31.324219 30.421875 31.558594 30.078125 31.859375 29.777344 C 32.164062 29.472656 32.515625 29.242188 32.910156 29.078125 C 33.304688 28.917969 33.71875 28.835938 34.148438 28.835938 C 34.574219 28.835938 34.988281 28.917969 35.382812 29.078125 C 35.78125 29.242188 36.128906 29.472656 36.433594 29.777344 C 36.734375 30.078125 36.96875 30.421875 37.132812 30.816406 C 37.296875 31.210938 37.378906 31.621094 37.378906 32.046875 Z M 37.378906 32.046875 " fill-opacity="1" fill-rule="nonzero"/><path fill="#0c0c0c" d="M 36.066406 32.046875 C 36.066406 32.296875 36.019531 32.542969 35.921875 32.777344 C 35.824219 33.011719 35.6875 33.214844 35.503906 33.394531 C 35.324219 33.574219 35.117188 33.710938 34.882812 33.808594 C 34.648438 33.90625 34.402344 33.953125 34.148438 33.953125 C 33.890625 33.953125 33.648438 33.90625 33.410156 33.808594 C 33.175781 33.710938 32.96875 33.574219 32.789062 33.394531 C 32.609375 33.214844 32.46875 33.011719 32.371094 32.777344 C 32.273438 32.542969 32.226562 32.296875 32.226562 32.046875 C 32.226562 31.792969 32.273438 31.546875 32.371094 31.316406 C 32.46875 31.082031 32.609375 30.875 32.789062 30.695312 C 32.96875 30.515625 33.175781 30.378906 33.410156 30.28125 C 33.648438 30.183594 33.890625 30.136719 34.148438 30.136719 C 34.402344 30.136719 34.648438 30.183594 34.882812 30.28125 C 35.117188 30.378906 35.324219 30.515625 35.503906 30.695312 C 35.6875 30.875 35.824219 31.082031 35.921875 31.316406 C 36.019531 31.546875 36.066406 31.792969 36.066406 32.046875 Z M 36.066406 32.046875 " fill-opacity="1" fill-rule="nonzero"/><path fill="#b52d2d" d="M 30.953125 31.589844 C 32.945312 31.199219 34.941406 30.808594 36.9375 30.417969 C 36.375 29.46875 35.335938 28.835938 34.152344 28.835938 C 32.523438 28.835938 31.175781 30.03125 30.953125 31.589844 Z M 30.953125 31.589844 " fill-opacity="1" fill-rule="nonzero"/><path fill="#0c0c0c" d="M 39.835938 37.382812 C 41.382812 37.171875 41.964844 36.632812 42.792969 36.957031 C 43.171875 37.101562 43.398438 37.351562 43.496094 37.460938 C 44.308594 38.371094 44.242188 40.050781 43.367188 40.855469 C 43.078125 41.117188 42.777344 41.222656 42.496094 41.320312 C 41.914062 41.519531 41.339844 41.53125 40.328125 41.382812 C 39.007812 41.1875 38.988281 41.015625 38.300781 40.949219 C 36.40625 40.765625 35.800781 41.992188 34.589844 41.554688 C 33.816406 41.277344 33.265625 40.5 33.128906 39.710938 C 32.988281 38.902344 33.277344 38.085938 33.820312 37.550781 C 34.546875 36.835938 35.515625 36.835938 35.808594 36.835938 C 36.835938 36.832031 37.070312 37.339844 38.398438 37.445312 C 38.996094 37.496094 39.453125 37.433594 39.832031 37.382812 Z M 39.835938 37.382812 " fill-opacity="1" fill-rule="nonzero"/><path fill="#b52d2d" d="M 41.632812 41.488281 C 41.277344 41.503906 40.863281 41.46875 40.328125 41.390625 C 39.011719 41.195312 38.988281 41.027344 38.304688 40.957031 C 36.785156 40.8125 36.09375 41.566406 35.257812 41.648438 C 35.554688 40.996094 36.070312 40.441406 36.695312 40.082031 C 37.449219 39.648438 38.355469 39.492188 39.21875 39.609375 C 39.5625 39.65625 39.902344 39.746094 40.207031 39.910156 C 40.839844 40.25 41.261719 40.863281 41.632812 41.488281 Z M 41.632812 41.488281 " fill-opacity="1" fill-rule="nonzero"/><path fill="#0c0c0c" d="M 45.859375 34.070312 C 45.09375 35.066406 43.832031 35.660156 42.570312 35.644531 C 42.3125 35.640625 42.3125 36.042969 42.570312 36.046875 C 43.667969 36.058594 44.746094 35.652344 45.574219 34.945312 C 45.8125 34.746094 46.019531 34.515625 46.210938 34.269531 C 46.277344 34.1875 46.222656 34.046875 46.136719 33.996094 C 46.03125 33.9375 45.925781 33.984375 45.859375 34.070312 Z M 45.859375 34.070312 " fill-opacity="1" fill-rule="nonzero"/><path fill="#0c0c0c" d="M 30.675781 33.917969 C 31.097656 34.820312 31.917969 35.503906 32.878906 35.769531 C 33.089844 35.828125 33.304688 35.867188 33.523438 35.886719 C 33.632812 35.894531 33.726562 35.785156 33.726562 35.6875 C 33.726562 35.570312 33.632812 35.496094 33.523438 35.484375 C 33.503906 35.484375 33.480469 35.480469 33.460938 35.480469 C 33.453125 35.476562 33.378906 35.46875 33.421875 35.472656 C 33.375 35.46875 33.324219 35.460938 33.273438 35.449219 C 33.144531 35.425781 33.015625 35.394531 32.890625 35.355469 C 32.558594 35.253906 32.242188 35.089844 31.960938 34.882812 C 31.558594 34.578125 31.238281 34.171875 31.023438 33.71875 C 30.976562 33.621094 30.835938 33.59375 30.746094 33.644531 C 30.644531 33.703125 30.628906 33.820312 30.675781 33.917969 Z M 30.675781 33.917969 " fill-opacity="1" fill-rule="nonzero"/><path fill="#0c0c0c" d="M 40.527344 26.90625 C 40.484375 26.800781 40.308594 26.347656 40.5 25.925781 C 40.5 25.925781 40.628906 25.648438 40.910156 25.472656 C 41.597656 25.046875 42.632812 25.953125 44.585938 26.644531 C 46.1875 27.214844 47.214844 27.214844 47.285156 27.707031 C 47.332031 28.074219 46.8125 28.410156 46.742188 28.453125 C 46.1875 28.8125 45.574219 28.714844 44.078125 28.355469 C 41.175781 27.65625 40.703125 27.355469 40.527344 26.90625 Z M 40.527344 26.90625 " fill-opacity="1" fill-rule="nonzero"/><path fill="#0c0c0c" d="M 37.265625 26.90625 C 37.308594 26.800781 37.484375 26.347656 37.292969 25.925781 C 37.292969 25.925781 37.164062 25.648438 36.882812 25.472656 C 36.199219 25.046875 35.160156 25.953125 33.210938 26.644531 C 31.605469 27.214844 30.578125 27.214844 30.511719 27.707031 C 30.460938 28.074219 30.980469 28.410156 31.050781 28.453125 C 31.605469 28.8125 32.21875 28.714844 33.714844 28.355469 C 36.617188 27.65625 37.089844 27.355469 37.265625 26.90625 Z M 37.265625 26.90625 " fill-opacity="1" fill-rule="nonzero"/><path fill="#0c0c0c" d="M 50.769531 23.546875 C 50.769531 23.546875 50.773438 23.542969 50.773438 23.539062 C 51.09375 23.0625 51.035156 22.441406 50.648438 22.019531 C 50.597656 21.964844 50.53125 21.90625 50.496094 21.867188 C 50.375 21.71875 50.234375 21.582031 50.101562 21.449219 C 49.839844 21.183594 49.5625 20.9375 49.273438 20.707031 C 48.378906 19.996094 47.234375 19.375 46.050781 19.4375 C 45.527344 19.464844 44.988281 19.617188 44.640625 20.03125 C 44.371094 20.351562 44.367188 20.855469 44.515625 21.230469 C 44.65625 21.589844 44.96875 21.832031 45.304688 21.996094 C 45.648438 22.167969 46.011719 22.304688 46.371094 22.429688 C 47.5625 22.847656 48.785156 23.171875 50.011719 23.476562 C 50.199219 23.523438 50.386719 23.570312 50.574219 23.617188 C 50.589844 23.621094 50.609375 23.621094 50.621094 23.621094 C 50.667969 23.625 50.714844 23.609375 50.75 23.570312 C 50.753906 23.566406 50.757812 23.5625 50.761719 23.558594 C 50.765625 23.554688 50.765625 23.550781 50.769531 23.546875 Z M 50.769531 23.546875 " fill-opacity="1" fill-rule="nonzero"/><path fill="#0c0c0c" d="M 50.859375 23.332031 C 51.234375 22.824219 51.546875 22.269531 51.789062 21.6875 C 51.867188 21.492188 51.9375 21.265625 51.84375 21.074219 C 51.738281 20.867188 51.453125 20.792969 51.226562 20.859375 C 51 20.925781 50.820312 21.097656 50.664062 21.269531 C 50.375 21.589844 50.125 21.941406 49.921875 22.320312 " fill-opacity="1" fill-rule="nonzero"/><path fill="#0c0c0c" d="M 49.519531 23.273438 C 50.941406 23.78125 52.152344 24.726562 53.238281 25.742188 C 54.347656 26.78125 55.417969 27.894531 56.203125 29.199219 C 56.976562 30.492188 57.441406 32.003906 57.257812 33.515625 C 57.089844 34.855469 56.332031 36.035156 55.246094 36.832031 C 54.722656 37.21875 54.140625 37.519531 53.523438 37.734375 C 52.8125 37.976562 52.074219 38.089844 51.324219 38.128906 C 51.109375 38.140625 50.894531 38.144531 50.683594 38.148438 C 50.421875 38.148438 50.421875 38.550781 50.683594 38.546875 C 51.519531 38.539062 52.363281 38.476562 53.175781 38.257812 C 53.839844 38.082031 54.484375 37.804688 55.070312 37.4375 C 56.257812 36.691406 57.195312 35.5625 57.539062 34.191406 C 57.925781 32.636719 57.585938 30.980469 56.867188 29.570312 C 56.152344 28.160156 55.074219 26.960938 53.945312 25.863281 C 52.835938 24.78125 51.621094 23.738281 50.183594 23.109375 C 50 23.027344 49.8125 22.953125 49.625 22.886719 C 49.523438 22.851562 49.40625 22.929688 49.378906 23.027344 C 49.347656 23.140625 49.414062 23.238281 49.519531 23.273438 Z M 49.519531 23.273438 " fill-opacity="1" fill-rule="nonzero"/><path fill="#0c0c0c" d="M 25.402344 23.546875 C 25.402344 23.546875 25.398438 23.542969 25.394531 23.539062 C 25.078125 23.0625 25.136719 22.441406 25.523438 22.019531 C 25.570312 21.964844 25.640625 21.90625 25.671875 21.867188 C 25.792969 21.71875 25.933594 21.582031 26.066406 21.449219 C 26.328125 21.183594 26.605469 20.9375 26.894531 20.707031 C 27.789062 19.996094 28.9375 19.375 30.117188 19.4375 C 30.640625 19.464844 31.183594 19.617188 31.527344 20.03125 C 31.800781 20.351562 31.804688 20.855469 31.65625 21.230469 C 31.515625 21.589844 31.203125 21.832031 30.867188 21.996094 C 30.523438 22.167969 30.160156 22.304688 29.796875 22.429688 C 28.605469 22.847656 27.382812 23.171875 26.160156 23.476562 C 25.972656 23.523438 25.785156 23.570312 25.59375 23.617188 C 25.578125 23.621094 25.5625 23.621094 25.546875 23.621094 C 25.5 23.625 25.457031 23.609375 25.417969 23.570312 C 25.414062 23.566406 25.410156 23.5625 25.40625 23.558594 C 25.40625 23.554688 25.402344 23.550781 25.402344 23.546875 Z M 25.402344 23.546875 " fill-opacity="1" fill-rule="nonzero"/><path fill="#0c0c0c" d="M 25.308594 23.332031 C 24.933594 22.824219 24.621094 22.269531 24.382812 21.6875 C 24.300781 21.492188 24.230469 21.265625 24.324219 21.074219 C 24.429688 20.867188 24.714844 20.792969 24.941406 20.859375 C 25.167969 20.925781 25.347656 21.097656 25.507812 21.269531 C 25.792969 21.589844 26.042969 21.941406 26.246094 22.320312 " fill-opacity="1" fill-rule="nonzero"/><path fill="#0c0c0c" d="M 26.542969 22.886719 C 25.046875 23.421875 23.777344 24.398438 22.632812 25.472656 C 21.484375 26.546875 20.375 27.710938 19.574219 29.070312 C 18.765625 30.441406 18.304688 32.042969 18.523438 33.636719 C 18.625 34.363281 18.878906 35.066406 19.28125 35.679688 C 19.65625 36.257812 20.140625 36.75 20.695312 37.160156 C 21.246094 37.570312 21.871094 37.886719 22.523438 38.113281 C 23.265625 38.371094 24.042969 38.484375 24.824219 38.527344 C 25.046875 38.539062 25.265625 38.546875 25.488281 38.546875 C 25.746094 38.550781 25.746094 38.148438 25.488281 38.144531 C 24.691406 38.136719 23.890625 38.082031 23.117188 37.875 C 22.480469 37.707031 21.871094 37.445312 21.316406 37.097656 C 20.191406 36.394531 19.320312 35.332031 19.007812 34.03125 C 18.65625 32.5625 19.003906 30.996094 19.695312 29.679688 C 20.402344 28.324219 21.441406 27.183594 22.53125 26.121094 C 23.601562 25.078125 24.765625 24.089844 26.140625 23.472656 C 26.308594 23.402344 26.476562 23.335938 26.648438 23.273438 C 26.75 23.238281 26.820312 23.136719 26.789062 23.027344 C 26.761719 22.925781 26.644531 22.851562 26.542969 22.886719 Z M 26.542969 22.886719 " fill-opacity="1" fill-rule="nonzero"/><g clip-path="url(#61590f4fb8)"><path fill="#0c0c0c" d="M 27.84375 18.226562 C 28.496094 17.550781 28.535156 16.457031 28.058594 15.671875 C 27.941406 15.484375 27.796875 15.304688 27.621094 15.167969 C 27.425781 15.011719 27.214844 14.914062 26.984375 14.820312 C 26.777344 14.734375 26.566406 14.660156 26.367188 14.550781 C 26.277344 14.5 26.199219 14.449219 26.128906 14.382812 C 26.066406 14.324219 26.015625 14.253906 25.996094 14.1875 C 25.933594 14.003906 25.96875 13.863281 26.078125 13.710938 C 26.117188 13.660156 26.199219 13.578125 26.265625 13.519531 C 26.347656 13.449219 26.433594 13.386719 26.523438 13.324219 C 26.929688 13.039062 27.339844 12.773438 27.535156 12.296875 C 27.730469 11.8125 27.671875 11.257812 27.46875 10.789062 C 27.25 10.28125 26.832031 9.894531 26.34375 9.640625 C 25.820312 9.371094 25.234375 9.25 24.652344 9.199219 C 24.066406 9.148438 23.476562 9.171875 22.902344 9.273438 C 21.792969 9.472656 20.710938 10.03125 20.117188 11.011719 C 19.589844 11.886719 19.449219 13.066406 20.019531 13.960938 C 20.347656 14.472656 20.859375 14.84375 21.40625 15.101562 C 21.949219 15.359375 22.574219 15.519531 23.195312 15.570312 C 24.417969 15.667969 25.648438 15.347656 26.707031 14.742188 C 27.734375 14.152344 28.597656 13.3125 29.289062 12.359375 C 29.652344 11.855469 29.976562 11.292969 30.097656 10.679688 C 30.21875 10.0625 30.121094 9.484375 29.765625 8.996094 C 29.085938 8.050781 27.828125 7.660156 26.710938 7.585938 C 25.496094 7.5 24.242188 7.832031 23.265625 8.566406 C 22.371094 9.242188 21.664062 10.230469 21.453125 11.339844 C 21.332031 11.960938 21.417969 12.597656 21.875 13.070312 C 22.257812 13.464844 22.8125 13.675781 23.363281 13.699219 C 24.023438 13.730469 24.667969 13.503906 25.246094 13.210938 C 25.785156 12.9375 26.289062 12.597656 26.753906 12.210938 C 27.214844 11.824219 27.625 11.390625 27.992188 10.914062 C 28.324219 10.484375 28.832031 9.855469 28.566406 9.28125 C 28.441406 9.019531 28.164062 8.875 27.890625 8.808594 C 27.582031 8.734375 27.265625 8.695312 26.949219 8.683594 C 26.4375 8.667969 25.917969 8.738281 25.429688 8.886719 C 24.976562 9.023438 24.542969 9.21875 24.171875 9.507812 C 23.890625 9.722656 23.628906 9.957031 23.402344 10.222656 C 23.148438 10.519531 22.890625 10.894531 22.914062 11.300781 C 22.941406 11.832031 23.417969 12.121094 23.882812 12.261719 C 24.132812 12.339844 24.238281 11.953125 23.988281 11.875 C 23.785156 11.816406 23.578125 11.726562 23.433594 11.570312 C 23.375 11.503906 23.339844 11.429688 23.324219 11.347656 C 23.320312 11.335938 23.316406 11.292969 23.320312 11.328125 C 23.316406 11.3125 23.316406 11.292969 23.316406 11.273438 C 23.316406 11.253906 23.316406 11.238281 23.316406 11.21875 C 23.316406 11.210938 23.320312 11.199219 23.320312 11.191406 C 23.324219 11.160156 23.3125 11.21875 23.320312 11.1875 C 23.351562 11.007812 23.410156 10.894531 23.515625 10.738281 C 23.613281 10.585938 23.722656 10.460938 23.851562 10.324219 C 23.976562 10.195312 24.105469 10.078125 24.242188 9.964844 C 24.292969 9.917969 24.347656 9.875 24.402344 9.832031 C 24.414062 9.820312 24.425781 9.8125 24.441406 9.804688 C 24.453125 9.792969 24.40625 9.828125 24.441406 9.804688 C 24.457031 9.789062 24.476562 9.777344 24.492188 9.761719 C 24.585938 9.695312 24.683594 9.636719 24.78125 9.582031 C 25.070312 9.425781 25.320312 9.332031 25.652344 9.238281 C 26.113281 9.113281 26.589844 9.0625 27.066406 9.089844 C 27.339844 9.105469 27.625 9.140625 27.886719 9.222656 C 28.105469 9.292969 28.261719 9.445312 28.230469 9.683594 C 28.199219 9.941406 28.03125 10.171875 27.886719 10.382812 C 27.730469 10.605469 27.5625 10.824219 27.382812 11.027344 C 26.65625 11.867188 25.742188 12.578125 24.714844 13.015625 C 24.199219 13.238281 23.605469 13.382812 23.042969 13.257812 C 22.59375 13.15625 22.160156 12.898438 21.941406 12.480469 C 21.679688 11.980469 21.824219 11.363281 22.007812 10.859375 C 22.175781 10.398438 22.4375 9.960938 22.757812 9.585938 C 23.460938 8.765625 24.429688 8.226562 25.5 8.042969 C 26.5625 7.859375 27.773438 8.007812 28.707031 8.570312 C 29.105469 8.8125 29.480469 9.15625 29.644531 9.605469 C 29.835938 10.128906 29.734375 10.691406 29.515625 11.1875 C 29.292969 11.6875 28.953125 12.167969 28.59375 12.601562 C 28.238281 13.03125 27.859375 13.410156 27.4375 13.753906 C 26.582031 14.449219 25.5625 14.945312 24.46875 15.121094 C 23.367188 15.292969 22.1875 15.125 21.226562 14.546875 C 20.792969 14.285156 20.394531 13.914062 20.203125 13.433594 C 20.039062 13.011719 20.019531 12.546875 20.113281 12.109375 C 20.210938 11.65625 20.414062 11.222656 20.710938 10.867188 C 21.039062 10.476562 21.46875 10.183594 21.933594 9.976562 C 22.414062 9.761719 22.945312 9.644531 23.46875 9.597656 C 23.988281 9.550781 24.539062 9.558594 25.0625 9.648438 C 25.585938 9.734375 26.09375 9.898438 26.515625 10.214844 C 26.890625 10.496094 27.144531 10.894531 27.230469 11.351562 C 27.308594 11.769531 27.21875 12.21875 26.910156 12.523438 C 26.609375 12.824219 26.210938 13.007812 25.90625 13.304688 C 25.589844 13.609375 25.449219 14.0625 25.683594 14.460938 C 25.917969 14.859375 26.378906 15.003906 26.773438 15.160156 C 26.960938 15.234375 27.152344 15.3125 27.320312 15.433594 C 27.464844 15.539062 27.597656 15.691406 27.695312 15.84375 C 27.90625 16.175781 27.996094 16.5625 27.976562 16.953125 C 27.957031 17.3125 27.816406 17.675781 27.5625 17.941406 C 27.382812 18.125 27.667969 18.410156 27.847656 18.222656 Z M 27.84375 18.226562 " fill-opacity="1" fill-rule="nonzero"/></g><path fill="#0c0c0c" d="M 45.332031 18.277344 C 45.929688 18.160156 46.460938 17.734375 46.726562 17.191406 C 46.875 16.886719 46.941406 16.5625 46.929688 16.222656 C 46.914062 15.832031 46.808594 15.453125 46.765625 15.066406 C 46.738281 14.820312 46.761719 14.609375 46.832031 14.375 C 46.902344 14.152344 47.019531 13.917969 47.222656 13.796875 C 47.242188 13.789062 47.257812 13.777344 47.277344 13.769531 C 47.285156 13.765625 47.3125 13.753906 47.277344 13.769531 C 47.285156 13.765625 47.296875 13.761719 47.308594 13.757812 C 47.351562 13.742188 47.394531 13.734375 47.441406 13.726562 C 47.402344 13.730469 47.453125 13.726562 47.464844 13.722656 C 47.488281 13.722656 47.507812 13.722656 47.527344 13.722656 C 47.570312 13.722656 47.652344 13.726562 47.667969 13.730469 C 47.652344 13.726562 47.703125 13.734375 47.714844 13.738281 C 47.742188 13.742188 47.765625 13.746094 47.792969 13.75 C 47.847656 13.765625 47.898438 13.777344 47.953125 13.792969 C 48.058594 13.824219 48.164062 13.863281 48.269531 13.90625 C 49.078125 14.222656 50.117188 14.894531 50.996094 14.355469 C 51.230469 14.210938 51.394531 13.980469 51.371094 13.695312 C 51.351562 13.460938 51.242188 13.242188 51.105469 13.050781 C 50.765625 12.5625 50.292969 12.171875 49.8125 11.828125 C 49.359375 11.5 48.871094 11.230469 48.359375 11.007812 C 47.828125 10.777344 47.269531 10.582031 46.695312 10.503906 C 46.238281 10.441406 45.707031 10.441406 45.347656 10.773438 C 44.992188 11.101562 45.007812 11.632812 45.101562 12.066406 C 45.199219 12.496094 45.382812 12.914062 45.59375 13.296875 C 45.8125 13.691406 46.136719 14.015625 46.472656 14.316406 C 46.976562 14.765625 47.554688 15.136719 48.175781 15.40625 C 48.496094 15.542969 48.820312 15.65625 49.152344 15.746094 C 49.488281 15.835938 49.851562 15.910156 50.210938 15.921875 C 51.539062 15.957031 52.929688 14.933594 53.113281 13.585938 C 53.273438 12.40625 52.449219 11.351562 51.605469 10.621094 C 50.722656 9.863281 49.683594 9.316406 48.539062 9.0625 C 47.957031 8.933594 47.351562 8.867188 46.753906 8.917969 C 46.265625 8.960938 45.746094 9.074219 45.34375 9.371094 C 44.894531 9.699219 44.6875 10.207031 44.644531 10.75 C 44.597656 11.351562 44.824219 11.921875 45.167969 12.40625 C 45.550781 12.945312 46.011719 13.414062 46.566406 13.78125 C 47.144531 14.164062 47.777344 14.476562 48.425781 14.722656 C 49.074219 14.964844 49.683594 15.105469 50.332031 15.207031 C 50.960938 15.304688 51.597656 15.386719 52.234375 15.4375 C 52.484375 15.453125 52.738281 15.464844 52.992188 15.425781 C 53.164062 15.398438 53.347656 15.328125 53.464844 15.191406 C 53.757812 14.84375 53.539062 14.355469 53.339844 14.019531 C 53.09375 13.609375 52.773438 13.238281 52.445312 12.894531 C 52.109375 12.535156 51.75 12.191406 51.371094 11.878906 C 50.4375 11.109375 49.367188 10.414062 48.203125 10.054688 C 47.765625 9.921875 47.292969 9.832031 46.839844 9.917969 C 46.425781 9.996094 46.054688 10.289062 45.941406 10.703125 C 45.824219 11.152344 46.078125 11.574219 46.382812 11.886719 C 46.699219 12.203125 47.085938 12.457031 47.472656 12.675781 C 47.679688 12.789062 47.890625 12.898438 48.109375 12.992188 C 48.210938 13.035156 48.324219 13.023438 48.386719 12.921875 C 48.433594 12.835938 48.414062 12.6875 48.3125 12.644531 C 48.101562 12.554688 47.894531 12.449219 47.695312 12.335938 C 47.332031 12.136719 46.996094 11.921875 46.707031 11.636719 C 46.558594 11.492188 46.46875 11.386719 46.375 11.199219 C 46.371094 11.191406 46.367188 11.183594 46.363281 11.175781 C 46.351562 11.148438 46.375 11.203125 46.363281 11.171875 C 46.355469 11.15625 46.351562 11.136719 46.34375 11.117188 C 46.339844 11.09375 46.332031 11.074219 46.328125 11.058594 C 46.324219 11.042969 46.316406 10.988281 46.316406 11.007812 C 46.320312 11.027344 46.316406 10.976562 46.316406 10.964844 C 46.316406 10.945312 46.316406 10.925781 46.316406 10.90625 C 46.316406 10.855469 46.328125 10.808594 46.347656 10.753906 C 46.386719 10.648438 46.441406 10.578125 46.511719 10.511719 C 46.527344 10.496094 46.546875 10.476562 46.566406 10.460938 C 46.59375 10.4375 46.539062 10.476562 46.582031 10.449219 C 46.601562 10.4375 46.617188 10.425781 46.636719 10.414062 C 46.667969 10.398438 46.699219 10.378906 46.734375 10.363281 C 46.761719 10.351562 46.703125 10.375 46.730469 10.367188 C 46.738281 10.363281 46.746094 10.359375 46.753906 10.355469 C 46.773438 10.351562 46.792969 10.34375 46.816406 10.335938 C 46.855469 10.324219 46.894531 10.316406 46.929688 10.308594 C 46.953125 10.300781 46.976562 10.296875 47 10.296875 C 46.960938 10.300781 47.023438 10.292969 47.035156 10.292969 C 47.460938 10.253906 47.851562 10.355469 48.261719 10.496094 C 48.777344 10.675781 49.269531 10.925781 49.734375 11.207031 C 50.640625 11.753906 51.457031 12.421875 52.175781 13.191406 C 52.480469 13.515625 52.765625 13.839844 52.992188 14.21875 C 53.097656 14.398438 53.164062 14.527344 53.203125 14.726562 C 53.195312 14.691406 53.203125 14.71875 53.203125 14.738281 C 53.203125 14.757812 53.207031 14.777344 53.203125 14.800781 C 53.203125 14.808594 53.199219 14.863281 53.203125 14.832031 C 53.207031 14.800781 53.195312 14.859375 53.191406 14.871094 C 53.183594 14.914062 53.207031 14.851562 53.1875 14.878906 C 53.179688 14.894531 53.171875 14.90625 53.164062 14.921875 C 53.144531 14.960938 53.183594 14.90625 53.160156 14.925781 C 53.148438 14.9375 53.136719 14.949219 53.121094 14.964844 C 53.152344 14.9375 53.132812 14.957031 53.113281 14.964844 C 53.097656 14.972656 53.085938 14.980469 53.070312 14.988281 C 53.042969 15.003906 53.101562 14.980469 53.054688 14.996094 C 53.03125 15.003906 53.011719 15.011719 52.988281 15.015625 C 52.96875 15.019531 52.949219 15.027344 52.929688 15.027344 C 52.917969 15.03125 52.859375 15.039062 52.898438 15.035156 C 52.851562 15.042969 52.796875 15.042969 52.746094 15.046875 C 52.484375 15.058594 52.222656 15.035156 51.960938 15.007812 C 51.382812 14.949219 50.800781 14.882812 50.222656 14.785156 C 48.96875 14.5625 47.746094 14.105469 46.691406 13.382812 C 46.207031 13.046875 45.789062 12.609375 45.460938 12.125 C 45.164062 11.6875 44.996094 11.207031 45.054688 10.675781 C 45.058594 10.632812 45.054688 10.671875 45.058594 10.636719 C 45.0625 10.609375 45.066406 10.582031 45.074219 10.554688 C 45.085938 10.488281 45.101562 10.421875 45.121094 10.359375 C 45.160156 10.222656 45.214844 10.097656 45.292969 9.976562 C 45.386719 9.835938 45.539062 9.707031 45.699219 9.613281 C 46.082031 9.390625 46.566406 9.316406 47.019531 9.304688 C 48.105469 9.273438 49.222656 9.570312 50.167969 10.101562 C 50.621094 10.355469 51.046875 10.660156 51.433594 11.007812 C 51.835938 11.371094 52.199219 11.78125 52.453125 12.261719 C 52.679688 12.691406 52.796875 13.183594 52.691406 13.660156 C 52.566406 14.222656 52.183594 14.71875 51.714844 15.046875 C 51.175781 15.421875 50.546875 15.582031 49.894531 15.492188 C 49.269531 15.40625 48.636719 15.195312 48.070312 14.914062 C 47.507812 14.632812 46.992188 14.269531 46.542969 13.832031 C 46.429688 13.722656 46.324219 13.609375 46.222656 13.492188 C 46.175781 13.441406 46.085938 13.367188 46.0625 13.304688 C 46.078125 13.34375 46.09375 13.347656 46.070312 13.308594 C 46 13.199219 45.9375 13.089844 45.878906 12.976562 C 45.6875 12.609375 45.535156 12.238281 45.464844 11.816406 C 45.4375 11.648438 45.4375 11.4375 45.488281 11.277344 C 45.492188 11.265625 45.511719 11.21875 45.507812 11.230469 C 45.5 11.242188 45.523438 11.195312 45.527344 11.1875 C 45.539062 11.167969 45.550781 11.148438 45.5625 11.128906 C 45.585938 11.097656 45.5625 11.128906 45.589844 11.097656 C 45.601562 11.082031 45.617188 11.070312 45.632812 11.054688 C 45.640625 11.046875 45.679688 11.015625 45.667969 11.023438 C 45.652344 11.035156 45.695312 11.007812 45.703125 11 C 45.726562 10.988281 45.746094 10.976562 45.769531 10.964844 C 45.777344 10.957031 45.789062 10.953125 45.800781 10.949219 C 45.796875 10.949219 45.773438 10.960938 45.796875 10.949219 C 45.816406 10.941406 45.835938 10.9375 45.859375 10.929688 C 45.90625 10.914062 45.960938 10.898438 46.011719 10.890625 C 46.070312 10.878906 46.0625 10.878906 46.125 10.875 C 46.179688 10.871094 46.234375 10.871094 46.292969 10.871094 C 46.535156 10.871094 46.757812 10.90625 46.996094 10.964844 C 47.527344 11.085938 48.035156 11.285156 48.523438 11.523438 C 48.988281 11.75 49.429688 12.023438 49.832031 12.339844 C 50.230469 12.652344 50.664062 13.015625 50.890625 13.476562 C 50.917969 13.527344 50.917969 13.523438 50.933594 13.578125 C 50.941406 13.597656 50.949219 13.621094 50.953125 13.640625 C 50.957031 13.652344 50.957031 13.660156 50.960938 13.667969 C 50.960938 13.667969 50.96875 13.722656 50.964844 13.695312 C 50.960938 13.675781 50.96875 13.730469 50.96875 13.738281 C 50.96875 13.757812 50.96875 13.777344 50.964844 13.796875 C 50.960938 13.828125 50.972656 13.761719 50.964844 13.792969 C 50.960938 13.800781 50.960938 13.808594 50.957031 13.816406 C 50.949219 13.847656 50.953125 13.84375 50.9375 13.871094 C 50.886719 13.964844 50.78125 14.019531 50.6875 14.066406 C 50.648438 14.085938 50.636719 14.089844 50.582031 14.109375 C 50.53125 14.125 50.480469 14.136719 50.429688 14.144531 C 50.386719 14.152344 50.425781 14.148438 50.394531 14.152344 C 50.367188 14.152344 50.34375 14.15625 50.320312 14.15625 C 50.265625 14.15625 50.210938 14.15625 50.152344 14.152344 C 50.054688 14.144531 49.984375 14.132812 49.875 14.105469 C 49.648438 14.050781 49.433594 13.972656 49.222656 13.882812 C 48.539062 13.597656 47.46875 12.929688 46.800781 13.621094 C 46.464844 13.96875 46.308594 14.535156 46.351562 15.007812 C 46.414062 15.652344 46.683594 16.335938 46.390625 16.960938 C 46.167969 17.433594 45.738281 17.785156 45.222656 17.890625 C 45.117188 17.910156 45.054688 18.039062 45.082031 18.136719 C 45.113281 18.246094 45.222656 18.296875 45.328125 18.277344 Z M 45.332031 18.277344 " fill-opacity="1" fill-rule="nonzero"/><path fill="#0c0c0c" d="M 47.699219 31.214844 C 47.675781 31.425781 47.675781 31.636719 47.699219 31.84375 C 47.71875 32.015625 47.734375 32.226562 47.835938 32.375 C 47.882812 32.445312 47.953125 32.5 48.042969 32.511719 C 48.148438 32.523438 48.238281 32.472656 48.316406 32.402344 C 48.457031 32.28125 48.554688 32.113281 48.617188 31.9375 C 48.640625 31.875 48.59375 31.804688 48.53125 31.789062 C 48.464844 31.769531 48.40625 31.808594 48.382812 31.871094 C 48.339844 32 48.265625 32.113281 48.171875 32.207031 C 48.144531 32.230469 48.09375 32.28125 48.0625 32.269531 C 48.035156 32.257812 48.015625 32.203125 48.003906 32.167969 C 47.910156 31.867188 47.90625 31.523438 47.941406 31.214844 C 47.949219 31.148438 47.878906 31.09375 47.820312 31.09375 C 47.75 31.09375 47.707031 31.148438 47.699219 31.214844 Z M 47.699219 31.214844 " fill-opacity="1" fill-rule="nonzero"/><path fill="#0c0c0c" d="M 29.074219 27.539062 C 29.136719 27.6875 29.199219 27.839844 29.265625 27.988281 C 29.3125 28.097656 29.378906 28.222656 29.390625 28.339844 C 29.398438 28.421875 29.375 28.5 29.273438 28.492188 C 29.152344 28.484375 29.066406 28.367188 28.992188 28.277344 C 28.949219 28.230469 28.863281 28.234375 28.820312 28.277344 C 28.769531 28.328125 28.777344 28.398438 28.820312 28.449219 C 28.9375 28.585938 29.070312 28.71875 29.257812 28.730469 C 29.433594 28.746094 29.59375 28.632812 29.625 28.460938 C 29.65625 28.285156 29.585938 28.128906 29.519531 27.972656 C 29.441406 27.789062 29.363281 27.601562 29.28125 27.417969 C 29.257812 27.355469 29.167969 27.34375 29.117188 27.371094 C 29.054688 27.410156 29.046875 27.476562 29.074219 27.539062 Z M 29.074219 27.539062 " fill-opacity="1" fill-rule="nonzero"/><path fill="#0c0c0c" d="M 41.0625 23.585938 C 41.082031 23.738281 41.117188 23.886719 41.167969 24.03125 C 41.21875 24.175781 41.265625 24.328125 41.363281 24.4375 C 41.476562 24.5625 41.660156 24.5625 41.765625 24.429688 C 41.863281 24.3125 41.925781 24.164062 41.972656 24.023438 C 42.023438 23.859375 42.046875 23.6875 42.039062 23.515625 C 42.035156 23.449219 41.984375 23.394531 41.917969 23.394531 C 41.851562 23.394531 41.792969 23.449219 41.796875 23.515625 C 41.800781 23.671875 41.785156 23.824219 41.734375 23.972656 C 41.710938 24.042969 41.683594 24.109375 41.648438 24.171875 C 41.628906 24.203125 41.613281 24.234375 41.59375 24.261719 C 41.585938 24.273438 41.582031 24.277344 41.566406 24.292969 C 41.574219 24.285156 41.574219 24.289062 41.558594 24.296875 C 41.5625 24.292969 41.566406 24.292969 41.574219 24.292969 C 41.558594 24.292969 41.554688 24.292969 41.570312 24.296875 C 41.554688 24.292969 41.554688 24.292969 41.566406 24.296875 C 41.554688 24.289062 41.554688 24.289062 41.5625 24.292969 C 41.554688 24.289062 41.550781 24.28125 41.542969 24.277344 C 41.539062 24.273438 41.519531 24.25 41.53125 24.261719 C 41.519531 24.25 41.511719 24.234375 41.503906 24.21875 C 41.46875 24.152344 41.441406 24.082031 41.417969 24.015625 C 41.359375 23.855469 41.320312 23.691406 41.292969 23.523438 C 41.285156 23.457031 41.203125 23.421875 41.144531 23.4375 C 41.074219 23.457031 41.050781 23.523438 41.058594 23.585938 Z M 41.0625 23.585938 " fill-opacity="1" fill-rule="nonzero"/></svg>