<svg xmlns="http://www.w3.org/2000/svg" xmlns:xlink="http://www.w3.org/1999/xlink" width="100" zoomAndPan="magnify" viewBox="0 0 75 74.999997" height="100" preserveAspectRatio="xMidYMid meet" version="1.0"><defs><clipPath id="6220c84ab4"><path d="M 10 45 L 64 45 L 64 66.574219 L 10 66.574219 Z M 10 45 " clip-rule="nonzero"/></clipPath><clipPath id="abb175d35a"><path d="M 7.5 36 L 67 36 L 67 53 L 7.5 53 Z M 7.5 36 " clip-rule="nonzero"/></clipPath><clipPath id="57c5785033"><path d="M 53 8.074219 L 64 8.074219 L 64 19 L 53 19 Z M 53 8.074219 " clip-rule="nonzero"/></clipPath></defs><path fill="#ff9395" d="M 58.390625 36.214844 C 58.957031 37.863281 58.550781 39.6875 57.34375 40.921875 C 56.066406 42.226562 54.105469 42.65625 52.371094 42.003906 C 52.269531 43.851562 51.03125 45.414062 49.347656 45.878906 C 47.386719 46.417969 45.199219 45.359375 44.34375 43.34375 C 44.261719 43.546875 42.746094 47.128906 39.25 47.636719 C 37.179688 47.941406 35.585938 47 35.371094 46.867188 C 33.734375 45.875 33.085938 44.34375 32.84375 43.570312 C 32.785156 43.382812 32.75 43.238281 32.734375 43.160156 C 32.683594 43.273438 32.609375 43.453125 32.492188 43.667969 C 32.121094 44.378906 31.351562 45.503906 29.957031 46.191406 C 27.222656 47.539062 24.527344 46 24.171875 45.789062 C 21.347656 44.113281 21.027344 40.941406 21 40.613281 C 19.664062 41.761719 17.769531 41.988281 16.261719 41.191406 C 14.589844 40.316406 13.707031 38.355469 14.167969 36.453125 C 12.179688 36.082031 10.65625 34.460938 10.410156 32.464844 C 10.171875 30.53125 11.3125 28.507812 13.097656 27.699219 C 12.390625 26.226562 12.0625 24.46875 12.691406 22.960938 C 13.304688 21.492188 15.027344 20.4375 16.539062 20.90625 C 16.582031 20.917969 16.621094 20.929688 16.664062 20.945312 C 16.625 20.777344 16.59375 20.609375 16.566406 20.4375 C 16.210938 18.050781 17.191406 15.675781 19.117188 14.339844 C 21.496094 12.6875 24.175781 13.425781 24.894531 13.671875 C 24.984375 13.703125 25.042969 13.726562 25.070312 13.738281 C 25.097656 13.679688 25.125 13.621094 25.152344 13.566406 C 26.65625 10.589844 29.636719 8.988281 32.296875 9.507812 C 34.089844 9.859375 35.257812 11.078125 35.824219 11.804688 C 35.925781 11.941406 36.011719 12.058594 36.074219 12.148438 C 36.09375 12.175781 36.109375 12.203125 36.125 12.226562 C 37.324219 10.792969 39.210938 10.183594 40.890625 10.683594 C 42.746094 11.234375 43.523438 12.894531 43.671875 13.234375 C 43.675781 13.246094 43.679688 13.257812 43.683594 13.265625 C 43.765625 13.214844 43.851562 13.164062 43.933594 13.113281 C 45.871094 11.988281 48.472656 12.085938 50.3125 13.371094 C 52.230469 14.714844 53.195312 17.273438 52.636719 19.542969 C 54.34375 19.109375 56.292969 19.917969 57.183594 21.429688 C 58.074219 22.941406 57.824219 25.027344 56.605469 26.292969 C 56.605469 26.292969 56.605469 26.292969 56.609375 26.292969 C 56.785156 26.332031 56.960938 26.378906 57.128906 26.433594 C 59.484375 27.167969 61.101562 29.234375 61.144531 31.496094 C 61.179688 33.386719 60.109375 35.183594 58.390625 36.214844 Z M 58.390625 36.214844 " fill-opacity="1" fill-rule="nonzero"/><path fill="#ff3e75" d="M 33.496094 39.226562 C 33.238281 39.910156 33.070312 40.507812 32.957031 40.972656 C 32.699219 42.019531 32.679688 42.589844 32.675781 42.839844 C 32.675781 43.019531 32.679688 43.167969 32.6875 43.269531 C 32.609375 43.425781 32.535156 43.582031 32.457031 43.734375 C 32.445312 43.703125 32.429688 43.652344 32.414062 43.585938 C 32.203125 42.847656 32.292969 42.1875 32.546875 41.109375 C 32.6875 40.511719 32.875 39.804688 33.132812 39.011719 C 33.253906 39.085938 33.375 39.15625 33.496094 39.226562 Z M 33.496094 39.226562 " fill-opacity="1" fill-rule="nonzero"/><path fill="#ff3e75" d="M 34.84375 36.933594 C 34.738281 37.507812 34.445312 38.027344 34.007812 38.421875 C 33.546875 38.835938 32.9375 39.058594 32.3125 39.066406 C 31.953125 39.066406 31.589844 39 31.257812 38.855469 C 31.152344 38.808594 31.03125 38.824219 30.96875 38.929688 C 30.917969 39.019531 30.9375 39.171875 31.042969 39.214844 C 31.730469 39.519531 32.519531 39.570312 33.234375 39.335938 C 33.898438 39.121094 34.464844 38.671875 34.835938 38.085938 C 35.039062 37.769531 35.179688 37.414062 35.25 37.042969 C 35.269531 36.933594 35.21875 36.820312 35.101562 36.785156 C 35 36.757812 34.863281 36.820312 34.84375 36.933594 Z M 34.84375 36.933594 " fill-opacity="1" fill-rule="nonzero"/><path fill="#ff3e75" d="M 21.574219 39.511719 C 21.292969 38.328125 21.507812 37.027344 22.195312 35.988281 C 22.339844 35.765625 22.492188 35.578125 22.675781 35.382812 C 22.859375 35.183594 22.5625 34.886719 22.375 35.085938 C 21.441406 36.082031 20.945312 37.4375 21.039062 38.800781 C 21.058594 39.078125 21.101562 39.355469 21.167969 39.625 C 21.230469 39.894531 21.636719 39.777344 21.574219 39.511719 Z M 21.574219 39.511719 " fill-opacity="1" fill-rule="nonzero"/><path fill="#ff3e75" d="M 21.691406 33.359375 C 21.789062 34.574219 22.4375 35.691406 23.417969 36.414062 C 23.695312 36.617188 23.996094 36.78125 24.3125 36.910156 C 24.417969 36.949219 24.546875 36.863281 24.574219 36.761719 C 24.605469 36.640625 24.53125 36.546875 24.425781 36.503906 C 23.441406 36.105469 22.652344 35.242188 22.304688 34.25 C 22.203125 33.960938 22.136719 33.664062 22.113281 33.359375 C 22.101562 33.246094 22.023438 33.152344 21.902344 33.152344 C 21.792969 33.152344 21.679688 33.246094 21.691406 33.359375 Z M 21.691406 33.359375 " fill-opacity="1" fill-rule="nonzero"/><path fill="#ff3e75" d="M 38.265625 41.144531 C 38.972656 40.023438 39.675781 38.851562 39.988281 37.550781 C 40.136719 36.917969 40.183594 36.265625 40.074219 35.625 C 39.972656 35.019531 39.726562 34.445312 39.375 33.949219 C 38.660156 32.929688 37.566406 32.167969 36.375 31.808594 C 35.144531 31.433594 33.84375 31.566406 32.65625 32.019531 C 31.441406 32.480469 30.351562 33.203125 29.308594 33.957031 C 29.179688 34.046875 29.054688 34.140625 28.929688 34.230469 C 28.839844 34.300781 28.792969 34.414062 28.855469 34.519531 C 28.90625 34.609375 29.050781 34.660156 29.144531 34.59375 C 30.136719 33.867188 31.152344 33.148438 32.277344 32.628906 C 33.351562 32.136719 34.554688 31.859375 35.734375 32.082031 C 36.898438 32.300781 37.988281 32.941406 38.757812 33.835938 C 39.117188 34.253906 39.40625 34.742188 39.5625 35.273438 C 39.734375 35.847656 39.753906 36.460938 39.660156 37.050781 C 39.453125 38.304688 38.816406 39.449219 38.160156 40.519531 C 38.074219 40.660156 37.988281 40.796875 37.902344 40.933594 C 37.757812 41.160156 38.121094 41.371094 38.265625 41.144531 Z M 38.265625 41.144531 " fill-opacity="1" fill-rule="nonzero"/><path fill="#ff3e75" d="M 36.125 12.222656 C 35.75 12.40625 35.414062 12.671875 35.167969 13.007812 C 34.988281 13.257812 34.851562 13.53125 34.769531 13.828125 C 34.714844 14.027344 34.691406 14.183594 34.679688 14.378906 C 34.667969 14.648438 34.246094 14.648438 34.257812 14.378906 C 34.308594 13.328125 34.929688 12.355469 35.875 11.878906 C 35.980469 12.011719 36.0625 12.128906 36.125 12.222656 Z M 36.125 12.222656 " fill-opacity="1" fill-rule="nonzero"/><path fill="#ff3e75" d="M 42.4375 17.261719 C 43.128906 17.167969 43.875 17.261719 44.488281 17.601562 C 45.070312 17.925781 45.488281 18.472656 45.613281 19.128906 C 45.679688 19.464844 45.652344 19.832031 45.507812 20.144531 C 45.460938 20.246094 45.476562 20.371094 45.582031 20.429688 C 45.675781 20.484375 45.824219 20.460938 45.871094 20.355469 C 46.195312 19.648438 46.09375 18.832031 45.691406 18.175781 C 45.265625 17.488281 44.53125 17.050781 43.746094 16.890625 C 43.273438 16.796875 42.800781 16.792969 42.324219 16.859375 C 42.210938 16.871094 42.148438 17.015625 42.175781 17.117188 C 42.210938 17.238281 42.324219 17.277344 42.4375 17.261719 Z M 42.4375 17.261719 " fill-opacity="1" fill-rule="nonzero"/><path fill="#ff9395" d="M 43.933594 13.113281 C 43.851562 13.160156 43.765625 13.210938 43.683594 13.265625 C 43.679688 13.257812 43.675781 13.246094 43.671875 13.234375 C 43.679688 13.210938 43.695312 13.1875 43.71875 13.164062 C 43.769531 13.109375 43.859375 13.089844 43.933594 13.113281 Z M 43.933594 13.113281 " fill-opacity="1" fill-rule="nonzero"/><path fill="#ff3e75" d="M 44.742188 17.265625 C 44.714844 17.335938 44.6875 17.40625 44.65625 17.476562 C 44.625 17.558594 44.527344 17.589844 44.441406 17.578125 C 44.417969 17.574219 44.390625 17.566406 44.367188 17.550781 C 44.351562 17.542969 44.335938 17.53125 44.320312 17.515625 C 44.261719 17.453125 44.257812 17.355469 44.292969 17.269531 C 44.292969 17.269531 44.292969 17.269531 44.292969 17.265625 L 44.296875 17.257812 L 44.300781 17.253906 C 44.300781 17.246094 44.300781 17.242188 44.304688 17.238281 C 44.316406 17.210938 44.324219 17.1875 44.335938 17.164062 C 44.34375 17.136719 44.355469 17.105469 44.367188 17.078125 C 44.375 17.054688 44.382812 17.03125 44.390625 17.007812 C 44.433594 16.875 44.472656 16.738281 44.503906 16.601562 C 44.644531 15.949219 44.597656 15.261719 44.382812 14.628906 C 44.292969 14.367188 44.171875 14.121094 44.027344 13.886719 C 43.972656 13.792969 43.914062 13.707031 43.847656 13.621094 C 43.84375 13.613281 43.820312 13.582031 43.8125 13.570312 C 43.8125 13.570312 43.808594 13.570312 43.808594 13.570312 C 43.800781 13.558594 43.785156 13.542969 43.785156 13.535156 C 43.761719 13.511719 43.742188 13.484375 43.71875 13.460938 C 43.664062 13.394531 43.644531 13.308594 43.671875 13.234375 C 43.679688 13.246094 43.683594 13.257812 43.6875 13.265625 C 43.769531 13.210938 43.851562 13.160156 43.9375 13.109375 C 43.96875 13.121094 43.996094 13.136719 44.015625 13.164062 C 44.175781 13.347656 44.320312 13.546875 44.445312 13.757812 C 45.066406 14.824219 45.164062 16.113281 44.742188 17.265625 Z M 44.742188 17.265625 " fill-opacity="1" fill-rule="nonzero"/><path fill="#ff3e75" d="M 51.214844 19.953125 C 50.226562 20.265625 49.351562 20.875 48.746094 21.71875 C 48.570312 21.96875 48.417969 22.238281 48.292969 22.519531 C 48.246094 22.625 48.261719 22.746094 48.367188 22.808594 C 48.457031 22.859375 48.609375 22.835938 48.65625 22.734375 C 48.945312 22.082031 49.386719 21.503906 49.953125 21.066406 C 50.371094 20.746094 50.835938 20.511719 51.328125 20.359375 C 51.585938 20.277344 51.476562 19.871094 51.214844 19.953125 Z M 51.214844 19.953125 " fill-opacity="1" fill-rule="nonzero"/><path fill="#ff3e75" d="M 47.140625 21.292969 C 47.96875 21.871094 48.488281 22.851562 48.398438 23.867188 C 48.320312 24.769531 47.71875 25.550781 46.929688 25.972656 C 46.457031 26.226562 45.921875 26.347656 45.386719 26.335938 C 45.113281 26.332031 45.113281 26.75 45.386719 26.753906 C 46.457031 26.777344 47.519531 26.3125 48.179688 25.464844 C 48.859375 24.601562 49.011719 23.449219 48.589844 22.4375 C 48.332031 21.824219 47.898438 21.3125 47.351562 20.933594 C 47.257812 20.867188 47.117188 20.914062 47.0625 21.007812 C 47 21.113281 47.046875 21.230469 47.140625 21.292969 Z M 47.140625 21.292969 " fill-opacity="1" fill-rule="nonzero"/><path fill="#ff3e75" d="M 57.132812 26.433594 C 56.941406 26.582031 56.742188 26.71875 56.53125 26.835938 C 55.214844 27.585938 53.589844 27.699219 52.1875 27.132812 C 52.082031 27.089844 52.007812 26.992188 52.042969 26.875 C 52.070312 26.773438 52.195312 26.683594 52.300781 26.726562 C 52.582031 26.839844 52.871094 26.929688 53.167969 26.988281 C 53.957031 27.148438 54.78125 27.085938 55.542969 26.824219 C 55.84375 26.722656 56.128906 26.585938 56.402344 26.425781 C 56.472656 26.382812 56.539062 26.339844 56.609375 26.292969 C 56.785156 26.332031 56.960938 26.378906 57.128906 26.429688 Z M 57.132812 26.433594 " fill-opacity="1" fill-rule="nonzero"/><path fill="#ff3e75" d="M 53.308594 33.039062 C 53.03125 31.996094 52.285156 31.089844 51.320312 30.601562 C 50.308594 30.085938 49.125 30.078125 48.085938 30.515625 C 47.511719 30.761719 46.996094 31.140625 46.609375 31.628906 C 46.539062 31.71875 46.519531 31.839844 46.609375 31.925781 C 46.679688 32 46.835938 32.015625 46.90625 31.925781 C 47.539062 31.132812 48.515625 30.644531 49.535156 30.617188 C 50.527344 30.585938 51.46875 31.019531 52.132812 31.746094 C 52.5 32.144531 52.765625 32.628906 52.902344 33.152344 C 52.972656 33.410156 53.378906 33.300781 53.308594 33.039062 Z M 53.308594 33.039062 " fill-opacity="1" fill-rule="nonzero"/><path fill="#ff3e75" d="M 17.835938 30.140625 C 16.785156 30.875 15.96875 31.898438 15.492188 33.089844 C 15.386719 33.355469 15.300781 33.628906 15.230469 33.90625 C 15.164062 34.167969 15.570312 34.28125 15.636719 34.019531 C 15.925781 32.859375 16.550781 31.800781 17.4375 30.992188 C 17.636719 30.8125 17.835938 30.652344 18.050781 30.5 C 18.144531 30.4375 18.1875 30.316406 18.125 30.214844 C 18.070312 30.121094 17.929688 30.074219 17.835938 30.140625 Z M 17.835938 30.140625 " fill-opacity="1" fill-rule="nonzero"/><path fill="#ff3e75" d="M 19.847656 28.980469 C 19.824219 29.015625 19.800781 29.050781 19.777344 29.082031 C 19.765625 29.097656 19.753906 29.113281 19.742188 29.128906 C 19.769531 29.089844 19.75 29.121094 19.734375 29.140625 C 19.703125 29.175781 19.671875 29.214844 19.636719 29.25 C 19.472656 29.441406 19.289062 29.601562 19.089844 29.730469 C 18.492188 30.125 17.769531 30.214844 17.09375 29.972656 C 16.941406 29.917969 16.796875 29.847656 16.664062 29.765625 C 16.605469 29.730469 16.550781 29.695312 16.496094 29.65625 C 16.476562 29.644531 16.457031 29.628906 16.4375 29.613281 C 16.414062 29.597656 16.46875 29.636719 16.449219 29.621094 C 16.4375 29.613281 16.429688 29.609375 16.417969 29.601562 C 16.332031 29.527344 16.207031 29.511719 16.121094 29.601562 C 16.046875 29.671875 16.03125 29.824219 16.121094 29.898438 C 16.664062 30.332031 17.363281 30.582031 18.066406 30.523438 C 18.773438 30.460938 19.394531 30.121094 19.871094 29.621094 C 19.996094 29.488281 20.113281 29.347656 20.210938 29.191406 C 20.355469 28.964844 19.988281 28.753906 19.84375 28.980469 Z M 19.847656 28.980469 " fill-opacity="1" fill-rule="nonzero"/><path fill="#ff3e75" d="M 20.972656 22.71875 C 20.492188 22.800781 20.007812 22.8125 19.527344 22.742188 C 18.933594 22.660156 18.371094 22.441406 17.871094 22.128906 C 17.664062 22 17.464844 21.855469 17.28125 21.691406 C 17.007812 21.457031 16.757812 21.195312 16.539062 20.90625 C 16.582031 20.917969 16.625 20.933594 16.664062 20.949219 C 16.625 20.78125 16.59375 20.609375 16.566406 20.441406 C 16.652344 20.425781 16.738281 20.46875 16.792969 20.539062 C 16.8125 20.570312 16.835938 20.601562 16.855469 20.632812 C 16.867188 20.648438 16.882812 20.664062 16.894531 20.683594 C 16.902344 20.691406 16.902344 20.695312 16.90625 20.699219 C 16.90625 20.699219 16.910156 20.703125 16.914062 20.707031 C 16.988281 20.800781 17.0625 20.890625 17.140625 20.976562 C 17.273438 21.125 17.417969 21.261719 17.570312 21.390625 C 17.582031 21.402344 17.597656 21.414062 17.609375 21.425781 C 17.90625 21.671875 18.230469 21.878906 18.582031 22.039062 C 19.289062 22.359375 20.097656 22.445312 20.859375 22.3125 C 20.972656 22.292969 21.085938 22.339844 21.117188 22.460938 C 21.144531 22.558594 21.082031 22.695312 20.972656 22.71875 Z M 20.972656 22.71875 " fill-opacity="1" fill-rule="nonzero"/><path fill="#ff3e75" d="M 17.269531 21.671875 C 17.304688 21.746094 17.324219 21.792969 17.359375 21.886719 C 17.394531 21.980469 17.425781 22.074219 17.453125 22.171875 C 17.523438 22.417969 17.570312 22.671875 17.585938 22.925781 C 17.621094 23.433594 17.550781 23.9375 17.378906 24.417969 C 17.34375 24.523438 17.421875 24.644531 17.527344 24.675781 C 17.644531 24.707031 17.75 24.636719 17.789062 24.527344 C 18.140625 23.523438 18.074219 22.425781 17.632812 21.460938 C 17.585938 21.355469 17.4375 21.332031 17.34375 21.382812 C 17.238281 21.445312 17.222656 21.566406 17.269531 21.671875 Z M 17.269531 21.671875 " fill-opacity="1" fill-rule="nonzero"/><path fill="#ff3e75" d="M 56.703125 35.023438 C 56.183594 34.070312 55.242188 33.304688 54.175781 33.0625 C 53.617188 32.933594 53.035156 32.921875 52.476562 33.042969 C 51.625 33.230469 50.875 33.765625 50.410156 34.5 C 50.113281 34.976562 49.929688 35.53125 49.882812 36.085938 C 49.871094 36.199219 49.984375 36.296875 50.09375 36.296875 C 50.214844 36.296875 50.292969 36.199219 50.304688 36.085938 C 50.304688 36.066406 50.308594 36.042969 50.308594 36.023438 C 50.3125 36.011719 50.3125 35.996094 50.3125 35.984375 C 50.320312 35.933594 50.304688 36.03125 50.316406 35.964844 C 50.332031 35.871094 50.351562 35.777344 50.371094 35.683594 C 50.4375 35.414062 50.527344 35.164062 50.652344 34.925781 C 51.011719 34.242188 51.632812 33.71875 52.378906 33.503906 C 52.691406 33.410156 53.011719 33.371094 53.335938 33.375 C 53.460938 33.378906 53.582031 33.386719 53.703125 33.402344 C 53.714844 33.402344 53.726562 33.402344 53.738281 33.40625 C 53.789062 33.410156 53.703125 33.402344 53.734375 33.40625 C 53.757812 33.410156 53.777344 33.410156 53.800781 33.414062 C 53.832031 33.421875 53.863281 33.425781 53.898438 33.433594 C 54.535156 33.550781 55.121094 33.847656 55.589844 34.285156 C 55.699219 34.386719 55.800781 34.492188 55.898438 34.605469 C 55.941406 34.65625 55.984375 34.707031 56.023438 34.753906 C 56.042969 34.785156 55.992188 34.71875 56.027344 34.761719 C 56.039062 34.777344 56.050781 34.789062 56.058594 34.804688 C 56.074219 34.824219 56.09375 34.847656 56.109375 34.871094 C 56.191406 34.988281 56.269531 35.109375 56.339844 35.234375 C 56.46875 35.472656 56.832031 35.261719 56.703125 35.023438 Z M 56.703125 35.023438 " fill-opacity="1" fill-rule="nonzero"/><path fill="#ff3e75" d="M 52.160156 40.386719 C 52.136719 39.710938 52.003906 39.03125 51.757812 38.398438 C 51.449219 37.605469 50.972656 36.902344 50.375 36.296875 C 49.808594 35.722656 49.125 35.269531 48.355469 35.007812 C 47.390625 34.679688 46.320312 34.6875 45.351562 35 C 44.699219 35.210938 44.085938 35.542969 43.5625 35.976562 C 43.472656 36.050781 43.484375 36.199219 43.5625 36.273438 C 43.648438 36.359375 43.773438 36.347656 43.859375 36.273438 C 43.882812 36.257812 43.90625 36.238281 43.925781 36.21875 C 43.941406 36.210938 43.953125 36.199219 43.96875 36.1875 C 44 36.164062 43.925781 36.21875 43.960938 36.191406 C 43.976562 36.183594 43.988281 36.175781 43.996094 36.164062 C 44.09375 36.09375 44.195312 36.023438 44.296875 35.960938 C 44.574219 35.78125 44.875 35.625 45.175781 35.507812 C 46.042969 35.167969 46.996094 35.082031 47.90625 35.3125 C 49.386719 35.691406 50.605469 36.875 51.234375 38.242188 C 51.429688 38.660156 51.5625 39.105469 51.648438 39.558594 C 51.683594 39.75 51.699219 39.851562 51.714844 40.035156 C 51.726562 40.152344 51.734375 40.269531 51.734375 40.386719 C 51.746094 40.65625 52.167969 40.65625 52.15625 40.386719 Z M 52.160156 40.386719 " fill-opacity="1" fill-rule="nonzero"/><path fill="#ff9395" d="M 25.15625 13.566406 C 25.125 13.621094 25.097656 13.679688 25.070312 13.738281 C 25.042969 13.726562 24.984375 13.703125 24.894531 13.671875 C 24.941406 13.585938 25.042969 13.523438 25.15625 13.566406 Z M 25.15625 13.566406 " fill-opacity="1" fill-rule="nonzero"/><path fill="#ff3e75" d="M 28.050781 19.269531 C 28.007812 19.375 27.910156 19.449219 27.789062 19.414062 C 27.6875 19.386719 27.601562 19.261719 27.640625 19.160156 C 27.820312 18.710938 27.890625 18.238281 27.863281 17.757812 C 27.816406 16.933594 27.472656 16.140625 26.953125 15.5 C 26.410156 14.832031 25.722656 14.355469 24.972656 13.941406 C 24.859375 13.878906 24.851562 13.761719 24.894531 13.671875 C 24.984375 13.703125 25.046875 13.726562 25.070312 13.738281 C 25.097656 13.679688 25.125 13.621094 25.15625 13.566406 C 25.164062 13.570312 25.175781 13.574219 25.1875 13.578125 C 25.652344 13.835938 26.097656 14.113281 26.503906 14.453125 C 27.175781 15.015625 27.726562 15.726562 28.035156 16.550781 C 28.035156 16.554688 28.035156 16.554688 28.039062 16.558594 C 28.085938 16.6875 28.125 16.816406 28.160156 16.953125 C 28.359375 17.714844 28.339844 18.539062 28.046875 19.269531 Z M 28.050781 19.269531 " fill-opacity="1" fill-rule="nonzero"/><path fill="#ff3e75" d="M 28.089844 16.972656 C 29.160156 16.65625 30.324219 16.605469 31.394531 16.953125 C 32.332031 17.257812 33.144531 17.898438 33.628906 18.757812 C 33.890625 19.222656 34.042969 19.746094 34.054688 20.28125 C 34.058594 20.550781 34.480469 20.550781 34.476562 20.28125 C 34.457031 19.21875 33.941406 18.214844 33.160156 17.503906 C 32.300781 16.71875 31.160156 16.332031 30 16.296875 C 29.320312 16.273438 28.632812 16.375 27.976562 16.566406 C 27.71875 16.644531 27.828125 17.046875 28.089844 16.972656 Z M 28.089844 16.972656 " fill-opacity="1" fill-rule="nonzero"/><path fill="#ff3e75" d="M 27.207031 32.769531 C 27.394531 31.304688 26.859375 29.789062 25.785156 28.773438 C 24.753906 27.796875 23.335938 27.382812 21.9375 27.550781 C 21.582031 27.589844 21.222656 27.652344 20.886719 27.777344 C 20.78125 27.816406 20.707031 27.917969 20.742188 28.035156 C 20.769531 28.136719 20.894531 28.222656 21 28.183594 C 21.246094 28.089844 21.511719 28.035156 21.769531 27.992188 C 21.894531 27.972656 21.960938 27.964844 22.097656 27.953125 C 22.234375 27.941406 22.363281 27.933594 22.496094 27.933594 C 22.785156 27.929688 23.078125 27.949219 23.367188 28 C 24.753906 28.253906 25.929688 29.203125 26.480469 30.492188 C 26.789062 31.210938 26.882812 32 26.785156 32.769531 C 26.769531 32.882812 26.890625 32.980469 26.996094 32.980469 C 27.121094 32.980469 27.191406 32.882812 27.207031 32.769531 Z M 27.207031 32.769531 " fill-opacity="1" fill-rule="nonzero"/><path fill="#ededf2" d="M 44.824219 26.253906 C 44.824219 26.722656 44.734375 27.171875 44.554688 27.601562 C 44.375 28.035156 44.121094 28.417969 43.785156 28.746094 C 43.453125 29.078125 43.070312 29.332031 42.636719 29.511719 C 42.203125 29.691406 41.75 29.78125 41.277344 29.78125 C 40.808594 29.78125 40.355469 29.691406 39.921875 29.511719 C 39.488281 29.332031 39.101562 29.078125 38.769531 28.746094 C 38.4375 28.417969 38.183594 28.035156 38.003906 27.601562 C 37.820312 27.171875 37.730469 26.722656 37.730469 26.253906 C 37.730469 25.785156 37.820312 25.335938 38.003906 24.90625 C 38.183594 24.472656 38.4375 24.09375 38.769531 23.761719 C 39.101562 23.429688 39.488281 23.175781 39.921875 22.996094 C 40.355469 22.816406 40.808594 22.730469 41.277344 22.730469 C 41.75 22.730469 42.203125 22.816406 42.636719 22.996094 C 43.070312 23.175781 43.453125 23.429688 43.785156 23.761719 C 44.121094 24.09375 44.375 24.472656 44.554688 24.90625 C 44.734375 25.335938 44.824219 25.785156 44.824219 26.253906 Z M 44.824219 26.253906 " fill-opacity="1" fill-rule="nonzero"/><path fill="#0c0c0c" d="M 43.386719 26.253906 C 43.386719 26.53125 43.332031 26.800781 43.226562 27.054688 C 43.121094 27.3125 42.96875 27.539062 42.769531 27.738281 C 42.570312 27.933594 42.34375 28.085938 42.085938 28.191406 C 41.828125 28.296875 41.558594 28.351562 41.277344 28.351562 C 41 28.351562 40.730469 28.296875 40.472656 28.191406 C 40.214844 28.085938 39.984375 27.933594 39.789062 27.738281 C 39.589844 27.539062 39.4375 27.3125 39.332031 27.054688 C 39.222656 26.800781 39.171875 26.53125 39.171875 26.253906 C 39.171875 25.976562 39.222656 25.707031 39.332031 25.453125 C 39.4375 25.195312 39.589844 24.96875 39.789062 24.773438 C 39.984375 24.574219 40.214844 24.421875 40.472656 24.316406 C 40.730469 24.210938 41 24.15625 41.277344 24.15625 C 41.558594 24.15625 41.828125 24.210938 42.085938 24.316406 C 42.34375 24.421875 42.570312 24.574219 42.769531 24.773438 C 42.96875 24.96875 43.121094 25.195312 43.226562 25.453125 C 43.332031 25.707031 43.386719 25.976562 43.386719 26.253906 Z M 43.386719 26.253906 " fill-opacity="1" fill-rule="nonzero"/><path fill="#b52d2d" d="M 44.785156 25.75 C 42.59375 25.324219 40.40625 24.894531 38.21875 24.464844 C 38.832031 23.425781 39.972656 22.730469 41.273438 22.730469 C 43.0625 22.730469 44.539062 24.042969 44.785156 25.75 Z M 44.785156 25.75 " fill-opacity="1" fill-rule="nonzero"/><path fill="#ededf2" d="M 35.382812 26.253906 C 35.382812 26.722656 35.292969 27.171875 35.113281 27.601562 C 34.929688 28.035156 34.675781 28.417969 34.34375 28.746094 C 34.011719 29.078125 33.625 29.332031 33.191406 29.511719 C 32.757812 29.691406 32.304688 29.78125 31.835938 29.78125 C 31.363281 29.78125 30.914062 29.691406 30.476562 29.511719 C 30.042969 29.332031 29.660156 29.078125 29.328125 28.746094 C 28.996094 28.417969 28.738281 28.035156 28.558594 27.601562 C 28.378906 27.171875 28.289062 26.722656 28.289062 26.253906 C 28.289062 25.785156 28.378906 25.335938 28.558594 24.90625 C 28.738281 24.472656 28.996094 24.09375 29.328125 23.761719 C 29.660156 23.429688 30.042969 23.175781 30.476562 22.996094 C 30.914062 22.816406 31.363281 22.730469 31.835938 22.730469 C 32.304688 22.730469 32.757812 22.816406 33.191406 22.996094 C 33.625 23.175781 34.011719 23.429688 34.34375 23.761719 C 34.675781 24.09375 34.929688 24.472656 35.113281 24.90625 C 35.292969 25.335938 35.382812 25.785156 35.382812 26.253906 Z M 35.382812 26.253906 " fill-opacity="1" fill-rule="nonzero"/><path fill="#0c0c0c" d="M 33.945312 26.253906 C 33.945312 26.53125 33.890625 26.800781 33.78125 27.054688 C 33.675781 27.3125 33.523438 27.539062 33.324219 27.738281 C 33.128906 27.933594 32.898438 28.085938 32.640625 28.191406 C 32.382812 28.296875 32.113281 28.351562 31.835938 28.351562 C 31.554688 28.351562 31.285156 28.296875 31.027344 28.191406 C 30.769531 28.085938 30.542969 27.933594 30.34375 27.738281 C 30.144531 27.539062 29.992188 27.3125 29.886719 27.054688 C 29.78125 26.800781 29.726562 26.53125 29.726562 26.253906 C 29.726562 25.976562 29.78125 25.707031 29.886719 25.453125 C 29.992188 25.195312 30.144531 24.96875 30.34375 24.773438 C 30.542969 24.574219 30.769531 24.421875 31.027344 24.316406 C 31.285156 24.210938 31.554688 24.15625 31.835938 24.15625 C 32.113281 24.15625 32.382812 24.210938 32.640625 24.316406 C 32.898438 24.421875 33.128906 24.574219 33.324219 24.773438 C 33.523438 24.96875 33.675781 25.195312 33.78125 25.453125 C 33.890625 25.707031 33.945312 25.976562 33.945312 26.253906 Z M 33.945312 26.253906 " fill-opacity="1" fill-rule="nonzero"/><path fill="#b52d2d" d="M 28.328125 25.75 C 30.519531 25.324219 32.707031 24.894531 34.894531 24.464844 C 34.28125 23.425781 33.140625 22.730469 31.839844 22.730469 C 30.050781 22.730469 28.574219 24.042969 28.328125 25.75 Z M 28.328125 25.75 " fill-opacity="1" fill-rule="nonzero"/><path fill="#0c0c0c" d="M 44.6875 28.746094 C 43.84375 29.84375 42.464844 30.496094 41.078125 30.480469 C 40.792969 30.476562 40.792969 30.914062 41.078125 30.917969 C 42.28125 30.933594 43.464844 30.488281 44.375 29.710938 C 44.636719 29.488281 44.863281 29.238281 45.070312 28.96875 C 45.144531 28.875 45.085938 28.722656 44.992188 28.667969 C 44.878906 28.601562 44.761719 28.652344 44.6875 28.746094 Z M 44.6875 28.746094 " fill-opacity="1" fill-rule="nonzero"/><path fill="#0c0c0c" d="M 27.726562 28.984375 C 28.457031 29.933594 29.523438 30.605469 30.699219 30.839844 C 31.035156 30.90625 31.378906 30.9375 31.71875 30.933594 C 32.003906 30.929688 32.003906 30.492188 31.71875 30.496094 C 30.335938 30.511719 28.953125 29.859375 28.109375 28.761719 C 28.039062 28.667969 27.917969 28.617188 27.808594 28.683594 C 27.714844 28.738281 27.65625 28.890625 27.726562 28.984375 Z M 27.726562 28.984375 " fill-opacity="1" fill-rule="nonzero"/><path fill="#0c0c0c" d="M 33.945312 19.132812 C 34.054688 19.199219 34.5 19.492188 34.601562 19.992188 C 34.601562 19.992188 34.664062 20.320312 34.527344 20.65625 C 34.1875 21.472656 32.679688 21.320312 30.492188 21.9375 C 28.695312 22.445312 27.773438 23.097656 27.398438 22.699219 C 27.121094 22.40625 27.371094 21.773438 27.402344 21.691406 C 27.667969 21.019531 28.28125 20.714844 29.847656 20.089844 C 32.886719 18.875 33.5 18.839844 33.945312 19.128906 Z M 33.945312 19.132812 " fill-opacity="1" fill-rule="nonzero"/><path fill="#0c0c0c" d="M 38.375 18.917969 C 38.273438 18.996094 37.84375 19.3125 37.773438 19.816406 C 37.773438 19.816406 37.730469 20.152344 37.890625 20.476562 C 38.277344 21.269531 39.769531 21.027344 41.992188 21.515625 C 43.816406 21.914062 44.773438 22.507812 45.125 22.089844 C 45.386719 21.777344 45.097656 21.160156 45.0625 21.085938 C 44.753906 20.429688 44.125 20.164062 42.523438 19.632812 C 39.417969 18.597656 38.800781 18.605469 38.375 18.917969 Z M 38.375 18.917969 " fill-opacity="1" fill-rule="nonzero"/><path fill="#0c0c0c" d="M 34.25 34.453125 C 35.621094 33.890625 37.09375 33.589844 38.578125 33.582031 C 39.003906 33.582031 39.429688 33.601562 39.851562 33.648438 C 39.96875 33.660156 40.070312 33.539062 40.070312 33.425781 C 40.070312 33.296875 39.96875 33.21875 39.851562 33.207031 C 38.34375 33.050781 36.808594 33.1875 35.351562 33.605469 C 34.9375 33.722656 34.53125 33.867188 34.132812 34.03125 C 34.023438 34.074219 33.945312 34.175781 33.976562 34.300781 C 34.007812 34.40625 34.140625 34.5 34.25 34.453125 Z M 34.25 34.453125 " fill-opacity="1" fill-rule="nonzero"/><g clip-path="url(#6220c84ab4)"><path fill="#29abe2" d="M 10.664062 45.101562 L 10.664062 66.570312 L 63.976562 66.570312 L 63.976562 45.945312 C 46.203125 45.664062 28.433594 45.382812 10.664062 45.101562 Z M 10.664062 45.101562 " fill-opacity="1" fill-rule="nonzero"/></g><g clip-path="url(#abb175d35a)"><path fill="#bdddef" d="M 10.765625 52.550781 C 9.371094 52.421875 8.484375 50.8125 8.269531 50.417969 C 8.054688 50.03125 7.722656 49.128906 7.605469 47.101562 C 7.496094 45.300781 7.59375 42.960938 8.882812 41.171875 C 10.351562 39.128906 12.894531 38.636719 14.578125 38.335938 C 30.769531 35.421875 42.882812 36.0625 42.882812 36.0625 C 42.882812 36.0625 44.90625 36.21875 48.957031 36.535156 C 53.910156 36.921875 59.042969 37.363281 63.375 39.78125 C 64.226562 40.257812 64.746094 41.007812 64.746094 41.007812 C 65.40625 41.84375 65.652344 42.699219 65.792969 43.277344 C 65.929688 43.828125 67.492188 50.277344 65.347656 51.324219 C 64.867188 51.558594 64.351562 51.4375 64.160156 51.390625 C 55.554688 49.265625 19.46875 49.605469 16.757812 50.308594 C 14.976562 50.773438 13.304688 51.484375 13.304688 51.484375 C 11.96875 52.148438 11.574219 52.625 10.765625 52.550781 Z M 10.765625 52.550781 " fill-opacity="1" fill-rule="nonzero"/></g><path fill="#0c0c0c" d="M 51.246094 28.167969 C 52.289062 29.417969 53.121094 30.929688 53.613281 32.511719 C 54.203125 34.425781 54.320312 36.46875 53.96875 38.441406 C 53.847656 39.117188 53.671875 39.785156 53.445312 40.4375 C 53.40625 40.550781 53.492188 40.679688 53.601562 40.710938 C 53.722656 40.742188 53.835938 40.667969 53.875 40.554688 C 54.371094 39.117188 54.621094 37.59375 54.609375 36.074219 C 54.589844 33.929688 54.027344 31.800781 52.984375 29.925781 C 52.574219 29.191406 52.097656 28.503906 51.558594 27.859375 C 51.484375 27.765625 51.324219 27.78125 51.246094 27.859375 C 51.152344 27.949219 51.167969 28.078125 51.246094 28.171875 Z M 51.246094 28.167969 " fill-opacity="1" fill-rule="nonzero"/><path fill="#0c0c0c" d="M 52.964844 40.355469 C 51.398438 40.394531 50.570312 42.804688 50.378906 43.363281 C 50.136719 44.0625 49.96875 44.609375 50.179688 45.210938 C 50.519531 46.167969 51.640625 46.585938 52.652344 46.722656 C 53.160156 46.792969 53.679688 46.820312 54.171875 46.683594 C 54.664062 46.546875 55.125 46.222656 55.316406 45.753906 C 55.433594 45.460938 55.441406 45.136719 55.441406 44.820312 C 55.441406 44.445312 55.472656 44.019531 55.394531 43.457031 C 55.273438 42.539062 55.191406 41.910156 54.734375 41.339844 C 54.597656 41.164062 53.898438 40.335938 52.964844 40.355469 Z M 52.964844 40.355469 " fill-opacity="1" fill-rule="nonzero"/><path fill="#0c0c0c" d="M 52.414062 40.503906 C 52.292969 40.53125 51.683594 40.683594 51.277344 40.871094 C 51.171875 40.917969 51.066406 40.972656 51.066406 40.972656 C 50.875 41.070312 50.726562 41.171875 50.015625 41.566406 C 49.570312 41.808594 49.113281 42.066406 48.792969 42.457031 C 48.671875 42.605469 48.570312 42.804688 48.648438 42.976562 C 48.738281 43.171875 49.109375 43.152344 49.320312 43.140625 C 49.652344 43.125 50.238281 43.027344 50.9375 42.539062 C 51.429688 41.863281 51.921875 41.183594 52.414062 40.503906 Z M 52.414062 40.503906 " fill-opacity="1" fill-rule="nonzero"/><path fill="#0c0c0c" d="M 22.667969 27.855469 C 21.558594 29.1875 20.707031 30.722656 20.195312 32.375 C 19.578125 34.359375 19.46875 36.472656 19.824219 38.515625 C 19.949219 39.207031 20.125 39.890625 20.351562 40.554688 C 20.390625 40.667969 20.503906 40.742188 20.625 40.707031 C 20.734375 40.679688 20.820312 40.550781 20.78125 40.4375 C 20.304688 39.050781 20.054688 37.59375 20.0625 36.128906 C 20.070312 34.046875 20.609375 31.984375 21.621094 30.160156 C 21.839844 29.765625 22.078125 29.378906 22.339844 29.011719 C 22.554688 28.703125 22.75 28.449219 22.984375 28.167969 C 23.058594 28.078125 23.074219 27.945312 22.984375 27.855469 C 22.902344 27.777344 22.746094 27.765625 22.667969 27.855469 Z M 22.667969 27.855469 " fill-opacity="1" fill-rule="nonzero"/><path fill="#0c0c0c" d="M 21.261719 40.355469 C 22.832031 40.394531 23.660156 42.804688 23.851562 43.363281 C 24.089844 44.0625 24.261719 44.609375 24.046875 45.210938 C 23.710938 46.167969 22.585938 46.585938 21.574219 46.722656 C 21.070312 46.792969 20.546875 46.820312 20.054688 46.683594 C 19.566406 46.546875 19.105469 46.222656 18.914062 45.753906 C 18.792969 45.460938 18.785156 45.136719 18.785156 44.820312 C 18.785156 44.445312 18.757812 44.019531 18.832031 43.457031 C 18.957031 42.539062 19.039062 41.910156 19.492188 41.339844 C 19.632812 41.164062 20.332031 40.335938 21.261719 40.355469 Z M 21.261719 40.355469 " fill-opacity="1" fill-rule="nonzero"/><path fill="#0c0c0c" d="M 21.816406 40.503906 C 21.933594 40.53125 22.546875 40.683594 22.953125 40.871094 C 23.054688 40.917969 23.160156 40.972656 23.160156 40.972656 C 23.355469 41.070312 23.5 41.171875 24.210938 41.566406 C 24.65625 41.808594 25.113281 42.066406 25.433594 42.457031 C 25.558594 42.605469 25.660156 42.804688 25.578125 42.976562 C 25.492188 43.171875 25.117188 43.152344 24.90625 43.140625 C 24.574219 43.125 23.992188 43.027344 23.292969 42.539062 C 22.800781 41.863281 22.308594 41.183594 21.816406 40.503906 Z M 21.816406 40.503906 " fill-opacity="1" fill-rule="nonzero"/><g clip-path="url(#57c5785033)"><path fill="#0c0c0c" d="M 54.40625 18.410156 C 55.0625 18.277344 55.644531 17.8125 55.9375 17.214844 C 56.101562 16.882812 56.171875 16.523438 56.160156 16.152344 C 56.140625 15.726562 56.023438 15.308594 55.976562 14.882812 C 55.949219 14.613281 55.976562 14.378906 56.054688 14.125 C 56.128906 13.871094 56.257812 13.621094 56.480469 13.488281 C 56.5 13.480469 56.519531 13.46875 56.539062 13.457031 C 56.546875 13.453125 56.578125 13.441406 56.539062 13.457031 C 56.550781 13.453125 56.5625 13.449219 56.574219 13.445312 C 56.621094 13.429688 56.671875 13.417969 56.722656 13.410156 C 56.675781 13.417969 56.730469 13.410156 56.746094 13.40625 C 56.769531 13.40625 56.792969 13.40625 56.816406 13.40625 C 56.863281 13.40625 56.953125 13.410156 56.96875 13.414062 C 56.949219 13.410156 57.007812 13.417969 57.019531 13.421875 C 57.050781 13.425781 57.078125 13.433594 57.105469 13.4375 C 57.164062 13.453125 57.222656 13.46875 57.28125 13.484375 C 57.398438 13.519531 57.515625 13.5625 57.628906 13.609375 C 58.515625 13.957031 59.65625 14.695312 60.621094 14.101562 C 60.878906 13.945312 61.058594 13.6875 61.03125 13.378906 C 61.011719 13.121094 60.890625 12.878906 60.742188 12.667969 C 60.367188 12.132812 59.847656 11.703125 59.320312 11.324219 C 58.824219 10.96875 58.289062 10.671875 57.726562 10.425781 C 57.167969 10.183594 56.535156 9.957031 55.902344 9.871094 C 55.402344 9.804688 54.816406 9.804688 54.421875 10.167969 C 54.03125 10.527344 54.046875 11.113281 54.152344 11.589844 C 54.257812 12.066406 54.460938 12.515625 54.695312 12.941406 C 54.925781 13.363281 55.289062 13.730469 55.65625 14.058594 C 56.210938 14.550781 56.84375 14.960938 57.527344 15.257812 C 57.875 15.40625 58.234375 15.527344 58.601562 15.628906 C 58.976562 15.726562 59.367188 15.808594 59.757812 15.820312 C 61.21875 15.859375 62.746094 14.734375 62.945312 13.253906 C 63.121094 11.960938 62.214844 10.800781 61.289062 10.003906 C 60.320312 9.167969 59.179688 8.566406 57.925781 8.289062 C 57.285156 8.148438 56.621094 8.074219 55.96875 8.132812 C 55.429688 8.179688 54.859375 8.300781 54.417969 8.628906 C 53.925781 8.988281 53.699219 9.546875 53.652344 10.140625 C 53.597656 10.800781 53.847656 11.429688 54.226562 11.960938 C 54.648438 12.554688 55.152344 13.066406 55.761719 13.46875 C 56.394531 13.890625 57.089844 14.234375 57.800781 14.503906 C 58.476562 14.757812 59.179688 14.925781 59.894531 15.035156 C 60.582031 15.144531 61.28125 15.234375 61.976562 15.289062 C 62.253906 15.308594 62.535156 15.320312 62.808594 15.277344 C 63 15.246094 63.199219 15.171875 63.328125 15.019531 C 63.652344 14.640625 63.414062 14.101562 63.191406 13.730469 C 62.921875 13.28125 62.570312 12.875 62.214844 12.496094 C 61.84375 12.101562 61.449219 11.726562 61.03125 11.382812 C 60.007812 10.539062 58.835938 9.773438 57.554688 9.378906 C 57.078125 9.234375 56.558594 9.136719 56.0625 9.230469 C 55.605469 9.316406 55.195312 9.632812 55.074219 10.089844 C 54.945312 10.585938 55.226562 11.046875 55.558594 11.390625 C 55.90625 11.738281 56.328125 12.015625 56.757812 12.257812 C 56.980469 12.382812 57.214844 12.503906 57.453125 12.605469 C 57.5625 12.652344 57.691406 12.636719 57.757812 12.527344 C 57.8125 12.433594 57.789062 12.269531 57.675781 12.222656 C 57.445312 12.125 57.21875 12.007812 56.996094 11.886719 C 56.597656 11.664062 56.230469 11.429688 55.914062 11.117188 C 55.75 10.960938 55.652344 10.839844 55.550781 10.636719 C 55.546875 10.628906 55.542969 10.621094 55.539062 10.609375 C 55.523438 10.578125 55.550781 10.640625 55.539062 10.609375 C 55.53125 10.585938 55.523438 10.566406 55.515625 10.542969 C 55.511719 10.519531 55.503906 10.5 55.5 10.480469 C 55.496094 10.464844 55.484375 10.402344 55.488281 10.425781 C 55.492188 10.449219 55.484375 10.390625 55.484375 10.378906 C 55.484375 10.355469 55.484375 10.335938 55.484375 10.3125 C 55.488281 10.257812 55.5 10.207031 55.519531 10.144531 C 55.5625 10.03125 55.625 9.953125 55.699219 9.882812 C 55.71875 9.863281 55.738281 9.84375 55.761719 9.824219 C 55.789062 9.800781 55.730469 9.839844 55.777344 9.8125 C 55.796875 9.800781 55.816406 9.785156 55.835938 9.773438 C 55.871094 9.753906 55.90625 9.738281 55.945312 9.71875 C 55.972656 9.703125 55.910156 9.730469 55.941406 9.722656 C 55.949219 9.71875 55.957031 9.714844 55.964844 9.710938 C 55.988281 9.703125 56.011719 9.695312 56.035156 9.6875 C 56.074219 9.675781 56.117188 9.664062 56.160156 9.65625 C 56.1875 9.652344 56.210938 9.648438 56.238281 9.644531 C 56.191406 9.648438 56.261719 9.640625 56.277344 9.640625 C 56.742188 9.597656 57.171875 9.707031 57.621094 9.863281 C 58.1875 10.058594 58.726562 10.335938 59.238281 10.644531 C 60.230469 11.242188 61.125 11.980469 61.914062 12.820312 C 62.25 13.179688 62.5625 13.535156 62.8125 13.953125 C 62.929688 14.148438 63 14.289062 63.042969 14.507812 C 63.035156 14.46875 63.042969 14.5 63.042969 14.519531 C 63.042969 14.542969 63.046875 14.566406 63.042969 14.589844 C 63.042969 14.597656 63.039062 14.660156 63.042969 14.625 C 63.046875 14.59375 63.03125 14.65625 63.03125 14.667969 C 63.023438 14.714844 63.046875 14.648438 63.027344 14.679688 C 63.019531 14.691406 63.007812 14.707031 63 14.722656 C 62.976562 14.765625 63.023438 14.707031 62.996094 14.730469 C 62.980469 14.742188 62.96875 14.757812 62.953125 14.769531 C 62.988281 14.742188 62.964844 14.761719 62.945312 14.773438 C 62.929688 14.78125 62.914062 14.789062 62.898438 14.796875 C 62.867188 14.816406 62.929688 14.789062 62.882812 14.804688 C 62.855469 14.8125 62.832031 14.820312 62.804688 14.828125 C 62.785156 14.832031 62.761719 14.835938 62.742188 14.839844 C 62.730469 14.84375 62.667969 14.855469 62.710938 14.847656 C 62.65625 14.855469 62.597656 14.859375 62.542969 14.863281 C 62.253906 14.875 61.964844 14.847656 61.679688 14.820312 C 61.042969 14.753906 60.40625 14.679688 59.773438 14.570312 C 58.394531 14.332031 57.054688 13.828125 55.898438 13.03125 C 55.363281 12.664062 54.910156 12.183594 54.546875 11.652344 C 54.222656 11.171875 54.039062 10.644531 54.101562 10.058594 C 54.105469 10.011719 54.101562 10.054688 54.105469 10.015625 C 54.109375 9.988281 54.117188 9.957031 54.121094 9.929688 C 54.136719 9.855469 54.152344 9.785156 54.171875 9.714844 C 54.21875 9.566406 54.277344 9.425781 54.363281 9.292969 C 54.46875 9.140625 54.632812 8.996094 54.8125 8.894531 C 55.230469 8.652344 55.757812 8.566406 56.257812 8.554688 C 57.449219 8.523438 58.675781 8.84375 59.710938 9.429688 C 60.210938 9.710938 60.679688 10.042969 61.101562 10.425781 C 61.542969 10.824219 61.941406 11.273438 62.21875 11.800781 C 62.46875 12.273438 62.597656 12.8125 62.484375 13.335938 C 62.34375 13.957031 61.925781 14.5 61.40625 14.859375 C 60.820312 15.273438 60.128906 15.449219 59.414062 15.351562 C 58.726562 15.257812 58.03125 15.027344 57.410156 14.714844 C 56.796875 14.40625 56.226562 14.007812 55.734375 13.527344 C 55.613281 13.40625 55.496094 13.28125 55.382812 13.152344 C 55.332031 13.097656 55.234375 13.015625 55.210938 12.949219 C 55.226562 12.992188 55.242188 12.992188 55.214844 12.953125 C 55.140625 12.832031 55.070312 12.710938 55.007812 12.589844 C 54.796875 12.183594 54.628906 11.777344 54.550781 11.3125 C 54.519531 11.132812 54.519531 10.898438 54.578125 10.71875 C 54.582031 10.710938 54.601562 10.65625 54.597656 10.667969 C 54.589844 10.683594 54.617188 10.628906 54.621094 10.621094 C 54.632812 10.601562 54.648438 10.582031 54.660156 10.558594 C 54.683594 10.523438 54.660156 10.558594 54.6875 10.523438 C 54.703125 10.507812 54.71875 10.492188 54.734375 10.476562 C 54.746094 10.46875 54.789062 10.433594 54.773438 10.445312 C 54.757812 10.453125 54.804688 10.421875 54.816406 10.417969 C 54.835938 10.402344 54.859375 10.390625 54.882812 10.378906 C 54.894531 10.371094 54.90625 10.367188 54.921875 10.359375 C 54.917969 10.363281 54.890625 10.371094 54.914062 10.363281 C 54.9375 10.355469 54.960938 10.347656 54.984375 10.339844 C 55.039062 10.320312 55.09375 10.304688 55.152344 10.296875 C 55.214844 10.285156 55.207031 10.285156 55.273438 10.28125 C 55.335938 10.277344 55.398438 10.273438 55.457031 10.273438 C 55.726562 10.277344 55.96875 10.316406 56.234375 10.378906 C 56.8125 10.511719 57.375 10.730469 57.90625 10.992188 C 58.417969 11.242188 58.902344 11.539062 59.34375 11.886719 C 59.78125 12.230469 60.253906 12.632812 60.507812 13.136719 C 60.535156 13.191406 60.535156 13.1875 60.554688 13.246094 C 60.5625 13.269531 60.570312 13.292969 60.574219 13.316406 C 60.578125 13.328125 60.578125 13.335938 60.582031 13.347656 C 60.582031 13.347656 60.589844 13.40625 60.585938 13.378906 C 60.582031 13.351562 60.589844 13.414062 60.589844 13.425781 C 60.589844 13.445312 60.589844 13.46875 60.585938 13.488281 C 60.582031 13.523438 60.59375 13.453125 60.585938 13.484375 C 60.585938 13.492188 60.582031 13.5 60.582031 13.507812 C 60.570312 13.542969 60.574219 13.539062 60.558594 13.570312 C 60.5 13.671875 60.386719 13.734375 60.28125 13.785156 C 60.242188 13.804688 60.226562 13.8125 60.164062 13.832031 C 60.109375 13.847656 60.054688 13.859375 60 13.871094 C 59.953125 13.878906 59.996094 13.875 59.960938 13.875 C 59.933594 13.878906 59.90625 13.882812 59.878906 13.882812 C 59.820312 13.882812 59.757812 13.882812 59.695312 13.878906 C 59.589844 13.871094 59.511719 13.855469 59.390625 13.828125 C 59.144531 13.769531 58.90625 13.679688 58.675781 13.582031 C 57.925781 13.269531 56.75 12.535156 56.015625 13.296875 C 55.648438 13.675781 55.480469 14.296875 55.527344 14.820312 C 55.589844 15.527344 55.886719 16.277344 55.566406 16.964844 C 55.324219 17.484375 54.851562 17.871094 54.285156 17.984375 C 54.167969 18.007812 54.101562 18.144531 54.128906 18.253906 C 54.164062 18.375 54.285156 18.433594 54.402344 18.410156 Z M 54.40625 18.410156 " fill-opacity="1" fill-rule="nonzero"/></g></svg>