<svg xmlns="http://www.w3.org/2000/svg" xmlns:xlink="http://www.w3.org/1999/xlink" width="400" zoomAndPan="magnify" viewBox="0 0 300 165.000002" height="220" preserveAspectRatio="xMidYMid meet" version="1.0"><defs><clipPath id="5d3a4b9047"><path d="M 67.382812 11.183594 L 232.878906 11.183594 L 232.878906 147.605469 L 67.382812 147.605469 Z M 67.382812 11.183594 " clip-rule="nonzero"/></clipPath><clipPath id="5cf103a004"><path d="M 67.113281 40.609375 L 233.003906 40.609375 L 233.003906 147.570312 L 67.113281 147.570312 Z M 67.113281 40.609375 " clip-rule="nonzero"/></clipPath><clipPath id="d20ce80947"><path d="M 107.5 53.171875 L 191 53.171875 L 191 136.707031 L 107.5 136.707031 Z M 107.5 53.171875 " clip-rule="nonzero"/></clipPath><clipPath id="94e2c82462"><path d="M 118 60 L 191 60 L 191 136.707031 L 118 136.707031 Z M 118 60 " clip-rule="nonzero"/></clipPath></defs><g clip-path="url(#5d3a4b9047)"><path fill="#99aab5" d="M 149.171875 147.488281 C 181.464844 147.488281 211.761719 128.316406 228.265625 97.460938 C 228.824219 96.398438 229.128906 95.230469 229.128906 94.039062 L 229.128906 93.242188 C 229.128906 92.042969 228.832031 90.867188 228.265625 89.804688 C 224.628906 83.039062 220.285156 76.878906 215.441406 71.316406 L 230.125 56.636719 C 230.472656 56.300781 230.785156 55.933594 231.0625 55.535156 C 231.335938 55.140625 231.570312 54.71875 231.761719 54.273438 C 231.953125 53.832031 232.101562 53.371094 232.203125 52.898438 C 232.300781 52.425781 232.355469 51.949219 232.359375 51.464844 C 232.363281 50.980469 232.320312 50.5 232.230469 50.027344 C 232.140625 49.550781 232.003906 49.089844 231.820312 48.640625 C 231.636719 48.195312 231.414062 47.769531 231.144531 47.367188 C 230.878906 46.964844 230.570312 46.589844 230.230469 46.25 C 229.886719 45.90625 229.515625 45.601562 229.113281 45.335938 C 228.710938 45.066406 228.285156 44.839844 227.835938 44.660156 C 227.390625 44.476562 226.929688 44.339844 226.453125 44.25 C 225.976562 44.15625 225.5 44.113281 225.015625 44.121094 C 224.53125 44.125 224.054688 44.175781 223.578125 44.277344 C 223.105469 44.378906 222.648438 44.523438 222.203125 44.714844 C 221.761719 44.90625 221.339844 45.140625 220.941406 45.417969 C 220.542969 45.695312 220.179688 46.003906 219.84375 46.355469 L 205.117188 61.078125 C 200.003906 56.746094 194.503906 53.003906 188.703125 49.933594 L 198.699219 30.308594 C 198.933594 29.882812 199.121094 29.4375 199.265625 28.972656 C 199.40625 28.507812 199.503906 28.035156 199.550781 27.550781 C 199.601562 27.066406 199.601562 26.582031 199.550781 26.101562 C 199.503906 25.617188 199.40625 25.140625 199.261719 24.679688 C 199.121094 24.214844 198.929688 23.769531 198.699219 23.34375 C 198.464844 22.914062 198.191406 22.515625 197.878906 22.144531 C 197.566406 21.773438 197.21875 21.433594 196.839844 21.132812 C 196.460938 20.832031 196.050781 20.570312 195.621094 20.347656 C 195.1875 20.128906 194.734375 19.953125 194.269531 19.820312 C 193.800781 19.691406 193.324219 19.609375 192.839844 19.574219 C 192.355469 19.539062 191.871094 19.554688 191.390625 19.613281 C 190.90625 19.675781 190.4375 19.785156 189.976562 19.941406 C 189.515625 20.097656 189.074219 20.300781 188.65625 20.542969 C 188.234375 20.789062 187.84375 21.074219 187.480469 21.394531 C 187.117188 21.71875 186.792969 22.074219 186.5 22.464844 C 186.207031 22.851562 185.957031 23.265625 185.75 23.707031 L 175.285156 44.238281 C 169.210938 42.230469 162.9375 40.90625 156.539062 40.332031 L 156.539062 18.152344 C 156.546875 17.671875 156.507812 17.195312 156.417969 16.71875 C 156.332031 16.246094 156.195312 15.785156 156.015625 15.339844 C 155.835938 14.890625 155.613281 14.46875 155.351562 14.066406 C 155.085938 13.660156 154.785156 13.289062 154.449219 12.945312 C 154.109375 12.601562 153.742188 12.296875 153.339844 12.027344 C 152.941406 11.757812 152.519531 11.527344 152.074219 11.34375 C 151.632812 11.15625 151.171875 11.015625 150.699219 10.921875 C 150.230469 10.828125 149.75 10.78125 149.269531 10.78125 C 148.789062 10.78125 148.3125 10.828125 147.839844 10.921875 C 147.367188 11.015625 146.90625 11.15625 146.464844 11.34375 C 146.019531 11.527344 145.597656 11.757812 145.199219 12.027344 C 144.800781 12.296875 144.429688 12.601562 144.09375 12.945312 C 143.753906 13.289062 143.453125 13.660156 143.1875 14.066406 C 142.925781 14.46875 142.703125 14.890625 142.523438 15.339844 C 142.34375 15.785156 142.210938 16.246094 142.121094 16.71875 C 142.035156 17.195312 141.992188 17.671875 142 18.152344 L 142 40.332031 C 135.980469 40.871094 130.070312 42.058594 124.335938 43.871094 L 114.054688 23.707031 C 113.835938 23.28125 113.582031 22.878906 113.285156 22.503906 C 112.988281 22.128906 112.660156 21.785156 112.296875 21.476562 C 111.933594 21.167969 111.542969 20.894531 111.128906 20.660156 C 110.710938 20.425781 110.273438 20.238281 109.820312 20.089844 C 109.367188 19.941406 108.902344 19.839844 108.429688 19.78125 C 107.953125 19.726562 107.476562 19.71875 107.003906 19.753906 C 106.527344 19.792969 106.058594 19.875 105.597656 20.003906 C 105.136719 20.136719 104.695312 20.308594 104.269531 20.523438 C 103.84375 20.742188 103.445312 20.996094 103.070312 21.292969 C 102.695312 21.589844 102.351562 21.917969 102.039062 22.28125 C 101.730469 22.644531 101.457031 23.035156 101.226562 23.453125 C 100.992188 23.867188 100.800781 24.304688 100.652344 24.757812 C 100.503906 25.210938 100.402344 25.675781 100.347656 26.152344 C 100.292969 26.625 100.28125 27.101562 100.320312 27.578125 C 100.355469 28.054688 100.441406 28.519531 100.570312 28.980469 C 100.699219 29.441406 100.871094 29.882812 101.089844 30.308594 L 110.832031 49.4375 C 104.925781 52.464844 99.289062 56.136719 94.074219 60.46875 L 79.960938 46.355469 C 79.625 46.003906 79.257812 45.695312 78.863281 45.417969 C 78.464844 45.140625 78.042969 44.90625 77.597656 44.714844 C 77.15625 44.523438 76.695312 44.378906 76.222656 44.277344 C 75.75 44.175781 75.273438 44.125 74.789062 44.121094 C 74.304688 44.113281 73.824219 44.15625 73.351562 44.25 C 72.875 44.339844 72.414062 44.476562 71.964844 44.660156 C 71.519531 44.839844 71.09375 45.066406 70.691406 45.335938 C 70.289062 45.601562 69.914062 45.90625 69.574219 46.25 C 69.230469 46.589844 68.925781 46.964844 68.660156 47.367188 C 68.390625 47.769531 68.164062 48.195312 67.984375 48.640625 C 67.800781 49.089844 67.664062 49.550781 67.574219 50.027344 C 67.480469 50.5 67.4375 50.980469 67.445312 51.464844 C 67.449219 51.949219 67.5 52.425781 67.601562 52.898438 C 67.703125 53.371094 67.847656 53.832031 68.039062 54.273438 C 68.230469 54.71875 68.464844 55.140625 68.742188 55.535156 C 69.019531 55.933594 69.328125 56.300781 69.679688 56.636719 L 83.664062 70.621094 C 78.53125 76.40625 73.957031 82.871094 70.148438 89.992188 C 69.585938 91.050781 69.296875 92.234375 69.296875 93.425781 L 69.296875 94.207031 C 69.296875 95.40625 69.59375 96.597656 70.160156 97.660156 C 86.679688 128.398438 116.957031 147.488281 149.171875 147.488281 Z M 149.171875 147.488281 " fill-opacity="1" fill-rule="nonzero"/></g><g clip-path="url(#5cf103a004)"><path fill="#99aab5" d="M 233.171875 94.105469 C 233.171875 110.167969 196.019531 147.582031 150.203125 147.582031 C 104.382812 147.582031 67.234375 114.761719 67.234375 94.105469 C 67.234375 78 104.386719 40.632812 150.203125 40.632812 C 196.019531 40.632812 233.171875 77.996094 233.171875 94.105469 Z M 233.171875 94.105469 " fill-opacity="1" fill-rule="nonzero"/></g><path fill="#f5f8fa" d="M 227.132812 94.105469 C 227.132812 108.222656 192.679688 141.101562 150.199219 141.101562 C 107.710938 141.101562 73.269531 112.25 73.269531 94.105469 C 73.269531 79.949219 107.710938 47.117188 150.199219 47.117188 C 192.679688 47.113281 227.132812 79.949219 227.132812 94.105469 Z M 227.132812 94.105469 " fill-opacity="1" fill-rule="nonzero"/><path fill="#7b9bd6" d="M 191.359375 94.105469 C 191.359375 95.453125 191.292969 96.796875 191.160156 98.136719 C 191.027344 99.476562 190.832031 100.808594 190.570312 102.128906 C 190.304688 103.449219 189.980469 104.753906 189.589844 106.042969 C 189.199219 107.332031 188.746094 108.597656 188.230469 109.839844 C 187.714844 111.085938 187.140625 112.300781 186.503906 113.488281 C 185.871094 114.675781 185.179688 115.828125 184.429688 116.949219 C 183.679688 118.070312 182.878906 119.148438 182.027344 120.191406 C 181.171875 121.230469 180.269531 122.226562 179.316406 123.179688 C 178.363281 124.132812 177.367188 125.035156 176.328125 125.890625 C 175.285156 126.742188 174.207031 127.546875 173.085938 128.292969 C 171.964844 129.042969 170.8125 129.734375 169.625 130.367188 C 168.4375 131.003906 167.222656 131.578125 165.976562 132.09375 C 164.734375 132.609375 163.464844 133.0625 162.179688 133.453125 C 160.890625 133.84375 159.585938 134.171875 158.265625 134.433594 C 156.941406 134.695312 155.613281 134.894531 154.273438 135.023438 C 152.933594 135.15625 151.589844 135.222656 150.242188 135.222656 C 148.894531 135.222656 147.550781 135.15625 146.210938 135.023438 C 144.871094 134.894531 143.542969 134.695312 142.222656 134.433594 C 140.898438 134.171875 139.59375 133.84375 138.308594 133.453125 C 137.019531 133.0625 135.75 132.609375 134.507812 132.09375 C 133.261719 131.578125 132.046875 131.003906 130.859375 130.367188 C 129.671875 129.734375 128.519531 129.042969 127.398438 128.292969 C 126.28125 127.546875 125.199219 126.742188 124.15625 125.890625 C 123.117188 125.035156 122.121094 124.132812 121.167969 123.179688 C 120.214844 122.226562 119.3125 121.230469 118.457031 120.191406 C 117.605469 119.148438 116.804688 118.070312 116.054688 116.949219 C 115.308594 115.828125 114.617188 114.675781 113.980469 113.488281 C 113.347656 112.300781 112.769531 111.085938 112.253906 109.839844 C 111.738281 108.597656 111.285156 107.332031 110.894531 106.042969 C 110.503906 104.753906 110.179688 103.449219 109.914062 102.128906 C 109.652344 100.808594 109.457031 99.476562 109.324219 98.136719 C 109.191406 96.796875 109.125 95.453125 109.125 94.105469 C 109.125 92.757812 109.191406 91.417969 109.324219 90.074219 C 109.457031 88.734375 109.652344 87.40625 109.914062 86.085938 C 110.179688 84.765625 110.503906 83.460938 110.894531 82.171875 C 111.285156 80.882812 111.738281 79.617188 112.253906 78.371094 C 112.769531 77.128906 113.347656 75.910156 113.980469 74.722656 C 114.617188 73.535156 115.308594 72.382812 116.054688 71.261719 C 116.804688 70.144531 117.605469 69.0625 118.457031 68.023438 C 119.3125 66.980469 120.214844 65.984375 121.167969 65.03125 C 122.121094 64.078125 123.117188 63.175781 124.15625 62.324219 C 125.199219 61.46875 126.28125 60.667969 127.398438 59.917969 C 128.519531 59.171875 129.671875 58.480469 130.859375 57.84375 C 132.046875 57.210938 133.261719 56.632812 134.507812 56.121094 C 135.75 55.605469 137.019531 55.152344 138.308594 54.761719 C 139.59375 54.367188 140.898438 54.042969 142.222656 53.78125 C 143.542969 53.515625 144.871094 53.320312 146.210938 53.1875 C 147.550781 53.054688 148.894531 52.988281 150.242188 52.988281 C 151.589844 52.988281 152.933594 53.054688 154.273438 53.1875 C 155.613281 53.320312 156.941406 53.515625 158.265625 53.78125 C 159.585938 54.042969 160.890625 54.367188 162.179688 54.761719 C 163.464844 55.152344 164.734375 55.605469 165.976562 56.121094 C 167.222656 56.632812 168.4375 57.210938 169.625 57.84375 C 170.8125 58.480469 171.964844 59.171875 173.085938 59.917969 C 174.207031 60.667969 175.285156 61.46875 176.328125 62.324219 C 177.367188 63.175781 178.363281 64.078125 179.316406 65.03125 C 180.269531 65.984375 181.171875 66.980469 182.027344 68.023438 C 182.878906 69.0625 183.679688 70.144531 184.429688 71.261719 C 185.179688 72.382812 185.871094 73.535156 186.503906 74.722656 C 187.140625 75.910156 187.714844 77.128906 188.230469 78.371094 C 188.746094 79.617188 189.199219 80.882812 189.589844 82.171875 C 189.980469 83.460938 190.304688 84.765625 190.570312 86.085938 C 190.832031 87.40625 191.027344 88.734375 191.160156 90.074219 C 191.292969 91.417969 191.359375 92.757812 191.359375 94.105469 Z M 191.359375 94.105469 " fill-opacity="1" fill-rule="nonzero"/><path fill="#292f33" d="M 173.128906 94.105469 C 173.128906 94.855469 173.09375 95.601562 173.019531 96.347656 C 172.945312 97.09375 172.835938 97.835938 172.691406 98.570312 C 172.542969 99.304688 172.363281 100.03125 172.144531 100.75 C 171.925781 101.46875 171.675781 102.171875 171.386719 102.863281 C 171.101562 103.558594 170.78125 104.234375 170.425781 104.894531 C 170.074219 105.554688 169.6875 106.199219 169.273438 106.820312 C 168.855469 107.445312 168.410156 108.046875 167.933594 108.625 C 167.457031 109.203125 166.957031 109.757812 166.425781 110.289062 C 165.894531 110.820312 165.339844 111.324219 164.761719 111.796875 C 164.183594 112.273438 163.582031 112.71875 162.957031 113.136719 C 162.335938 113.550781 161.691406 113.9375 161.03125 114.289062 C 160.371094 114.644531 159.691406 114.964844 159 115.25 C 158.308594 115.539062 157.601562 115.789062 156.886719 116.007812 C 156.167969 116.226562 155.441406 116.40625 154.707031 116.554688 C 153.972656 116.699219 153.230469 116.808594 152.484375 116.882812 C 151.738281 116.957031 150.992188 116.992188 150.242188 116.992188 C 149.492188 116.992188 148.746094 116.957031 148 116.882812 C 147.253906 116.808594 146.511719 116.699219 145.777344 116.554688 C 145.042969 116.40625 144.316406 116.226562 143.597656 116.007812 C 142.882812 115.789062 142.175781 115.539062 141.484375 115.25 C 140.792969 114.964844 140.113281 114.644531 139.453125 114.289062 C 138.792969 113.9375 138.148438 113.550781 137.527344 113.136719 C 136.902344 112.71875 136.300781 112.273438 135.722656 111.796875 C 135.144531 111.324219 134.589844 110.820312 134.058594 110.289062 C 133.527344 109.757812 133.027344 109.203125 132.550781 108.625 C 132.074219 108.046875 131.628906 107.445312 131.210938 106.820312 C 130.796875 106.199219 130.410156 105.554688 130.058594 104.894531 C 129.703125 104.234375 129.382812 103.558594 129.097656 102.863281 C 128.8125 102.171875 128.558594 101.46875 128.339844 100.75 C 128.125 100.03125 127.941406 99.304688 127.796875 98.570312 C 127.648438 97.835938 127.539062 97.09375 127.464844 96.347656 C 127.390625 95.601562 127.355469 94.855469 127.355469 94.105469 C 127.355469 93.355469 127.390625 92.609375 127.464844 91.863281 C 127.539062 91.117188 127.648438 90.375 127.796875 89.640625 C 127.941406 88.90625 128.125 88.179688 128.339844 87.460938 C 128.558594 86.746094 128.8125 86.039062 129.097656 85.347656 C 129.382812 84.65625 129.703125 83.976562 130.058594 83.316406 C 130.410156 82.65625 130.796875 82.015625 131.210938 81.390625 C 131.628906 80.765625 132.074219 80.167969 132.550781 79.585938 C 133.027344 79.007812 133.527344 78.453125 134.058594 77.921875 C 134.589844 77.390625 135.144531 76.890625 135.722656 76.414062 C 136.300781 75.9375 136.902344 75.492188 137.527344 75.078125 C 138.148438 74.660156 138.792969 74.273438 139.453125 73.921875 C 140.113281 73.566406 140.792969 73.25 141.484375 72.960938 C 142.175781 72.675781 142.882812 72.421875 143.597656 72.203125 C 144.316406 71.988281 145.042969 71.804688 145.777344 71.660156 C 146.511719 71.511719 147.253906 71.402344 148 71.328125 C 148.746094 71.257812 149.492188 71.21875 150.242188 71.21875 C 150.992188 71.21875 151.738281 71.257812 152.484375 71.328125 C 153.230469 71.402344 153.972656 71.511719 154.707031 71.660156 C 155.441406 71.804688 156.167969 71.988281 156.886719 72.203125 C 157.601562 72.421875 158.308594 72.675781 159 72.960938 C 159.691406 73.25 160.371094 73.566406 161.03125 73.921875 C 161.691406 74.273438 162.335938 74.660156 162.957031 75.078125 C 163.582031 75.492188 164.183594 75.9375 164.761719 76.414062 C 165.339844 76.890625 165.894531 77.390625 166.425781 77.921875 C 166.957031 78.453125 167.457031 79.007812 167.933594 79.585938 C 168.410156 80.167969 168.855469 80.765625 169.273438 81.390625 C 169.6875 82.015625 170.074219 82.65625 170.425781 83.316406 C 170.78125 83.976562 171.101562 84.65625 171.386719 85.347656 C 171.675781 86.039062 171.925781 86.746094 172.144531 87.460938 C 172.363281 88.179688 172.542969 88.90625 172.691406 89.640625 C 172.835938 90.375 172.945312 91.117188 173.019531 91.863281 C 173.09375 92.609375 173.128906 93.355469 173.128906 94.105469 Z M 173.128906 94.105469 " fill-opacity="1" fill-rule="nonzero"/><path fill="#f5f8fa" d="M 174.546875 79.523438 C 174.546875 80.160156 174.488281 80.792969 174.363281 81.417969 C 174.238281 82.046875 174.054688 82.652344 173.808594 83.242188 C 173.5625 83.832031 173.265625 84.394531 172.910156 84.921875 C 172.554688 85.453125 172.152344 85.945312 171.699219 86.398438 C 171.25 86.847656 170.757812 87.25 170.226562 87.605469 C 169.695312 87.960938 169.136719 88.261719 168.546875 88.503906 C 167.957031 88.75 167.347656 88.933594 166.722656 89.058594 C 166.097656 89.183594 165.464844 89.246094 164.828125 89.246094 C 164.1875 89.246094 163.554688 89.183594 162.929688 89.058594 C 162.304688 88.933594 161.695312 88.75 161.105469 88.503906 C 160.515625 88.261719 159.957031 87.960938 159.425781 87.605469 C 158.894531 87.25 158.402344 86.847656 157.953125 86.398438 C 157.5 85.945312 157.097656 85.453125 156.742188 84.921875 C 156.386719 84.394531 156.089844 83.832031 155.84375 83.242188 C 155.597656 82.652344 155.414062 82.046875 155.289062 81.417969 C 155.164062 80.792969 155.105469 80.160156 155.105469 79.523438 C 155.105469 78.882812 155.164062 78.25 155.289062 77.625 C 155.414062 77 155.597656 76.390625 155.84375 75.800781 C 156.089844 75.210938 156.386719 74.652344 156.742188 74.121094 C 157.097656 73.589844 157.5 73.097656 157.953125 72.648438 C 158.402344 72.195312 158.894531 71.792969 159.425781 71.4375 C 159.957031 71.082031 160.515625 70.785156 161.105469 70.539062 C 161.695312 70.296875 162.304688 70.109375 162.929688 69.988281 C 163.554688 69.863281 164.1875 69.800781 164.828125 69.800781 C 165.464844 69.800781 166.097656 69.863281 166.722656 69.988281 C 167.347656 70.109375 167.957031 70.296875 168.546875 70.539062 C 169.136719 70.785156 169.695312 71.082031 170.226562 71.4375 C 170.757812 71.792969 171.25 72.195312 171.699219 72.648438 C 172.152344 73.097656 172.554688 73.589844 172.910156 74.121094 C 173.265625 74.652344 173.5625 75.210938 173.808594 75.800781 C 174.054688 76.390625 174.238281 77 174.363281 77.625 C 174.488281 78.25 174.546875 78.882812 174.546875 79.523438 Z M 174.546875 79.523438 " fill-opacity="1" fill-rule="nonzero"/><g clip-path="url(#d20ce80947)"><path fill="#5780c0" d="M 190.933594 94.890625 C 190.933594 96.257812 190.867188 97.617188 190.734375 98.980469 C 190.597656 100.339844 190.398438 101.6875 190.132812 103.027344 C 189.867188 104.367188 189.535156 105.691406 189.136719 107 C 188.742188 108.308594 188.28125 109.59375 187.757812 110.855469 C 187.234375 112.117188 186.652344 113.351562 186.007812 114.554688 C 185.363281 115.761719 184.664062 116.929688 183.902344 118.066406 C 183.144531 119.203125 182.332031 120.300781 181.464844 121.355469 C 180.597656 122.410156 179.679688 123.421875 178.714844 124.390625 C 177.75 125.355469 176.738281 126.269531 175.683594 127.136719 C 174.625 128.003906 173.53125 128.816406 172.394531 129.578125 C 171.257812 130.335938 170.085938 131.039062 168.882812 131.679688 C 167.675781 132.324219 166.445312 132.910156 165.179688 133.433594 C 163.917969 133.953125 162.632812 134.414062 161.328125 134.8125 C 160.019531 135.207031 158.695312 135.539062 157.355469 135.804688 C 156.015625 136.074219 154.664062 136.273438 153.304688 136.40625 C 151.945312 136.539062 150.582031 136.609375 149.214844 136.609375 C 147.851562 136.609375 146.488281 136.539062 145.128906 136.40625 C 143.769531 136.273438 142.417969 136.074219 141.078125 135.804688 C 139.738281 135.539062 138.414062 135.207031 137.105469 134.8125 C 135.800781 134.414062 134.515625 133.953125 133.25 133.433594 C 131.988281 132.910156 130.753906 132.324219 129.550781 131.679688 C 128.347656 131.039062 127.175781 130.335938 126.039062 129.578125 C 124.902344 128.816406 123.808594 128.003906 122.75 127.136719 C 121.695312 126.269531 120.683594 125.355469 119.71875 124.390625 C 118.75 123.421875 117.835938 122.410156 116.96875 121.355469 C 116.101562 120.300781 115.289062 119.203125 114.527344 118.066406 C 113.769531 116.929688 113.070312 115.761719 112.425781 114.554688 C 111.78125 113.351562 111.195312 112.117188 110.675781 110.855469 C 110.152344 109.59375 109.691406 108.308594 109.292969 107 C 108.898438 105.691406 108.566406 104.367188 108.300781 103.027344 C 108.035156 101.6875 107.832031 100.339844 107.699219 98.980469 C 107.566406 97.617188 107.5 96.257812 107.5 94.890625 C 107.5 93.523438 107.566406 92.160156 107.699219 90.800781 C 107.832031 89.441406 108.035156 88.089844 108.300781 86.75 C 108.566406 85.410156 108.898438 84.085938 109.292969 82.78125 C 109.691406 81.472656 110.152344 80.1875 110.675781 78.925781 C 111.195312 77.664062 111.78125 76.429688 112.425781 75.222656 C 113.070312 74.019531 113.769531 72.847656 114.527344 71.710938 C 115.289062 70.578125 116.101562 69.480469 116.96875 68.425781 C 117.835938 67.367188 118.75 66.355469 119.71875 65.390625 C 120.683594 64.425781 121.695312 63.507812 122.75 62.640625 C 123.808594 61.773438 124.902344 60.960938 126.039062 60.203125 C 127.175781 59.445312 128.347656 58.742188 129.550781 58.097656 C 130.753906 57.453125 131.988281 56.871094 133.25 56.347656 C 134.515625 55.824219 135.800781 55.363281 137.105469 54.96875 C 138.414062 54.570312 139.738281 54.238281 141.078125 53.972656 C 142.417969 53.707031 143.769531 53.507812 145.128906 53.371094 C 146.488281 53.238281 147.851562 53.171875 149.214844 53.171875 C 150.582031 53.171875 151.945312 53.238281 153.304688 53.371094 C 154.664062 53.507812 156.015625 53.707031 157.355469 53.972656 C 158.695312 54.238281 160.019531 54.570312 161.328125 54.96875 C 162.632812 55.363281 163.917969 55.824219 165.179688 56.347656 C 166.445312 56.871094 167.675781 57.453125 168.882812 58.097656 C 170.085938 58.742188 171.257812 59.445312 172.394531 60.203125 C 173.53125 60.960938 174.625 61.773438 175.683594 62.640625 C 176.738281 63.507812 177.75 64.425781 178.714844 65.390625 C 179.679688 66.355469 180.597656 67.367188 181.464844 68.425781 C 182.332031 69.480469 183.144531 70.578125 183.902344 71.710938 C 184.664062 72.847656 185.363281 74.019531 186.007812 75.222656 C 186.652344 76.429688 187.234375 77.664062 187.757812 78.925781 C 188.28125 80.1875 188.742188 81.472656 189.136719 82.78125 C 189.535156 84.085938 189.867188 85.410156 190.132812 86.75 C 190.398438 88.089844 190.597656 89.441406 190.734375 90.800781 C 190.867188 92.160156 190.933594 93.523438 190.933594 94.890625 Z M 190.933594 94.890625 " fill-opacity="1" fill-rule="nonzero"/></g><g clip-path="url(#94e2c82462)"><path fill="#013b6f" d="M 190.933594 94.890625 C 190.933594 117.929688 172.257812 136.609375 149.214844 136.609375 C 136.996094 136.609375 126.003906 131.355469 118.375 122.980469 C 125.046875 127.511719 133.101562 130.15625 141.769531 130.15625 C 164.8125 130.15625 183.488281 111.476562 183.488281 88.4375 C 183.488281 77.617188 179.371094 67.757812 172.613281 60.347656 C 183.671875 67.847656 190.933594 80.519531 190.933594 94.890625 Z M 190.933594 94.890625 " fill-opacity="1" fill-rule="nonzero"/></g><path fill="#ffffff" d="M 137.941406 114.476562 C 136.691406 114.472656 135.613281 114.035156 134.710938 113.171875 C 134.253906 112.738281 133.902344 112.226562 133.652344 111.644531 C 133.40625 111.0625 133.285156 110.457031 133.289062 109.824219 L 133.289062 79.953125 C 133.285156 79.324219 133.40625 78.714844 133.652344 78.132812 C 133.902344 77.550781 134.253906 77.042969 134.710938 76.605469 C 135.613281 75.742188 136.691406 75.308594 137.941406 75.300781 C 138.769531 75.304688 139.542969 75.511719 140.261719 75.929688 L 166.128906 90.863281 C 166.847656 91.28125 167.414062 91.847656 167.832031 92.566406 C 168.246094 93.285156 168.453125 94.058594 168.453125 94.890625 C 168.453125 95.71875 168.246094 96.496094 167.832031 97.214844 C 167.414062 97.933594 166.847656 98.5 166.128906 98.914062 L 140.261719 113.851562 C 139.542969 114.265625 138.769531 114.476562 137.941406 114.476562 Z M 137.941406 114.476562 " fill-opacity="1" fill-rule="nonzero"/></svg>