<svg xmlns="http://www.w3.org/2000/svg" xmlns:xlink="http://www.w3.org/1999/xlink" width="100" zoomAndPan="magnify" viewBox="0 0 75 74.999997" height="100" preserveAspectRatio="xMidYMid meet" version="1.0"><defs><clipPath id="f33fd9765b"><path d="M 22 7.5 L 51 7.5 L 51 19 L 22 19 Z M 22 7.5 " clip-rule="nonzero"/></clipPath><clipPath id="93fa50a35e"><path d="M 23 64 L 31 64 L 31 67.5 L 23 67.5 Z M 23 64 " clip-rule="nonzero"/></clipPath><clipPath id="1ea6b6dd02"><path d="M 14 64 L 21 64 L 21 67.5 L 14 67.5 Z M 14 64 " clip-rule="nonzero"/></clipPath><clipPath id="ca63118635"><path d="M 11.851562 29 L 19 29 L 19 35 L 11.851562 35 Z M 11.851562 29 " clip-rule="nonzero"/></clipPath><clipPath id="7521d79aeb"><path d="M 53 25 L 62.851562 25 L 62.851562 36 L 53 36 Z M 53 25 " clip-rule="nonzero"/></clipPath></defs><path fill="#0c0c0c" d="M 25.246094 22.910156 C 25.132812 22.910156 25.039062 22.820312 25.039062 22.703125 L 25.039062 19.429688 C 25.039062 19.3125 25.132812 19.21875 25.246094 19.21875 C 25.359375 19.21875 25.453125 19.3125 25.453125 19.429688 L 25.453125 22.703125 C 25.453125 22.820312 25.359375 22.910156 25.246094 22.910156 Z M 25.246094 22.910156 " fill-opacity="1" fill-rule="nonzero"/><path fill="#0c0c0c" d="M 25.101562 24.46875 L 25.101562 27.175781 C 25.101562 27.445312 25.515625 27.445312 25.515625 27.175781 L 25.515625 24.46875 C 25.515625 24.203125 25.101562 24.203125 25.101562 24.46875 Z M 25.101562 24.46875 " fill-opacity="1" fill-rule="nonzero"/><path fill="#0c0c0c" d="M 31.410156 25.914062 L 31.410156 28.625 C 31.410156 28.890625 31.824219 28.890625 31.824219 28.625 L 31.824219 25.914062 C 31.824219 25.648438 31.410156 25.648438 31.410156 25.914062 Z M 31.410156 25.914062 " fill-opacity="1" fill-rule="nonzero"/><path fill="#0c0c0c" d="M 27.839844 25.570312 L 27.839844 28.28125 C 27.839844 28.546875 28.253906 28.546875 28.253906 28.28125 L 28.253906 25.570312 C 28.253906 25.304688 27.839844 25.304688 27.839844 25.570312 Z M 27.839844 25.570312 " fill-opacity="1" fill-rule="nonzero"/><path fill="#0c0c0c" d="M 27.816406 19.332031 C 27.816406 19.796875 27.816406 20.257812 27.816406 20.71875 C 27.816406 20.828125 27.910156 20.929688 28.019531 20.925781 C 28.132812 20.921875 28.226562 20.835938 28.226562 20.71875 C 28.226562 20.257812 28.226562 19.796875 28.226562 19.332031 C 28.226562 19.226562 28.132812 19.121094 28.019531 19.125 C 27.910156 19.132812 27.816406 19.21875 27.816406 19.332031 Z M 27.816406 19.332031 " fill-opacity="1" fill-rule="nonzero"/><path fill="#0c0c0c" d="M 27.789062 22.167969 C 27.84375 22.902344 27.855469 23.636719 27.824219 24.375 C 27.8125 24.640625 28.226562 24.640625 28.234375 24.375 C 28.265625 23.636719 28.257812 22.902344 28.199219 22.167969 C 28.191406 22.054688 28.113281 21.960938 27.996094 21.960938 C 27.890625 21.960938 27.78125 22.054688 27.789062 22.167969 Z M 27.789062 22.167969 " fill-opacity="1" fill-rule="nonzero"/><path fill="#0c0c0c" d="M 31.046875 19.648438 C 31.046875 20.109375 31.046875 20.570312 31.046875 21.03125 C 31.046875 21.140625 31.140625 21.246094 31.25 21.238281 C 31.363281 21.234375 31.457031 21.148438 31.457031 21.03125 C 31.457031 20.570312 31.457031 20.109375 31.457031 19.648438 C 31.457031 19.539062 31.363281 19.433594 31.25 19.441406 C 31.140625 19.445312 31.046875 19.53125 31.046875 19.648438 Z M 31.046875 19.648438 " fill-opacity="1" fill-rule="nonzero"/><path fill="#0c0c0c" d="M 31.191406 22.480469 C 31.246094 23.214844 31.257812 23.953125 31.226562 24.6875 C 31.214844 24.953125 31.628906 24.953125 31.640625 24.6875 C 31.671875 23.949219 31.660156 23.214844 31.605469 22.480469 C 31.597656 22.367188 31.515625 22.273438 31.398438 22.273438 C 31.292969 22.273438 31.183594 22.367188 31.191406 22.480469 Z M 31.191406 22.480469 " fill-opacity="1" fill-rule="nonzero"/><path fill="#0c0c0c" d="M 34.578125 23.195312 C 34.464844 23.195312 34.371094 23.101562 34.371094 22.988281 L 34.371094 19.710938 C 34.371094 19.597656 34.464844 19.503906 34.578125 19.503906 C 34.691406 19.503906 34.78125 19.597656 34.78125 19.710938 L 34.78125 22.988281 C 34.78125 23.101562 34.691406 23.195312 34.578125 23.195312 Z M 34.578125 23.195312 " fill-opacity="1" fill-rule="nonzero"/><path fill="#0c0c0c" d="M 34.433594 24.75 L 34.433594 27.460938 C 34.433594 27.726562 34.84375 27.726562 34.84375 27.460938 L 34.84375 24.75 C 34.84375 24.484375 34.433594 24.484375 34.433594 24.75 Z M 34.433594 24.75 " fill-opacity="1" fill-rule="nonzero"/><path fill="#0c0c0c" d="M 40.253906 22.121094 L 40.253906 19.410156 C 40.253906 19.144531 39.839844 19.144531 39.839844 19.410156 L 39.839844 22.121094 C 39.839844 22.386719 40.253906 22.386719 40.253906 22.121094 Z M 40.253906 22.121094 " fill-opacity="1" fill-rule="nonzero"/><path fill="#0c0c0c" d="M 37.597656 22.546875 C 37.652344 23.28125 37.664062 24.015625 37.632812 24.75 C 37.621094 25.019531 38.03125 25.019531 38.042969 24.75 C 38.074219 24.015625 38.0625 23.28125 38.007812 22.546875 C 38 22.433594 37.917969 22.339844 37.800781 22.339844 C 37.699219 22.339844 37.589844 22.433594 37.597656 22.546875 Z M 37.597656 22.546875 " fill-opacity="1" fill-rule="nonzero"/><path fill="#0c0c0c" d="M 40.472656 27.257812 C 40.417969 26.523438 40.40625 25.789062 40.4375 25.050781 C 40.449219 24.785156 40.035156 24.785156 40.023438 25.050781 C 39.992188 25.789062 40.003906 26.523438 40.058594 27.257812 C 40.066406 27.371094 40.148438 27.464844 40.265625 27.464844 C 40.371094 27.464844 40.480469 27.371094 40.472656 27.257812 Z M 40.472656 27.257812 " fill-opacity="1" fill-rule="nonzero"/><path fill="#0c0c0c" d="M 42.542969 23.242188 C 42.429688 23.242188 42.335938 23.148438 42.335938 23.035156 L 42.335938 19.757812 C 42.335938 19.644531 42.429688 19.550781 42.542969 19.550781 C 42.65625 19.550781 42.746094 19.644531 42.746094 19.757812 L 42.746094 23.035156 C 42.746094 23.148438 42.65625 23.242188 42.542969 23.242188 Z M 42.542969 23.242188 " fill-opacity="1" fill-rule="nonzero"/><path fill="#0c0c0c" d="M 42.398438 24.800781 L 42.398438 27.511719 C 42.398438 27.777344 42.8125 27.777344 42.8125 27.511719 L 42.8125 24.800781 C 42.8125 24.535156 42.398438 24.535156 42.398438 24.800781 Z M 42.398438 24.800781 " fill-opacity="1" fill-rule="nonzero"/><path fill="#0c0c0c" d="M 48.488281 26.15625 L 48.488281 28.6875 C 48.488281 28.953125 48.898438 28.953125 48.898438 28.6875 L 48.898438 26.15625 C 48.898438 25.886719 48.488281 25.886719 48.488281 26.15625 Z M 48.488281 26.15625 " fill-opacity="1" fill-rule="nonzero"/><path fill="#0c0c0c" d="M 45.109375 19.664062 C 45.109375 20.125 45.109375 20.589844 45.109375 21.050781 C 45.109375 21.160156 45.207031 21.261719 45.316406 21.257812 C 45.429688 21.253906 45.523438 21.167969 45.523438 21.050781 C 45.523438 20.589844 45.523438 20.125 45.523438 19.664062 C 45.523438 19.554688 45.429688 19.453125 45.316406 19.457031 C 45.207031 19.460938 45.109375 19.550781 45.109375 19.664062 Z M 45.109375 19.664062 " fill-opacity="1" fill-rule="nonzero"/><path fill="#0c0c0c" d="M 45.125 22.464844 C 45.179688 23.199219 45.191406 23.9375 45.160156 24.671875 C 45.148438 24.941406 45.558594 24.9375 45.570312 24.671875 C 45.601562 23.9375 45.589844 23.199219 45.535156 22.464844 C 45.527344 22.355469 45.445312 22.257812 45.328125 22.257812 C 45.226562 22.257812 45.117188 22.355469 45.125 22.464844 Z M 45.125 22.464844 " fill-opacity="1" fill-rule="nonzero"/><path fill="#0c0c0c" d="M 48.339844 19.980469 L 48.339844 21.363281 C 48.339844 21.472656 48.4375 21.578125 48.546875 21.570312 C 48.660156 21.566406 48.753906 21.480469 48.753906 21.363281 L 48.753906 19.980469 C 48.753906 19.871094 48.660156 19.765625 48.546875 19.773438 C 48.4375 19.777344 48.339844 19.863281 48.339844 19.980469 Z M 48.339844 19.980469 " fill-opacity="1" fill-rule="nonzero"/><path fill="#0c0c0c" d="M 48.316406 22.546875 C 48.371094 23.28125 48.378906 24.015625 48.351562 24.75 C 48.339844 25.019531 48.75 25.019531 48.761719 24.75 C 48.792969 24.015625 48.78125 23.28125 48.726562 22.546875 C 48.71875 22.433594 48.636719 22.339844 48.519531 22.339844 C 48.417969 22.339844 48.304688 22.433594 48.316406 22.546875 Z M 48.316406 22.546875 " fill-opacity="1" fill-rule="nonzero"/><path fill="#0c0c0c" d="M 45.09375 26.058594 C 45.078125 26.933594 45.0625 27.8125 45.042969 28.6875 C 45.039062 28.953125 45.453125 28.953125 45.457031 28.6875 C 45.472656 27.8125 45.488281 26.933594 45.507812 26.058594 C 45.511719 25.792969 45.097656 25.792969 45.09375 26.058594 Z M 45.09375 26.058594 " fill-opacity="1" fill-rule="nonzero"/><path fill="#f2e568" d="M 38.679688 16.222656 C 37.285156 18.179688 35.890625 20.136719 34.496094 22.097656 C 35.464844 22.523438 36.429688 22.949219 37.398438 23.375 C 37.160156 25.164062 36.921875 26.953125 36.683594 28.738281 C 38.0625 26.269531 39.4375 23.800781 40.816406 21.332031 C 39.738281 21.109375 38.660156 20.890625 37.582031 20.667969 C 37.949219 19.1875 38.316406 17.703125 38.679688 16.21875 Z M 38.679688 16.222656 " fill-opacity="1" fill-rule="nonzero"/><g clip-path="url(#f33fd9765b)"><path fill="#bdddef" d="M 24.617188 18.417969 C 24.355469 18.417969 24.101562 18.324219 23.894531 18.160156 C 22.453125 16.980469 22.1875 14.839844 23.257812 13.429688 C 24.335938 12.007812 26.5 11.6875 28.039062 12.851562 C 28.035156 12.699219 27.984375 10.039062 30.175781 8.578125 C 31.796875 7.5 33.933594 7.554688 35.441406 8.578125 C 36.4375 9.261719 36.902344 10.195312 37.101562 10.675781 C 37.515625 10.332031 38.839844 9.328125 40.691406 9.386719 C 41.542969 9.414062 42.203125 9.65625 42.5625 9.816406 C 44.1875 10.539062 44.941406 11.917969 45.175781 12.394531 C 46.726562 11.707031 48.5 12.023438 49.574219 13.144531 C 50.6875 14.308594 50.390625 16.339844 50.25 17.449219 C 50.246094 17.46875 50.242188 17.488281 50.242188 17.507812 C 50.164062 18.082031 49.671875 18.511719 49.097656 18.507812 C 40.9375 18.476562 32.777344 18.449219 24.621094 18.417969 Z M 24.617188 18.417969 " fill-opacity="1" fill-rule="nonzero"/></g><path fill="#ff9395" d="M 16.613281 53.792969 C 14.796875 53.3125 13.417969 51.835938 13.09375 50.015625 C 12.636719 47.445312 14.550781 45.679688 14.65625 45.585938 C 13.5625 43.898438 13.542969 41.746094 14.601562 40.121094 C 16.027344 37.9375 18.617188 37.921875 18.792969 37.921875 C 18.785156 37.742188 18.664062 34.664062 21.246094 32.851562 C 23.820312 31.039062 26.652344 32.207031 26.816406 32.277344 C 28.199219 29.359375 31.046875 27.773438 33.585938 28.273438 C 35.667969 28.6875 36.855469 30.367188 37.167969 30.847656 C 38.292969 29.488281 40.058594 28.914062 41.628906 29.386719 C 43.429688 29.929688 44.148438 31.597656 44.246094 31.832031 C 46.082031 30.617188 48.65625 30.660156 50.449219 31.933594 C 52.246094 33.203125 53.148438 35.628906 52.628906 37.773438 C 54.226562 37.363281 56.050781 38.128906 56.882812 39.5625 C 57.714844 40.996094 57.484375 42.96875 56.34375 44.167969 C 58.808594 44.714844 60.550781 46.800781 60.59375 49.09375 C 60.628906 50.886719 59.625 52.589844 58.015625 53.566406 C 58.546875 55.125 58.164062 56.855469 57.035156 58.023438 C 55.839844 59.261719 54.003906 59.664062 52.378906 59.046875 C 52.285156 60.796875 51.125 62.277344 49.546875 62.71875 C 47.714844 63.226562 45.664062 62.226562 44.863281 60.316406 C 44.785156 60.511719 43.367188 63.898438 40.09375 64.382812 C 38.15625 64.667969 36.664062 63.78125 36.460938 63.652344 C 34.558594 62.480469 34.078125 60.519531 33.992188 60.140625 C 33.796875 60.621094 33.09375 62.164062 31.390625 63.011719 C 28.832031 64.289062 26.308594 62.832031 25.976562 62.632812 C 23.332031 61.042969 23.03125 58.042969 23.007812 57.730469 C 21.757812 58.816406 19.984375 59.03125 18.570312 58.277344 C 17.007812 57.445312 16.179688 55.589844 16.613281 53.789062 Z M 16.613281 53.792969 " fill-opacity="1" fill-rule="nonzero"/><path fill="#ff9395" d="M 58.015625 53.566406 C 58.542969 55.128906 58.164062 56.855469 57.035156 58.027344 C 55.839844 59.261719 54.003906 59.667969 52.378906 59.050781 C 52.285156 60.800781 51.125 62.28125 49.546875 62.71875 C 47.714844 63.230469 45.664062 62.230469 44.863281 60.316406 C 44.785156 60.511719 43.367188 63.902344 40.09375 64.386719 C 38.15625 64.671875 36.664062 63.78125 36.460938 63.65625 C 34.558594 62.484375 34.078125 60.523438 33.996094 60.144531 C 33.796875 60.625 33.09375 62.167969 31.394531 63.015625 C 28.832031 64.289062 26.3125 62.835938 25.976562 62.632812 C 23.625 61.222656 23.128906 58.691406 23.03125 57.929688 C 23.015625 57.835938 23.011719 57.765625 23.007812 57.734375 C 22.957031 57.777344 22.90625 57.816406 22.855469 57.859375 C 21.617188 58.835938 19.929688 59.003906 18.570312 58.28125 C 17.007812 57.449219 16.183594 55.59375 16.613281 53.792969 C 14.796875 53.3125 13.417969 51.832031 13.09375 50.015625 C 12.636719 47.445312 14.550781 45.679688 14.660156 45.582031 C 13.5625 43.898438 13.542969 41.746094 14.601562 40.121094 C 16.027344 37.9375 18.617188 37.921875 18.796875 37.921875 C 18.785156 37.742188 18.667969 34.660156 21.246094 32.851562 C 23.820312 31.039062 26.652344 32.207031 26.820312 32.277344 C 28.199219 29.359375 31.050781 27.773438 33.585938 28.273438 C 35.335938 28.621094 36.453125 29.863281 36.953125 30.535156 C 37.046875 30.664062 37.121094 30.769531 37.171875 30.847656 C 37.230469 30.777344 37.289062 30.707031 37.351562 30.640625 C 38.476562 29.433594 40.140625 28.9375 41.628906 29.386719 C 43.429688 29.929688 44.148438 31.597656 44.246094 31.832031 C 46.082031 30.617188 48.65625 30.660156 50.453125 31.933594 C 52.246094 33.207031 53.152344 35.628906 52.628906 37.777344 C 54.226562 37.363281 56.050781 38.128906 56.886719 39.5625 C 57.71875 40.996094 57.484375 42.972656 56.34375 44.171875 C 58.8125 44.714844 60.550781 46.800781 60.59375 49.097656 C 60.628906 50.886719 59.625 52.59375 58.015625 53.566406 Z M 58.015625 53.566406 " fill-opacity="1" fill-rule="nonzero"/><path fill="#ff3e75" d="M 37.195312 30.945312 C 36.914062 30.929688 36.503906 30.917969 36.015625 30.972656 C 35.496094 31.035156 33.636719 31.273438 32.144531 32.796875 C 31.554688 33.402344 31.089844 34.132812 30.789062 34.925781 C 30.675781 35.214844 30.585938 35.515625 30.515625 35.820312 C 30.488281 35.941406 30.464844 36.0625 30.441406 36.183594 C 30.433594 36.234375 30.425781 36.285156 30.417969 36.332031 C 30.414062 36.351562 30.414062 36.371094 30.410156 36.394531 C 30.40625 36.402344 30.40625 36.40625 30.40625 36.410156 L 30.40625 36.414062 C 30.40625 36.414062 30.40625 36.414062 30.40625 36.417969 C 30.394531 36.523438 30.324219 36.621094 30.207031 36.617188 C 29.75 36.605469 29.292969 36.664062 28.851562 36.785156 C 27.371094 37.1875 26.203125 38.324219 25.8125 39.824219 C 25.667969 40.386719 25.625 40.972656 25.667969 41.550781 C 25.6875 41.828125 25.714844 42.054688 25.789062 42.335938 C 25.8125 42.414062 25.777344 42.519531 25.699219 42.558594 C 25.375 42.722656 25.0625 42.9375 24.785156 43.164062 C 23.644531 44.101562 22.894531 45.457031 22.820312 46.953125 C 22.765625 48.136719 23.125 49.355469 23.816406 50.316406 C 23.863281 50.386719 23.84375 50.507812 23.785156 50.558594 C 23.433594 50.863281 23.121094 51.214844 22.863281 51.601562 C 22.105469 52.730469 21.839844 54.128906 22.148438 55.457031 C 22.269531 55.964844 22.457031 56.457031 22.710938 56.914062 C 22.796875 57.070312 22.890625 57.222656 22.988281 57.371094 C 23.023438 57.425781 23.0625 57.480469 23.101562 57.53125 C 23.113281 57.550781 23.128906 57.566406 23.140625 57.582031 C 23.140625 57.582031 23.140625 57.585938 23.144531 57.585938 C 23.144531 57.589844 23.148438 57.589844 23.148438 57.59375 C 23.148438 57.59375 23.152344 57.59375 23.152344 57.597656 C 23.152344 57.597656 23.152344 57.597656 23.152344 57.601562 C 23.105469 57.644531 23.054688 57.6875 23.007812 57.734375 C 22.957031 57.777344 22.90625 57.816406 22.855469 57.859375 C 22.636719 57.574219 22.445312 57.265625 22.28125 56.945312 C 21.671875 55.757812 21.453125 54.390625 21.773438 53.085938 C 22.027344 52.050781 22.605469 51.105469 23.382812 50.386719 C 23.117188 49.984375 22.90625 49.542969 22.746094 49.089844 C 22.171875 47.453125 22.375 45.597656 23.347656 44.15625 C 23.859375 43.394531 24.5625 42.722656 25.371094 42.285156 C 25.304688 41.972656 25.273438 41.648438 25.261719 41.335938 C 25.207031 39.835938 25.742188 38.339844 26.90625 37.359375 C 27.769531 36.628906 28.910156 36.226562 30.042969 36.21875 C 30.132812 35.632812 30.296875 35.066406 30.53125 34.519531 C 31.230469 32.882812 32.578125 31.609375 34.234375 30.992188 C 35.09375 30.671875 36.035156 30.507812 36.953125 30.539062 C 37.046875 30.664062 37.121094 30.773438 37.171875 30.851562 C 37.179688 30.882812 37.1875 30.914062 37.199219 30.949219 Z M 37.195312 30.945312 " fill-opacity="1" fill-rule="nonzero"/><path fill="#ff3e75" d="M 15.136719 45.890625 C 15.632812 46.0625 16.179688 46.136719 16.699219 46.148438 C 17.671875 46.171875 18.65625 45.902344 19.386719 45.230469 C 19.835938 44.816406 20.15625 44.273438 20.347656 43.691406 C 20.425781 43.449219 20.046875 43.347656 19.964844 43.585938 C 19.660156 44.515625 18.96875 45.265625 18.035156 45.570312 C 17.628906 45.703125 17.21875 45.753906 16.792969 45.753906 C 16.605469 45.753906 16.417969 45.742188 16.230469 45.71875 C 16.210938 45.71875 16.191406 45.714844 16.167969 45.714844 C 16.15625 45.710938 16.105469 45.703125 16.117188 45.707031 C 16.128906 45.707031 16.085938 45.703125 16.074219 45.699219 C 16.054688 45.695312 16.03125 45.695312 16.011719 45.691406 C 15.933594 45.679688 15.863281 45.664062 15.789062 45.648438 C 15.601562 45.613281 15.417969 45.570312 15.242188 45.507812 C 15.140625 45.472656 15.027344 45.546875 15 45.648438 C 14.96875 45.757812 15.035156 45.855469 15.136719 45.890625 Z M 15.136719 45.890625 " fill-opacity="1" fill-rule="nonzero"/><path fill="#ff3e75" d="M 22.257812 44.898438 C 22.15625 44.859375 22.074219 44.824219 21.964844 44.769531 C 21.839844 44.710938 21.71875 44.648438 21.601562 44.582031 C 21.328125 44.425781 21.070312 44.246094 20.832031 44.039062 C 20.320312 43.597656 19.910156 43.054688 19.621094 42.441406 C 19.179688 41.492188 19.0625 40.425781 19.15625 39.390625 C 19.160156 39.339844 19.167969 39.292969 19.171875 39.242188 C 19.175781 39.214844 19.179688 39.191406 19.183594 39.167969 C 19.183594 39.152344 19.191406 39.082031 19.1875 39.132812 C 19.199219 39.050781 19.210938 38.96875 19.222656 38.886719 C 19.242188 38.785156 19.261719 38.683594 19.285156 38.582031 C 19.34375 38.335938 18.964844 38.230469 18.90625 38.476562 C 18.738281 39.191406 18.695312 39.945312 18.761719 40.671875 C 18.886719 42 19.421875 43.269531 20.40625 44.1875 C 20.914062 44.664062 21.507812 45.023438 22.152344 45.28125 C 22.25 45.320312 22.371094 45.238281 22.394531 45.144531 C 22.425781 45.03125 22.355469 44.9375 22.257812 44.898438 Z M 22.257812 44.898438 " fill-opacity="1" fill-rule="nonzero"/><path fill="#ff3e75" d="M 17.105469 53.695312 C 17.429688 53.0625 17.867188 52.496094 18.402344 52.035156 C 19.132812 51.402344 20.035156 50.988281 20.980469 50.820312 C 21.292969 50.765625 21.613281 50.738281 21.941406 50.738281 C 22.195312 50.738281 22.195312 50.34375 21.941406 50.34375 C 20.15625 50.335938 18.433594 51.167969 17.339844 52.585938 C 17.121094 52.871094 16.925781 53.171875 16.761719 53.492188 C 16.648438 53.71875 16.988281 53.921875 17.105469 53.695312 Z M 17.105469 53.695312 " fill-opacity="1" fill-rule="nonzero"/><path fill="#ff3e75" d="M 27.144531 32.910156 C 27.914062 33.539062 28.445312 34.417969 28.640625 35.394531 C 28.664062 35.5 28.789062 35.5625 28.886719 35.535156 C 28.996094 35.503906 29.042969 35.394531 29.023438 35.289062 C 28.8125 34.253906 28.238281 33.296875 27.425781 32.628906 C 27.34375 32.5625 27.226562 32.546875 27.144531 32.628906 C 27.078125 32.699219 27.0625 32.84375 27.144531 32.910156 Z M 27.144531 32.910156 " fill-opacity="1" fill-rule="nonzero"/><path fill="#ff3e75" d="M 44.171875 32.589844 C 44.632812 33.792969 44.757812 35.117188 44.515625 36.382812 C 44.492188 36.488281 44.542969 36.597656 44.652344 36.628906 C 44.746094 36.652344 44.875 36.59375 44.894531 36.488281 C 45.152344 35.152344 45.039062 33.753906 44.554688 32.484375 C 44.515625 32.382812 44.421875 32.316406 44.3125 32.34375 C 44.214844 32.371094 44.136719 32.488281 44.171875 32.589844 Z M 44.171875 32.589844 " fill-opacity="1" fill-rule="nonzero"/><path fill="#ff3e75" d="M 43.402344 37.246094 C 44.378906 36.796875 45.5625 36.84375 46.515625 37.316406 C 46.792969 37.453125 47.050781 37.621094 47.285156 37.828125 C 47.363281 37.898438 47.484375 37.90625 47.5625 37.828125 C 47.636719 37.753906 47.644531 37.617188 47.5625 37.546875 C 46.644531 36.734375 45.382812 36.398438 44.179688 36.597656 C 43.839844 36.65625 43.515625 36.761719 43.203125 36.902344 C 43.105469 36.949219 43.082031 37.089844 43.132812 37.175781 C 43.191406 37.273438 43.308594 37.292969 43.402344 37.246094 Z M 43.402344 37.246094 " fill-opacity="1" fill-rule="nonzero"/><path fill="#ff3e75" d="M 50.832031 38.980469 C 50.21875 39.324219 49.636719 39.761719 49.101562 40.21875 C 48.582031 40.664062 48.109375 41.164062 47.746094 41.746094 C 47.054688 42.855469 46.792969 44.300781 47.460938 45.484375 C 47.789062 46.0625 48.3125 46.527344 48.949219 46.722656 C 49.191406 46.796875 49.296875 46.414062 49.054688 46.339844 C 48 46.015625 47.421875 44.886719 47.464844 43.828125 C 47.515625 42.542969 48.316406 41.445312 49.238281 40.625 C 49.785156 40.136719 50.390625 39.683594 51.03125 39.324219 C 51.25 39.199219 51.054688 38.855469 50.832031 38.980469 Z M 50.832031 38.980469 " fill-opacity="1" fill-rule="nonzero"/><path fill="#ff3e75" d="M 55.753906 44.871094 C 54.949219 45.542969 54.0625 46.105469 53.121094 46.558594 C 53.023438 46.601562 53 46.742188 53.046875 46.828125 C 53.105469 46.929688 53.222656 46.945312 53.320312 46.898438 C 54.292969 46.433594 55.203125 45.84375 56.03125 45.152344 C 56.113281 45.085938 56.101562 44.945312 56.03125 44.871094 C 55.949219 44.789062 55.835938 44.804688 55.753906 44.871094 Z M 55.753906 44.871094 " fill-opacity="1" fill-rule="nonzero"/><path fill="#ff3e75" d="M 54.632812 45.980469 C 55.464844 46.722656 55.972656 47.96875 55.453125 49.039062 C 55.25 49.464844 54.910156 49.804688 54.527344 50.050781 C 54.363281 50.15625 54.191406 50.246094 54.011719 50.328125 C 53.996094 50.335938 53.976562 50.34375 53.960938 50.351562 C 53.917969 50.367188 53.972656 50.34375 53.941406 50.359375 C 53.90625 50.371094 53.871094 50.386719 53.835938 50.398438 C 53.785156 50.421875 53.734375 50.4375 53.679688 50.457031 C 53.339844 50.578125 52.984375 50.652344 52.621094 50.667969 C 52.464844 50.675781 52.308594 50.671875 52.152344 50.660156 C 52.019531 50.648438 51.957031 50.640625 51.832031 50.617188 C 51.726562 50.597656 51.617188 50.644531 51.589844 50.753906 C 51.5625 50.851562 51.621094 50.980469 51.726562 51 C 52.722656 51.175781 53.746094 50.976562 54.617188 50.460938 C 55.066406 50.191406 55.46875 49.828125 55.726562 49.367188 C 56.035156 48.820312 56.117188 48.183594 56.003906 47.570312 C 55.867188 46.84375 55.457031 46.183594 54.910156 45.699219 C 54.722656 45.527344 54.441406 45.808594 54.632812 45.980469 Z M 54.632812 45.980469 " fill-opacity="1" fill-rule="nonzero"/><path fill="#ff3e75" d="M 30.898438 37.515625 C 32.148438 38.777344 33.988281 39.417969 35.738281 39.023438 C 36.566406 38.835938 37.335938 38.414062 37.933594 37.808594 C 38.429688 37.308594 38.792969 36.699219 39.054688 36.046875 C 39.207031 35.664062 39.328125 35.257812 39.382812 34.847656 C 39.394531 34.738281 39.355469 34.632812 39.242188 34.601562 C 39.152344 34.574219 39.015625 34.632812 39 34.738281 C 38.957031 35.066406 38.871094 35.386719 38.761719 35.695312 C 38.667969 35.972656 38.574219 36.191406 38.429688 36.460938 C 38.273438 36.753906 38.089844 37.03125 37.878906 37.28125 C 37.375 37.871094 36.722656 38.3125 35.980469 38.546875 C 35.21875 38.785156 34.394531 38.800781 33.617188 38.617188 C 32.691406 38.398438 31.847656 37.914062 31.179688 37.234375 C 31 37.054688 30.71875 37.335938 30.898438 37.515625 Z M 30.898438 37.515625 " fill-opacity="1" fill-rule="nonzero"/><path fill="#ff3e75" d="M 37.207031 38.207031 C 37.441406 38.738281 37.824219 39.207031 38.3125 39.523438 C 38.984375 39.957031 39.820312 40.054688 40.585938 39.867188 C 41.035156 39.753906 41.460938 39.542969 41.832031 39.265625 C 41.914062 39.199219 41.960938 39.09375 41.902344 38.992188 C 41.851562 38.90625 41.71875 38.855469 41.632812 38.921875 C 41.042969 39.367188 40.324219 39.617188 39.585938 39.550781 C 38.921875 39.496094 38.3125 39.144531 37.90625 38.617188 C 37.765625 38.4375 37.640625 38.222656 37.546875 38.007812 C 37.503906 37.910156 37.363281 37.886719 37.277344 37.9375 C 37.175781 37.996094 37.164062 38.109375 37.207031 38.207031 Z M 37.207031 38.207031 " fill-opacity="1" fill-rule="nonzero"/><path fill="#ff3e75" d="M 33.214844 52.085938 C 32.816406 53.164062 31.945312 54.046875 30.898438 54.496094 C 30.605469 54.621094 30.292969 54.710938 29.980469 54.761719 C 29.875 54.78125 29.816406 54.910156 29.839844 55.007812 C 29.871094 55.117188 29.980469 55.164062 30.085938 55.144531 C 31.316406 54.9375 32.425781 54.179688 33.117188 53.140625 C 33.3125 52.84375 33.472656 52.523438 33.59375 52.191406 C 33.628906 52.089844 33.550781 51.972656 33.457031 51.945312 C 33.34375 51.917969 33.25 51.984375 33.214844 52.085938 Z M 33.214844 52.085938 " fill-opacity="1" fill-rule="nonzero"/><path fill="#ff3e75" d="M 32.121094 53.921875 C 33.015625 55.171875 33.601562 56.628906 33.835938 58.148438 C 33.902344 58.574219 33.9375 59 33.941406 59.429688 C 33.949219 59.683594 34.34375 59.683594 34.335938 59.429688 C 34.308594 57.835938 33.902344 56.261719 33.160156 54.855469 C 32.953125 54.460938 32.71875 54.082031 32.460938 53.722656 C 32.402344 53.632812 32.289062 53.59375 32.191406 53.648438 C 32.105469 53.699219 32.058594 53.835938 32.121094 53.921875 Z M 32.121094 53.921875 " fill-opacity="1" fill-rule="nonzero"/><path fill="#ff3e75" d="M 52.257812 57.664062 C 52.015625 56.699219 51.40625 55.851562 50.59375 55.292969 C 49.738281 54.707031 48.675781 54.507812 47.660156 54.691406 C 47.089844 54.792969 46.539062 55.023438 46.066406 55.363281 C 45.980469 55.425781 45.9375 55.539062 45.996094 55.636719 C 46.046875 55.722656 46.179688 55.769531 46.265625 55.707031 C 47.039062 55.152344 48.03125 54.90625 48.972656 55.0625 C 49.867188 55.210938 50.675781 55.707031 51.226562 56.425781 C 51.53125 56.824219 51.753906 57.28125 51.875 57.769531 C 51.9375 58.015625 52.316406 57.910156 52.257812 57.664062 Z M 52.257812 57.664062 " fill-opacity="1" fill-rule="nonzero"/><path fill="#ff3e75" d="M 24.621094 50.285156 C 24.878906 50.023438 25.207031 49.863281 25.546875 49.75 C 25.941406 49.621094 26.351562 49.539062 26.753906 49.472656 C 27.570312 49.335938 28.425781 49.324219 29.207031 49.632812 C 29.59375 49.785156 29.9375 50.023438 30.210938 50.332031 C 30.382812 50.523438 30.660156 50.242188 30.492188 50.050781 C 29.933594 49.421875 29.121094 49.101562 28.300781 49.011719 C 27.8125 48.957031 27.320312 48.992188 26.835938 49.058594 C 26.398438 49.121094 25.957031 49.210938 25.535156 49.339844 C 25.09375 49.472656 24.667969 49.671875 24.339844 50.003906 C 24.160156 50.183594 24.441406 50.464844 24.621094 50.285156 Z M 24.621094 50.285156 " fill-opacity="1" fill-rule="nonzero"/><path fill="#ff3e75" d="M 26.964844 42.609375 C 27.886719 43.015625 28.902344 43.265625 29.910156 43.128906 C 30.753906 43.019531 31.5625 42.621094 32.113281 41.960938 C 32.410156 41.597656 32.632812 41.175781 32.714844 40.710938 C 32.734375 40.605469 32.6875 40.496094 32.578125 40.464844 C 32.480469 40.4375 32.355469 40.496094 32.335938 40.601562 C 32.203125 41.335938 31.714844 41.9375 31.089844 42.3125 C 30.367188 42.75 29.496094 42.847656 28.671875 42.71875 C 28.15625 42.636719 27.648438 42.476562 27.164062 42.265625 C 27.066406 42.222656 26.953125 42.238281 26.894531 42.339844 C 26.847656 42.421875 26.867188 42.566406 26.964844 42.609375 Z M 26.964844 42.609375 " fill-opacity="1" fill-rule="nonzero"/><path fill="#ff3e75" d="M 48.878906 53.023438 C 48.453125 52.039062 47.441406 51.449219 46.433594 51.222656 C 45.414062 50.996094 44.328125 51.09375 43.351562 51.457031 C 42.367188 51.820312 41.472656 52.4375 40.820312 53.265625 C 40.128906 54.140625 39.734375 55.210938 39.648438 56.320312 C 39.5625 57.425781 39.789062 58.5625 40.316406 59.539062 C 40.378906 59.65625 40.449219 59.769531 40.519531 59.882812 C 40.660156 60.097656 41 59.898438 40.863281 59.679688 C 40.300781 58.8125 40.019531 57.785156 40.023438 56.753906 C 40.03125 55.71875 40.320312 54.6875 40.898438 53.824219 C 41.441406 53.011719 42.230469 52.382812 43.113281 51.980469 C 43.992188 51.578125 44.992188 51.414062 45.953125 51.539062 C 46.875 51.65625 47.863281 52.085938 48.371094 52.902344 C 48.433594 53.007812 48.488281 53.113281 48.535156 53.222656 C 48.578125 53.320312 48.722656 53.34375 48.808594 53.292969 C 48.90625 53.234375 48.921875 53.121094 48.878906 53.023438 Z M 48.878906 53.023438 " fill-opacity="1" fill-rule="nonzero"/><path fill="#ff3e75" d="M 57.09375 53.035156 C 55.714844 52.421875 54.074219 52.542969 52.78125 53.316406 C 52.417969 53.53125 52.082031 53.800781 51.796875 54.109375 C 51.625 54.296875 51.902344 54.578125 52.078125 54.390625 C 53.015625 53.375 54.453125 52.890625 55.8125 53.074219 C 56.183594 53.125 56.550781 53.226562 56.894531 53.378906 C 56.988281 53.421875 57.105469 53.40625 57.164062 53.308594 C 57.210938 53.222656 57.191406 53.078125 57.09375 53.035156 Z M 57.09375 53.035156 " fill-opacity="1" fill-rule="nonzero"/><path fill="#0c0c0c" d="M 35.84375 53.59375 C 35.617188 53.988281 35.230469 54.179688 35.09375 54.242188 C 34.863281 54.355469 34.640625 54.402344 34.421875 54.410156 C 33.898438 54.429688 33.390625 54.222656 32.742188 54.140625 C 30.785156 53.898438 30.3125 55.160156 28.566406 54.757812 C 28.507812 54.742188 28.433594 54.726562 28.351562 54.707031 C 27.921875 54.59375 27.246094 54.347656 26.90625 53.726562 C 26.402344 52.804688 26.976562 51.671875 27.199219 51.289062 C 27.226562 51.238281 27.25 51.203125 27.261719 51.179688 C 27.859375 50.207031 28.78125 49.8125 29.210938 49.636719 C 31.101562 48.855469 33.890625 49.054688 35.21875 50.742188 C 35.230469 50.753906 35.242188 50.769531 35.253906 50.78125 C 35.761719 51.445312 36.34375 52.726562 35.84375 53.59375 Z M 35.84375 53.59375 " fill-opacity="1" fill-rule="nonzero"/><path fill="#0c0c0c" d="M 29.9375 39.089844 C 29.992188 39.195312 30.21875 39.640625 30.0625 40.097656 C 30.0625 40.097656 29.964844 40.394531 29.695312 40.601562 C 29.042969 41.113281 27.898438 40.289062 25.84375 39.78125 C 24.160156 39.359375 23.113281 39.464844 22.992188 38.96875 C 22.90625 38.597656 23.398438 38.195312 23.464844 38.144531 C 23.988281 37.71875 24.625 37.753906 26.179688 37.96875 C 29.199219 38.386719 29.710938 38.644531 29.9375 39.089844 Z M 29.9375 39.089844 " fill-opacity="1" fill-rule="nonzero"/><path fill="#0c0c0c" d="M 31.726562 39.1875 C 31.671875 39.292969 31.445312 39.738281 31.597656 40.195312 C 31.597656 40.195312 31.699219 40.492188 31.964844 40.699219 C 32.617188 41.210938 33.761719 40.386719 35.816406 39.878906 C 37.503906 39.457031 38.550781 39.5625 38.667969 39.066406 C 38.757812 38.695312 38.261719 38.292969 38.199219 38.242188 C 37.671875 37.816406 37.035156 37.851562 35.480469 38.066406 C 32.464844 38.484375 31.953125 38.742188 31.726562 39.1875 Z M 31.726562 39.1875 " fill-opacity="1" fill-rule="nonzero"/><path fill="#0c0c0c" d="M 38.824219 43.496094 C 38.441406 43.363281 38.035156 43.347656 37.632812 43.34375 C 37.21875 43.339844 36.808594 43.351562 36.398438 43.378906 C 35.566406 43.433594 34.742188 43.550781 33.929688 43.722656 C 33.46875 43.824219 33.011719 43.941406 32.558594 44.082031 C 32.613281 44.207031 32.664062 44.332031 32.71875 44.457031 C 34.035156 43.730469 35.4375 43.179688 36.898438 42.820312 C 37.15625 42.757812 37.046875 42.359375 36.789062 42.421875 C 35.296875 42.789062 33.855469 43.355469 32.511719 44.101562 C 32.308594 44.214844 32.445312 44.546875 32.667969 44.480469 C 34.210938 44.011719 35.808594 43.765625 37.417969 43.757812 C 37.855469 43.757812 38.300781 43.753906 38.71875 43.894531 C 38.96875 43.980469 39.078125 43.582031 38.828125 43.496094 Z M 38.824219 43.496094 " fill-opacity="1" fill-rule="nonzero"/><path fill="#0c0c0c" d="M 23.035156 44.117188 C 23.40625 43.992188 23.792969 43.980469 24.179688 43.980469 C 24.578125 43.976562 24.976562 43.992188 25.378906 44.015625 C 26.175781 44.070312 26.96875 44.183594 27.753906 44.355469 C 28.203125 44.449219 28.644531 44.566406 29.085938 44.699219 C 29.308594 44.769531 29.449219 44.4375 29.242188 44.320312 C 27.898438 43.574219 26.457031 43.007812 24.96875 42.644531 C 24.707031 42.578125 24.597656 42.980469 24.855469 43.042969 C 26.316406 43.402344 27.722656 43.949219 29.035156 44.679688 C 29.089844 44.554688 29.140625 44.425781 29.195312 44.300781 C 27.609375 43.820312 25.953125 43.570312 24.296875 43.566406 C 23.839844 43.566406 23.367188 43.566406 22.929688 43.71875 C 22.679688 43.804688 22.785156 44.203125 23.039062 44.117188 Z M 23.035156 44.117188 " fill-opacity="1" fill-rule="nonzero"/><path fill="#ededf2" d="M 35.21875 50.742188 C 34.757812 50.726562 34.226562 50.714844 33.644531 50.714844 C 32.449219 50.714844 31.3125 50.714844 29.894531 50.863281 C 29.167969 50.9375 28.253906 51.0625 27.199219 51.289062 C 27.226562 51.238281 27.25 51.203125 27.261719 51.179688 C 27.859375 50.207031 28.78125 49.8125 29.210938 49.636719 C 31.101562 48.855469 33.890625 49.054688 35.21875 50.742188 Z M 35.21875 50.742188 " fill-opacity="1" fill-rule="nonzero"/><path fill="#0c0c0c" d="M 41.886719 62.015625 C 41.335938 61.324219 40.753906 60.660156 40.136719 60.03125 C 39.703125 59.585938 39.25 59.15625 38.765625 58.769531 C 38.265625 58.367188 37.707031 57.949219 37.070312 57.800781 C 36.5 57.667969 35.9375 57.792969 35.445312 58.097656 C 35.132812 58.292969 34.859375 58.542969 34.597656 58.796875 C 33.898438 59.476562 33.25 60.21875 32.617188 60.960938 C 31.675781 62.0625 30.765625 63.195312 29.875 64.34375 C 29.75 64.503906 29.625 64.664062 29.5 64.824219 C 29.429688 64.914062 29.414062 65.035156 29.5 65.121094 C 29.570312 65.191406 29.722656 65.207031 29.792969 65.121094 C 30.691406 63.949219 31.609375 62.796875 32.558594 61.667969 C 33.226562 60.871094 33.90625 60.082031 34.636719 59.34375 C 34.859375 59.117188 35.089844 58.890625 35.335938 58.683594 C 35.359375 58.667969 35.382812 58.648438 35.40625 58.628906 C 35.429688 58.613281 35.433594 58.609375 35.402344 58.628906 C 35.445312 58.597656 35.488281 58.566406 35.53125 58.539062 C 35.664062 58.445312 35.808594 58.359375 35.960938 58.292969 C 36.0625 58.253906 36.167969 58.21875 36.273438 58.195312 C 36.316406 58.1875 36.359375 58.179688 36.402344 58.171875 C 36.40625 58.171875 36.363281 58.175781 36.40625 58.171875 C 36.429688 58.167969 36.453125 58.167969 36.476562 58.164062 C 37.136719 58.121094 37.714844 58.496094 38.226562 58.871094 C 38.707031 59.226562 39.152344 59.636719 39.578125 60.054688 C 40.261719 60.730469 40.898438 61.449219 41.503906 62.195312 C 41.535156 62.234375 41.566406 62.269531 41.597656 62.308594 C 41.664062 62.394531 41.8125 62.382812 41.886719 62.308594 C 41.972656 62.222656 41.957031 62.101562 41.886719 62.015625 Z M 41.886719 62.015625 " fill-opacity="1" fill-rule="nonzero"/><path fill="#0c0c0c" d="M 30.832031 61.644531 C 30.402344 60.800781 29.875 59.996094 29.234375 59.296875 C 28.808594 58.835938 28.324219 58.414062 27.769531 58.113281 C 27.359375 57.886719 26.890625 57.714844 26.414062 57.75 C 25.597656 57.8125 24.96875 58.382812 24.410156 58.9375 C 23.722656 59.621094 23.082031 60.359375 22.453125 61.097656 C 21.546875 62.164062 20.671875 63.253906 19.8125 64.359375 C 19.691406 64.515625 19.570312 64.671875 19.449219 64.828125 C 19.382812 64.914062 19.367188 65.035156 19.449219 65.121094 C 19.523438 65.191406 19.671875 65.210938 19.742188 65.121094 C 20.609375 64 21.488281 62.886719 22.398438 61.800781 C 23.050781 61.019531 23.71875 60.246094 24.425781 59.511719 C 24.65625 59.269531 24.894531 59.03125 25.148438 58.808594 C 25.191406 58.765625 25.238281 58.726562 25.289062 58.6875 C 25.308594 58.667969 25.332031 58.652344 25.351562 58.632812 C 25.359375 58.628906 25.394531 58.597656 25.367188 58.621094 C 25.328125 58.652344 25.394531 58.601562 25.402344 58.59375 C 25.425781 58.578125 25.445312 58.5625 25.46875 58.546875 C 25.691406 58.390625 25.933594 58.265625 26.199219 58.203125 C 26.242188 58.191406 26.285156 58.183594 26.328125 58.175781 C 26.335938 58.175781 26.347656 58.171875 26.359375 58.171875 C 26.359375 58.171875 26.316406 58.175781 26.339844 58.175781 C 26.355469 58.171875 26.371094 58.171875 26.386719 58.167969 C 26.453125 58.164062 26.515625 58.160156 26.582031 58.164062 C 26.621094 58.164062 26.664062 58.167969 26.703125 58.171875 C 26.714844 58.171875 26.757812 58.179688 26.722656 58.175781 C 26.753906 58.179688 26.785156 58.183594 26.816406 58.191406 C 26.929688 58.210938 27.042969 58.246094 27.15625 58.285156 C 27.722656 58.488281 28.226562 58.878906 28.652344 59.296875 C 29.359375 59.980469 29.921875 60.808594 30.382812 61.675781 C 30.414062 61.734375 30.445312 61.796875 30.476562 61.855469 C 30.597656 62.09375 30.953125 61.882812 30.832031 61.648438 Z M 30.832031 61.644531 " fill-opacity="1" fill-rule="nonzero"/><g clip-path="url(#93fa50a35e)"><path fill="#0c0c0c" d="M 28.675781 64.507812 C 28.800781 64.503906 28.917969 64.5 29.03125 64.5 C 29.601562 64.496094 30.066406 64.953125 30.078125 65.523438 C 30.085938 65.824219 30.089844 66.128906 30.097656 66.429688 C 30.105469 66.796875 29.828125 67.101562 29.464844 67.132812 C 28.214844 67.234375 27.007812 67.324219 25.796875 67.40625 C 25.230469 67.449219 24.378906 67.496094 24.078125 67.027344 C 23.898438 66.742188 23.992188 66.378906 24.019531 66.285156 C 24.484375 64.695312 28.390625 64.515625 28.679688 64.503906 Z M 28.675781 64.507812 " fill-opacity="1" fill-rule="nonzero"/></g><g clip-path="url(#1ea6b6dd02)"><path fill="#0c0c0c" d="M 18.707031 64.46875 C 18.832031 64.460938 18.949219 64.460938 19.0625 64.460938 C 19.632812 64.457031 20.097656 64.914062 20.109375 65.480469 C 20.117188 65.785156 20.121094 66.089844 20.128906 66.390625 C 20.136719 66.753906 19.859375 67.0625 19.496094 67.09375 C 18.246094 67.191406 17.039062 67.285156 15.828125 67.367188 C 15.261719 67.40625 14.410156 67.457031 14.109375 66.984375 C 13.929688 66.699219 14.023438 66.339844 14.050781 66.246094 C 14.515625 64.65625 18.421875 64.476562 18.710938 64.464844 Z M 18.707031 64.46875 " fill-opacity="1" fill-rule="nonzero"/></g><path fill="#0c0c0c" d="M 50.234375 48.136719 C 50.769531 46.761719 51.246094 45.359375 51.664062 43.941406 C 51.871094 43.234375 52.066406 42.519531 52.242188 41.800781 C 52.332031 41.445312 52.417969 41.082031 52.5 40.722656 C 52.578125 40.363281 52.667969 40.003906 52.722656 39.636719 C 52.773438 39.292969 52.777344 38.945312 52.671875 38.613281 C 52.582031 38.332031 52.429688 38.082031 52.246094 37.851562 C 51.875 37.386719 51.371094 37.042969 50.875 36.71875 C 49.683594 35.9375 48.453125 35.210938 47.191406 34.546875 C 45.929688 33.878906 44.632812 33.269531 43.3125 32.71875 C 43.148438 32.652344 42.980469 32.582031 42.816406 32.515625 C 42.714844 32.476562 42.589844 32.5625 42.5625 32.660156 C 42.53125 32.78125 42.605469 32.875 42.707031 32.917969 C 43.996094 33.4375 45.257812 34.015625 46.496094 34.648438 C 47.738281 35.289062 48.957031 35.984375 50.136719 36.738281 C 50.644531 37.058594 51.171875 37.375 51.617188 37.789062 C 52.015625 38.15625 52.34375 38.625 52.347656 39.191406 C 52.351562 39.546875 52.257812 39.898438 52.183594 40.246094 C 52.105469 40.601562 52.023438 40.957031 51.9375 41.308594 C 51.769531 42.007812 51.589844 42.703125 51.390625 43.394531 C 50.996094 44.792969 50.539062 46.171875 50.027344 47.53125 C 49.964844 47.695312 49.898438 47.863281 49.835938 48.027344 C 49.792969 48.132812 49.878906 48.257812 49.980469 48.285156 C 50.09375 48.316406 50.191406 48.246094 50.234375 48.140625 Z M 50.234375 48.136719 " fill-opacity="1" fill-rule="nonzero"/><path fill="#0c0c0c" d="M 17.066406 47.695312 C 16.683594 46.3125 16.332031 44.921875 16.011719 43.523438 C 15.929688 43.171875 15.851562 42.820312 15.773438 42.46875 C 15.699219 42.117188 15.632812 41.789062 15.609375 41.441406 C 15.574219 40.835938 15.714844 40.269531 16.035156 39.753906 C 16.351562 39.238281 16.746094 38.851562 17.175781 38.476562 C 17.640625 38.070312 18.132812 37.6875 18.625 37.316406 C 19.671875 36.53125 20.761719 35.808594 21.890625 35.144531 C 23.011719 34.484375 24.167969 33.886719 25.355469 33.355469 C 25.5 33.289062 25.648438 33.222656 25.792969 33.160156 C 25.898438 33.117188 25.917969 32.964844 25.867188 32.878906 C 25.808594 32.769531 25.691406 32.757812 25.585938 32.804688 C 24.371094 33.328125 23.183594 33.921875 22.03125 34.582031 C 20.882812 35.238281 19.769531 35.964844 18.699219 36.75 C 18.167969 37.140625 17.640625 37.546875 17.132812 37.96875 C 16.675781 38.351562 16.242188 38.761719 15.886719 39.238281 C 15.523438 39.722656 15.273438 40.28125 15.207031 40.886719 C 15.132812 41.601562 15.320312 42.324219 15.472656 43.015625 C 15.792969 44.441406 16.144531 45.863281 16.523438 47.273438 C 16.570312 47.453125 16.621094 47.628906 16.667969 47.804688 C 16.738281 48.0625 17.136719 47.953125 17.066406 47.695312 Z M 17.066406 47.695312 " fill-opacity="1" fill-rule="nonzero"/><path fill="#0c0c0c" d="M 43.292969 33.011719 C 43.292969 33.011719 43.296875 33.007812 43.296875 33.003906 C 43.625 32.511719 43.5625 31.867188 43.167969 31.433594 C 43.117188 31.378906 43.046875 31.320312 43.015625 31.277344 C 42.890625 31.121094 42.746094 30.980469 42.609375 30.84375 C 42.34375 30.570312 42.0625 30.316406 41.765625 30.078125 C 40.855469 29.34375 39.683594 28.699219 38.476562 28.765625 C 37.945312 28.792969 37.390625 28.953125 37.039062 29.378906 C 36.761719 29.707031 36.757812 30.230469 36.910156 30.617188 C 37.050781 30.988281 37.371094 31.238281 37.714844 31.410156 C 38.066406 31.585938 38.433594 31.726562 38.804688 31.859375 C 40.019531 32.289062 41.269531 32.625 42.519531 32.941406 C 42.710938 32.988281 42.902344 33.035156 43.09375 33.082031 C 43.113281 33.089844 43.128906 33.089844 43.144531 33.089844 C 43.191406 33.09375 43.238281 33.078125 43.273438 33.035156 C 43.277344 33.03125 43.28125 33.027344 43.285156 33.023438 C 43.289062 33.019531 43.289062 33.015625 43.292969 33.011719 Z M 43.292969 33.011719 " fill-opacity="1" fill-rule="nonzero"/><path fill="#0c0c0c" d="M 43.386719 32.789062 C 43.769531 32.261719 44.085938 31.691406 44.332031 31.089844 C 44.414062 30.886719 44.488281 30.652344 44.390625 30.457031 C 44.28125 30.238281 43.992188 30.167969 43.761719 30.234375 C 43.527344 30.304688 43.347656 30.480469 43.183594 30.660156 C 42.890625 30.988281 42.636719 31.355469 42.429688 31.746094 " fill-opacity="1" fill-rule="nonzero"/><path fill="#0c0c0c" d="M 25.386719 33.191406 C 25.386719 33.191406 25.382812 33.1875 25.382812 33.183594 C 25.058594 32.6875 25.117188 32.046875 25.511719 31.613281 C 25.5625 31.558594 25.632812 31.496094 25.667969 31.457031 C 25.789062 31.300781 25.933594 31.160156 26.070312 31.023438 C 26.335938 30.75 26.617188 30.492188 26.914062 30.257812 C 27.828125 29.523438 28.996094 28.878906 30.203125 28.945312 C 30.738281 28.972656 31.289062 29.132812 31.644531 29.554688 C 31.917969 29.886719 31.925781 30.410156 31.773438 30.796875 C 31.628906 31.167969 31.308594 31.417969 30.96875 31.589844 C 30.617188 31.765625 30.246094 31.90625 29.875 32.039062 C 28.660156 32.46875 27.410156 32.804688 26.164062 33.121094 C 25.96875 33.167969 25.777344 33.214844 25.585938 33.261719 C 25.570312 33.265625 25.554688 33.269531 25.539062 33.269531 C 25.492188 33.273438 25.445312 33.257812 25.40625 33.214844 C 25.402344 33.210938 25.398438 33.207031 25.394531 33.203125 C 25.394531 33.199219 25.390625 33.195312 25.386719 33.191406 Z M 25.386719 33.191406 " fill-opacity="1" fill-rule="nonzero"/><path fill="#0c0c0c" d="M 25.296875 32.96875 C 24.914062 32.441406 24.59375 31.871094 24.347656 31.265625 C 24.265625 31.066406 24.195312 30.832031 24.292969 30.636719 C 24.398438 30.417969 24.6875 30.347656 24.921875 30.414062 C 25.152344 30.480469 25.335938 30.65625 25.496094 30.839844 C 25.789062 31.167969 26.042969 31.53125 26.25 31.925781 " fill-opacity="1" fill-rule="nonzero"/><g clip-path="url(#ca63118635)"><path fill="#f2e568" d="M 11.859375 29.105469 C 12.441406 30.613281 13.019531 32.125 13.601562 33.636719 C 14.199219 33.246094 14.792969 32.855469 15.386719 32.464844 C 16.300781 33.261719 17.210938 34.054688 18.125 34.847656 C 17.25 33.160156 16.378906 31.46875 15.503906 29.78125 C 14.984375 30.308594 14.460938 30.835938 13.941406 31.367188 C 13.25 30.613281 12.554688 29.859375 11.859375 29.105469 Z M 11.859375 29.105469 " fill-opacity="1" fill-rule="nonzero"/></g><path fill="#f2e568" d="M 18.511719 22.882812 C 18.285156 24.484375 18.058594 26.089844 17.832031 27.691406 C 18.539062 27.644531 19.246094 27.59375 19.957031 27.546875 C 20.367188 28.6875 20.777344 29.828125 21.1875 30.96875 C 21.246094 29.066406 21.304688 27.164062 21.363281 25.261719 C 20.652344 25.46875 19.941406 25.671875 19.230469 25.878906 C 18.988281 24.878906 18.75 23.882812 18.511719 22.882812 Z M 18.511719 22.882812 " fill-opacity="1" fill-rule="nonzero"/><g clip-path="url(#7521d79aeb)"><path fill="#0c0c0c" d="M 54.234375 35.050781 C 54.847656 34.925781 55.390625 34.492188 55.660156 33.925781 C 55.8125 33.613281 55.882812 33.277344 55.867188 32.929688 C 55.851562 32.523438 55.742188 32.132812 55.699219 31.730469 C 55.671875 31.476562 55.695312 31.257812 55.769531 31.019531 C 55.839844 30.789062 55.960938 30.546875 56.167969 30.421875 C 56.1875 30.410156 56.203125 30.402344 56.222656 30.390625 C 56.230469 30.386719 56.257812 30.375 56.222656 30.390625 C 56.230469 30.386719 56.242188 30.382812 56.253906 30.378906 C 56.296875 30.367188 56.34375 30.355469 56.390625 30.347656 C 56.347656 30.351562 56.398438 30.347656 56.414062 30.34375 C 56.4375 30.34375 56.457031 30.34375 56.476562 30.34375 C 56.519531 30.34375 56.605469 30.347656 56.621094 30.347656 C 56.605469 30.347656 56.65625 30.355469 56.667969 30.359375 C 56.695312 30.363281 56.722656 30.367188 56.75 30.375 C 56.804688 30.386719 56.855469 30.398438 56.910156 30.417969 C 57.019531 30.449219 57.128906 30.488281 57.234375 30.53125 C 58.058594 30.863281 59.121094 31.554688 60.019531 30.996094 C 60.257812 30.847656 60.425781 30.609375 60.398438 30.316406 C 60.378906 30.074219 60.269531 29.847656 60.132812 29.648438 C 59.78125 29.144531 59.300781 28.742188 58.808594 28.382812 C 58.347656 28.046875 57.847656 27.769531 57.328125 27.539062 C 56.804688 27.308594 56.214844 27.097656 55.628906 27.015625 C 55.164062 26.953125 54.617188 26.953125 54.253906 27.292969 C 53.890625 27.632812 53.90625 28.183594 54.003906 28.632812 C 54.101562 29.078125 54.289062 29.507812 54.503906 29.902344 C 54.726562 30.3125 55.058594 30.648438 55.402344 30.957031 C 55.917969 31.417969 56.503906 31.804688 57.140625 32.082031 C 57.464844 32.226562 57.796875 32.339844 58.136719 32.433594 C 58.488281 32.527344 58.851562 32.605469 59.214844 32.613281 C 60.574219 32.652344 61.992188 31.59375 62.179688 30.203125 C 62.34375 28.984375 61.5 27.890625 60.636719 27.140625 C 59.738281 26.355469 58.675781 25.789062 57.511719 25.527344 C 56.917969 25.394531 56.296875 25.328125 55.6875 25.378906 C 55.191406 25.421875 54.660156 25.539062 54.246094 25.847656 C 53.789062 26.1875 53.578125 26.710938 53.535156 27.269531 C 53.484375 27.894531 53.71875 28.484375 54.070312 28.984375 C 54.460938 29.539062 54.929688 30.023438 55.496094 30.402344 C 56.0625 30.78125 56.734375 31.125 57.394531 31.375 C 58.023438 31.613281 58.679688 31.773438 59.339844 31.878906 C 59.984375 31.980469 60.632812 32.0625 61.28125 32.113281 C 61.539062 32.132812 61.796875 32.144531 62.054688 32.101562 C 62.230469 32.074219 62.417969 32.003906 62.535156 31.863281 C 62.835938 31.503906 62.617188 30.996094 62.410156 30.648438 C 62.160156 30.226562 61.832031 29.84375 61.5 29.484375 C 61.152344 29.113281 60.789062 28.761719 60.398438 28.4375 C 59.449219 27.644531 58.355469 26.925781 57.164062 26.554688 C 56.722656 26.417969 56.238281 26.324219 55.777344 26.414062 C 55.351562 26.492188 54.972656 26.792969 54.859375 27.222656 C 54.738281 27.6875 55 28.125 55.3125 28.445312 C 55.632812 28.773438 56.023438 29.035156 56.421875 29.261719 C 56.632812 29.378906 56.851562 29.492188 57.070312 29.589844 C 57.175781 29.632812 57.292969 29.621094 57.355469 29.515625 C 57.402344 29.425781 57.382812 29.273438 57.28125 29.230469 C 57.0625 29.136719 56.851562 29.027344 56.648438 28.914062 C 56.277344 28.703125 55.933594 28.480469 55.640625 28.191406 C 55.488281 28.039062 55.394531 27.929688 55.300781 27.738281 C 55.296875 27.730469 55.292969 27.71875 55.289062 27.710938 C 55.277344 27.679688 55.300781 27.738281 55.289062 27.710938 C 55.285156 27.691406 55.277344 27.667969 55.269531 27.648438 C 55.265625 27.628906 55.257812 27.609375 55.253906 27.589844 C 55.25 27.574219 55.242188 27.515625 55.242188 27.539062 C 55.246094 27.558594 55.242188 27.503906 55.242188 27.496094 C 55.242188 27.472656 55.242188 27.453125 55.242188 27.433594 C 55.242188 27.378906 55.253906 27.332031 55.273438 27.273438 C 55.3125 27.167969 55.371094 27.09375 55.441406 27.027344 C 55.457031 27.007812 55.476562 26.992188 55.496094 26.972656 C 55.523438 26.949219 55.46875 26.988281 55.511719 26.960938 C 55.53125 26.949219 55.546875 26.9375 55.566406 26.925781 C 55.597656 26.90625 55.632812 26.890625 55.667969 26.875 C 55.695312 26.859375 55.636719 26.886719 55.664062 26.875 C 55.671875 26.871094 55.679688 26.867188 55.6875 26.867188 C 55.707031 26.859375 55.730469 26.851562 55.75 26.84375 C 55.789062 26.832031 55.828125 26.824219 55.871094 26.816406 C 55.890625 26.808594 55.917969 26.804688 55.941406 26.800781 C 55.898438 26.808594 55.960938 26.800781 55.976562 26.796875 C 56.410156 26.757812 56.808594 26.863281 57.226562 27.011719 C 57.753906 27.195312 58.253906 27.457031 58.730469 27.746094 C 59.65625 28.308594 60.488281 29 61.222656 29.792969 C 61.53125 30.128906 61.824219 30.464844 62.054688 30.859375 C 62.164062 31.042969 62.230469 31.171875 62.269531 31.378906 C 62.261719 31.34375 62.269531 31.375 62.269531 31.390625 C 62.273438 31.414062 62.273438 31.433594 62.273438 31.457031 C 62.273438 31.464844 62.265625 31.523438 62.269531 31.488281 C 62.273438 31.457031 62.261719 31.519531 62.257812 31.527344 C 62.25 31.574219 62.273438 31.511719 62.257812 31.539062 C 62.246094 31.554688 62.238281 31.566406 62.230469 31.582031 C 62.210938 31.621094 62.253906 31.566406 62.226562 31.585938 C 62.214844 31.597656 62.203125 31.613281 62.1875 31.625 C 62.21875 31.597656 62.199219 31.617188 62.179688 31.628906 C 62.164062 31.636719 62.148438 31.644531 62.136719 31.652344 C 62.105469 31.667969 62.164062 31.644531 62.121094 31.660156 C 62.097656 31.664062 62.074219 31.675781 62.050781 31.679688 C 62.03125 31.683594 62.011719 31.691406 61.988281 31.691406 C 61.980469 31.695312 61.921875 31.703125 61.960938 31.699219 C 61.910156 31.707031 61.855469 31.710938 61.804688 31.710938 C 61.539062 31.726562 61.269531 31.699219 61.003906 31.671875 C 60.410156 31.609375 59.816406 31.542969 59.230469 31.441406 C 57.945312 31.214844 56.699219 30.738281 55.625 29.992188 C 55.128906 29.644531 54.703125 29.195312 54.367188 28.691406 C 54.066406 28.238281 53.894531 27.742188 53.953125 27.191406 C 53.957031 27.148438 53.953125 27.191406 53.957031 27.152344 C 53.960938 27.125 53.96875 27.097656 53.972656 27.070312 C 53.984375 27 54.003906 26.933594 54.019531 26.871094 C 54.0625 26.726562 54.117188 26.597656 54.199219 26.472656 C 54.292969 26.328125 54.449219 26.191406 54.613281 26.097656 C 55.003906 25.867188 55.496094 25.789062 55.957031 25.777344 C 57.066406 25.746094 58.210938 26.050781 59.171875 26.601562 C 59.636719 26.863281 60.070312 27.179688 60.464844 27.539062 C 60.875 27.914062 61.246094 28.335938 61.503906 28.832031 C 61.738281 29.277344 61.855469 29.785156 61.75 30.277344 C 61.621094 30.863281 61.230469 31.371094 60.75 31.710938 C 60.203125 32.097656 59.558594 32.265625 58.894531 32.171875 C 58.253906 32.082031 57.609375 31.867188 57.03125 31.574219 C 56.460938 31.285156 55.933594 30.910156 55.472656 30.457031 C 55.359375 30.34375 55.25 30.222656 55.144531 30.101562 C 55.097656 30.050781 55.007812 29.976562 54.984375 29.910156 C 55 29.953125 55.015625 29.953125 54.988281 29.914062 C 54.921875 29.804688 54.855469 29.691406 54.796875 29.574219 C 54.601562 29.191406 54.445312 28.808594 54.371094 28.371094 C 54.34375 28.203125 54.34375 27.984375 54.398438 27.816406 C 54.402344 27.804688 54.421875 27.753906 54.414062 27.769531 C 54.410156 27.78125 54.433594 27.730469 54.4375 27.722656 C 54.449219 27.703125 54.460938 27.683594 54.472656 27.664062 C 54.496094 27.628906 54.472656 27.660156 54.5 27.632812 C 54.515625 27.617188 54.527344 27.601562 54.542969 27.585938 C 54.554688 27.578125 54.59375 27.546875 54.578125 27.554688 C 54.566406 27.566406 54.609375 27.535156 54.617188 27.53125 C 54.636719 27.515625 54.660156 27.503906 54.683594 27.492188 C 54.691406 27.488281 54.703125 27.484375 54.714844 27.476562 C 54.710938 27.476562 54.6875 27.488281 54.710938 27.480469 C 54.730469 27.472656 54.75 27.464844 54.773438 27.457031 C 54.824219 27.441406 54.878906 27.425781 54.929688 27.417969 C 54.988281 27.40625 54.980469 27.40625 55.046875 27.402344 C 55.101562 27.398438 55.160156 27.394531 55.214844 27.394531 C 55.464844 27.398438 55.691406 27.433594 55.9375 27.492188 C 56.476562 27.621094 56.996094 27.824219 57.496094 28.070312 C 57.96875 28.304688 58.417969 28.585938 58.832031 28.914062 C 59.238281 29.238281 59.675781 29.613281 59.910156 30.085938 C 59.9375 30.140625 59.9375 30.136719 59.957031 30.195312 C 59.960938 30.214844 59.96875 30.238281 59.972656 30.261719 C 59.976562 30.269531 59.976562 30.277344 59.980469 30.289062 C 59.980469 30.289062 59.988281 30.34375 59.988281 30.316406 C 59.984375 30.292969 59.988281 30.347656 59.988281 30.359375 C 59.988281 30.378906 59.988281 30.398438 59.984375 30.421875 C 59.984375 30.453125 59.992188 30.386719 59.984375 30.414062 C 59.984375 30.421875 59.984375 30.429688 59.980469 30.441406 C 59.96875 30.46875 59.972656 30.46875 59.957031 30.496094 C 59.90625 30.59375 59.796875 30.652344 59.703125 30.699219 C 59.664062 30.71875 59.652344 30.722656 59.59375 30.742188 C 59.542969 30.757812 59.492188 30.769531 59.441406 30.78125 C 59.398438 30.789062 59.433594 30.78125 59.402344 30.785156 C 59.378906 30.789062 59.351562 30.789062 59.328125 30.789062 C 59.273438 30.792969 59.214844 30.792969 59.15625 30.789062 C 59.058594 30.78125 58.988281 30.765625 58.871094 30.738281 C 58.644531 30.683594 58.425781 30.601562 58.207031 30.507812 C 57.511719 30.214844 56.417969 29.523438 55.734375 30.238281 C 55.394531 30.597656 55.234375 31.183594 55.28125 31.671875 C 55.339844 32.339844 55.617188 33.042969 55.316406 33.691406 C 55.089844 34.179688 54.652344 34.542969 54.125 34.648438 C 54.015625 34.671875 53.953125 34.800781 53.980469 34.90625 C 54.011719 35.019531 54.125 35.070312 54.234375 35.050781 Z M 54.234375 35.050781 " fill-opacity="1" fill-rule="nonzero"/></g></svg>