<svg xmlns="http://www.w3.org/2000/svg" xmlns:xlink="http://www.w3.org/1999/xlink" width="500" zoomAndPan="magnify" viewBox="0 0 375 112.499997" height="150" preserveAspectRatio="xMidYMid meet" version="1.0"><defs><g/></defs><g fill="#013b6f" fill-opacity="1"><g transform="translate(0.841481, 77.869518)"><g><path d="M 24.609375 -45.21875 L 33.265625 -45.21875 C 35.972656 -45.21875 38.09375 -45.207031 39.625 -45.1875 C 41.15625 -45.164062 42.117188 -45.128906 42.515625 -45.078125 C 43.265625 -44.972656 43.898438 -44.894531 44.421875 -44.84375 C 44.953125 -44.800781 45.367188 -44.726562 45.671875 -44.625 C 46.578125 -44.425781 47.28125 -43.625 47.78125 -42.21875 C 47.882812 -42.019531 47.957031 -41.742188 48 -41.390625 C 48.050781 -41.035156 48.078125 -40.671875 48.078125 -40.296875 C 48.078125 -39.921875 48.078125 -39.554688 48.078125 -39.203125 C 48.078125 -38.847656 48.03125 -38.597656 47.9375 -38.453125 C 47.78125 -37.546875 47.300781 -36.78125 46.5 -36.15625 C 45.695312 -35.53125 44.769531 -35.03125 43.71875 -34.65625 C 42.664062 -34.28125 41.585938 -34.003906 40.484375 -33.828125 C 39.378906 -33.648438 38.425781 -33.535156 37.625 -33.484375 C 36.625 -33.429688 35.742188 -33.359375 34.984375 -33.265625 C 34.429688 -33.160156 34.09375 -33.054688 33.96875 -32.953125 C 33.84375 -32.859375 33.707031 -32.609375 33.5625 -32.203125 C 33.507812 -32.003906 33.457031 -31.476562 33.40625 -30.625 C 33.351562 -29.769531 33.328125 -28.664062 33.328125 -27.3125 C 33.328125 -25.957031 33.328125 -24.375 33.328125 -22.5625 C 33.328125 -20.757812 33.328125 -18.804688 33.328125 -16.703125 L 33.484375 -5.109375 L 33.265625 -4.296875 C 33.015625 -3.585938 32.75 -2.90625 32.46875 -2.25 C 32.195312 -1.601562 31.804688 -1.003906 31.296875 -0.453125 C 30.953125 -0.046875 30.503906 0.253906 29.953125 0.453125 C 29.398438 0.648438 28.722656 0.828125 27.921875 0.984375 C 25.804688 1.179688 23.695312 0.976562 21.59375 0.375 C 19.332031 -0.425781 17.976562 -2.054688 17.53125 -4.515625 C 17.382812 -5.671875 17.535156 -7.878906 17.984375 -11.140625 C 18.285156 -12.796875 18.4375 -14.828125 18.4375 -17.234375 C 18.539062 -17.929688 18.601562 -18.867188 18.625 -20.046875 C 18.644531 -21.234375 18.632812 -22.628906 18.59375 -24.234375 C 18.59375 -25.035156 18.578125 -25.835938 18.546875 -26.640625 C 18.523438 -27.441406 18.515625 -28.164062 18.515625 -28.8125 C 18.515625 -29.46875 18.5 -30.019531 18.46875 -30.46875 C 18.445312 -30.925781 18.4375 -31.203125 18.4375 -31.296875 C 18.28125 -31.847656 17.9375 -32.210938 17.40625 -32.390625 C 16.882812 -32.566406 15.773438 -32.65625 14.078125 -32.65625 C 9.753906 -32.65625 6.765625 -32.90625 5.109375 -33.40625 C 3.753906 -33.8125 2.835938 -34.648438 2.359375 -35.921875 C 1.890625 -37.203125 1.65625 -38.472656 1.65625 -39.734375 C 1.65625 -40.429688 1.691406 -41.039062 1.765625 -41.5625 C 1.835938 -42.09375 2 -42.585938 2.25 -43.046875 C 2.40625 -43.390625 2.59375 -43.648438 2.8125 -43.828125 C 3.039062 -44.003906 3.28125 -44.144531 3.53125 -44.25 C 3.988281 -44.34375 4.617188 -44.414062 5.421875 -44.46875 C 6.222656 -44.519531 7.25 -44.570312 8.5 -44.625 C 9.507812 -44.726562 10.414062 -44.78125 11.21875 -44.78125 C 12.019531 -44.78125 12.71875 -44.800781 13.3125 -44.84375 C 13.863281 -44.894531 14.476562 -44.921875 15.15625 -44.921875 C 15.832031 -44.921875 16.597656 -44.945312 17.453125 -45 C 19.265625 -45.101562 21.648438 -45.175781 24.609375 -45.21875 Z M 24.609375 -45.21875 "/></g></g></g><g fill="#013b6f" fill-opacity="1"><g transform="translate(50.504957, 77.869518)"><g><path d="M 8.421875 -27.765625 C 9.429688 -27.765625 10.5625 -27.703125 11.8125 -27.578125 C 13.070312 -27.453125 14.101562 -26.988281 14.90625 -26.1875 L 15.125 -25.890625 L 15.953125 -26.03125 C 16.097656 -26.082031 16.332031 -26.15625 16.65625 -26.25 C 16.988281 -26.351562 17.359375 -26.457031 17.765625 -26.5625 C 19.265625 -27.164062 20.515625 -27.46875 21.515625 -27.46875 C 22.472656 -27.46875 23.050781 -27.414062 23.25 -27.3125 C 24.507812 -27.113281 25.3125 -26.847656 25.65625 -26.515625 C 26.007812 -26.191406 26.285156 -25.628906 26.484375 -24.828125 C 26.640625 -24.023438 26.539062 -23.046875 26.1875 -21.890625 L 26.03125 -21.296875 L 25.4375 -21 C 24.726562 -20.695312 24.085938 -20.441406 23.515625 -20.234375 C 22.941406 -20.035156 22.378906 -19.835938 21.828125 -19.640625 C 21.617188 -19.585938 21.226562 -19.460938 20.65625 -19.265625 C 20.082031 -19.066406 19.476562 -18.835938 18.84375 -18.578125 C 18.21875 -18.328125 17.640625 -18.085938 17.109375 -17.859375 C 16.585938 -17.640625 16.273438 -17.476562 16.171875 -17.375 C 16.222656 -17.332031 16.171875 -17.046875 16.015625 -16.515625 C 15.867188 -15.992188 15.773438 -15.226562 15.734375 -14.21875 C 15.679688 -13.71875 15.664062 -13.003906 15.6875 -12.078125 C 15.71875 -11.148438 15.734375 -9.984375 15.734375 -8.578125 C 15.773438 -6.867188 15.757812 -5.535156 15.6875 -4.578125 C 15.613281 -3.628906 15.523438 -2.90625 15.421875 -2.40625 C 15.117188 -1.207031 14.515625 -0.40625 13.609375 0 C 12.710938 0.40625 11.6875 0.609375 10.53125 0.609375 C 9.675781 0.609375 8.847656 0.566406 8.046875 0.484375 C 7.242188 0.410156 6.515625 0.238281 5.859375 -0.03125 C 5.210938 -0.3125 4.648438 -0.726562 4.171875 -1.28125 C 3.703125 -1.832031 3.390625 -2.582031 3.234375 -3.53125 C 3.128906 -3.882812 3.066406 -4.472656 3.046875 -5.296875 C 3.023438 -6.128906 3.035156 -7.273438 3.078125 -8.734375 C 3.078125 -9.585938 3.078125 -10.488281 3.078125 -11.4375 C 3.078125 -12.394531 3.128906 -13.445312 3.234375 -14.59375 C 3.335938 -17.8125 3.398438 -20.285156 3.421875 -22.015625 C 3.453125 -23.742188 3.515625 -24.734375 3.609375 -24.984375 C 3.804688 -25.679688 4.082031 -26.164062 4.4375 -26.4375 C 4.789062 -26.71875 5.46875 -27.007812 6.46875 -27.3125 C 7.019531 -27.5625 7.671875 -27.710938 8.421875 -27.765625 Z M 8.421875 -27.765625 "/></g></g></g><g fill="#013b6f" fill-opacity="1"><g transform="translate(77.669375, 77.869518)"><g><path d="M 16.25 -27.609375 C 17.257812 -27.609375 18.175781 -27.445312 19 -27.125 C 19.832031 -26.800781 20.671875 -26.363281 21.515625 -25.8125 L 22.5 -25.359375 L 23.171875 -25.96875 C 24.222656 -26.769531 25.65625 -27.171875 27.46875 -27.171875 C 28.019531 -27.171875 28.617188 -27.128906 29.265625 -27.046875 C 29.921875 -26.972656 30.550781 -26.847656 31.15625 -26.671875 C 31.757812 -26.492188 32.3125 -26.226562 32.8125 -25.875 C 33.3125 -25.53125 33.660156 -25.054688 33.859375 -24.453125 C 33.910156 -24.304688 33.9375 -21.722656 33.9375 -16.703125 C 33.9375 -10.128906 34.035156 -6.644531 34.234375 -6.25 C 34.390625 -6.039062 34.492188 -5.160156 34.546875 -3.609375 L 34.609375 -1.359375 L 34.234375 -1.125 C 33.585938 -0.519531 32.722656 -0.0195312 31.640625 0.375 C 30.566406 0.78125 29.578125 0.984375 28.671875 0.984375 C 27.515625 0.984375 26.707031 0.804688 26.25 0.453125 C 25.800781 0.0976562 25.28125 -0.578125 24.6875 -1.578125 C 24.476562 -1.878906 24.25 -2.21875 24 -2.59375 C 23.75 -2.96875 23.425781 -3.40625 23.03125 -3.90625 C 22.875 -4.113281 22.625 -4.21875 22.28125 -4.21875 C 21.726562 -4.113281 21 -3.8125 20.09375 -3.3125 C 19.34375 -2.8125 18.691406 -2.410156 18.140625 -2.109375 C 17.585938 -1.804688 17.132812 -1.554688 16.78125 -1.359375 C 16.226562 -1.109375 15.660156 -0.894531 15.078125 -0.71875 C 14.503906 -0.539062 13.941406 -0.375 13.390625 -0.21875 C 13.140625 -0.175781 12.863281 -0.140625 12.5625 -0.109375 C 12.257812 -0.0859375 11.957031 -0.078125 11.65625 -0.078125 C 9.5 -0.078125 7.804688 -0.710938 6.578125 -1.984375 C 5.347656 -3.265625 4.359375 -4.859375 3.609375 -6.765625 C 2.910156 -8.671875 2.472656 -10.628906 2.296875 -12.640625 C 2.117188 -14.648438 2.28125 -16.734375 2.78125 -18.890625 C 3.082031 -20.296875 3.707031 -21.535156 4.65625 -22.609375 C 5.613281 -23.691406 6.742188 -24.609375 8.046875 -25.359375 C 9.359375 -26.109375 10.738281 -26.671875 12.1875 -27.046875 C 13.644531 -27.421875 15 -27.609375 16.25 -27.609375 Z M 22.125 -18.890625 C 22.019531 -18.984375 21.316406 -18.804688 20.015625 -18.359375 C 16.148438 -17.203125 13.867188 -16.273438 13.171875 -15.578125 C 12.316406 -14.867188 11.890625 -13.691406 11.890625 -12.046875 C 11.992188 -9.628906 12.597656 -8.195312 13.703125 -7.75 C 13.953125 -7.644531 14.222656 -7.59375 14.515625 -7.59375 C 14.816406 -7.59375 15.09375 -7.59375 15.34375 -7.59375 C 16.445312 -7.59375 17.585938 -7.894531 18.765625 -8.5 C 19.953125 -9.101562 20.972656 -9.753906 21.828125 -10.453125 L 22.578125 -11.0625 L 22.578125 -12.109375 C 22.578125 -13.015625 22.550781 -13.914062 22.5 -14.8125 C 22.445312 -15.71875 22.375 -16.675781 22.28125 -17.6875 C 22.226562 -17.882812 22.203125 -18.054688 22.203125 -18.203125 C 22.203125 -18.359375 22.175781 -18.488281 22.125 -18.59375 C 22.125 -18.6875 22.125 -18.785156 22.125 -18.890625 Z M 22.125 -18.890625 "/></g></g></g><g fill="#013b6f" fill-opacity="1"><g transform="translate(115.368471, 77.869518)"><g><path d="M 5.875 -28.515625 C 6.175781 -28.671875 6.726562 -28.671875 7.53125 -28.515625 C 9.632812 -28.460938 11.414062 -27.9375 12.875 -26.9375 C 13.070312 -26.789062 13.207031 -26.675781 13.28125 -26.59375 C 13.351562 -26.519531 13.441406 -26.484375 13.546875 -26.484375 C 13.648438 -26.484375 13.773438 -26.507812 13.921875 -26.5625 C 14.066406 -26.613281 14.289062 -26.6875 14.59375 -26.78125 C 15.851562 -27.1875 17.1875 -27.515625 18.59375 -27.765625 C 18.9375 -27.816406 19.347656 -27.851562 19.828125 -27.875 C 20.304688 -27.90625 20.820312 -27.921875 21.375 -27.921875 C 22.070312 -27.921875 22.742188 -27.878906 23.390625 -27.796875 C 24.046875 -27.722656 24.675781 -27.640625 25.28125 -27.546875 C 27.59375 -26.941406 29.222656 -25.710938 30.171875 -23.859375 C 30.421875 -23.503906 30.644531 -23.097656 30.84375 -22.640625 C 31.050781 -22.191406 31.226562 -21.644531 31.375 -21 C 31.53125 -20.539062 31.628906 -20.132812 31.671875 -19.78125 C 31.722656 -19.4375 31.773438 -19.113281 31.828125 -18.8125 C 31.878906 -18.257812 31.96875 -17.734375 32.09375 -17.234375 C 32.21875 -16.734375 32.253906 -16.054688 32.203125 -15.203125 C 32.054688 -12.492188 31.992188 -10.285156 32.015625 -8.578125 C 32.046875 -6.867188 31.984375 -5.664062 31.828125 -4.96875 C 31.734375 -4.257812 31.582031 -3.566406 31.375 -2.890625 C 31.175781 -2.210938 30.910156 -1.609375 30.578125 -1.078125 C 30.253906 -0.554688 29.816406 -0.132812 29.265625 0.1875 C 28.710938 0.507812 28.035156 0.671875 27.234375 0.671875 C 26.734375 0.671875 26.179688 0.597656 25.578125 0.453125 C 25.285156 0.296875 24.875 0.144531 24.34375 0 C 23.8125 -0.144531 23.445312 -0.394531 23.25 -0.75 C 23.15625 -1 23.03125 -1.300781 22.875 -1.65625 C 22.726562 -2.007812 22.628906 -2.410156 22.578125 -2.859375 C 22.523438 -3.265625 22.507812 -3.96875 22.53125 -4.96875 C 22.5625 -5.96875 22.601562 -7.269531 22.65625 -8.875 C 22.65625 -10.28125 22.65625 -11.472656 22.65625 -12.453125 C 22.65625 -13.429688 22.640625 -14.285156 22.609375 -15.015625 C 22.585938 -15.742188 22.523438 -16.34375 22.421875 -16.8125 C 22.328125 -17.289062 22.175781 -17.734375 21.96875 -18.140625 C 21.71875 -18.691406 21.429688 -19.050781 21.109375 -19.21875 C 20.785156 -19.394531 20.269531 -19.507812 19.5625 -19.5625 C 18.707031 -19.5625 17.804688 -19.363281 16.859375 -18.96875 C 16.398438 -18.71875 15.957031 -18.460938 15.53125 -18.203125 C 15.113281 -17.953125 14.773438 -17.675781 14.515625 -17.375 L 14.078125 -17.15625 L 14.078125 -2.25 L 13.921875 -1.8125 C 13.671875 -1.207031 13.21875 -0.726562 12.5625 -0.375 C 12.113281 -0.0703125 11.550781 0.140625 10.875 0.265625 C 10.195312 0.390625 9.554688 0.453125 8.953125 0.453125 C 7.648438 0.453125 6.429688 0.253906 5.296875 -0.140625 C 4.171875 -0.546875 3.429688 -1.476562 3.078125 -2.9375 C 3.035156 -3.1875 3.015625 -3.847656 3.015625 -4.921875 C 3.015625 -6.003906 3.015625 -7.597656 3.015625 -9.703125 C 3.015625 -11.765625 3.015625 -13.421875 3.015625 -14.671875 C 3.015625 -15.929688 3.035156 -16.832031 3.078125 -17.375 C 3.179688 -17.882812 3.234375 -18.539062 3.234375 -19.34375 C 3.234375 -20.144531 3.257812 -21.125 3.3125 -22.28125 C 3.363281 -23.632812 3.410156 -24.722656 3.453125 -25.546875 C 3.503906 -26.367188 3.582031 -26.910156 3.6875 -27.171875 C 3.789062 -27.316406 3.878906 -27.453125 3.953125 -27.578125 C 4.023438 -27.703125 4.113281 -27.816406 4.21875 -27.921875 C 4.5625 -28.265625 5.113281 -28.460938 5.875 -28.515625 Z M 5.875 -28.515625 "/></g></g></g><g fill="#013b6f" fill-opacity="1"><g transform="translate(150.659641, 77.869518)"><g><path d="M 14.21875 -27.6875 L 17.078125 -27.6875 C 17.785156 -27.6875 18.414062 -27.660156 18.96875 -27.609375 C 19.519531 -27.566406 19.984375 -27.429688 20.359375 -27.203125 C 20.734375 -26.972656 21.019531 -26.632812 21.21875 -26.1875 C 21.414062 -25.738281 21.539062 -25.113281 21.59375 -24.3125 L 21.671875 -23.109375 L 22.125 -23.703125 C 22.570312 -24.253906 23.070312 -24.601562 23.625 -24.75 C 24.175781 -24.90625 24.804688 -24.984375 25.515625 -24.984375 C 26.160156 -24.984375 26.742188 -24.921875 27.265625 -24.796875 C 27.796875 -24.671875 28.316406 -24.484375 28.828125 -24.234375 C 29.671875 -23.734375 30.296875 -23.128906 30.703125 -22.421875 C 31.003906 -21.867188 31.21875 -20.773438 31.34375 -19.140625 C 31.46875 -17.515625 31.582031 -15.296875 31.6875 -12.484375 C 31.726562 -10.835938 31.722656 -9.25 31.671875 -7.71875 C 31.628906 -6.1875 31.53125 -4.640625 31.375 -3.078125 C 31.28125 -2.078125 31.21875 -1.222656 31.1875 -0.515625 C 31.164062 0.179688 31.128906 0.804688 31.078125 1.359375 C 30.972656 1.953125 30.921875 2.453125 30.921875 2.859375 C 30.921875 3.265625 30.898438 3.539062 30.859375 3.6875 C 30.804688 3.9375 30.78125 4.3125 30.78125 4.8125 C 30.78125 5.3125 30.753906 5.941406 30.703125 6.703125 C 30.648438 8.554688 30.585938 10.007812 30.515625 11.0625 C 30.441406 12.113281 30.351562 12.738281 30.25 12.9375 C 30.25 13.09375 30.046875 13.269531 29.640625 13.46875 C 29.242188 13.664062 28.867188 13.816406 28.515625 13.921875 C 27.160156 14.367188 25.804688 14.59375 24.453125 14.59375 C 23.597656 14.59375 22.671875 14.476562 21.671875 14.25 C 20.671875 14.03125 19.96875 13.492188 19.5625 12.640625 C 18.914062 11.441406 18.664062 9.382812 18.8125 6.46875 C 18.914062 5.019531 18.976562 3.84375 19 2.9375 C 19.019531 2.03125 19.007812 1.398438 18.96875 1.046875 C 18.96875 0.898438 18.953125 0.773438 18.921875 0.671875 C 18.898438 0.578125 18.773438 0.515625 18.546875 0.484375 C 18.316406 0.460938 17.953125 0.453125 17.453125 0.453125 C 16.953125 0.453125 16.25 0.453125 15.34375 0.453125 C 13.34375 0.453125 12.113281 0.375 11.65625 0.21875 C 10.507812 0.0195312 9.367188 -0.425781 8.234375 -1.125 C 7.109375 -1.832031 6.082031 -2.6875 5.15625 -3.6875 C 4.226562 -4.6875 3.4375 -5.785156 2.78125 -6.984375 C 2.132812 -8.191406 1.707031 -9.347656 1.5 -10.453125 C 1.351562 -11.710938 1.40625 -12.84375 1.65625 -13.84375 C 1.90625 -15.601562 2.351562 -17.257812 3 -18.8125 C 3.65625 -20.363281 4.507812 -21.765625 5.5625 -23.015625 C 6.625 -24.273438 7.878906 -25.316406 9.328125 -26.140625 C 10.785156 -26.972656 12.414062 -27.488281 14.21875 -27.6875 Z M 21.0625 -19.109375 C 21.0625 -19.960938 21.035156 -20.375 20.984375 -20.34375 C 20.941406 -20.320312 20.867188 -20.210938 20.765625 -20.015625 C 20.367188 -19.410156 19.867188 -19.007812 19.265625 -18.8125 C 19.015625 -18.613281 18.4375 -18.488281 17.53125 -18.4375 C 16.625 -18.28125 15.84375 -18.148438 15.1875 -18.046875 C 14.539062 -17.953125 13.992188 -17.78125 13.546875 -17.53125 C 12.285156 -16.925781 11.507812 -15.648438 11.21875 -13.703125 C 11.164062 -13.191406 11.148438 -12.695312 11.171875 -12.21875 C 11.203125 -11.75 11.265625 -11.265625 11.359375 -10.765625 C 11.816406 -9.203125 12.847656 -8.144531 14.453125 -7.59375 C 14.953125 -7.5 15.550781 -7.453125 16.25 -7.453125 C 17.757812 -7.453125 18.816406 -7.773438 19.421875 -8.421875 C 19.566406 -8.578125 19.710938 -8.867188 19.859375 -9.296875 C 20.015625 -9.722656 20.128906 -10.195312 20.203125 -10.71875 C 20.273438 -11.25 20.347656 -11.773438 20.421875 -12.296875 C 20.503906 -12.828125 20.546875 -13.21875 20.546875 -13.46875 C 20.742188 -14.769531 20.878906 -15.894531 20.953125 -16.84375 C 21.023438 -17.800781 21.0625 -18.554688 21.0625 -19.109375 Z M 21.0625 -19.109375 "/></g></g></g><g fill="#013b6f" fill-opacity="1"><g transform="translate(185.574576, 77.869518)"><g><path d="M 25.890625 -27.46875 C 26.890625 -27.613281 27.84375 -27.613281 28.75 -27.46875 C 29.75 -27.113281 30.597656 -26.632812 31.296875 -26.03125 L 31.828125 -25.8125 L 31.90625 -23.859375 C 31.957031 -23.304688 31.96875 -22.390625 31.9375 -21.109375 C 31.914062 -19.828125 31.90625 -18.207031 31.90625 -16.25 C 31.90625 -14.25 31.890625 -12.671875 31.859375 -11.515625 C 31.835938 -10.359375 31.800781 -9.601562 31.75 -9.25 C 31.707031 -8.65625 31.597656 -7.914062 31.421875 -7.03125 C 31.242188 -6.15625 31.03125 -5.265625 30.78125 -4.359375 C 30.53125 -3.460938 30.203125 -2.648438 29.796875 -1.921875 C 29.398438 -1.191406 28.898438 -0.703125 28.296875 -0.453125 C 27.992188 -0.296875 27.539062 -0.21875 26.9375 -0.21875 C 26.289062 -0.21875 25.738281 -0.296875 25.28125 -0.453125 C 24.28125 -0.753906 23.554688 -1.128906 23.109375 -1.578125 C 23.003906 -1.679688 22.925781 -1.734375 22.875 -1.734375 C 22.820312 -1.785156 22.769531 -1.8125 22.71875 -1.8125 C 22.519531 -1.8125 21.921875 -1.609375 20.921875 -1.203125 C 19.617188 -0.804688 18.328125 -0.457031 17.046875 -0.15625 C 15.765625 0.144531 14.472656 0.296875 13.171875 0.296875 C 12.515625 0.296875 11.722656 0.234375 10.796875 0.109375 C 9.867188 -0.015625 8.960938 -0.226562 8.078125 -0.53125 C 7.203125 -0.832031 6.398438 -1.234375 5.671875 -1.734375 C 4.953125 -2.234375 4.46875 -2.859375 4.21875 -3.609375 C 4.113281 -3.910156 3.984375 -4.347656 3.828125 -4.921875 C 3.679688 -5.503906 3.5625 -6.222656 3.46875 -7.078125 C 3.207031 -8.273438 3.050781 -9.710938 3 -11.390625 C 2.957031 -13.078125 2.984375 -15.050781 3.078125 -17.3125 C 3.179688 -18.5625 3.257812 -19.597656 3.3125 -20.421875 C 3.363281 -21.253906 3.414062 -21.894531 3.46875 -22.34375 C 3.5625 -23.351562 3.679688 -24.179688 3.828125 -24.828125 C 3.984375 -25.484375 4.113281 -25.882812 4.21875 -26.03125 C 4.363281 -26.238281 4.613281 -26.414062 4.96875 -26.5625 C 5.320312 -26.707031 5.722656 -26.84375 6.171875 -26.96875 C 6.617188 -27.101562 7.054688 -27.191406 7.484375 -27.234375 C 7.910156 -27.285156 8.25 -27.3125 8.5 -27.3125 C 9.050781 -27.3125 9.585938 -27.25 10.109375 -27.125 C 10.640625 -27 11.15625 -26.785156 11.65625 -26.484375 C 12.007812 -26.285156 12.410156 -26.082031 12.859375 -25.875 C 13.316406 -25.675781 13.597656 -25.40625 13.703125 -25.0625 L 13.84375 -24.609375 L 13.84375 -13.46875 C 13.84375 -10.8125 13.867188 -9.40625 13.921875 -9.25 C 14.023438 -8.75 14.328125 -8.425781 14.828125 -8.28125 C 15.429688 -8.125 16.054688 -8.046875 16.703125 -8.046875 C 17.503906 -8.046875 18.242188 -8.132812 18.921875 -8.3125 C 19.597656 -8.488281 20.289062 -8.800781 21 -9.25 L 21.59375 -9.703125 L 21.75 -10.390625 C 21.800781 -10.890625 21.863281 -11.773438 21.9375 -13.046875 C 22.007812 -14.328125 22.070312 -16 22.125 -18.0625 C 22.125 -19.96875 22.148438 -21.421875 22.203125 -22.421875 C 22.253906 -23.421875 22.300781 -24.050781 22.34375 -24.3125 C 22.445312 -24.707031 22.546875 -25.082031 22.640625 -25.4375 C 22.742188 -25.789062 22.875 -26.09375 23.03125 -26.34375 C 23.125 -26.539062 23.367188 -26.710938 23.765625 -26.859375 C 24.171875 -27.015625 24.578125 -27.140625 24.984375 -27.234375 C 25.128906 -27.285156 25.253906 -27.3125 25.359375 -27.3125 C 25.460938 -27.3125 25.640625 -27.363281 25.890625 -27.46875 Z M 25.890625 -27.46875 "/></g></g></g><g fill="#013b6f" fill-opacity="1"><g transform="translate(220.640014, 77.869518)"><g><path d="M 8.796875 -41.609375 C 9.804688 -41.609375 10.800781 -41.382812 11.78125 -40.9375 C 12.757812 -40.488281 13.597656 -39.910156 14.296875 -39.203125 C 14.441406 -38.953125 14.566406 -38.660156 14.671875 -38.328125 C 14.773438 -38.003906 14.898438 -37.566406 15.046875 -37.015625 C 15.097656 -36.765625 15.125 -36.523438 15.125 -36.296875 C 15.125 -36.078125 15.125 -35.769531 15.125 -35.375 L 15.125 -34.390625 L 14.75 -33.859375 C 14.394531 -33.304688 13.96875 -32.816406 13.46875 -32.390625 C 12.96875 -31.960938 12.363281 -31.675781 11.65625 -31.53125 C 11.257812 -31.375 10.820312 -31.269531 10.34375 -31.21875 C 9.863281 -31.175781 9.347656 -31.15625 8.796875 -31.15625 C 7.648438 -31.15625 6.695312 -31.601562 5.9375 -32.5 C 5.1875 -33.40625 4.660156 -34.363281 4.359375 -35.375 C 4.054688 -36.375 4.035156 -37.398438 4.296875 -38.453125 C 4.640625 -39.609375 5.1875 -40.421875 5.9375 -40.890625 C 6.695312 -41.367188 7.648438 -41.609375 8.796875 -41.609375 Z M 6.625 -27.171875 C 7.019531 -27.210938 7.519531 -27.242188 8.125 -27.265625 C 8.726562 -27.296875 9.304688 -27.3125 9.859375 -27.3125 C 10.210938 -27.3125 10.523438 -27.3125 10.796875 -27.3125 C 11.078125 -27.3125 11.316406 -27.265625 11.515625 -27.171875 C 12.367188 -26.960938 12.984375 -26.707031 13.359375 -26.40625 C 13.734375 -26.113281 14.046875 -25.585938 14.296875 -24.828125 C 14.398438 -24.578125 14.453125 -23.75 14.453125 -22.34375 C 14.453125 -20.945312 14.453125 -18.914062 14.453125 -16.25 C 14.453125 -13.59375 14.4375 -11.421875 14.40625 -9.734375 C 14.382812 -8.054688 14.347656 -6.867188 14.296875 -6.171875 C 14.191406 -5.421875 14.085938 -4.707031 13.984375 -4.03125 C 13.890625 -3.351562 13.71875 -2.738281 13.46875 -2.1875 C 13.164062 -1.332031 12.585938 -0.78125 11.734375 -0.53125 C 10.878906 -0.28125 10.050781 -0.15625 9.25 -0.15625 C 7 -0.15625 5.472656 -0.59375 4.671875 -1.46875 C 3.867188 -2.34375 3.316406 -3.832031 3.015625 -5.9375 C 2.859375 -7.5 2.859375 -8.804688 3.015625 -9.859375 C 3.054688 -10.160156 3.085938 -10.609375 3.109375 -11.203125 C 3.140625 -11.804688 3.207031 -12.5625 3.3125 -13.46875 C 3.363281 -14.425781 3.390625 -15.15625 3.390625 -15.65625 C 3.390625 -16.15625 3.414062 -16.53125 3.46875 -16.78125 C 3.507812 -17.03125 3.53125 -18.054688 3.53125 -19.859375 C 3.582031 -21.117188 3.632812 -22.132812 3.6875 -22.90625 C 3.738281 -23.6875 3.835938 -24.28125 3.984375 -24.6875 C 4.234375 -25.382812 4.632812 -26.007812 5.1875 -26.5625 L 5.71875 -27.09375 Z M 6.625 -27.171875 "/></g></g></g><g fill="#013b6f" fill-opacity="1"><g transform="translate(238.699466, 77.869518)"><g><path d="M 8.578125 -46.359375 L 9.703125 -46.359375 C 10.304688 -46.304688 10.847656 -46.203125 11.328125 -46.046875 C 11.804688 -45.898438 12.242188 -45.625 12.640625 -45.21875 C 13.296875 -44.625 13.820312 -43.421875 14.21875 -41.609375 C 14.269531 -41.304688 14.320312 -40.703125 14.375 -39.796875 C 14.425781 -38.898438 14.453125 -37.695312 14.453125 -36.1875 L 14.453125 -30.03125 C 14.347656 -27.320312 14.296875 -24.925781 14.296875 -22.84375 C 14.296875 -20.757812 14.320312 -18.988281 14.375 -17.53125 C 14.425781 -16.976562 14.453125 -16.453125 14.453125 -15.953125 C 14.453125 -15.453125 14.453125 -14.953125 14.453125 -14.453125 C 14.398438 -13.953125 14.359375 -13.171875 14.328125 -12.109375 C 14.304688 -11.054688 14.296875 -9.703125 14.296875 -8.046875 L 14.296875 -2.78125 C 14.191406 -2.082031 13.914062 -1.53125 13.46875 -1.125 C 13.019531 -0.519531 12.476562 -0.0703125 11.84375 0.21875 C 11.21875 0.519531 10.40625 0.671875 9.40625 0.671875 C 8.5 0.628906 7.71875 0.476562 7.0625 0.21875 C 6.414062 -0.03125 5.816406 -0.378906 5.265625 -0.828125 C 4.867188 -1.234375 4.519531 -1.671875 4.21875 -2.140625 C 3.914062 -2.617188 3.710938 -3.1875 3.609375 -3.84375 C 3.515625 -4.238281 3.441406 -5.488281 3.390625 -7.59375 C 3.335938 -8.695312 3.320312 -9.710938 3.34375 -10.640625 C 3.375 -11.578125 3.390625 -12.46875 3.390625 -13.3125 C 3.390625 -14.414062 3.410156 -15.53125 3.453125 -16.65625 C 3.503906 -17.789062 3.53125 -18.988281 3.53125 -20.25 C 3.582031 -21.695312 3.617188 -22.882812 3.640625 -23.8125 C 3.671875 -24.738281 3.6875 -25.457031 3.6875 -25.96875 C 3.6875 -26.363281 3.6875 -26.8125 3.6875 -27.3125 C 3.6875 -27.8125 3.738281 -28.335938 3.84375 -28.890625 L 3.84375 -36.875 C 3.882812 -40.382812 4.082031 -42.59375 4.4375 -43.5 C 4.539062 -43.894531 4.65625 -44.28125 4.78125 -44.65625 C 4.90625 -45.03125 5.117188 -45.367188 5.421875 -45.671875 L 5.640625 -46.046875 L 6.921875 -46.203125 C 7.222656 -46.253906 7.472656 -46.28125 7.671875 -46.28125 C 7.867188 -46.28125 8.046875 -46.28125 8.203125 -46.28125 C 8.347656 -46.332031 8.472656 -46.359375 8.578125 -46.359375 Z M 8.578125 -46.359375 "/></g></g></g><g fill="#013b6f" fill-opacity="1"><g transform="translate(256.382683, 77.869518)"><g><path d="M 12.796875 -47.484375 C 14.492188 -47.679688 16.070312 -47.429688 17.53125 -46.734375 C 18.789062 -46.078125 19.519531 -45.125 19.71875 -43.875 C 19.96875 -42.914062 20.144531 -40.253906 20.25 -35.890625 C 20.25 -32.378906 20.269531 -30.550781 20.3125 -30.40625 C 20.519531 -29.851562 20.921875 -29.398438 21.515625 -29.046875 C 22.117188 -28.691406 23.25 -28.617188 24.90625 -28.828125 C 26.113281 -28.921875 27.164062 -28.992188 28.0625 -29.046875 C 29.375 -29.148438 30.414062 -29.222656 31.1875 -29.265625 C 31.96875 -29.316406 32.484375 -29.367188 32.734375 -29.421875 C 32.984375 -29.472656 33.457031 -29.535156 34.15625 -29.609375 C 34.863281 -29.679688 35.796875 -29.796875 36.953125 -29.953125 C 38.753906 -30.097656 40.003906 -29.84375 40.703125 -29.1875 C 41.410156 -28.539062 41.816406 -27.441406 41.921875 -25.890625 C 41.921875 -25.179688 41.832031 -24.5625 41.65625 -24.03125 C 41.476562 -23.507812 41.238281 -23.050781 40.9375 -22.65625 C 40.632812 -22.351562 39.832031 -21.972656 38.53125 -21.515625 C 35.769531 -20.765625 32.910156 -20.140625 29.953125 -19.640625 C 26.992188 -19.140625 24.082031 -18.710938 21.21875 -18.359375 L 20.625 -18.28125 L 20.625 -10.609375 L 21.296875 -10.609375 C 23.003906 -10.609375 24.707031 -10.644531 26.40625 -10.71875 C 28.113281 -10.800781 29.820312 -10.890625 31.53125 -10.984375 C 32.832031 -11.179688 34.171875 -11.28125 35.546875 -11.28125 C 36.929688 -11.28125 38.273438 -11.382812 39.578125 -11.59375 C 39.929688 -11.632812 40.257812 -11.65625 40.5625 -11.65625 C 40.863281 -11.65625 41.140625 -11.65625 41.390625 -11.65625 C 41.890625 -11.65625 42.316406 -11.582031 42.671875 -11.4375 C 44.117188 -10.6875 44.820312 -9.15625 44.78125 -6.84375 C 44.675781 -5.6875 44.394531 -4.742188 43.9375 -4.015625 C 43.488281 -3.296875 42.910156 -2.707031 42.203125 -2.25 C 41.503906 -1.800781 40.703125 -1.460938 39.796875 -1.234375 C 38.898438 -1.015625 37.953125 -0.828125 36.953125 -0.671875 C 35.085938 -0.367188 33.328125 -0.144531 31.671875 0 C 30.023438 0.144531 28.445312 0.269531 26.9375 0.375 C 26.1875 0.425781 25.492188 0.453125 24.859375 0.453125 C 24.234375 0.453125 23.648438 0.476562 23.109375 0.53125 C 19.140625 0.78125 15.453125 0.601562 12.046875 0 C 9.585938 -0.5 7.828125 -1.070312 6.765625 -1.71875 C 5.710938 -2.375 5.015625 -3.332031 4.671875 -4.59375 C 4.566406 -5.09375 4.488281 -5.851562 4.4375 -6.875 C 4.382812 -7.90625 4.410156 -9.226562 4.515625 -10.84375 C 4.617188 -13.144531 4.742188 -15.4375 4.890625 -17.71875 C 5.035156 -20 5.210938 -22.296875 5.421875 -24.609375 C 5.566406 -25.859375 5.675781 -27.007812 5.75 -28.0625 C 5.832031 -29.125 5.894531 -30.101562 5.9375 -31 C 5.988281 -31.75 6.050781 -32.597656 6.125 -33.546875 C 6.207031 -34.503906 6.296875 -35.515625 6.390625 -36.578125 C 6.390625 -37.679688 6.441406 -38.796875 6.546875 -39.921875 C 6.648438 -41.046875 6.773438 -42.160156 6.921875 -43.265625 C 7.117188 -44.921875 7.847656 -46.023438 9.109375 -46.578125 C 9.660156 -46.878906 10.25 -47.09375 10.875 -47.21875 C 11.5 -47.34375 12.140625 -47.429688 12.796875 -47.484375 Z M 29.953125 -46.65625 C 30.503906 -46.707031 31.15625 -46.734375 31.90625 -46.734375 C 32.65625 -46.734375 33.554688 -46.734375 34.609375 -46.734375 C 35.617188 -46.734375 36.484375 -46.734375 37.203125 -46.734375 C 37.929688 -46.734375 38.5 -46.707031 38.90625 -46.65625 C 39.851562 -46.601562 40.789062 -46.398438 41.71875 -46.046875 C 42.65625 -45.703125 43.25 -45.003906 43.5 -43.953125 C 43.800781 -42.847656 43.75 -41.617188 43.34375 -40.265625 C 43.039062 -39.109375 42.5625 -38.210938 41.90625 -37.578125 C 41.257812 -36.953125 40.257812 -36.46875 38.90625 -36.125 C 37.75 -35.820312 36.519531 -35.582031 35.21875 -35.40625 C 33.914062 -35.226562 32.535156 -35.140625 31.078125 -35.140625 C 30.472656 -35.140625 29.753906 -35.148438 28.921875 -35.171875 C 28.097656 -35.203125 27.25 -35.28125 26.375 -35.40625 C 25.5 -35.53125 24.679688 -35.71875 23.921875 -35.96875 C 23.171875 -36.21875 22.570312 -36.566406 22.125 -37.015625 C 21.46875 -37.828125 21.164062 -39.082031 21.21875 -40.78125 C 21.320312 -42.59375 21.5 -43.695312 21.75 -44.09375 C 22.144531 -45.050781 23.046875 -45.675781 24.453125 -45.96875 C 25.859375 -46.269531 27.691406 -46.5 29.953125 -46.65625 Z M 29.953125 -46.65625 "/></g></g></g><g fill="#013b6f" fill-opacity="1"><g transform="translate(303.713484, 77.869518)"><g><path d="M 27.6875 -27.6875 C 28.789062 -27.894531 30.019531 -27.695312 31.375 -27.09375 C 32.882812 -26.382812 34.015625 -25.304688 34.765625 -23.859375 C 35.015625 -23.554688 35.140625 -23.128906 35.140625 -22.578125 L 35.140625 -21.828125 L 33.9375 -19.421875 C 33.082031 -17.710938 32.253906 -15.96875 31.453125 -14.1875 C 30.648438 -12.40625 29.796875 -10.5625 28.890625 -8.65625 C 28.140625 -6.894531 26.960938 -4.460938 25.359375 -1.359375 C 24.398438 0.503906 23.773438 1.910156 23.484375 2.859375 C 23.179688 3.460938 22.773438 4.210938 22.265625 5.109375 C 21.765625 6.015625 21.191406 7.046875 20.546875 8.203125 C 20.296875 8.648438 20.046875 9.097656 19.796875 9.546875 C 19.546875 10.003906 19.289062 10.484375 19.03125 10.984375 C 18.738281 11.535156 18.476562 12 18.25 12.375 C 18.019531 12.75 17.789062 13.0625 17.5625 13.3125 C 17.34375 13.570312 17.082031 13.785156 16.78125 13.953125 C 16.476562 14.128906 16.101562 14.316406 15.65625 14.515625 L 14.59375 14.96875 L 12.9375 14.96875 C 11.539062 14.925781 10.664062 14.726562 10.3125 14.375 C 10.113281 14.269531 9.9375 14.21875 9.78125 14.21875 C 9.425781 14.070312 9.046875 13.8125 8.640625 13.4375 C 8.242188 13.0625 7.882812 12.644531 7.5625 12.1875 C 7.238281 11.738281 6.960938 11.265625 6.734375 10.765625 C 6.503906 10.265625 6.34375 9.8125 6.25 9.40625 C 6 8.800781 6 8.175781 6.25 7.53125 C 6.34375 7.125 6.640625 6.429688 7.140625 5.453125 C 7.648438 4.472656 8.351562 3.257812 9.25 1.8125 C 10.15625 0.300781 10.859375 -0.898438 11.359375 -1.796875 C 11.859375 -2.703125 12.132812 -3.28125 12.1875 -3.53125 C 12.1875 -3.53125 12.007812 -3.679688 11.65625 -3.984375 C 10.90625 -4.640625 10.164062 -5.414062 9.4375 -6.3125 C 8.71875 -7.21875 8.03125 -8.273438 7.375 -9.484375 C 6.820312 -10.535156 6.269531 -11.660156 5.71875 -12.859375 C 5.164062 -14.066406 4.585938 -15.375 3.984375 -16.78125 C 3.679688 -17.53125 3.40625 -18.226562 3.15625 -18.875 C 2.90625 -19.53125 2.65625 -20.132812 2.40625 -20.6875 C 2.15625 -21.238281 1.96875 -21.675781 1.84375 -22 C 1.71875 -22.332031 1.628906 -22.570312 1.578125 -22.71875 C 1.378906 -23.425781 1.378906 -24.082031 1.578125 -24.6875 C 1.679688 -25.132812 1.945312 -25.546875 2.375 -25.921875 C 2.800781 -26.296875 3.289062 -26.617188 3.84375 -26.890625 C 4.394531 -27.171875 4.96875 -27.382812 5.5625 -27.53125 C 6.164062 -27.6875 6.695312 -27.765625 7.15625 -27.765625 C 7.695312 -27.765625 8.234375 -27.703125 8.765625 -27.578125 C 9.296875 -27.453125 9.8125 -27.238281 10.3125 -26.9375 C 10.914062 -26.4375 11.914062 -24.582031 13.3125 -21.375 C 15.070312 -17.457031 16.203125 -15.171875 16.703125 -14.515625 C 16.898438 -14.265625 17.132812 -13.976562 17.40625 -13.65625 C 17.6875 -13.332031 17.828125 -13.195312 17.828125 -13.25 C 17.878906 -13.25 18.066406 -13.5625 18.390625 -14.1875 C 18.722656 -14.8125 19.085938 -15.472656 19.484375 -16.171875 C 20.992188 -18.890625 22.195312 -21.0625 23.09375 -22.6875 C 24 -24.320312 24.65625 -25.414062 25.0625 -25.96875 C 25.3125 -26.3125 25.585938 -26.597656 25.890625 -26.828125 C 26.191406 -27.054688 26.488281 -27.269531 26.78125 -27.46875 C 26.9375 -27.519531 27.101562 -27.554688 27.28125 -27.578125 C 27.457031 -27.597656 27.59375 -27.632812 27.6875 -27.6875 Z M 27.6875 -27.6875 "/></g></g></g><g fill="#013b6f" fill-opacity="1"><g transform="translate(340.509606, 77.869518)"><g><path d="M 16.859375 -27.546875 C 19.066406 -27.546875 21.144531 -27.34375 23.09375 -26.9375 C 25.050781 -26.539062 26.882812 -25.585938 28.59375 -24.078125 C 29.445312 -23.273438 30.109375 -22.445312 30.578125 -21.59375 C 31.054688 -20.738281 31.347656 -19.835938 31.453125 -18.890625 C 31.554688 -18.179688 31.566406 -17.515625 31.484375 -16.890625 C 31.410156 -16.265625 31.25 -15.675781 31 -15.125 C 30.5 -13.875 29.695312 -12.992188 28.59375 -12.484375 C 27.988281 -12.191406 27.082031 -11.957031 25.875 -11.78125 C 24.675781 -11.601562 23.398438 -11.472656 22.046875 -11.390625 C 20.691406 -11.316406 19.382812 -11.269531 18.125 -11.25 C 16.875 -11.226562 15.898438 -11.21875 15.203125 -11.21875 C 13.847656 -11.21875 13.046875 -11.191406 12.796875 -11.140625 L 12.421875 -11.0625 L 12.5625 -10.84375 C 12.664062 -10.1875 12.867188 -9.632812 13.171875 -9.1875 C 14.023438 -7.726562 15.929688 -7 18.890625 -7 C 19.285156 -7 19.695312 -7.023438 20.125 -7.078125 C 20.550781 -7.128906 20.941406 -7.203125 21.296875 -7.296875 C 21.648438 -7.398438 22.140625 -7.523438 22.765625 -7.671875 C 23.390625 -7.828125 24.179688 -8.03125 25.140625 -8.28125 C 25.640625 -8.476562 26.078125 -8.585938 26.453125 -8.609375 C 26.828125 -8.640625 27.191406 -8.65625 27.546875 -8.65625 C 27.890625 -8.601562 28.273438 -8.515625 28.703125 -8.390625 C 29.128906 -8.265625 29.570312 -8.101562 30.03125 -7.90625 C 30.175781 -7.800781 30.257812 -7.710938 30.28125 -7.640625 C 30.3125 -7.566406 30.375 -7.503906 30.46875 -7.453125 C 30.46875 -7.398438 30.46875 -7.296875 30.46875 -7.140625 C 30.46875 -6.992188 30.492188 -6.847656 30.546875 -6.703125 C 30.597656 -6.453125 30.648438 -6.25 30.703125 -6.09375 C 30.753906 -5.945312 30.78125 -5.820312 30.78125 -5.71875 C 30.78125 -5.0625 30.453125 -4.421875 29.796875 -3.796875 C 29.148438 -3.171875 28.375 -2.617188 27.46875 -2.140625 C 26.5625 -1.671875 25.644531 -1.269531 24.71875 -0.9375 C 23.789062 -0.613281 23.023438 -0.375 22.421875 -0.21875 C 20.160156 0.226562 18.226562 0.453125 16.625 0.453125 C 16.175781 0.453125 15.535156 0.398438 14.703125 0.296875 C 13.878906 0.203125 13.039062 0.0820312 12.1875 -0.0625 C 11.332031 -0.21875 10.515625 -0.394531 9.734375 -0.59375 C 8.960938 -0.800781 8.375 -1.03125 7.96875 -1.28125 C 7.769531 -1.382812 7.53125 -1.546875 7.25 -1.765625 C 6.976562 -1.992188 6.644531 -2.304688 6.25 -2.703125 C 5.238281 -3.460938 4.660156 -4.039062 4.515625 -4.4375 C 4.109375 -4.988281 3.753906 -5.628906 3.453125 -6.359375 C 3.160156 -7.085938 2.863281 -7.925781 2.5625 -8.875 L 2.25 -9.9375 L 2.25 -12.71875 C 2.25 -14.375 2.382812 -16.128906 2.65625 -17.984375 C 2.9375 -19.835938 3.628906 -21.414062 4.734375 -22.71875 C 6.347656 -24.78125 8.15625 -26.097656 10.15625 -26.671875 C 12.164062 -27.253906 14.398438 -27.546875 16.859375 -27.546875 Z M 19.1875 -21 C 18.738281 -21.144531 18.363281 -21.144531 18.0625 -21 C 17.101562 -21 16.097656 -20.847656 15.046875 -20.546875 C 14.492188 -20.296875 14.066406 -19.84375 13.765625 -19.1875 C 13.460938 -18.882812 13.363281 -18.507812 13.46875 -18.0625 C 13.46875 -17.863281 13.476562 -17.710938 13.5 -17.609375 C 13.53125 -17.503906 13.546875 -17.425781 13.546875 -17.375 C 13.546875 -17.332031 14.800781 -17.3125 17.3125 -17.3125 C 18.3125 -17.3125 19.125 -17.3125 19.75 -17.3125 C 20.375 -17.3125 20.8125 -17.332031 21.0625 -17.375 C 21.519531 -17.476562 21.847656 -17.628906 22.046875 -17.828125 C 22.296875 -18.035156 22.421875 -18.289062 22.421875 -18.59375 C 22.421875 -19.039062 22.269531 -19.460938 21.96875 -19.859375 C 21.414062 -20.460938 20.488281 -20.84375 19.1875 -21 Z M 19.1875 -21 "/></g></g></g></svg>