<svg xmlns="http://www.w3.org/2000/svg" xmlns:xlink="http://www.w3.org/1999/xlink" width="400" zoomAndPan="magnify" viewBox="0 0 300 165.000002" height="220" preserveAspectRatio="xMidYMid meet" version="1.0"><defs><clipPath id="7281f17499"><path d="M 32.445312 6.125 L 267.722656 6.125 L 267.722656 157.832031 L 32.445312 157.832031 Z M 32.445312 6.125 " clip-rule="nonzero"/></clipPath><clipPath id="a7888cb4b9"><path d="M 89.71875 23.945312 L 208.199219 23.945312 L 208.199219 142.421875 L 89.71875 142.421875 Z M 89.71875 23.945312 " clip-rule="nonzero"/></clipPath><clipPath id="5d66fcc269"><path d="M 105 34 L 208.199219 34 L 208.199219 142.421875 L 105 142.421875 Z M 105 34 " clip-rule="nonzero"/></clipPath></defs><g clip-path="url(#7281f17499)"><path fill="#99aab5" d="M 267.960938 82.003906 C 267.960938 104.78125 215.269531 157.84375 150.289062 157.84375 C 85.300781 157.84375 32.617188 111.296875 32.617188 82.003906 C 32.617188 59.160156 85.304688 6.160156 150.289062 6.160156 C 215.269531 6.160156 267.960938 59.152344 267.960938 82.003906 Z M 267.960938 82.003906 " fill-opacity="1" fill-rule="nonzero"/></g><path fill="#f5f8fa" d="M 259.398438 82.003906 C 259.398438 102.023438 210.535156 148.652344 150.28125 148.652344 C 90.023438 148.652344 41.171875 107.734375 41.171875 82.003906 C 41.171875 61.925781 90.023438 15.359375 150.28125 15.359375 C 210.535156 15.351562 259.398438 61.925781 259.398438 82.003906 Z M 259.398438 82.003906 " fill-opacity="1" fill-rule="nonzero"/><path fill="#7b9bd6" d="M 208.660156 82.003906 C 208.660156 83.914062 208.566406 85.816406 208.378906 87.71875 C 208.191406 89.617188 207.910156 91.507812 207.539062 93.378906 C 207.167969 95.253906 206.703125 97.101562 206.148438 98.929688 C 205.59375 100.757812 204.953125 102.554688 204.21875 104.320312 C 203.488281 106.082031 202.671875 107.808594 201.773438 109.492188 C 200.875 111.175781 199.890625 112.8125 198.832031 114.402344 C 197.769531 115.988281 196.632812 117.519531 195.421875 118.996094 C 194.210938 120.472656 192.929688 121.886719 191.578125 123.238281 C 190.230469 124.589844 188.816406 125.871094 187.339844 127.082031 C 185.863281 128.292969 184.332031 129.429688 182.742188 130.488281 C 181.152344 131.550781 179.519531 132.53125 177.832031 133.433594 C 176.148438 134.332031 174.425781 135.148438 172.660156 135.878906 C 170.894531 136.609375 169.097656 137.253906 167.273438 137.808594 C 165.445312 138.359375 163.59375 138.824219 161.71875 139.199219 C 159.847656 139.570312 157.960938 139.851562 156.058594 140.039062 C 154.160156 140.222656 152.253906 140.316406 150.34375 140.316406 C 148.433594 140.316406 146.527344 140.222656 144.628906 140.039062 C 142.726562 139.851562 140.839844 139.570312 138.96875 139.199219 C 137.09375 138.824219 135.242188 138.359375 133.414062 137.808594 C 131.589844 137.253906 129.792969 136.609375 128.027344 135.878906 C 126.261719 135.148438 124.539062 134.332031 122.855469 133.433594 C 121.167969 132.53125 119.535156 131.550781 117.945312 130.488281 C 116.355469 129.429688 114.824219 128.292969 113.347656 127.082031 C 111.871094 125.871094 110.457031 124.589844 109.109375 123.238281 C 107.757812 121.886719 106.476562 120.472656 105.265625 118.996094 C 104.054688 117.519531 102.917969 115.988281 101.855469 114.402344 C 100.796875 112.8125 99.8125 111.175781 98.914062 109.492188 C 98.011719 107.808594 97.199219 106.082031 96.46875 104.320312 C 95.734375 102.554688 95.09375 100.757812 94.539062 98.929688 C 93.984375 97.101562 93.519531 95.253906 93.148438 93.378906 C 92.777344 91.507812 92.496094 89.617188 92.308594 87.71875 C 92.121094 85.816406 92.027344 83.914062 92.027344 82.003906 C 92.027344 80.09375 92.121094 78.1875 92.308594 76.285156 C 92.496094 74.386719 92.777344 72.5 93.148438 70.625 C 93.519531 68.753906 93.984375 66.902344 94.539062 65.074219 C 95.09375 63.246094 95.734375 61.449219 96.46875 59.6875 C 97.199219 57.921875 98.011719 56.195312 98.914062 54.511719 C 99.8125 52.828125 100.796875 51.191406 101.855469 49.605469 C 102.917969 48.015625 104.054688 46.484375 105.265625 45.007812 C 106.476562 43.53125 107.757812 42.117188 109.109375 40.765625 C 110.457031 39.417969 111.871094 38.136719 113.347656 36.921875 C 114.824219 35.710938 116.355469 34.574219 117.945312 33.515625 C 119.535156 32.453125 121.167969 31.472656 122.855469 30.574219 C 124.539062 29.671875 126.261719 28.855469 128.027344 28.125 C 129.792969 27.394531 131.589844 26.753906 133.414062 26.199219 C 135.242188 25.644531 137.09375 25.179688 138.96875 24.808594 C 140.839844 24.433594 142.726562 24.15625 144.628906 23.96875 C 146.527344 23.78125 148.433594 23.6875 150.34375 23.6875 C 152.253906 23.6875 154.160156 23.78125 156.058594 23.96875 C 157.960938 24.15625 159.847656 24.433594 161.71875 24.808594 C 163.59375 25.179688 165.445312 25.644531 167.273438 26.199219 C 169.097656 26.753906 170.894531 27.394531 172.660156 28.125 C 174.425781 28.855469 176.148438 29.671875 177.832031 30.574219 C 179.519531 31.472656 181.152344 32.453125 182.742188 33.515625 C 184.332031 34.574219 185.863281 35.710938 187.339844 36.921875 C 188.816406 38.136719 190.230469 39.417969 191.578125 40.765625 C 192.929688 42.117188 194.210938 43.53125 195.421875 45.007812 C 196.632812 46.484375 197.769531 48.015625 198.832031 49.605469 C 199.890625 51.191406 200.875 52.828125 201.773438 54.511719 C 202.671875 56.195312 203.488281 57.921875 204.21875 59.6875 C 204.953125 61.449219 205.59375 63.246094 206.148438 65.074219 C 206.703125 66.902344 207.167969 68.753906 207.539062 70.625 C 207.910156 72.5 208.191406 74.386719 208.378906 76.285156 C 208.566406 78.1875 208.660156 80.09375 208.660156 82.003906 Z M 208.660156 82.003906 " fill-opacity="1" fill-rule="nonzero"/><path fill="#292f33" d="M 182.804688 82.003906 C 182.804688 83.066406 182.753906 84.125 182.648438 85.183594 C 182.542969 86.242188 182.386719 87.292969 182.179688 88.335938 C 181.972656 89.378906 181.714844 90.40625 181.40625 91.425781 C 181.097656 92.441406 180.738281 93.441406 180.332031 94.425781 C 179.925781 95.40625 179.472656 96.367188 178.972656 97.304688 C 178.46875 98.242188 177.925781 99.152344 177.332031 100.035156 C 176.742188 100.921875 176.109375 101.773438 175.4375 102.59375 C 174.761719 103.417969 174.046875 104.203125 173.296875 104.957031 C 172.546875 105.707031 171.757812 106.421875 170.9375 107.09375 C 170.113281 107.769531 169.261719 108.402344 168.378906 108.992188 C 167.492188 109.582031 166.582031 110.128906 165.644531 110.628906 C 164.707031 111.132812 163.746094 111.585938 162.765625 111.992188 C 161.785156 112.398438 160.785156 112.757812 159.765625 113.066406 C 158.75 113.375 157.71875 113.632812 156.675781 113.839844 C 155.632812 114.046875 154.582031 114.203125 153.527344 114.304688 C 152.46875 114.410156 151.40625 114.460938 150.34375 114.460938 C 149.28125 114.460938 148.21875 114.410156 147.160156 114.304688 C 146.105469 114.203125 145.054688 114.046875 144.011719 113.839844 C 142.96875 113.632812 141.9375 113.375 140.921875 113.066406 C 139.902344 112.757812 138.902344 112.398438 137.921875 111.992188 C 136.941406 111.585938 135.980469 111.132812 135.042969 110.628906 C 134.105469 110.128906 133.195312 109.582031 132.308594 108.992188 C 131.425781 108.402344 130.574219 107.769531 129.75 107.09375 C 128.929688 106.421875 128.140625 105.707031 127.390625 104.957031 C 126.640625 104.203125 125.925781 103.417969 125.25 102.59375 C 124.578125 101.773438 123.945312 100.921875 123.355469 100.035156 C 122.761719 99.152344 122.21875 98.242188 121.714844 97.304688 C 121.214844 96.367188 120.761719 95.40625 120.355469 94.425781 C 119.949219 93.441406 119.589844 92.441406 119.28125 91.425781 C 118.972656 90.40625 118.714844 89.378906 118.507812 88.335938 C 118.300781 87.292969 118.144531 86.242188 118.039062 85.183594 C 117.933594 84.125 117.882812 83.066406 117.882812 82.003906 C 117.882812 80.9375 117.933594 79.878906 118.039062 78.820312 C 118.144531 77.761719 118.300781 76.710938 118.507812 75.667969 C 118.714844 74.625 118.972656 73.597656 119.28125 72.578125 C 119.589844 71.5625 119.949219 70.5625 120.355469 69.582031 C 120.761719 68.597656 121.214844 67.636719 121.714844 66.699219 C 122.21875 65.761719 122.761719 64.851562 123.355469 63.96875 C 123.945312 63.085938 124.578125 62.230469 125.25 61.410156 C 125.925781 60.585938 126.640625 59.800781 127.390625 59.050781 C 128.140625 58.296875 128.929688 57.585938 129.75 56.910156 C 130.574219 56.234375 131.425781 55.601562 132.308594 55.011719 C 133.195312 54.421875 134.105469 53.875 135.042969 53.375 C 135.980469 52.875 136.941406 52.417969 137.921875 52.011719 C 138.902344 51.605469 139.902344 51.25 140.921875 50.941406 C 141.9375 50.632812 142.96875 50.375 144.011719 50.164062 C 145.054688 49.957031 146.105469 49.800781 147.160156 49.699219 C 148.21875 49.59375 149.28125 49.542969 150.34375 49.542969 C 151.40625 49.542969 152.46875 49.59375 153.527344 49.699219 C 154.582031 49.800781 155.632812 49.957031 156.675781 50.164062 C 157.71875 50.375 158.75 50.632812 159.765625 50.941406 C 160.785156 51.25 161.785156 51.605469 162.765625 52.011719 C 163.746094 52.417969 164.707031 52.875 165.644531 53.375 C 166.582031 53.875 167.492188 54.421875 168.378906 55.011719 C 169.261719 55.601562 170.113281 56.234375 170.9375 56.910156 C 171.757812 57.585938 172.546875 58.296875 173.296875 59.050781 C 174.046875 59.800781 174.761719 60.585938 175.4375 61.410156 C 176.109375 62.230469 176.742188 63.085938 177.332031 63.96875 C 177.925781 64.851562 178.46875 65.761719 178.972656 66.699219 C 179.472656 67.636719 179.925781 68.597656 180.332031 69.582031 C 180.738281 70.5625 181.097656 71.5625 181.40625 72.578125 C 181.714844 73.597656 181.972656 74.625 182.179688 75.667969 C 182.386719 76.710938 182.542969 77.761719 182.648438 78.820312 C 182.753906 79.878906 182.804688 80.9375 182.804688 82.003906 Z M 182.804688 82.003906 " fill-opacity="1" fill-rule="nonzero"/><path fill="#f5f8fa" d="M 184.816406 61.316406 C 184.816406 62.222656 184.730469 63.121094 184.550781 64.007812 C 184.375 64.894531 184.113281 65.757812 183.769531 66.59375 C 183.421875 67.429688 182.996094 68.226562 182.492188 68.980469 C 181.992188 69.730469 181.417969 70.429688 180.777344 71.070312 C 180.136719 71.707031 179.441406 72.28125 178.6875 72.785156 C 177.9375 73.285156 177.140625 73.710938 176.304688 74.058594 C 175.46875 74.40625 174.605469 74.664062 173.71875 74.84375 C 172.828125 75.019531 171.933594 75.109375 171.027344 75.109375 C 170.121094 75.109375 169.226562 75.019531 168.335938 74.84375 C 167.449219 74.664062 166.585938 74.40625 165.75 74.058594 C 164.914062 73.710938 164.121094 73.285156 163.367188 72.785156 C 162.613281 72.28125 161.917969 71.707031 161.277344 71.070312 C 160.636719 70.429688 160.066406 69.730469 159.5625 68.980469 C 159.058594 68.226562 158.632812 67.429688 158.289062 66.59375 C 157.941406 65.757812 157.679688 64.894531 157.503906 64.007812 C 157.328125 63.121094 157.238281 62.222656 157.238281 61.316406 C 157.238281 60.414062 157.328125 59.515625 157.503906 58.628906 C 157.679688 57.738281 157.941406 56.878906 158.289062 56.042969 C 158.632812 55.203125 159.058594 54.410156 159.5625 53.65625 C 160.066406 52.902344 160.636719 52.207031 161.277344 51.566406 C 161.917969 50.925781 162.613281 50.355469 163.367188 49.851562 C 164.121094 49.347656 164.914062 48.925781 165.75 48.578125 C 166.585938 48.230469 167.449219 47.96875 168.335938 47.792969 C 169.226562 47.617188 170.121094 47.527344 171.027344 47.527344 C 171.933594 47.527344 172.828125 47.617188 173.71875 47.792969 C 174.605469 47.96875 175.46875 48.230469 176.304688 48.578125 C 177.140625 48.925781 177.9375 49.347656 178.6875 49.851562 C 179.441406 50.355469 180.136719 50.925781 180.777344 51.566406 C 181.417969 52.207031 181.992188 52.902344 182.492188 53.65625 C 182.996094 54.410156 183.421875 55.203125 183.769531 56.042969 C 184.113281 56.878906 184.375 57.738281 184.550781 58.628906 C 184.730469 59.515625 184.816406 60.414062 184.816406 61.316406 Z M 184.816406 61.316406 " fill-opacity="1" fill-rule="nonzero"/><g clip-path="url(#a7888cb4b9)"><path fill="#5780c0" d="M 208.058594 83.113281 C 208.058594 85.050781 207.960938 86.984375 207.773438 88.914062 C 207.582031 90.839844 207.296875 92.757812 206.921875 94.65625 C 206.542969 96.558594 206.070312 98.433594 205.507812 100.289062 C 204.945312 102.144531 204.292969 103.964844 203.554688 105.757812 C 202.8125 107.546875 201.984375 109.296875 201.070312 111.003906 C 200.15625 112.714844 199.160156 114.375 198.085938 115.984375 C 197.007812 117.597656 195.855469 119.152344 194.625 120.648438 C 193.398438 122.148438 192.097656 123.582031 190.726562 124.953125 C 189.355469 126.320312 187.921875 127.621094 186.425781 128.851562 C 184.925781 130.082031 183.371094 131.234375 181.761719 132.308594 C 180.148438 133.386719 178.488281 134.382812 176.78125 135.296875 C 175.070312 136.207031 173.320312 137.035156 171.53125 137.777344 C 169.742188 138.519531 167.917969 139.171875 166.0625 139.734375 C 164.210938 140.296875 162.332031 140.765625 160.433594 141.144531 C 158.53125 141.523438 156.617188 141.808594 154.6875 141.996094 C 152.757812 142.1875 150.828125 142.28125 148.886719 142.28125 C 146.949219 142.28125 145.019531 142.1875 143.089844 141.996094 C 141.160156 141.808594 139.246094 141.523438 137.34375 141.144531 C 135.445312 140.765625 133.566406 140.296875 131.714844 139.734375 C 129.859375 139.171875 128.035156 138.519531 126.246094 137.777344 C 124.457031 137.035156 122.707031 136.207031 120.996094 135.296875 C 119.289062 134.382812 117.628906 133.386719 116.015625 132.308594 C 114.40625 131.234375 112.851562 130.082031 111.351562 128.851562 C 109.855469 127.621094 108.421875 126.320312 107.050781 124.953125 C 105.679688 123.582031 104.378906 122.148438 103.152344 120.648438 C 101.921875 119.152344 100.769531 117.597656 99.691406 115.984375 C 98.617188 114.375 97.621094 112.714844 96.707031 111.003906 C 95.792969 109.296875 94.964844 107.546875 94.222656 105.757812 C 93.484375 103.964844 92.832031 102.144531 92.269531 100.289062 C 91.707031 98.433594 91.234375 96.558594 90.855469 94.65625 C 90.480469 92.757812 90.195312 90.839844 90.003906 88.914062 C 89.816406 86.984375 89.71875 85.050781 89.71875 83.113281 C 89.71875 81.175781 89.816406 79.242188 90.003906 77.3125 C 90.195312 75.386719 90.480469 73.472656 90.855469 71.570312 C 91.234375 69.671875 91.707031 67.792969 92.269531 65.9375 C 92.832031 64.082031 93.484375 62.261719 94.222656 60.472656 C 94.964844 58.679688 95.792969 56.929688 96.707031 55.222656 C 97.621094 53.511719 98.617188 51.851562 99.691406 50.242188 C 100.769531 48.628906 101.921875 47.074219 103.152344 45.578125 C 104.378906 44.078125 105.679688 42.644531 107.050781 41.277344 C 108.421875 39.90625 109.855469 38.605469 111.351562 37.375 C 112.851562 36.148438 114.40625 34.992188 116.015625 33.917969 C 117.628906 32.839844 119.289062 31.84375 120.996094 30.933594 C 122.707031 30.019531 124.457031 29.191406 126.246094 28.449219 C 128.035156 27.707031 129.859375 27.054688 131.714844 26.492188 C 133.566406 25.929688 135.445312 25.460938 137.34375 25.082031 C 139.246094 24.703125 141.160156 24.421875 143.089844 24.230469 C 145.019531 24.039062 146.949219 23.945312 148.886719 23.945312 C 150.828125 23.945312 152.757812 24.039062 154.6875 24.230469 C 156.617188 24.421875 158.53125 24.703125 160.433594 25.082031 C 162.332031 25.460938 164.210938 25.929688 166.0625 26.492188 C 167.917969 27.054688 169.742188 27.707031 171.53125 28.449219 C 173.320312 29.191406 175.070312 30.019531 176.78125 30.933594 C 178.488281 31.84375 180.148438 32.839844 181.761719 33.917969 C 183.371094 34.992188 184.925781 36.148438 186.425781 37.375 C 187.921875 38.605469 189.355469 39.90625 190.726562 41.277344 C 192.097656 42.644531 193.398438 44.078125 194.625 45.578125 C 195.855469 47.074219 197.007812 48.628906 198.085938 50.242188 C 199.160156 51.851562 200.15625 53.511719 201.070312 55.222656 C 201.984375 56.929688 202.8125 58.679688 203.554688 60.472656 C 204.292969 62.261719 204.945312 64.082031 205.507812 65.9375 C 206.070312 67.792969 206.542969 69.671875 206.921875 71.570312 C 207.296875 73.472656 207.582031 75.386719 207.773438 77.3125 C 207.960938 79.242188 208.058594 81.175781 208.058594 83.113281 Z M 208.058594 83.113281 " fill-opacity="1" fill-rule="nonzero"/></g><g clip-path="url(#5d66fcc269)"><path fill="#013b6f" d="M 208.058594 83.113281 C 208.058594 115.792969 181.566406 142.28125 148.886719 142.28125 C 131.554688 142.28125 115.964844 134.832031 105.144531 122.957031 C 114.609375 129.378906 126.03125 133.132812 138.328125 133.132812 C 171.007812 133.132812 197.496094 106.640625 197.496094 73.960938 C 197.496094 58.617188 191.65625 44.636719 182.074219 34.121094 C 197.753906 44.761719 208.058594 62.734375 208.058594 83.113281 Z M 208.058594 83.113281 " fill-opacity="1" fill-rule="nonzero"/></g><path fill="#ffffff" d="M 132.898438 110.894531 C 132.042969 110.890625 131.222656 110.730469 130.429688 110.410156 C 129.636719 110.089844 128.933594 109.636719 128.3125 109.046875 C 127.664062 108.425781 127.167969 107.703125 126.816406 106.878906 C 126.464844 106.054688 126.292969 105.191406 126.296875 104.296875 L 126.296875 61.933594 C 126.292969 61.035156 126.464844 60.175781 126.816406 59.347656 C 127.167969 58.523438 127.664062 57.800781 128.3125 57.183594 C 128.933594 56.59375 129.636719 56.140625 130.429688 55.820312 C 131.222656 55.5 132.042969 55.335938 132.898438 55.332031 C 134.074219 55.335938 135.167969 55.632812 136.1875 56.222656 L 172.875 77.40625 C 173.378906 77.695312 173.832031 78.042969 174.242188 78.453125 C 174.652344 78.863281 175 79.316406 175.289062 79.816406 C 175.578125 80.320312 175.796875 80.847656 175.949219 81.40625 C 176.097656 81.964844 176.171875 82.535156 176.171875 83.113281 C 176.171875 83.691406 176.097656 84.261719 175.949219 84.820312 C 175.796875 85.378906 175.578125 85.910156 175.289062 86.410156 C 175 86.910156 174.652344 87.367188 174.242188 87.773438 C 173.832031 88.183594 173.378906 88.535156 172.875 88.824219 L 136.1875 110.003906 C 135.167969 110.59375 134.074219 110.890625 132.898438 110.894531 Z M 132.898438 110.894531 " fill-opacity="1" fill-rule="nonzero"/></svg>